<?xml version="1.0" encoding="UTF-8"?>
<svg id="_レイヤー_2" data-name="レイヤー 2" xmlns="http://www.w3.org/2000/svg" viewBox="0 0 438.69 65.66">
  <defs>
    <style>
      .cls-1 {
        fill: #fff;
        stroke-width: 0px;
      }
    </style>
  </defs>
  <g id="_コンテンツ" data-name="コンテンツ">
    <g>
      <path class="cls-1" d="M1.8,65.64c-1.15.1-1.75-.16-1.8-.78l.05-.29c.03-.24.16-.74.41-1.48s.58-1.74,1-2.98c.76-2.33,1.75-5.09,2.96-8.28,2.03-5.48,3.93-10.44,5.71-14.88,1.78-4.44,3.44-8.35,4.97-11.71-.58.53-1.27,1.23-2.06,2.1-.79.86-1.74,1.88-2.84,3.03-.09.1-.23.16-.42.18-.29.02-.66-.06-1.11-.26-.45-.2-.69-.42-.71-.66-.04-.48,1.27-2.06,3.92-4.75l4.79-4.68,1.75-2.32c.87-1.09,1.65-2.12,2.33-3.09.69-.97,1.28-1.87,1.79-2.69l.42-.18c.33-.03.74.13,1.2.47.46.35.71.69.74,1.02l-.06.15c-.28.65-.65,1.35-1.12,2.09-.47.74-1.07,1.55-1.81,2.44-.27.26-.64.71-1.11,1.33-.09.1-.54.96-1.36,2.58-.78,1.56-1.52,3.11-2.23,4.64-.71,1.53-1.4,3.1-2.08,4.7-2.16,5.01-4.07,9.69-5.71,14.05-1.64,4.36-3.05,8.4-4.22,12.11-.34,1.04-.79,2.6-1.33,4.67-.02.34-.06.66-.13.95-.07.3-.14.59-.21.89-.13.73-.42,1.24-.88,1.52-.14.06-.42.11-.85.15Z"/>
      <path class="cls-1" d="M36.03,62.87c-2.82.25-5.42-.25-7.79-1.49-2.37-1.24-4.3-3.01-5.78-5.31-1.48-2.3-2.34-4.89-2.59-7.76-.05-.62-.07-1.21-.05-1.77.02-.56.06-1.08.12-1.56,1.82-12.74,7.6-22.15,17.33-28.26,4.07-2.52,7.58-3.92,10.55-4.18,2.44-.21,4.83.11,7.17.96,2.34.86,4.49,2.11,6.44,3.77,1.95,1.66,3.54,3.58,4.77,5.76,1.23,2.18,1.95,4.49,2.16,6.93.07.77.09,1.53.06,2.31-.03.77-.1,1.58-.22,2.4-.45,2.59-1.64,5.49-3.58,8.7-1.43,2.34-3.12,4.55-5.06,6.62-1.94,2.07-4.11,3.99-6.51,5.74-5.12,3.72-10.24,6.05-15.36,6.98v-.07c-.19.06-.42.11-.68.13-.26.02-.59.05-.97.08ZM35.83,60.57c2.82-.25,5.8-1.16,8.94-2.73,3.14-1.58,6.15-3.6,9.05-6.07,2.89-2.47,5.32-5.19,7.27-8.15,3.28-4.86,4.74-9.45,4.36-13.75-.18-2.1-.78-4.1-1.79-5.99-1.01-1.89-2.31-3.53-3.9-4.93-1.59-1.4-3.36-2.48-5.3-3.22-1.94-.74-3.97-1.03-6.07-.84-2.82.25-6.06,1.52-9.71,3.81-9.18,5.81-14.56,14.81-16.14,27-.05.54-.09,1.06-.12,1.56-.03.51-.02,1.03.03,1.55.21,2.44.92,4.58,2.12,6.43,1.2,1.85,2.76,3.25,4.71,4.21,1.94.96,4.13,1.34,6.57,1.12Z"/>
      <path class="cls-1" d="M74.41,62.9c-.91.08-1.42-.6-1.55-2.03-.18-2.1.68-5.89,2.58-11.36,1.91-5.47,4.83-12.66,8.77-21.58-1.82.16-3.51.54-5.07,1.13-1.56.6-2.36,1.23-2.4,1.91-.03.2-.12.38-.28.57-.15.18-.4.29-.73.32-.77.07-1.18-.28-1.25-1.05-.11-1.24.78-2.36,2.67-3.34,1.89-.98,4.6-1.63,8.14-1.94l4.23-8.61c.29-.55.6-1.17.92-1.85.33-.68.69-1.42,1.11-2.23.42-.71.94-1.09,1.56-1.15.38-.03.68.05.89.25.21.2.33.42.35.66.06.72-.82,2.72-2.65,6.01-2.29,4.1-3.52,6.33-3.68,6.68.72-.06,1.8-.1,3.24-.1,1.45,0,3.16.03,5.14.09.72-.01,1.11.31,1.17.98.07.77-.33,1.19-1.19,1.26-.33.03-1.01.03-2.02,0-1.01-.03-2.1-.04-3.26-.04-1.16,0-2.14.07-2.95.19l-1.07.17c-8.21,17.92-12.11,28.96-11.7,33.11l.12.57v.14c.08.76-.29,1.18-1.11,1.25Z"/>
      <path class="cls-1" d="M89.59,57.89c-.77.07-1.18-.28-1.25-1.05-.09-1,.13-2.62.66-4.86.53-2.24,1.25-4.83,2.17-7.78.92-2.95,1.92-5.99,3-9.12.62-1.74,1.26-3.45,1.94-5.12.67-1.67,1.32-3.14,1.93-4.4,6.03-12.57,9.91-18.94,11.63-19.09.67-.06,1.04.25,1.09.92.04.43-.22,1.26-.76,2.49-.54,1.23-1.26,2.67-2.15,4.31-.89,1.64-1.86,3.31-2.89,4.99-1.03,1.68-2.01,3.22-2.92,4.63-.91,1.41-1.65,2.47-2.21,3.19-.47.67-.98,1.63-1.52,2.88-.54,1.25-1.07,2.54-1.58,3.86-.51,1.32-.92,2.48-1.21,3.47l-2.14,6.98c.63-1.02,1.47-2.18,2.52-3.47,2.46-3.25,5.09-5.78,7.9-7.59,2.81-1.81,5.21-2.8,7.22-2.98,1.1-.1,2.01.16,2.74.77.73.61,1.13,1.39,1.22,2.35.16,1.86-.78,5.1-2.84,9.72-2.06,4.57-3.04,7.35-2.96,8.35.05.53.36.76.93.71,1.34-.12,2.75-.73,4.25-1.85,1.49-1.12,3.01-2.52,4.55-4.19,1.54-1.68,3.03-3.35,4.48-5.02.17-.21.45-.33.84-.36.72-.06,1.1.19,1.15.77.05.53-.24,1.15-.85,1.88-2.92,3.48-5.46,6.12-7.62,7.89-2.16,1.78-4.5,2.78-7.04,3-1.91.17-2.95-.63-3.1-2.4-.06-.67,0-1.32.19-1.97.18-.64.49-1.51.93-2.61l2.73-6.82c.67-1.7,1.15-3.11,1.44-4.25.29-1.13.41-1.99.35-2.56-.07-.81-.61-1.18-1.61-1.09-1.77.16-3.78,1.04-6.02,2.66-2.24,1.62-4.58,3.95-7.01,7.01-1.39,1.76-2.61,3.6-3.67,5.52-1.06,1.92-1.86,3.97-2.39,6.14l-.64,2.59c-.26.94-.74,1.44-1.46,1.5Z"/>
      <path class="cls-1" d="M135.82,56.81c-.81.07-1.25-.28-1.32-1.04-.03-.29-.02-.48.02-.58,1.43-4.03,5.73-10.23,12.9-18.62-.24.07-.45.12-.64.16-.19.04-.33.06-.43.07-.81.07-1.26-.35-1.34-1.26-.05-.53.33-.9,1.13-1.11.47-.14.98-.27,1.52-.39.54-.12,1.24-.31,2.08-.58,5.26-6.53,10.39-12.2,15.39-16.99,5-4.8,9.84-8.8,14.52-12,.41-.28.77-.51,1.09-.71.32-.2.6-.31.84-.33.57-.05.89.31.96,1.07.13,1.43-.88,6.49-3.01,15.15l-2.35,9.53c1.24-.11,1.9.22,1.96.98.08.86-.7,1.36-2.33,1.5-.69,2.57-1.3,5.38-1.83,8.44-.53,3.06-.92,6.19-1.17,9.39-.1,1.02-.49,1.56-1.16,1.62-.81.07-1.26-.32-1.33-1.18-.01-.14,0-.46.06-.94.05-.49.14-1.12.27-1.9.33-2.82.64-5.16.94-7.02.29-1.86.57-3.43.81-4.73.25-1.3.47-2.49.66-3.56-8.78.96-16.47,2.28-23.07,3.97-1.74,2.13-3.2,3.93-4.37,5.41-1.17,1.48-2.04,2.58-2.6,3.3-2.59,3.41-4.64,6.48-6.13,9.21-.12.25-.27.58-.46.98-.18.4-.42.88-.7,1.44-.15.45-.47.69-.95.73ZM153.72,32.55c2.74-.62,5.84-1.2,9.32-1.72,3.47-.52,7.38-1.02,11.72-1.5.52-2.26,1.06-4.46,1.59-6.61.54-2.14,1.05-4.2,1.56-6.17.63-2.17,1.43-5.42,2.4-9.75-5.27,3.69-10.11,7.68-14.53,11.97-4.42,4.29-8.44,8.88-12.06,13.78Z"/>
      <path class="cls-1" d="M185.02,50.05c-.77.07-1.17-.21-1.23-.83-.02-.24.05-.55.21-.92.16-.38.3-.69.42-.94l5.32-13.55c2.28-5.88,3.39-9.14,3.34-9.76-.06-.67.25-1.03.92-1.09.91-.08,1.41.36,1.49,1.32.03.33-.12,1.07-.46,2.21-.33,1.14-.78,2.43-1.32,3.87-.93,2.59-1.72,4.58-2.37,5.99,1.29-1.8,2.61-3.5,3.96-5.12,1.35-1.61,2.74-3.15,4.15-4.63,4.2-4.37,7.51-6.66,9.95-6.87,1.67-.15,2.58.57,2.72,2.15.12,1.43-.81,4.77-2.81,10-2,5.28-2.93,8.59-2.82,9.93.05.62.3.91.73.88.14-.01.36-.09.67-.24.3-.15.62-.23.95-.26.81-.07,1.25.28,1.32,1.04.08.96-.9,1.52-2.96,1.7-.96.08-1.67-.08-2.14-.5-.47-.42-.74-1.01-.81-1.77-.2-2.3.67-5.89,2.6-10.78,1.94-4.84,2.87-7.74,2.78-8.7-.05-.57-.29-.84-.72-.8-1.05.09-2.67,1.13-4.86,3.1-2.37,2.13-4.71,4.56-7.03,7.26-2.32,2.71-4.48,5.76-6.5,9.17l-4.41,7.4c-.25.46-.61.7-1.09.75Z"/>
      <path class="cls-1" d="M213.5,47.56c-.77.07-1.17-.21-1.23-.83-.02-.24.05-.55.21-.92.16-.38.3-.69.42-.94l5.32-13.55c2.28-5.88,3.39-9.14,3.34-9.76-.06-.67.25-1.03.92-1.09.91-.08,1.4.36,1.49,1.32.03.34-.12,1.07-.46,2.21-.33,1.14-.78,2.43-1.32,3.87-.93,2.59-1.72,4.58-2.37,5.99,1.29-1.8,2.61-3.5,3.96-5.12,1.35-1.61,2.74-3.15,4.15-4.63,4.2-4.37,7.51-6.66,9.95-6.87,1.67-.15,2.58.57,2.72,2.15.12,1.43-.81,4.77-2.81,10-2,5.28-2.93,8.59-2.82,9.93.05.62.3.91.73.88.14-.01.37-.09.67-.24.3-.15.62-.23.95-.26.81-.07,1.25.28,1.32,1.04.08.96-.9,1.52-2.96,1.7-.96.08-1.67-.08-2.14-.5-.47-.42-.74-1.01-.81-1.77-.2-2.3.67-5.89,2.6-10.78,1.94-4.84,2.86-7.74,2.78-8.7-.05-.57-.29-.84-.72-.8-1.05.09-2.67,1.13-4.86,3.1-2.37,2.14-4.71,4.56-7.03,7.26-2.32,2.71-4.48,5.77-6.5,9.17l-4.41,7.4c-.25.46-.61.7-1.09.75Z"/>
      <path class="cls-1" d="M247.62,43.56c-1.34.12-2.33-.06-2.97-.54-.64-.47-1.01-1.24-1.1-2.29-.09-1,.1-2.41.57-4.21.47-1.8,1.11-3.75,1.91-5.84.8-2.09,1.68-4.1,2.62-6.01.94-1.91,1.88-3.5,2.8-4.76.93-1.26,1.7-1.92,2.32-1.97.86-.08,1.32.27,1.39,1.03.04.48-.29,1.42-.98,2.83-.7,1.41-1.46,2.87-2.29,4.39-.34.56-.8,1.32-1.39,2.29-.59.97-1.16,1.87-1.71,2.72-.55.84-.91,1.42-1.08,1.72-.42.76-.81,1.98-1.2,3.65-.43,1.68-.61,2.94-.53,3.8.03.38.14.66.33.84.18.18.59.24,1.21.18,1.19-.1,2.5-.6,3.92-1.5,1.42-.89,2.84-1.99,4.26-3.3,1.43-1.31,2.77-2.64,4.02-4,1.25-1.36,2.32-2.54,3.2-3.53.17-.21.45-.33.84-.36.72-.06,1.1.19,1.15.77.05.53-.24,1.15-.85,1.88-1.18,1.4-2.27,2.66-3.29,3.76-1.01,1.1-1.99,2.08-2.92,2.93-1.48,1.29-3.13,2.49-4.96,3.61-1.83,1.12-3.58,1.76-5.25,1.91ZM257.27,13.44c-.81.07-1.25-.3-1.33-1.11-.02-.24.11-.7.39-1.37.28-.67.6-1.36.97-2.07.37-.71.67-1.19.89-1.45.73-.98,1.32-1.61,1.75-1.89.43-.28.84-.44,1.22-.47,1-.09,1.55.32,1.62,1.23.03.34-.14.75-.51,1.24-.37.49-.8.95-1.29,1.38-.72.55-1.17.97-1.33,1.27l-1.38,2.36c-.03.2-.12.38-.28.57-.15.18-.4.29-.73.32Z"/>
      <path class="cls-1" d="M266.05,41.87c-.57.05-.88-.14-.92-.57-.88-1.27-1.5-3.99-1.87-8.15-.09-1-.13-2.35-.14-4.04,0-1.69.03-3.45.12-5.29.08-1.84.2-3.52.35-5.05.15-1.53.37-2.65.65-3.34.24-.6.57-.92,1-.95.76-.07,1.17.21,1.23.83.03.33,0,.66-.06.98-.07.32-.13.7-.19,1.14-.41,2.45-.68,5.02-.8,7.73-.12,2.71-.06,5.47.18,8.3.11,1.29.27,2.43.48,3.43.21.99.41,1.84.62,2.55,1.29-.64,2.68-1.81,4.17-3.51,1.49-1.7,2.91-3.57,4.28-5.61,1.1-1.69,2.1-3.39,2.99-5.1.89-1.71,1.56-3.32,2.04-4.8.47-1.49.67-2.68.59-3.59-.05-.62-.15-1.05-.29-1.28-.14-.23-.29-.41-.45-.54-.16-.13-.25-.39-.28-.77-.06-.72.26-1.11.98-1.17.48-.04.94.28,1.39.96.44.68.72,1.58.81,2.68.3,3.4-1.65,8.36-5.85,14.89-4.34,6.6-8.01,10.02-11.02,10.29Z"/>
      <path class="cls-1" d="M292.28,40.16c-2.01.18-3.65-.38-4.92-1.67-1.27-1.29-1.99-2.93-2.17-4.94-.3-3.44.54-7.08,2.51-10.92.53-1.06,1.16-2.11,1.89-3.16.73-1.05,1.53-2.07,2.41-3.07,1.31-1.51,2.72-2.79,4.22-3.84,1.5-1.05,2.99-1.63,4.47-1.76,2.44-.21,3.76.83,3.96,3.12.25,2.87-1.2,5.62-4.34,8.26-2.92,2.38-5.89,3.7-8.9,3.96-.53.05-1,.05-1.41.01-.41-.04-.79-.09-1.13-.15-.4.95-.73,2.16-.98,3.63-.26,1.47-.34,2.73-.25,3.78.28,3.16,1.8,4.61,4.57,4.37,2.25-.2,4.34-.78,6.28-1.74,1.94-.96,4.2-2.67,6.78-5.11,1.6-1.49,2.8-2.68,3.59-3.57.79-.89,1.65-1.83,2.57-2.83.27-.22.52-.33.76-.36.24-.02.48.03.74.15.25.12.39.33.42.61.05.53-.37,1.31-1.24,2.35-.75.84-1.54,1.71-2.37,2.63-.84.92-2.17,2.2-4,3.85-1.96,1.81-4.15,3.28-6.55,4.4-2.41,1.13-4.71,1.79-6.91,1.98ZM290.78,23.88c1.53-.13,2.97-.5,4.31-1.1,1.34-.6,2.6-1.41,3.76-2.43,2.59-2.3,3.81-4.36,3.65-6.17-.07-.81-.61-1.18-1.61-1.09-1.91.17-4.03,1.53-6.36,4.1-1.14,1.26-2.07,2.39-2.78,3.39s-1.35,2.08-1.92,3.24c.3.07.61.09.95.06Z"/>
      <path class="cls-1" d="M307.89,39.3c-.77.07-1.17-.21-1.23-.83-.02-.29.03-.58.18-.88.14-.3.25-.55.33-.75l5.37-13.77c2.28-5.88,3.39-9.14,3.34-9.76-.06-.67.25-1.03.92-1.09.91-.08,1.4.34,1.48,1.24.04.48-.11,1.26-.45,2.35-.34,1.09-.78,2.36-1.33,3.8-.93,2.59-1.72,4.58-2.37,5.99,1.29-1.8,2.61-3.5,3.96-5.12,1.35-1.61,2.73-3.15,4.15-4.63,4.2-4.37,7.51-6.66,9.95-6.87,1.67-.15,2.58.57,2.72,2.15.13,1.53-.3,2.34-1.31,2.43-.48.04-.87-.33-1.18-1.13-.19-.56-.55-.82-1.08-.77-.81.07-2.32,1.09-4.5,3.07-2.42,2.14-4.81,4.64-7.19,7.49-2.38,2.86-4.84,6.45-7.41,10.77l-3.15,5.33c-.17.26-.33.47-.49.66-.15.18-.4.29-.73.32Z"/>
      <path class="cls-1" d="M334.91,37.51c-2.68.23-4.09-.53-4.25-2.3-.1-1.1.2-2.23.9-3.4.69-1.17,1.55-2.26,2.57-3.26,1.02-1,1.99-1.79,2.9-2.35.27-.17.66-.35,1.14-.53.49-.19.9-.3,1.24-.33.38-.03.59.09.61.38.02.24-.22.52-.72.86-2.11,1.24-3.71,2.65-4.8,4.21-1.09,1.57-1.6,2.8-1.52,3.71.08.86.85,1.23,2.34,1.1,1.24-.11,2.57-.54,3.97-1.29,1.4-.75,2.72-1.68,3.95-2.8,1.23-1.12,2.22-2.29,2.98-3.51.76-1.22,1.09-2.36,1-3.41-.06-.72-.35-1.34-.85-1.88-.5-.53-1.27-.9-2.3-1.1l-4.86-1.02c-1.23-.28-2.13-.7-2.71-1.28-.58-.58-.9-1.25-.97-2.01-.12-1.43.3-2.77,1.28-4.01.98-1.24,2.25-2.27,3.81-3.08,1.57-.81,3.12-1.28,4.65-1.42,1.53-.13,2.9.12,4.11.76,1.21.64,1.87,1.58,1.98,2.83.06.72-.08,1.41-.43,2.06-.35.66-.79,1.01-1.32,1.05-.81.07-1.25-.23-1.31-.9-.02-.24.08-.55.32-.93.23-.38.33-.74.3-1.07-.13-1.43-1.29-2.06-3.49-1.86-1.2.1-2.36.46-3.49,1.06-1.13.6-2.04,1.35-2.73,2.23-.69.88-1,1.8-.92,2.75.08.96,1.11,1.64,3.07,2.04l4.72,1.03c1.42.31,2.43.81,3.02,1.51.59.7.93,1.5,1.01,2.41.19,2.15-.93,4.49-3.36,7.02-3.93,4.15-7.87,6.4-11.84,6.75Z"/>
      <path class="cls-1" d="M358.65,33.77c-2.77.24-4.27-.95-4.5-3.58-.15-1.72.11-3.61.77-5.67.66-2.06,1.63-4.09,2.9-6.11,1.27-2.01,2.72-3.88,4.35-5.58,1.63-1.71,3.34-3.11,5.12-4.21,1.78-1.1,3.54-1.72,5.26-1.87,3.06-.27,4.72,1.1,4.99,4.12.17,1.96-.22,2.98-1.18,3.07-.86.08-1.33-.29-1.4-1.11-.03-.33.02-.69.16-1.06.13-.37.19-.78.15-1.21-.12-1.34-1.08-1.93-2.9-1.77-2.92.26-6.38,2.8-10.39,7.63-.96,1.19-1.87,2.57-2.75,4.14-.87,1.57-1.57,3.14-2.08,4.7-.51,1.56-.71,3.01-.59,4.35.11,1.29.89,1.87,2.32,1.75,1.24-.11,2.54-.61,3.88-1.5,1.34-.89,2.5-1.78,3.49-2.69,1.97-1.76,3.93-4.1,5.89-7.02.3-.41.69-.95,1.16-1.62.47-.67,1.01-1.41,1.61-2.24.22-.26.49-.4.83-.43.76-.07,1.18.28,1.25,1.05l-2.37,4.33c-1.58,2.84-2.3,5.12-2.15,6.84.11,1.24.76,1.81,1.96,1.71,1-.09,2.08-.45,3.23-1.08,1.15-.63,2.08-1.24,2.8-1.84,1.44-1.14,2.93-2.53,4.48-4.19,1.54-1.65,3.01-3.31,4.41-4.97.17-.21.45-.33.84-.36.72-.06,1.1.19,1.15.77.05.53-.24,1.15-.85,1.88-1.75,2.08-3.32,3.87-4.74,5.37-1.41,1.5-2.77,2.74-4.08,3.72-.86.61-1.94,1.25-3.23,1.94-1.29.69-2.79,1.11-4.52,1.26-2.34.21-3.62-.94-3.84-3.42-.08-.96-.03-1.76.15-2.4-3.99,4.54-7.85,6.97-11.58,7.3Z"/>
      <path class="cls-1" d="M385.71,32.49c-.77.07-1.17-.21-1.23-.83-.02-.29.03-.58.18-.88.14-.3.25-.55.33-.75l5.37-13.77c2.28-5.88,3.39-9.14,3.34-9.76-.06-.67.25-1.03.92-1.09.91-.08,1.4.34,1.48,1.24.04.48-.11,1.26-.45,2.35-.34,1.09-.78,2.36-1.33,3.8-.93,2.59-1.72,4.58-2.37,5.99,1.29-1.8,2.61-3.5,3.96-5.12,1.35-1.61,2.74-3.15,4.15-4.63,4.2-4.37,7.51-6.66,9.95-6.87,1.67-.15,2.58.57,2.72,2.15.13,1.53-.3,2.34-1.31,2.43-.48.04-.87-.33-1.18-1.13-.19-.56-.55-.82-1.08-.77-.81.07-2.32,1.09-4.5,3.07-2.41,2.14-4.81,4.64-7.19,7.49-2.38,2.86-4.84,6.45-7.41,10.77l-3.15,5.33c-.17.26-.33.47-.49.66-.15.18-.4.29-.73.32Z"/>
      <path class="cls-1" d="M412.16,52.29c-2.92.26-4.53-1.34-4.83-4.78-.26-2.92.12-5.79,1.12-8.63.15-.5.44-.76.87-.8.86-.08,1.32.27,1.39,1.03.02.19-.02.45-.11.77-.09.32-.19.68-.3,1.07-.26.94-.44,1.92-.54,2.94-.1,1.02-.11,2.08-.01,3.18.11,1.24.35,2.07.72,2.47.37.4.82.58,1.35.53,1.24-.11,2.66-.81,4.26-2.11,1.6-1.3,3.19-3.27,4.79-5.91,1.14-1.88,2.29-4.1,3.46-6.66,1.17-2.56,2.41-5.49,3.71-8.78,1.74-4.34,3.31-8.75,4.7-13.2-1.06,1.64-2.17,3.23-3.34,4.77-1.17,1.55-2.44,3.01-3.81,4.38-3.67,3.74-6.82,5.73-9.45,5.96-3.16.28-4.89-1.4-5.21-5.04-.11-1.29,0-2.87.34-4.73.34-1.86.87-4,1.57-6.43.11-.39.15-.72.13-.99-.02-.26.03-.54.14-.84.62-1.74,1.72-3.72,3.31-5.93.34-.46.66-.71.95-.73.72-.06,1.12.43,1.21,1.48-4.04,7.24-5.85,13.23-5.44,17.97.18,2.01,1.05,2.94,2.63,2.81,1.77-.15,4.12-1.59,7.07-4.3,2.1-1.92,4.01-4.05,5.73-6.39,1.72-2.34,3.25-4.75,4.57-7.23.91-1.67,1.64-3.14,2.18-4.42.54-1.28.86-2.14.97-2.58.18-.74.48-1.13.91-1.16.91-.08,1.4.26,1.46,1.03.03.38-.09,1.08-.36,2.09-.27,1.01-.61,2.21-1.02,3.59-.59,2.03-1.46,4.75-2.61,8.18-1.14,3.42-2.59,7.5-4.35,12.23-2.18,5.88-4.41,10.72-6.68,14.53-1.67,2.89-3.57,5.35-5.68,7.36-2.11,2.02-4.06,3.1-5.82,3.26Z"/>
    </g>
  </g>
</svg>