<?xml version="1.0" encoding="UTF-8"?>
<svg id="_レイヤー_2" data-name="レイヤー 2" xmlns="http://www.w3.org/2000/svg" viewBox="0 0 330.04 80.21">
  <defs>
    <style>
      .cls-1 {
        fill: #ec747b;
        stroke-width: 0px;
      }

      .cls-2 {
        opacity: .3;
      }
    </style>
  </defs>
  <g id="_コンテンツ" data-name="コンテンツ">
    <g class="cls-2">
      <path class="cls-1" d="M1.8,59.47c-.34,0-.72-.17-1.15-.5-.43-.34-.65-.7-.65-1.08,0-.43.48-1.54,1.44-3.31.96-1.78,2.5-4.44,4.61-7.99,2.11-3.55,4.87-8.16,8.28-13.82l9.43-15.77c.53-.96,1.18-2.09,1.94-3.38.77-1.3,1.7-2.83,2.81-4.61.29-.43.6-.65.94-.65s.67.16,1.01.47c.34.31.5.64.5.97,0,.19-1.2,2.32-3.6,6.37-2.4,4.06-6.02,10.09-10.87,18.11-1.83,3.02-3.81,6.36-5.94,10.01-2.14,3.65-4.4,7.61-6.8,11.88,13.92-3.74,24.62-5.62,32.11-5.62,2.26,0,4.14.37,5.65,1.12,1.51.74,2.27,1.48,2.27,2.2,0,.82-.41,1.22-1.22,1.22-.67,0-1.01-.36-1.01-1.08v-.22c-.48-.24-1.3-.43-2.45-.58-1.15-.14-2.47-.22-3.96-.22-1.82,0-3.89.16-6.19.47-2.3.31-4.64.7-7.02,1.15-2.38.46-4.6.92-6.66,1.4-2.02.43-3.92.9-5.72,1.4s-3.47.95-5,1.33c-.91.19-1.57.36-1.98.5-.41.14-.66.22-.76.22Z"/>
      <path class="cls-1" d="M52.34,57.17c-1.34,0-2.32-.26-2.92-.79-.6-.53-.9-1.32-.9-2.38s.31-2.39.94-4.14c.62-1.75,1.43-3.64,2.41-5.65.98-2.02,2.03-3.94,3.13-5.76,1.1-1.82,2.17-3.32,3.2-4.5,1.03-1.18,1.86-1.76,2.48-1.76.86,0,1.3.38,1.3,1.15,0,.48-.41,1.39-1.22,2.74-.82,1.34-1.7,2.74-2.66,4.18-.38.53-.91,1.25-1.58,2.16-.67.91-1.32,1.76-1.94,2.56-.62.79-1.03,1.33-1.22,1.62-.48.72-.98,1.9-1.51,3.53-.58,1.63-.86,2.88-.86,3.74,0,.38.08.67.25.86.17.19.56.29,1.19.29,1.2,0,2.54-.38,4.03-1.15,1.49-.77,3-1.74,4.54-2.92,1.54-1.18,2.99-2.39,4.36-3.64,1.37-1.25,2.53-2.33,3.49-3.24.19-.19.48-.29.86-.29.72,0,1.08.29,1.08.86,0,.53-.34,1.13-1.01,1.8-1.3,1.3-2.5,2.45-3.6,3.46-1.1,1.01-2.16,1.9-3.17,2.66-1.58,1.15-3.34,2.21-5.26,3.17-1.92.96-3.72,1.44-5.4,1.44ZM64.58,28.01c-.82,0-1.22-.41-1.22-1.22,0-.24.17-.68.5-1.33.33-.65.72-1.31,1.15-1.98.43-.67.77-1.13,1.01-1.37.82-.91,1.45-1.49,1.91-1.73.46-.24.88-.36,1.26-.36,1.01,0,1.51.46,1.51,1.37,0,.34-.2.73-.61,1.19-.41.46-.88.88-1.4,1.26-.77.48-1.25.86-1.44,1.15l-1.58,2.23c-.05.19-.16.37-.32.54s-.42.25-.76.25Z"/>
      <path class="cls-1" d="M62.13,80.14c-1.54,0-2.63-.52-3.28-1.55-.65-1.03-.97-2.41-.97-4.14,0-3.94,1.85-10.01,5.54-18.22-.19-.19-.29-.43-.29-.72,0-.48.43-.96,1.3-1.44,2.54-5.14,4.91-9.68,7.09-13.64,2.18-3.96,4.16-7.33,5.94-10.12,5.95-9.12,11.3-15.43,16.06-18.94.62-.48,1.22-.86,1.8-1.15.58-.29,1.15-.43,1.73-.43.77,0,1.15.31,1.15.94,0,.34-.13.68-.4,1.04-.26.36-.71.92-1.33,1.69-.72.82-1.56,1.76-2.52,2.84-.96,1.08-1.96,2.2-2.99,3.35-1.03,1.15-1.98,2.2-2.84,3.13-.86.94-1.56,1.67-2.09,2.2l-6.62,6.84-2.3,3.67c-.62.96-1.38,2.27-2.27,3.92-.89,1.66-1.93,3.61-3.13,5.87-.48.91-1.09,2.09-1.84,3.53-.74,1.44-1.6,3.14-2.56,5.11.38.05.73.13,1.04.25.31.12.61.25.9.4,6.58-2.02,12.79-5.57,18.65-10.66.34-.24.62-.36.86-.36.82,0,1.22.36,1.22,1.08,0,.19-.06.38-.18.58-.12.19-.25.38-.4.58-.72.77-1.75,1.66-3.1,2.66-1.34,1.01-3.02,2.09-5.04,3.24-1.73.96-3.4,1.84-5,2.63-1.61.79-3.16,1.45-4.64,1.98,1.34,1.63,2.02,3.72,2.02,6.26,0,3.5-1.03,7.15-3.1,10.94-2.4,4.42-5.21,6.62-8.42,6.62ZM61.7,77.98c1.39,0,2.72-.58,4-1.73,1.27-1.15,2.36-2.64,3.28-4.46.67-1.3,1.24-2.84,1.69-4.64.46-1.8.68-3.37.68-4.72,0-2.69-.82-4.49-2.45-5.4-.62.1-1.2.18-1.73.25-.53.07-1.03.08-1.51.04v.07c-4.03,8.98-6.05,15.12-6.05,18.43,0,.72.19,1.26.58,1.62.38.36.89.54,1.51.54Z"/>
      <path class="cls-1" d="M97.77,57.67c-2.02,0-3.6-.7-4.75-2.09-1.15-1.39-1.73-3.1-1.73-5.11,0-3.46,1.15-7.01,3.46-10.66.62-1.01,1.34-2,2.16-2.99.82-.98,1.7-1.93,2.66-2.84,1.44-1.39,2.95-2.54,4.54-3.46,1.58-.91,3.12-1.37,4.61-1.37,2.45,0,3.67,1.15,3.67,3.46,0,2.88-1.68,5.5-5.04,7.85-3.12,2.11-6.19,3.17-9.22,3.17-.53,0-1-.04-1.4-.11-.41-.07-.78-.16-1.12-.25-.48.91-.91,2.09-1.3,3.53-.38,1.44-.58,2.69-.58,3.74,0,3.17,1.39,4.75,4.18,4.75,2.26,0,4.39-.4,6.41-1.19,2.02-.79,4.42-2.29,7.2-4.5,1.73-1.34,3.02-2.42,3.89-3.24.86-.82,1.8-1.68,2.81-2.59.29-.19.55-.29.79-.29s.48.07.72.22c.24.14.36.36.36.65,0,.53-.48,1.27-1.44,2.23-.82.77-1.68,1.57-2.59,2.41-.91.84-2.35,2-4.32,3.49-2.11,1.63-4.42,2.9-6.91,3.82-2.5.91-4.85,1.37-7.06,1.37ZM97.7,41.33c1.54,0,3-.24,4.39-.72,1.39-.48,2.71-1.18,3.96-2.09,2.78-2.06,4.18-4.01,4.18-5.83,0-.82-.5-1.22-1.51-1.22-1.92,0-4.15,1.18-6.7,3.53-1.25,1.15-2.27,2.2-3.06,3.13s-1.52,1.96-2.2,3.06c.29.1.6.14.94.14Z"/>
      <path class="cls-1" d="M117.36,58.75c-2.69,0-4.03-.89-4.03-2.66,0-1.1.4-2.21,1.19-3.31.79-1.1,1.74-2.11,2.84-3.02,1.1-.91,2.14-1.61,3.1-2.09.29-.14.68-.29,1.19-.43s.92-.22,1.26-.22c.38,0,.58.14.58.43,0,.24-.26.5-.79.79-2.21,1.06-3.92,2.32-5.15,3.78-1.22,1.46-1.84,2.65-1.84,3.56,0,.86.74,1.3,2.23,1.3,1.25,0,2.6-.31,4.07-.94,1.46-.62,2.85-1.44,4.18-2.45,1.32-1.01,2.41-2.09,3.28-3.24.86-1.15,1.3-2.26,1.3-3.31,0-.72-.23-1.37-.68-1.94s-1.19-1.01-2.2-1.3l-4.75-1.44c-1.2-.38-2.06-.89-2.59-1.51-.53-.62-.79-1.32-.79-2.09,0-1.44.54-2.74,1.62-3.89s2.44-2.06,4.07-2.74c1.63-.67,3.21-1.01,4.75-1.01s2.88.37,4.03,1.12c1.15.74,1.73,1.74,1.73,2.99,0,.72-.21,1.39-.61,2.02-.41.62-.88.94-1.4.94-.82,0-1.22-.33-1.22-1.01,0-.24.13-.54.4-.9.26-.36.4-.71.4-1.04,0-1.44-1.1-2.16-3.31-2.16-1.2,0-2.39.25-3.56.76-1.18.5-2.15,1.16-2.92,1.98-.77.82-1.15,1.7-1.15,2.66s.96,1.73,2.88,2.3l4.61,1.44c1.39.43,2.35,1.02,2.88,1.76.53.75.79,1.57.79,2.48,0,2.16-1.32,4.39-3.96,6.7-4.27,3.79-8.4,5.69-12.38,5.69Z"/>
      <path class="cls-1" d="M138.31,61.34c-.91,0-1.37-.72-1.37-2.16,0-2.11,1.19-5.81,3.56-11.09,2.38-5.28,5.92-12.19,10.62-20.74-1.83,0-3.54.23-5.15.68-1.61.46-2.46,1.02-2.56,1.69-.05.19-.16.37-.32.54-.17.17-.42.25-.76.25-.77,0-1.15-.38-1.15-1.15,0-1.25.98-2.28,2.95-3.1,1.97-.82,4.73-1.22,8.28-1.22l4.97-8.21c.34-.53.7-1.12,1.08-1.76.38-.65.82-1.36,1.3-2.12.48-.67,1.03-1.01,1.66-1.01.38,0,.67.11.86.32.19.22.29.44.29.68,0,.72-1.06,2.64-3.17,5.76-2.64,3.89-4.06,6-4.25,6.34.72,0,1.8.06,3.24.18,1.44.12,3.14.3,5.11.54.72.05,1.08.41,1.08,1.08,0,.77-.43,1.15-1.3,1.15-.34,0-1.01-.06-2.02-.18-1.01-.12-2.09-.23-3.24-.32-1.15-.1-2.14-.12-2.95-.07l-1.08.07c-9.75,17.14-14.59,27.79-14.54,31.97l.07.58v.14c0,.77-.41,1.15-1.22,1.15Z"/>
      <path class="cls-1" d="M153.72,80.21c-2.93,0-4.39-1.73-4.39-5.18,0-2.93.62-5.76,1.87-8.5.19-.48.5-.72.94-.72.86,0,1.3.38,1.3,1.15,0,.19-.06.44-.18.76-.12.31-.25.66-.4,1.04-.34.91-.6,1.87-.79,2.88-.19,1.01-.29,2.06-.29,3.17,0,1.25.17,2.09.5,2.52.33.43.77.65,1.3.65,1.25,0,2.72-.58,4.43-1.73,1.7-1.15,3.47-2.98,5.29-5.47,1.3-1.78,2.64-3.89,4.03-6.34,1.39-2.45,2.88-5.26,4.46-8.42,2.11-4.18,4.06-8.42,5.83-12.74-1.2,1.54-2.45,3.02-3.74,4.46s-2.69,2.78-4.18,4.03c-3.98,3.41-7.3,5.11-9.94,5.11-3.17,0-4.75-1.82-4.75-5.47,0-1.3.25-2.86.76-4.68.5-1.82,1.21-3.91,2.12-6.26.14-.38.22-.71.22-.97s.07-.54.22-.83c.77-1.68,2.04-3.55,3.82-5.62.38-.43.72-.65,1.01-.65.72,0,1.08.53,1.08,1.58-4.66,6.86-6.98,12.67-6.98,17.42,0,2.02.79,3.02,2.38,3.02,1.78,0,4.25-1.22,7.42-3.67,2.26-1.73,4.34-3.68,6.26-5.87,1.92-2.18,3.65-4.45,5.18-6.8,1.05-1.58,1.91-2.99,2.56-4.21.65-1.22,1.04-2.05,1.19-2.48.24-.72.58-1.08,1.01-1.08.91,0,1.37.38,1.37,1.15,0,.38-.18,1.07-.54,2.05-.36.98-.8,2.15-1.33,3.49-.77,1.97-1.87,4.61-3.31,7.92-1.44,3.31-3.24,7.25-5.4,11.81-2.69,5.66-5.33,10.3-7.92,13.9-1.92,2.74-4.02,5.02-6.3,6.84-2.28,1.82-4.31,2.74-6.08,2.74Z"/>
      <path class="cls-1" d="M192.81,58.32c-2.21,0-3.9-.68-5.08-2.05-1.18-1.37-1.76-3.18-1.76-5.44,0-1.63.29-3.6.86-5.9,1.01-3.89,2.71-8.4,5.11-13.54,1.87-3.89,3.89-7.72,6.05-11.48,2.16-3.77,4.54-7.48,7.13-11.12,4.13-5.86,7.01-8.78,8.64-8.78,1.05,0,1.58.29,1.58.86,0,.82-1.34,2.86-4.03,6.12l-5.04,6.12c-4.37,5.28-7.93,10.68-10.69,16.2-2.76,5.52-4.91,11.04-6.44,16.56-.43,1.58-.65,3.07-.65,4.46,0,3.65,1.49,5.47,4.46,5.47,1.06,0,2.14-.31,3.24-.94,1.1-.58,1.7-.86,1.8-.86.58,0,.86.41.86,1.22,0,.72-.26,1.27-.79,1.66-1.63.96-3.38,1.44-5.26,1.44Z"/>
      <path class="cls-1" d="M210.38,57.67c-2.02,0-3.6-.7-4.75-2.09-1.15-1.39-1.73-3.1-1.73-5.11,0-3.46,1.15-7.01,3.46-10.66.62-1.01,1.34-2,2.16-2.99.82-.98,1.7-1.93,2.66-2.84,1.44-1.39,2.95-2.54,4.54-3.46,1.58-.91,3.12-1.37,4.61-1.37,2.45,0,3.67,1.15,3.67,3.46,0,2.88-1.68,5.5-5.04,7.85-3.12,2.11-6.19,3.17-9.22,3.17-.53,0-1-.04-1.4-.11-.41-.07-.78-.16-1.12-.25-.48.91-.91,2.09-1.3,3.53-.38,1.44-.58,2.69-.58,3.74,0,3.17,1.39,4.75,4.18,4.75,2.26,0,4.39-.4,6.41-1.19,2.02-.79,4.42-2.29,7.2-4.5,1.73-1.34,3.02-2.42,3.89-3.24.86-.82,1.8-1.68,2.81-2.59.29-.19.55-.29.79-.29s.48.07.72.22c.24.14.36.36.36.65,0,.53-.48,1.27-1.44,2.23-.82.77-1.68,1.57-2.59,2.41-.91.84-2.35,2-4.32,3.49-2.11,1.63-4.42,2.9-6.91,3.82-2.5.91-4.85,1.37-7.06,1.37ZM210.31,41.33c1.54,0,3-.24,4.39-.72,1.39-.48,2.71-1.18,3.96-2.09,2.78-2.06,4.18-4.01,4.18-5.83,0-.82-.5-1.22-1.51-1.22-1.92,0-4.15,1.18-6.7,3.53-1.25,1.15-2.27,2.2-3.06,3.13s-1.52,1.96-2.2,3.06c.29.1.6.14.94.14Z"/>
      <path class="cls-1" d="M247.03,58.9c-.82,0-1.22-.41-1.22-1.22,0-.29.17-.94.5-1.94.96-2.98,2.6-6.62,4.93-10.94,2.33-4.32,5.34-9.31,9.04-14.98-1.2,0-1.8-.38-1.8-1.15,0-.72.43-1.1,1.3-1.15h2.02c1.39-2.02,2.59-3.74,3.6-5.18,1.01-1.44,1.9-2.66,2.66-3.67.96-1.3,1.94-2.58,2.95-3.85,1.01-1.27,1.99-2.46,2.95-3.56-.19,0-.38.01-.58.04-.19.02-.36.04-.5.04-1.87,0-2.81-.46-2.81-1.37,0-.86.74-1.3,2.23-1.3h24.12c.77,0,1.18.38,1.22,1.15,0,.86-.38,1.3-1.15,1.3h-19.37c-1.2,1.49-2.41,3.01-3.64,4.57-1.22,1.56-2.54,3.29-3.96,5.18-1.42,1.9-3.04,4.12-4.86,6.66h17.71c.77,0,1.15.38,1.15,1.15s-.38,1.18-1.15,1.22h-19.3c-4.42,6.72-7.84,12.36-10.26,16.92-2.42,4.56-3.97,8.3-4.64,11.23-.14.58-.53.86-1.15.86Z"/>
      <path class="cls-1" d="M289.36,57.17c-1.34,0-2.32-.26-2.92-.79-.6-.53-.9-1.32-.9-2.38s.31-2.39.94-4.14c.62-1.75,1.43-3.64,2.41-5.65.98-2.02,2.03-3.94,3.13-5.76,1.1-1.82,2.17-3.32,3.2-4.5,1.03-1.18,1.86-1.76,2.48-1.76.86,0,1.3.38,1.3,1.15,0,.48-.41,1.39-1.22,2.74-.82,1.34-1.71,2.74-2.66,4.18-.38.53-.91,1.25-1.58,2.16-.67.91-1.32,1.76-1.94,2.56-.62.79-1.03,1.33-1.22,1.62-.48.72-.98,1.9-1.51,3.53-.58,1.63-.86,2.88-.86,3.74,0,.38.08.67.25.86.17.19.56.29,1.19.29,1.2,0,2.54-.38,4.03-1.15,1.49-.77,3-1.74,4.54-2.92,1.54-1.18,2.99-2.39,4.36-3.64,1.37-1.25,2.53-2.33,3.49-3.24.19-.19.48-.29.86-.29.72,0,1.08.29,1.08.86,0,.53-.34,1.13-1.01,1.8-1.3,1.3-2.5,2.45-3.6,3.46-1.1,1.01-2.16,1.9-3.17,2.66-1.58,1.15-3.34,2.21-5.26,3.17-1.92.96-3.72,1.44-5.4,1.44ZM301.6,28.01c-.82,0-1.22-.41-1.22-1.22,0-.24.17-.68.5-1.33.33-.65.72-1.31,1.15-1.98.43-.67.77-1.13,1.01-1.37.82-.91,1.45-1.49,1.91-1.73.46-.24.88-.36,1.26-.36,1.01,0,1.51.46,1.51,1.37,0,.34-.21.73-.61,1.19-.41.46-.88.88-1.4,1.26-.77.48-1.25.86-1.44,1.15l-1.58,2.23c-.05.19-.16.37-.32.54-.17.17-.42.25-.76.25Z"/>
      <path class="cls-1" d="M303.76,61.34c-.91,0-1.37-.72-1.37-2.16,0-2.11,1.19-5.81,3.56-11.09,2.38-5.28,5.92-12.19,10.62-20.74-1.83,0-3.54.23-5.15.68-1.61.46-2.46,1.02-2.56,1.69-.05.19-.16.37-.32.54-.17.17-.42.25-.76.25-.77,0-1.15-.38-1.15-1.15,0-1.25.98-2.28,2.95-3.1,1.97-.82,4.73-1.22,8.28-1.22l4.97-8.21c.34-.53.7-1.12,1.08-1.76.38-.65.82-1.36,1.3-2.12.48-.67,1.03-1.01,1.66-1.01.38,0,.67.11.86.32.19.22.29.44.29.68,0,.72-1.06,2.64-3.17,5.76-2.64,3.89-4.06,6-4.25,6.34.72,0,1.8.06,3.24.18,1.44.12,3.14.3,5.11.54.72.05,1.08.41,1.08,1.08,0,.77-.43,1.15-1.3,1.15-.34,0-1.01-.06-2.02-.18-1.01-.12-2.09-.23-3.24-.32-1.15-.1-2.14-.12-2.95-.07l-1.08.07c-9.75,17.14-14.59,27.79-14.54,31.97l.07.58v.14c0,.77-.41,1.15-1.22,1.15Z"/>
    </g>
  </g>
</svg>