<?xml version="1.0" encoding="UTF-8"?>
<svg id="_レイヤー_2" data-name="レイヤー 2" xmlns="http://www.w3.org/2000/svg" viewBox="0 0 28 28">
  <defs>
    <style>
      .cls-1 {
        fill: #fff;
        stroke-width: 0px;
      }
    </style>
  </defs>
  <g id="_コンテンツ" data-name="コンテンツ">
    <g>
      <path class="cls-1" d="M19.95,0h-11.9C3.6,0,0,3.54,0,7.91v12.17c0,4.37,3.6,7.91,8.05,7.91h11.9c4.44,0,8.05-3.54,8.05-7.91V7.91c0-4.37-3.6-7.91-8.05-7.91ZM2.86,7.91c0-2.81,2.33-5.1,5.19-5.1h11.9c2.86,0,5.19,2.29,5.19,5.1v12.17c0,2.81-2.33,5.1-5.19,5.1h-11.9c-2.86,0-5.19-2.29-5.19-5.1V7.91Z"/>
      <path class="cls-1" d="M14,21.21c4.04,0,7.33-3.23,7.33-7.21s-3.29-7.21-7.33-7.21-7.33,3.23-7.33,7.21,3.29,7.21,7.33,7.21ZM14,9.04c2.78,0,5.05,2.23,5.05,4.96s-2.26,4.96-5.05,4.96-5.05-2.23-5.05-4.96,2.26-4.96,5.05-4.96Z"/>
      <ellipse class="cls-1" cx="21.55" cy="6.58" rx="1.64" ry="1.62"/>
    </g>
  </g>
</svg>