<?xml version="1.0" encoding="UTF-8"?>
<svg id="_レイヤー_2" data-name="レイヤー 2" xmlns="http://www.w3.org/2000/svg" viewBox="0 0 187.45 83.7">
  <defs>
    <style>
      .cls-1 {
        fill: #c94844;
      }

      .cls-1, .cls-2, .cls-3 {
        stroke-width: 0px;
      }

      .cls-2 {
        fill: #ec747b;
      }

      .cls-4 {
        stroke: #c94844;
        stroke-width: .8px;
      }

      .cls-4, .cls-5 {
        stroke-miterlimit: 10;
      }

      .cls-4, .cls-5, .cls-6 {
        fill: none;
      }

      .cls-3 {
        fill: #ec7980;
      }

      .cls-5 {
        stroke-width: 3.2px;
      }

      .cls-5, .cls-6 {
        stroke: #ec7980;
      }

      .cls-6 {
        stroke-linecap: round;
        stroke-linejoin: round;
        stroke-width: .6px;
      }
    </style>
  </defs>
  <g id="_コンテンツ" data-name="コンテンツ">
    <g>
      <g>
        <path class="cls-2" d="M97.01,46.91c0,.47.21.8.62,1,.42.19.98.29,1.71.29h4.53c.8,0,1.5-.1,2.08-.31.58-.21,1.08-.51,1.5-.89.42-.39.78-.87,1.1-1.44.32-.57.6-1.21.85-1.93.08-.22.25-.33.5-.33.14,0,.28.04.44.1.15.07.31.15.48.23-.19.83-.38,1.71-.56,2.64-.18.93-.34,1.98-.48,3.14-.03.31-.11.5-.25.58-.14.08-.31.12-.5.12-.47,0-1.06-.03-1.77-.1-.71-.07-1.33-.1-1.85-.1h-10.4c-.64,0-1.44.02-2.41.06-.97.04-1.9.09-2.79.15-.06-.28-.08-.5-.08-.67,0-.39.14-.61.42-.67,1.14-.19,1.91-.41,2.33-.64.42-.24.62-.6.62-1.1v-21.22c0-.55-.19-.95-.58-1.19-.39-.24-1.14-.44-2.25-.6-.14-.03-.24-.1-.31-.23-.07-.12-.1-.27-.1-.44,0-.19.03-.43.08-.71.94.06,1.87.1,2.79.15.91.04,1.69.06,2.33.06.94,0,1.94-.02,2.99-.06,1.05-.04,2-.09,2.83-.15.06.28.08.5.08.67,0,.47-.15.72-.46.75-1.19.14-2.07.34-2.64.6-.57.26-.85.74-.85,1.44v20.8Z"/>
        <path class="cls-2" d="M125,46.99c0,.56.19.94.58,1.14.39.21,1.11.42,2.16.64.28.06.42.28.42.67,0,.17-.03.39-.08.67-.86-.06-1.72-.1-2.58-.15-.86-.04-1.68-.06-2.45-.06s-1.57.02-2.48.06c-.9.04-1.75.09-2.56.15-.06-.28-.08-.5-.08-.67,0-.39.14-.61.42-.67,1.05-.19,1.77-.4,2.16-.62.39-.22.58-.61.58-1.16v-21.17c0-.55-.19-.95-.58-1.19-.39-.24-1.11-.44-2.16-.6-.17-.03-.28-.11-.33-.25-.06-.14-.08-.29-.08-.46s.03-.39.08-.67c.83.06,1.7.1,2.6.15.9.04,1.71.06,2.43.06s1.49-.02,2.39-.06c.9-.04,1.78-.09,2.64-.15.05.28.08.5.08.67,0,.42-.14.65-.42.71-1.05.17-1.78.37-2.16.6-.39.24-.58.63-.58,1.19v21.17Z"/>
        <path class="cls-2" d="M140.4,25.82c0-.55-.21-.94-.64-1.16-.43-.22-1.2-.43-2.31-.62-.19-.06-.31-.13-.35-.23-.04-.1-.06-.26-.06-.48,0-.17.03-.39.08-.67.91.06,1.8.1,2.66.15.86.04,1.68.06,2.45.06h8.24c1.08,0,2.11-.04,3.08-.12.97-.08,1.64-.12,2-.12.33,0,.57.23.71.69.14.46.25,1.01.33,1.64.08.64.18,1.31.29,2.02.11.71.3,1.32.58,1.85-.08.11-.19.19-.33.23-.14.04-.28.06-.42.06-.33,0-.56-.12-.67-.37-.33-.75-.66-1.39-.98-1.91-.32-.53-.68-.96-1.08-1.29-.4-.33-.88-.57-1.44-.73-.56-.15-1.25-.23-2.08-.23h-6.16v11.07h6.2c.55,0,.95-.27,1.19-.81.24-.54.42-1.19.56-1.93.08-.36.33-.54.75-.54.22,0,.44.03.67.08-.06.61-.1,1.31-.15,2.1-.04.79-.06,1.48-.06,2.06,0,.47.01,1.04.04,1.71.03.67.08,1.43.17,2.29-.22.06-.43.08-.62.08-.22,0-.4-.03-.54-.1-.14-.07-.22-.21-.25-.44-.11-.72-.29-1.36-.54-1.91-.25-.55-.65-.83-1.21-.83h-6.2v9.65c0,.56.35.94,1.06,1.14.71.21,1.57.38,2.6.52.33.03.5.26.5.71,0,.19-.03.43-.08.71-.58-.03-1.21-.06-1.87-.08-.56-.03-1.2-.06-1.93-.08-.74-.03-1.5-.04-2.31-.04-.75,0-1.59.02-2.54.06-.94.04-1.82.09-2.62.15-.06-.28-.08-.5-.08-.67,0-.42.14-.64.42-.67.91-.22,1.64-.44,2.16-.64.53-.21.79-.59.79-1.14v-21.17Z"/>
        <path class="cls-2" d="M172.89,24.57v10.65h6.49c.55,0,.95-.27,1.19-.81.24-.54.42-1.2.56-1.98.08-.36.33-.54.75-.54.08,0,.19.01.33.04.14.03.25.06.33.08-.06.61-.1,1.3-.15,2.08-.04.78-.06,1.46-.06,2.04,0,.47.01,1.05.04,1.73.03.68.08,1.45.17,2.31-.22.06-.43.08-.62.08-.44,0-.71-.18-.79-.54-.14-.78-.33-1.44-.56-1.98-.24-.54-.63-.81-1.19-.81h-6.49v9.82c0,.58.37.97,1.12,1.16.75.19,1.98.29,3.7.29h2.29c.8,0,1.5-.12,2.1-.35.6-.24,1.12-.55,1.58-.96.46-.4.87-.88,1.23-1.44.36-.55.71-1.16,1.04-1.83.08-.19.29-.29.62-.29.14,0,.28.04.44.12.15.08.3.17.44.25-.25.53-.46,1.16-.65,1.89-.18.74-.35,1.44-.52,2.1s-.34,1.23-.52,1.71c-.18.47-.41.71-.69.71-.22,0-.54-.01-.96-.04-.42-.03-.87-.05-1.35-.06-.49-.01-.98-.04-1.48-.06-.5-.03-.93-.04-1.29-.04h-9.11c-.8,0-1.66.02-2.58.06-.92.04-1.79.09-2.62.15-.06-.28-.08-.5-.08-.67,0-.39.14-.61.42-.67,1.05-.19,1.81-.4,2.27-.62.46-.22.69-.61.69-1.16v-21.17c0-.55-.2-.94-.6-1.14-.4-.21-1.19-.42-2.35-.64-.28-.06-.42-.29-.42-.71,0-.14,0-.26.02-.35.01-.1.03-.2.06-.31,1.19.08,2.19.14,3,.17.8.03,1.53.04,2.16.04h8.2c1.25,0,2.33-.04,3.24-.12.91-.08,1.53-.12,1.83-.12.36,0,.6.23.73.69.12.46.23,1.01.31,1.64.08.64.18,1.32.29,2.04.11.72.32,1.33.62,1.83-.22.17-.47.25-.75.25-.36,0-.6-.12-.71-.37-.33-.72-.65-1.34-.96-1.85-.31-.51-.66-.94-1.06-1.27-.4-.33-.89-.58-1.46-.75-.57-.17-1.27-.25-2.1-.25h-6.16Z"/>
      </g>
      <g>
        <path class="cls-1" d="M107.74,63.17s.07-.07.16-.17.21-.21.35-.33c.14-.12.31-.22.49-.31s.39-.14.61-.14c.15,0,.3.02.44.07.14.04.26.12.37.22.11.1.19.23.25.39.06.16.1.36.1.6v2.34c0,.1.06.17.17.22.12.05.25.08.39.11.05.01.08.05.08.12,0,.04,0,.09-.02.15-.17-.01-.33-.02-.49-.03-.16,0-.33-.01-.53-.01-.17,0-.34,0-.51.01-.17,0-.34.02-.5.03-.01-.06-.02-.12-.02-.15,0-.06.03-.1.09-.12.06,0,.12-.02.18-.04.06-.02.12-.04.17-.07.05-.03.09-.06.13-.09s.05-.08.05-.13v-1.88c0-.16-.01-.31-.03-.44-.02-.13-.06-.25-.11-.35-.05-.1-.13-.18-.22-.23s-.21-.08-.36-.08c-.16,0-.32.03-.47.08-.15.05-.29.13-.41.24-.12.11-.21.24-.28.39-.07.15-.11.33-.11.53v1.75c0,.1.05.17.16.22s.23.08.36.11c.06.01.09.05.09.12,0,.04,0,.09-.02.15-.17-.01-.33-.02-.49-.03-.16,0-.33-.01-.51-.01s-.37,0-.53.01c-.17,0-.33.02-.49.03-.01-.06-.02-.12-.02-.15,0-.06.03-.1.08-.12.15-.03.28-.06.39-.11s.17-.12.17-.23v-5.16c0-.2-.04-.34-.11-.41-.08-.07-.23-.12-.46-.14-.08-.01-.13-.06-.13-.13,0-.04,0-.08.02-.13.08,0,.2,0,.35-.01.15,0,.28-.02.4-.03.15-.02.28-.04.4-.08s.2-.05.25-.05c.06,0,.1.01.12.04.02.03.03.06.03.11,0,.11,0,.24-.03.38-.02.14-.03.31-.03.5v2.48Z"/>
        <path class="cls-1" d="M117.97,66.13c.07,0,.11.07.11.2-.17.11-.38.17-.63.17-.14,0-.26-.02-.37-.06s-.19-.1-.26-.17c-.07-.07-.13-.15-.16-.24-.04-.09-.07-.18-.08-.28-.16.29-.35.48-.57.59-.22.11-.48.16-.76.16-.13,0-.26-.01-.41-.03-.14-.02-.28-.07-.41-.14-.13-.07-.23-.17-.32-.3-.08-.13-.13-.3-.13-.51,0-.24.06-.44.17-.6s.26-.3.43-.4.37-.19.58-.25c.21-.06.41-.12.6-.16.11-.02.21-.04.3-.06.09-.02.17-.05.24-.07.09-.03.15-.06.17-.11.02-.04.03-.13.03-.26,0-.3-.06-.55-.17-.74-.12-.19-.32-.29-.61-.29-.11,0-.2.01-.28.04-.08.03-.14.07-.19.12-.05.05-.1.13-.13.22-.04.09-.08.2-.11.32-.02.07-.06.12-.13.15-.07.03-.18.07-.34.12-.04.01-.09.03-.14.04-.06.01-.11.02-.14.02-.06,0-.1-.07-.1-.2s.05-.28.16-.42c.11-.14.25-.27.42-.37.17-.11.35-.2.55-.26s.39-.1.57-.1c.22,0,.43.02.61.06.18.04.33.11.46.21s.23.24.3.41c.07.17.1.4.1.67v1.65c0,.22,0,.39.02.48.02.1.04.18.07.24.04.09.09.15.15.18.05.03.11.04.17.04.07,0,.12,0,.15-.02s.06-.02.09-.02ZM116.51,64.25l-.31.05c-.17.03-.33.07-.49.12s-.3.11-.42.19c-.12.08-.22.18-.29.3-.07.12-.11.27-.11.45,0,.24.06.43.19.56.13.13.28.19.47.19.12,0,.24-.03.36-.08.12-.05.22-.13.31-.23.09-.1.16-.22.21-.35.05-.13.08-.28.08-.44v-.75Z"/>
        <path class="cls-1" d="M121.73,66.38c-.11,0-.22,0-.34,0-.11,0-.22,0-.31.01s-.18.01-.25.02-.12,0-.13,0c0,0,0-.03,0-.07,0-.04-.01-.07-.01-.09,0-.06.03-.1.09-.12.17-.03.3-.07.4-.12s.15-.12.15-.22v-2.61c0-.19-.03-.33-.1-.41-.07-.08-.21-.13-.44-.15-.08-.01-.12-.06-.12-.13,0-.03,0-.07.02-.13.08,0,.2,0,.35-.01.15,0,.27-.02.37-.03.15-.03.28-.05.4-.08.12-.03.2-.04.25-.04.09,0,.14.05.14.14,0,.09,0,.2-.03.32-.02.12-.03.29-.03.49v2.65c0,.1.05.18.15.22s.24.08.42.12c.05.01.08.05.08.12,0,.02,0,.05,0,.09s0,.06-.01.07c-.02,0-.06,0-.13,0s-.15-.01-.25-.02-.2-.01-.31-.01-.22,0-.33,0ZM121.17,60.62c0-.15.05-.29.16-.4s.24-.17.4-.17.28.06.38.17.15.24.15.4c0,.17-.05.3-.15.4s-.23.15-.38.15-.29-.05-.4-.15-.16-.24-.16-.4Z"/>
        <path class="cls-1" d="M128.28,62.23c.19,0,.32.04.41.13.09.09.13.19.13.3,0,.04,0,.07-.02.11-.01.03-.04.07-.09.1-.05.04-.11.08-.2.12-.09.05-.21.11-.36.18-.06-.07-.13-.13-.21-.18s-.17-.08-.26-.08c-.11,0-.21.03-.3.09s-.17.14-.23.25-.11.23-.15.36-.05.28-.05.43v1.65c0,.14.07.24.22.31.15.07.36.12.63.16.06.01.1.05.1.12,0,.04,0,.09-.02.15-.07,0-.16-.01-.26-.01s-.22,0-.33-.01c-.11,0-.23-.01-.36-.01s-.24,0-.34,0c-.18,0-.36,0-.54.01-.19,0-.36.02-.53.03-.01-.06-.02-.12-.02-.15,0-.06.03-.1.09-.12.15-.03.28-.06.39-.12s.17-.12.17-.22v-2.44c0-.13,0-.25-.02-.34-.02-.09-.04-.16-.08-.22-.04-.05-.09-.09-.17-.12-.07-.03-.17-.04-.28-.06-.08-.01-.12-.05-.12-.12,0-.04,0-.08.02-.13.08,0,.2,0,.35-.01.15,0,.27-.02.37-.03.14-.03.27-.05.37-.08.11-.03.19-.04.24-.04.09,0,.14.05.14.14v.64c.2-.22.41-.41.62-.56s.44-.23.71-.23Z"/>
        <path class="cls-1" d="M139.61,65.53c0,.08,0,.14.02.2.01.05.04.1.08.14.04.04.09.07.16.09.07.02.16.04.26.05.08.01.13.05.13.12,0,.04,0,.08-.02.13-.08,0-.19,0-.33.01-.14,0-.25.02-.35.03-.14.03-.27.05-.37.08s-.19.04-.24.04c-.09,0-.14-.05-.14-.14v-.73c-.09.12-.18.24-.27.35-.09.11-.19.21-.31.3s-.25.16-.41.21c-.15.05-.34.08-.56.08s-.43-.04-.62-.13-.37-.22-.53-.4c-.15-.18-.28-.39-.37-.65-.09-.26-.14-.55-.14-.87,0-.35.07-.67.2-.95s.3-.51.5-.7.41-.33.65-.43.45-.15.65-.15c.24,0,.46.02.65.07.19.05.38.11.56.19v-1.81c0-.19-.03-.33-.1-.41-.07-.08-.21-.13-.44-.15-.08-.01-.12-.06-.12-.13,0-.04,0-.08.02-.13.08,0,.2,0,.35-.01.15,0,.27-.02.37-.03.15-.02.28-.04.4-.08s.2-.05.25-.05c.09,0,.14.05.14.14,0,.11,0,.23-.03.37-.02.14-.03.31-.03.52v4.83ZM138.81,63.1c-.16-.17-.34-.3-.53-.39-.19-.1-.41-.14-.65-.14-.37,0-.65.15-.84.46-.19.31-.28.7-.28,1.18,0,.24.03.48.08.7.05.22.13.41.24.58s.23.3.38.39c.15.1.32.14.5.14.13,0,.26-.04.38-.12.13-.08.25-.17.35-.29s.19-.25.26-.4c.07-.15.1-.3.1-.45v-1.66Z"/>
        <path class="cls-1" d="M146.53,65.49s.09-.07.14-.07c.06,0,.12.05.18.16-.08.12-.18.23-.29.34-.11.11-.24.21-.39.29-.15.09-.32.16-.51.21s-.41.08-.66.08-.5-.04-.73-.13c-.23-.08-.43-.21-.61-.38-.18-.17-.32-.39-.42-.64-.11-.26-.16-.56-.16-.9,0-.33.06-.63.19-.9.13-.28.29-.51.49-.71.2-.19.42-.35.66-.46.24-.11.47-.16.7-.16.6,0,1.03.17,1.3.52.27.35.41.8.41,1.35,0,.04-.02.06-.06.06l-2.77.12c0,.25.04.48.1.69.07.21.17.39.3.55.13.15.28.27.46.36s.39.13.62.13c.2,0,.4-.05.59-.14.19-.1.35-.22.47-.36ZM144.97,62.56c-.32,0-.57.12-.74.37-.18.25-.27.58-.27.98l1.81-.09c.1,0,.14-.04.14-.12,0-.12-.02-.25-.06-.38s-.1-.26-.17-.37c-.08-.11-.17-.2-.29-.28-.12-.07-.26-.11-.42-.11Z"/>
        <path class="cls-1" d="M152.32,63.4c-.05,0-.09-.01-.11-.03-.02-.02-.04-.05-.04-.07-.04-.26-.15-.45-.31-.56-.16-.11-.37-.17-.61-.17-.19,0-.35.05-.49.16-.14.11-.22.25-.22.44,0,.17.07.31.2.42.13.11.37.22.72.33.19.06.36.12.51.19s.29.16.4.25.2.22.26.36c.06.14.1.32.1.51,0,.17-.03.33-.09.48-.06.15-.15.29-.28.4-.12.12-.28.21-.47.28-.19.07-.41.11-.68.11-.2,0-.43-.02-.69-.07-.25-.05-.48-.13-.69-.24-.01-.17-.02-.34-.03-.52,0-.18-.01-.37-.01-.55h.1c.06,0,.12.01.16.03.04.02.07.06.08.11.03.27.13.48.31.65.18.16.44.24.76.24.26,0,.46-.06.6-.18s.21-.28.21-.48-.08-.37-.23-.48c-.15-.11-.38-.21-.68-.3-.38-.12-.67-.27-.89-.45-.21-.19-.32-.46-.32-.82,0-.17.03-.32.1-.47.06-.15.15-.27.27-.38.11-.11.26-.19.42-.26s.35-.1.56-.1c.26,0,.5.03.73.1s.4.14.53.22c0,.05.01.11.02.19,0,.07.01.15.01.23s0,.16,0,.24c0,.08,0,.15,0,.22h-.22Z"/>
        <path class="cls-1" d="M156.68,66.38c-.11,0-.22,0-.33,0-.11,0-.22,0-.31.01-.1,0-.18.01-.25.02s-.11,0-.13,0c0,0,0-.03,0-.07s0-.07,0-.09c0-.06.03-.1.09-.12.17-.03.3-.07.4-.12s.15-.12.15-.22v-2.61c0-.19-.03-.33-.1-.41s-.21-.13-.44-.15c-.08-.01-.13-.06-.13-.13,0-.03,0-.07.02-.13.08,0,.2,0,.35-.01.15,0,.27-.02.37-.03.15-.03.28-.05.4-.08.12-.03.2-.04.25-.04.09,0,.14.05.14.14,0,.09-.01.2-.03.32-.02.12-.03.29-.03.49v2.65c0,.1.05.18.15.22s.24.08.42.12c.05.01.08.05.08.12,0,.02,0,.05,0,.09s0,.06-.01.07c-.02,0-.06,0-.13,0s-.15-.01-.25-.02c-.1,0-.2-.01-.31-.01-.11,0-.22,0-.33,0ZM156.12,60.62c0-.15.05-.29.16-.4s.24-.17.4-.17.28.06.38.17c.1.11.15.24.15.4,0,.17-.05.3-.15.4-.1.1-.23.15-.38.15s-.29-.05-.4-.15-.16-.24-.16-.4Z"/>
        <path class="cls-1" d="M161.04,66.18c-.28-.16-.41-.39-.41-.69,0-.32.21-.58.63-.79-.18-.11-.32-.25-.43-.44s-.16-.41-.16-.68c0-.18.04-.35.13-.52.09-.17.2-.31.35-.44.15-.13.31-.23.5-.3.19-.07.39-.11.6-.11.32,0,.58.04.77.12.19.08.36.17.5.29l.95-.41c.07.04.12.1.15.18.03.07.05.14.05.21,0,.14-.05.21-.14.21h-.35c-.12,0-.27,0-.44.05.15.2.23.44.23.73,0,.2-.04.38-.13.55s-.21.31-.36.43c-.15.12-.34.21-.55.28-.21.07-.44.1-.67.1-.13,0-.26,0-.38-.02s-.24-.04-.35-.08c-.17.08-.28.15-.35.23-.06.08-.1.15-.1.22,0,.05.02.1.05.15s.09.09.18.12c.09.04.21.06.36.09.16.02.36.03.6.03.29,0,.56.02.82.07.26.04.48.12.68.22s.35.24.46.4c.11.17.17.37.17.6,0,.26-.05.5-.16.71-.11.21-.25.39-.44.54-.19.15-.42.27-.68.35s-.55.12-.87.12c-.6,0-1.07-.11-1.41-.33-.34-.22-.51-.57-.51-1.05,0-.14.02-.27.07-.39.04-.12.1-.23.17-.32s.14-.18.23-.25c.09-.07.17-.13.24-.17ZM161.27,66.3c-.15.15-.24.33-.26.56,0,.05,0,.1,0,.15v.16c0,.13.04.27.11.4s.16.25.28.36c.12.1.27.19.45.25.18.06.39.1.62.1.44,0,.76-.1.96-.29.2-.2.3-.44.3-.72,0-.12-.03-.23-.08-.34-.05-.1-.14-.19-.26-.26-.12-.07-.28-.13-.48-.17-.2-.04-.44-.06-.74-.06-.17,0-.33,0-.48-.03-.16-.02-.3-.05-.42-.1ZM162.36,64.6c.24,0,.43-.08.57-.23.14-.15.21-.36.21-.63,0-.14-.01-.28-.04-.42-.03-.14-.08-.26-.15-.37-.07-.11-.16-.2-.28-.27-.12-.07-.27-.11-.45-.11-.22,0-.4.07-.53.22s-.2.35-.2.6c0,.15.01.29.04.44.03.14.08.27.14.39s.16.21.27.28c.11.07.25.11.42.11Z"/>
        <path class="cls-1" d="M171.54,65.84c0,.1.06.17.17.22.11.05.24.08.38.11.06.01.09.05.09.12,0,.04,0,.09-.02.15-.17-.01-.33-.02-.49-.03-.16,0-.33-.01-.52-.01-.17,0-.34,0-.51.01-.17,0-.34.02-.5.03-.01-.06-.02-.12-.02-.15,0-.06.03-.1.09-.12.14-.03.26-.06.36-.11.11-.05.16-.12.16-.22v-1.88c0-.16,0-.31-.03-.44-.02-.13-.06-.25-.11-.35s-.13-.18-.22-.23c-.09-.05-.21-.08-.36-.08-.16,0-.31.03-.47.08s-.29.13-.41.24c-.12.11-.21.24-.28.39-.07.15-.1.33-.1.53v1.75c0,.1.06.17.17.22s.23.08.36.11c.06.01.09.05.09.12,0,.04,0,.09-.02.15-.17-.01-.33-.02-.49-.03-.16,0-.33-.01-.51-.01s-.37,0-.53.01c-.17,0-.33.02-.49.03-.01-.06-.02-.12-.02-.15,0-.06.03-.1.09-.12.14-.03.27-.06.38-.11.11-.05.17-.12.17-.23v-2.61c0-.19-.03-.33-.1-.41s-.21-.13-.44-.15c-.08-.01-.13-.06-.13-.13,0-.03,0-.07.02-.13.08,0,.2,0,.35-.01.15,0,.27-.02.37-.03.15-.03.28-.05.4-.08.12-.03.2-.04.25-.04.09,0,.14.05.14.14,0,.09-.01.2-.03.32-.02.12-.03.29-.03.49.27-.31.54-.54.79-.71.25-.17.53-.25.83-.25.39,0,.68.11.88.34.19.23.29.54.29.95v2.33Z"/>
      </g>
      <g>
        <polygon class="cls-5" points="4.44 21.85 4.44 61.85 39.08 81.85 73.73 61.85 73.73 21.85 39.08 1.85 4.44 21.85"/>
        <polygon class="cls-4" points=".45 31.49 10.8 70.13 49.44 80.48 77.72 52.2 67.37 13.56 28.73 3.21 .45 31.49"/>
        <path class="cls-3" d="M35.57,63.33c.15-1.38,1.38-3.36,1.87-4.1,1.41.32,2.94-.14,3.94-1.32,1.24-1.47,1.25-3.57.12-5.03h0s0,0-.01-.01c-.02-.02-.03-.04-.05-.06-.23-.3-1.02-1.41-1.01-2.8.29-1.6,1.85-6.78,4.86-11.95,3.72-3.66,12.01-11.82,12.06-11.98.06-.21-.21-.53-.21-.53l-9.04,6.86,5.02-10.48s-.32-.24-.56.05c-.22.26-6.99,10.33-8.34,12.35,0,0-.96,1.16-1.79,2.71-4.26,3.44-8.77,5.5-10.21,6.02-1.37.25-2.59-.35-2.92-.53-.02-.01-.05-.03-.07-.04-.01,0-.02,0-.02,0h0c-1.63-.87-3.7-.52-4.95.94-1.43,1.69-1.22,4.22.47,5.65,1.69,1.43,4.22,1.22,5.65-.47.4-.47.67-1,.82-1.56h0c.11-.46,1.08-2.37,1.46-2.82s5.44-2.63,7.99-3.07c.1-.02.19-.04.29-.06,0,.1-.01.2-.01.3-.01,2.59-1.34,7.93-1.72,8.38s-2.11,1.72-2.56,1.9h.02c-.53.24-1.01.6-1.41,1.06-1.43,1.69-1.22,4.22.47,5.65.05.04.1.08.14.12-1.25,2.6-.3,4.84-.3,4.84ZM29.5,47.82c-1.01,1.19-2.8,1.34-3.99.33-1.19-1.01-1.34-2.8-.33-3.99s2.8-1.34,3.99-.33,1.34,2.8.33,3.99ZM36.17,53.48c1.01-1.19,2.8-1.34,3.99-.33s1.34,2.8.33,3.99-2.8,1.34-3.99.33-1.34-2.8-.33-3.99Z"/>
        <path class="cls-6" d="M50.23,54.98l-4.68-5.52M52.72,52.38l-5.73-4.42M54.6,49.32l-6.51-3.15M55.82,45.92l-7.03-1.7M56.3,42.36l-7.23-.21M56.02,38.72l-7.12,1.29M22.34,37.8l7.03,1.7M23.55,34.41l6.52,3.13M25.44,31.34l5.72,4.43M27.9,28.75l4.71,5.49M30.88,26.7l3.45,6.36M34.2,25.33l2.05,6.94M41.33,24.77l-.92,7.17M37.75,24.68l.54,7.21"/>
      </g>
    </g>
  </g>
</svg>