<?xml version="1.0" encoding="UTF-8"?>
<svg id="_レイヤー_2" data-name="レイヤー 2" xmlns="http://www.w3.org/2000/svg" viewBox="0 0 40 40">
  <defs>
    <style>
      .cls-1 {
        fill: #c94844;
        stroke-width: 0px;
      }
    </style>
  </defs>
  <g id="_コンテンツ" data-name="コンテンツ">
    <g>
      <path class="cls-1" d="M28.5,0H11.5C5.15,0,0,5.06,0,11.3v17.39c0,6.24,5.15,11.3,11.5,11.3h17.01c6.35,0,11.5-5.06,11.5-11.3V11.3c0-6.24-5.15-11.3-11.5-11.3ZM4.08,11.3c0-4.02,3.33-7.29,7.41-7.29h17.01c4.09,0,7.41,3.27,7.41,7.29v17.39c0,4.02-3.33,7.29-7.41,7.29H11.5c-4.09,0-7.41-3.27-7.41-7.29V11.3Z"/>
      <path class="cls-1" d="M20,30.3c5.78,0,10.48-4.62,10.48-10.3s-4.7-10.3-10.48-10.3-10.48,4.62-10.48,10.3,4.7,10.3,10.48,10.3ZM20,12.91c3.98,0,7.21,3.18,7.21,7.09s-3.23,7.09-7.21,7.09-7.21-3.18-7.21-7.09,3.23-7.09,7.21-7.09Z"/>
      <ellipse class="cls-1" cx="30.78" cy="9.4" rx="2.35" ry="2.31"/>
    </g>
  </g>
</svg>