<?xml version="1.0" encoding="UTF-8"?>
<svg id="_レイヤー_2" data-name="レイヤー 2" xmlns="http://www.w3.org/2000/svg" viewBox="0 0 122.15 169.67">
  <defs>
    <style>
      .cls-1 {
        fill: #ccc;
      }

      .cls-1, .cls-2 {
        stroke-width: 0px;
      }

      .cls-3 {
        stroke-width: 3.68px;
      }

      .cls-3, .cls-4 {
        stroke-miterlimit: 10;
      }

      .cls-3, .cls-4, .cls-5 {
        fill: none;
      }

      .cls-3, .cls-5 {
        stroke: #fff;
      }

      .cls-4 {
        stroke: #ccc;
        stroke-width: .92px;
      }

      .cls-5 {
        stroke-linecap: round;
        stroke-linejoin: round;
        stroke-width: .69px;
      }

      .cls-2 {
        fill: #fff;
      }
    </style>
  </defs>
  <g id="_コンテンツ" data-name="コンテンツ">
    <g>
      <g>
        <path class="cls-2" d="M9.1,142.45c0,.59.26,1.01.78,1.25.52.24,1.23.36,2.13.36h5.67c1.01,0,1.87-.13,2.6-.39.73-.26,1.35-.63,1.87-1.12s.98-1.08,1.38-1.79c.4-.71.75-1.52,1.07-2.42.1-.28.31-.42.62-.42.17,0,.36.04.55.13.19.09.39.18.6.29-.24,1.04-.48,2.14-.7,3.3-.23,1.16-.43,2.47-.6,3.93-.04.38-.14.62-.31.73-.17.1-.38.16-.62.16-.59,0-1.33-.04-2.21-.13-.88-.09-1.66-.13-2.31-.13H6.6c-.8,0-1.8.03-3.02.08-1.21.05-2.38.11-3.48.18-.07-.35-.1-.62-.1-.83,0-.49.17-.76.52-.83,1.42-.24,2.39-.51,2.91-.81.52-.29.78-.75.78-1.38v-26.52c0-.69-.24-1.19-.73-1.48-.49-.29-1.42-.55-2.81-.75-.17-.03-.3-.13-.39-.29-.09-.16-.13-.34-.13-.55,0-.24.03-.54.1-.88,1.18.07,2.34.13,3.48.18,1.14.05,2.11.08,2.91.08,1.18,0,2.43-.03,3.74-.08,1.32-.05,2.5-.11,3.54-.18.07.35.1.62.1.83,0,.59-.19.9-.57.94-1.49.17-2.59.42-3.3.75-.71.33-1.07.93-1.07,1.79v26Z"/>
        <path class="cls-2" d="M44.1,142.55c0,.69.24,1.17.73,1.43.48.26,1.39.53,2.7.81.35.07.52.35.52.83,0,.21-.04.49-.1.83-1.08-.07-2.15-.13-3.22-.18-1.07-.05-2.1-.08-3.07-.08s-1.97.03-3.09.08c-1.13.05-2.19.11-3.2.18-.07-.35-.1-.62-.1-.83,0-.49.17-.76.52-.83,1.32-.24,2.22-.5,2.7-.78.48-.28.73-.76.73-1.46v-26.47c0-.69-.24-1.19-.73-1.48-.49-.29-1.39-.55-2.7-.75-.21-.03-.35-.14-.42-.31-.07-.17-.1-.36-.1-.57s.03-.48.1-.83c1.04.07,2.12.13,3.25.18,1.13.05,2.14.08,3.04.08s1.86-.03,2.99-.08c1.13-.05,2.23-.11,3.3-.18.07.35.1.62.1.83,0,.52-.17.81-.52.88-1.32.21-2.22.46-2.7.75-.49.29-.73.79-.73,1.48v26.47Z"/>
        <path class="cls-2" d="M63.34,116.09c0-.69-.27-1.18-.81-1.46-.54-.28-1.5-.54-2.89-.78-.24-.07-.39-.16-.44-.29-.05-.12-.08-.32-.08-.6,0-.21.03-.48.1-.83,1.14.07,2.25.13,3.33.18,1.07.05,2.1.08,3.07.08h10.3c1.35,0,2.63-.05,3.85-.16,1.21-.1,2.04-.16,2.5-.16.42,0,.71.29.88.86.17.57.31,1.26.42,2.05.1.8.22,1.64.36,2.52.14.88.38,1.66.73,2.31-.1.14-.24.23-.42.29-.17.05-.35.08-.52.08-.42,0-.69-.16-.83-.47-.42-.94-.82-1.73-1.22-2.39-.4-.66-.85-1.2-1.35-1.61-.5-.42-1.1-.72-1.79-.91-.69-.19-1.56-.29-2.6-.29h-7.7v13.83h7.75c.69,0,1.19-.34,1.48-1.01.29-.68.53-1.48.7-2.42.1-.45.42-.68.94-.68.28,0,.55.03.83.1-.07.76-.13,1.64-.18,2.63-.05.99-.08,1.85-.08,2.57,0,.59.02,1.3.05,2.13.03.83.1,1.79.21,2.86-.28.07-.54.1-.78.1-.28,0-.5-.04-.68-.13-.17-.09-.28-.27-.31-.55-.14-.9-.36-1.7-.68-2.39-.31-.69-.81-1.04-1.51-1.04h-7.75v12.06c0,.69.44,1.17,1.33,1.43.88.26,1.97.48,3.25.65.42.04.62.33.62.88,0,.24-.03.54-.1.88-.73-.03-1.51-.07-2.34-.1-.69-.04-1.5-.07-2.42-.1-.92-.03-1.88-.05-2.89-.05-.94,0-1.99.03-3.17.08-1.18.05-2.27.11-3.28.18-.07-.35-.1-.62-.1-.83,0-.52.17-.8.52-.83,1.14-.28,2.04-.55,2.7-.81.66-.26.99-.74.99-1.43v-26.47Z"/>
        <path class="cls-2" d="M103.95,114.53v13.31h8.11c.69,0,1.19-.34,1.48-1.01.29-.68.53-1.5.7-2.47.1-.45.42-.68.94-.68.1,0,.24.02.42.05.17.03.31.07.42.1-.07.76-.13,1.63-.18,2.6-.05.97-.08,1.82-.08,2.55,0,.59.02,1.31.05,2.16.03.85.1,1.81.21,2.89-.28.07-.54.1-.78.1-.56,0-.88-.23-.99-.68-.17-.97-.41-1.79-.7-2.47-.29-.68-.79-1.01-1.48-1.01h-8.11v12.27c0,.73.47,1.21,1.4,1.46.94.24,2.48.36,4.63.36h2.86c1,0,1.88-.15,2.63-.44.75-.29,1.4-.69,1.98-1.2.57-.5,1.08-1.1,1.53-1.79s.88-1.46,1.3-2.29c.1-.24.36-.36.78-.36.17,0,.36.05.55.16.19.1.37.21.55.31-.31.66-.58,1.45-.81,2.37-.23.92-.44,1.79-.65,2.63s-.42,1.54-.65,2.13c-.23.59-.51.88-.86.88-.28,0-.68-.02-1.2-.05-.52-.04-1.08-.06-1.69-.08s-1.22-.04-1.85-.08-1.16-.05-1.61-.05h-11.39c-1.01,0-2.08.03-3.22.08-1.14.05-2.24.11-3.28.18-.07-.35-.1-.62-.1-.83,0-.49.17-.76.52-.83,1.32-.24,2.26-.5,2.83-.78s.86-.76.86-1.46v-26.47c0-.69-.25-1.17-.75-1.43-.5-.26-1.48-.53-2.94-.81-.35-.07-.52-.36-.52-.88,0-.17,0-.32.03-.44.02-.12.04-.25.08-.39,1.49.1,2.74.17,3.74.21,1,.04,1.91.05,2.7.05h10.24c1.56,0,2.91-.05,4.06-.16,1.14-.1,1.91-.16,2.29-.16.45,0,.75.29.91.86.16.57.29,1.26.39,2.05.1.8.22,1.65.36,2.55.14.9.4,1.66.78,2.29-.28.21-.59.31-.94.31-.45,0-.75-.16-.88-.47-.42-.9-.82-1.67-1.2-2.31-.38-.64-.82-1.17-1.33-1.59-.5-.42-1.11-.73-1.82-.94-.71-.21-1.59-.31-2.63-.31h-7.7Z"/>
      </g>
      <g>
        <path class="cls-1" d="M22.52,162.77s.09-.09.2-.22c.11-.13.26-.26.44-.41s.39-.27.62-.39c.23-.12.49-.17.77-.17.19,0,.38.03.55.08.18.06.33.15.46.28.13.13.24.29.32.49.08.2.12.45.12.74v2.93c0,.12.07.21.22.27.14.06.31.11.49.14.06.02.1.06.1.14,0,.05,0,.11-.02.19-.21-.02-.41-.03-.61-.04-.2-.01-.42-.02-.66-.02-.21,0-.42,0-.63.02s-.42.03-.63.04c-.02-.08-.02-.14-.02-.19,0-.08.04-.13.11-.14.07,0,.15-.02.22-.05.08-.02.15-.05.21-.08.06-.03.12-.07.16-.11s.07-.1.07-.16v-2.35c0-.2-.01-.38-.04-.55-.02-.17-.07-.31-.14-.44-.07-.12-.16-.22-.27-.29-.12-.07-.27-.1-.45-.1-.2,0-.39.03-.59.1s-.36.17-.51.3c-.15.13-.27.29-.35.49s-.13.41-.13.66v2.18c0,.12.07.21.2.27.14.06.29.11.46.14.07.02.11.06.11.14,0,.05,0,.11-.02.19-.21-.02-.41-.03-.61-.04s-.41-.02-.64-.02-.46,0-.67.02-.41.03-.61.04c-.02-.08-.02-.14-.02-.19,0-.08.03-.13.1-.14.18-.03.35-.08.49-.14.14-.06.22-.15.22-.28v-6.46c0-.26-.05-.43-.14-.52s-.29-.15-.58-.18c-.1-.02-.16-.07-.16-.17,0-.05,0-.1.02-.17.1,0,.25,0,.43-.02.18-.01.35-.03.5-.04.19-.02.35-.06.5-.1.15-.04.25-.06.32-.06.07,0,.12.02.15.05s.04.08.04.13c0,.14-.01.29-.04.47s-.04.39-.04.63v3.1Z"/>
        <path class="cls-1" d="M35.3,166.47c.09,0,.14.08.14.25-.21.14-.47.22-.79.22-.18,0-.33-.03-.46-.08s-.24-.12-.33-.21c-.09-.09-.16-.19-.21-.3-.05-.11-.08-.23-.1-.35-.2.36-.44.61-.71.74-.28.13-.59.2-.95.2-.16,0-.33-.01-.51-.04-.18-.03-.35-.09-.51-.17s-.29-.21-.4-.37-.16-.37-.16-.64c0-.3.07-.55.21-.75.14-.21.32-.37.54-.5.22-.13.46-.24.72-.32.26-.08.51-.15.75-.2.14-.02.26-.05.38-.08.12-.03.22-.06.31-.09.11-.03.18-.08.21-.13s.04-.16.04-.32c0-.38-.07-.69-.22-.93s-.4-.37-.77-.37c-.14,0-.25.02-.35.05-.1.03-.18.08-.24.15s-.12.16-.17.27c-.05.11-.1.24-.14.4-.02.09-.08.15-.16.19-.08.04-.23.09-.43.14-.05.02-.11.03-.18.05-.07.02-.13.02-.18.02-.08,0-.12-.08-.12-.25s.07-.35.2-.53c.14-.18.31-.33.52-.47.21-.14.44-.25.69-.33.25-.08.48-.13.71-.13.28,0,.53.02.76.07.23.05.42.14.58.26.16.13.29.3.37.52.08.22.13.5.13.84v2.06c0,.28,0,.48.03.61s.05.22.09.29c.06.11.12.19.19.22.07.04.14.05.21.05.09,0,.15,0,.19-.02.04-.02.07-.02.11-.02ZM33.47,164.13l-.39.06c-.21.04-.41.09-.61.14-.2.06-.37.13-.53.23s-.28.23-.37.38c-.09.15-.14.34-.14.56,0,.3.08.54.24.7s.35.24.59.24c.15,0,.3-.03.45-.1.15-.07.28-.16.39-.29s.2-.27.27-.44c.07-.17.1-.35.1-.55v-.94Z"/>
        <path class="cls-1" d="M40.01,166.79c-.14,0-.28,0-.42,0-.14,0-.27,0-.39.02s-.22.02-.31.02-.14.01-.17.01c0,0,0-.04-.01-.08,0-.05-.01-.08-.01-.11,0-.08.04-.13.11-.14.21-.04.38-.09.5-.14.13-.06.19-.15.19-.28v-3.26c0-.24-.04-.41-.13-.52s-.27-.17-.55-.19c-.1-.02-.16-.07-.16-.17,0-.04,0-.09.02-.16.1,0,.25,0,.44-.02.19-.01.34-.03.46-.04.19-.03.35-.07.5-.1.15-.04.25-.05.32-.05.11,0,.17.06.17.18,0,.11-.01.25-.04.4s-.04.36-.04.62v3.31c0,.13.06.22.19.28.12.06.3.1.52.14.06.02.1.06.1.14,0,.02,0,.06,0,.11s0,.08-.02.08c-.02,0-.08,0-.16-.01s-.19-.02-.31-.02-.25-.01-.39-.02c-.14,0-.28,0-.42,0ZM39.31,159.58c0-.19.07-.36.2-.5.13-.14.3-.21.5-.21s.35.07.48.21c.13.14.19.31.19.5,0,.21-.06.38-.19.5-.13.13-.29.19-.48.19s-.37-.06-.5-.19c-.13-.13-.2-.29-.2-.5Z"/>
        <path class="cls-1" d="M48.2,161.6c.23,0,.4.06.52.17s.17.24.17.37c0,.05,0,.09-.02.13s-.05.08-.11.13-.14.1-.25.16c-.11.06-.26.13-.45.22-.07-.09-.16-.16-.26-.23-.1-.06-.21-.1-.33-.1-.14,0-.26.04-.37.11-.11.08-.21.18-.29.31-.08.13-.14.28-.19.46s-.07.35-.07.53v2.06c0,.18.09.31.28.39s.45.15.79.2c.08.02.12.06.12.14,0,.05,0,.11-.02.19-.09,0-.2-.01-.33-.02s-.27,0-.41-.02-.29-.01-.45-.02c-.15,0-.29,0-.42,0-.22,0-.44,0-.68.02-.23.01-.45.03-.66.04-.02-.08-.02-.14-.02-.19,0-.08.04-.13.11-.14.18-.03.35-.08.49-.14.14-.06.21-.16.21-.28v-3.05c0-.17-.01-.31-.03-.42-.02-.11-.05-.2-.1-.27-.05-.07-.12-.12-.21-.15-.09-.03-.21-.06-.35-.07-.1-.02-.16-.07-.16-.16,0-.05,0-.1.02-.17.1,0,.25,0,.44-.02s.34-.03.46-.04c.18-.03.33-.07.47-.1.13-.04.23-.05.3-.05.11,0,.17.06.17.18v.8c.26-.28.51-.51.77-.7.26-.19.55-.28.88-.28Z"/>
        <path class="cls-1" d="M62.36,165.72c0,.1,0,.18.02.25s.05.13.1.17c.05.05.11.09.2.11.08.03.19.05.33.07.1.02.16.07.16.16,0,.05,0,.1-.02.17-.1,0-.24,0-.41.02-.17.01-.32.03-.44.04-.18.03-.33.07-.47.1s-.23.05-.3.05c-.11,0-.17-.06-.17-.18v-.91c-.11.15-.22.3-.34.44-.11.14-.24.26-.39.37-.15.11-.32.19-.51.26-.19.06-.42.1-.7.1s-.53-.06-.78-.17-.47-.28-.66-.5c-.19-.22-.35-.49-.46-.81-.12-.32-.17-.68-.17-1.09,0-.44.08-.83.25-1.18.17-.35.38-.64.62-.88s.52-.42.81-.54.56-.19.81-.19c.3,0,.57.03.81.09.24.06.47.14.7.23v-2.27c0-.24-.04-.41-.13-.51-.08-.1-.27-.16-.55-.19-.1-.02-.16-.07-.16-.17,0-.05,0-.1.02-.17.1,0,.25,0,.44-.02.19-.01.34-.03.46-.04.19-.02.35-.06.5-.1.15-.04.25-.06.32-.06.11,0,.17.06.17.18,0,.14-.01.29-.04.47s-.04.39-.04.65v6.04ZM61.35,162.69c-.2-.21-.42-.37-.66-.49-.24-.12-.51-.18-.82-.18-.46,0-.81.19-1.05.58-.24.38-.35.88-.35,1.48,0,.3.03.59.1.87s.17.52.3.73c.13.21.29.37.48.49.19.12.4.18.63.18.16,0,.32-.05.48-.14.16-.1.31-.22.44-.37.13-.15.24-.32.32-.5.08-.19.13-.37.13-.56v-2.08Z"/>
        <path class="cls-1" d="M71,165.68c.06-.05.12-.08.18-.08.08,0,.16.07.23.21-.1.14-.22.28-.36.42-.14.14-.3.26-.49.37-.19.11-.4.19-.64.26-.24.06-.52.1-.83.1s-.62-.05-.91-.16c-.29-.1-.54-.26-.76-.48-.22-.22-.4-.48-.53-.8-.13-.32-.2-.7-.2-1.13,0-.41.08-.79.23-1.13.16-.34.36-.64.61-.88.25-.24.52-.43.82-.57.3-.14.59-.21.87-.21.74,0,1.29.22,1.63.65.34.43.51,1,.51,1.69,0,.05-.02.07-.07.07l-3.47.16c0,.31.04.6.13.86.09.26.21.49.37.68.16.19.35.34.58.45.23.11.48.16.77.16.25,0,.5-.06.74-.18.24-.12.43-.27.59-.46ZM69.06,162.02c-.4,0-.71.16-.93.47-.22.31-.33.72-.33,1.22l2.26-.11c.12,0,.18-.05.18-.16,0-.15-.02-.31-.07-.48s-.12-.32-.21-.46c-.1-.14-.22-.26-.36-.35-.15-.09-.32-.14-.52-.14Z"/>
        <path class="cls-1" d="M78.25,163.06c-.06,0-.11-.01-.14-.04-.03-.03-.05-.06-.05-.09-.06-.33-.19-.56-.39-.7-.2-.14-.46-.21-.76-.21-.23,0-.44.07-.62.2-.18.13-.27.31-.27.54,0,.21.08.38.25.52.16.14.46.28.89.41.23.07.45.15.64.24s.36.19.5.32c.14.12.25.28.33.46.08.18.12.39.12.64,0,.21-.04.41-.12.6-.08.19-.19.36-.35.5-.16.14-.35.26-.59.35-.24.09-.52.13-.85.13-.26,0-.54-.03-.86-.09-.32-.06-.6-.16-.86-.31-.02-.21-.03-.43-.04-.65-.01-.23-.02-.46-.02-.69h.12c.08,0,.15.01.2.04.06.03.09.07.1.14.03.34.16.61.39.81.23.2.55.31.95.31.33,0,.58-.07.76-.22s.26-.35.26-.61-.1-.46-.29-.61c-.19-.14-.48-.27-.85-.38-.47-.14-.84-.33-1.11-.56-.27-.23-.4-.57-.4-1.02,0-.21.04-.4.12-.59.08-.18.19-.34.34-.48s.32-.24.53-.32.44-.12.7-.12c.32,0,.62.04.91.13s.51.17.67.27c0,.06.02.14.02.23,0,.09.01.19.02.29,0,.1,0,.2.01.3s0,.19,0,.27h-.28Z"/>
        <path class="cls-1" d="M83.69,166.79c-.14,0-.28,0-.42,0-.14,0-.27,0-.39.02-.12,0-.22.02-.31.02s-.14.01-.17.01c0,0,0-.04-.01-.08s-.01-.08-.01-.11c0-.08.04-.13.11-.14.21-.04.38-.09.5-.14.13-.06.19-.15.19-.28v-3.26c0-.24-.04-.41-.13-.52s-.27-.17-.55-.19c-.1-.02-.16-.07-.16-.17,0-.04,0-.09.02-.16.1,0,.25,0,.44-.02.19-.01.34-.03.46-.04.19-.03.35-.07.5-.1.15-.04.25-.05.32-.05.11,0,.17.06.17.18,0,.11-.01.25-.04.4-.02.16-.04.36-.04.62v3.31c0,.13.06.22.19.28.12.06.3.1.52.14.06.02.1.06.1.14,0,.02,0,.06,0,.11s0,.08-.02.08c-.02,0-.08,0-.16-.01s-.19-.02-.31-.02c-.12,0-.25-.01-.39-.02-.14,0-.28,0-.42,0ZM82.98,159.58c0-.19.07-.36.2-.5.13-.14.3-.21.5-.21s.35.07.48.21c.13.14.19.31.19.5,0,.21-.06.38-.19.5-.13.13-.29.19-.48.19s-.37-.06-.5-.19c-.13-.13-.2-.29-.2-.5Z"/>
        <path class="cls-1" d="M89.14,166.54c-.34-.2-.52-.49-.52-.87,0-.4.26-.73.79-.98-.22-.14-.4-.32-.53-.55s-.2-.51-.2-.85c0-.22.05-.44.16-.65.11-.21.25-.39.44-.55.18-.16.39-.29.63-.38.24-.09.49-.14.75-.14.4,0,.72.05.96.14.24.1.45.22.62.36l1.19-.52c.09.06.15.13.19.22s.06.18.06.26c0,.18-.06.26-.18.26h-.43c-.15-.01-.34.01-.55.06.19.25.29.55.29.91,0,.25-.06.48-.17.68s-.26.39-.46.53c-.19.15-.42.26-.68.35-.26.08-.54.13-.84.13-.17,0-.33,0-.48-.03-.15-.02-.3-.05-.43-.1-.21.1-.35.19-.43.29s-.12.19-.12.28c0,.06.02.13.06.19s.11.11.22.16c.11.04.26.08.46.11s.45.04.75.04c.36,0,.7.03,1.02.08.32.06.6.15.85.28s.44.3.58.5c.14.21.21.46.21.76,0,.33-.07.62-.2.89s-.32.49-.55.68c-.24.19-.52.33-.85.43s-.69.15-1.09.15c-.75,0-1.34-.14-1.76-.41-.42-.27-.64-.71-.64-1.31,0-.18.03-.34.08-.49.06-.15.13-.28.21-.4s.18-.22.29-.31c.11-.09.21-.16.31-.21ZM89.43,166.68c-.19.18-.3.42-.32.7,0,.06-.01.13-.01.19v.2c0,.17.05.34.13.5s.2.32.35.44c.15.13.34.23.56.31.22.08.48.12.78.12.55,0,.95-.12,1.21-.37.25-.24.38-.55.38-.91,0-.15-.03-.29-.1-.42-.06-.13-.17-.24-.32-.33-.15-.09-.35-.16-.6-.22-.25-.05-.56-.08-.92-.08-.21,0-.41-.01-.61-.04-.2-.02-.37-.06-.52-.12ZM90.79,164.56c.3,0,.53-.1.71-.29.18-.19.26-.46.26-.79,0-.18-.02-.35-.05-.52-.04-.17-.1-.33-.19-.47-.09-.14-.21-.25-.35-.34-.15-.09-.33-.13-.56-.13-.28,0-.5.09-.67.28-.16.18-.25.44-.25.76,0,.18.02.37.05.54.04.18.1.34.18.49.08.14.2.26.34.35.14.09.31.13.52.13Z"/>
        <path class="cls-1" d="M102.27,166.11c0,.12.07.21.22.27.14.06.3.11.48.14.07.02.11.06.11.14,0,.05,0,.11-.02.19-.21-.02-.41-.03-.61-.04-.2-.01-.42-.02-.65-.02-.22,0-.43,0-.64.02-.21.01-.42.03-.63.04-.02-.08-.02-.14-.02-.19,0-.08.04-.13.11-.14.17-.03.32-.08.46-.14.14-.06.2-.15.2-.27v-2.35c0-.2-.01-.38-.04-.55-.02-.17-.07-.31-.14-.44s-.16-.22-.27-.29c-.12-.07-.26-.1-.45-.1-.2,0-.39.03-.58.1s-.36.17-.51.3-.26.29-.35.49c-.09.19-.13.41-.13.66v2.18c0,.12.07.21.21.27.14.06.29.11.45.14.07.02.11.06.11.14,0,.05,0,.11-.02.19-.21-.02-.41-.03-.61-.04s-.41-.02-.64-.02-.46,0-.67.02c-.21.01-.41.03-.61.04-.02-.08-.02-.14-.02-.19,0-.08.04-.13.11-.14.18-.03.34-.08.48-.14.14-.06.22-.15.22-.28v-3.26c0-.24-.04-.41-.13-.52s-.27-.17-.55-.19c-.1-.02-.16-.07-.16-.17,0-.04,0-.09.02-.16.1,0,.25,0,.44-.02.19-.01.34-.03.46-.04.19-.03.35-.07.5-.1.15-.04.25-.05.32-.05.11,0,.17.06.17.18,0,.11-.01.25-.04.4-.02.16-.04.36-.04.62.34-.38.67-.68.99-.89.32-.21.66-.31,1.04-.31.49,0,.85.14,1.09.43.24.29.37.68.37,1.18v2.92Z"/>
      </g>
      <g>
        <polygon class="cls-3" points="19.83 25.15 19.83 71.2 59.71 94.23 99.59 71.2 99.59 25.15 59.71 2.13 19.83 25.15"/>
        <polygon class="cls-4" points="15.23 36.26 27.15 80.74 71.63 92.66 104.19 60.1 92.27 15.62 47.79 3.7 15.23 36.26"/>
        <path class="cls-2" d="M55.67,72.91c.17-1.59,1.59-3.86,2.15-4.72,1.62.36,3.39-.16,4.53-1.52,1.43-1.69,1.44-4.11.14-5.8h0s0,0-.01-.02c-.02-.02-.04-.05-.06-.07-.27-.34-1.18-1.62-1.16-3.22.34-1.85,2.13-7.8,5.59-13.76,4.29-4.22,13.83-13.61,13.88-13.8.07-.24-.24-.61-.24-.61l-10.4,7.9,5.78-12.07s-.37-.27-.65.05c-.25.3-8.04,11.89-9.6,14.22,0,0-1.1,1.34-2.06,3.12-4.9,3.96-10.09,6.33-11.75,6.93-1.57.28-2.99-.41-3.37-.62-.03-.02-.05-.03-.08-.05-.01,0-.02-.01-.02-.01h0c-1.88-1-4.26-.6-5.69,1.09-1.65,1.94-1.41,4.86.54,6.5,1.94,1.65,4.86,1.41,6.5-.54.46-.54.77-1.15.94-1.8v.02c.13-.54,1.25-2.75,1.69-3.27s6.26-3.03,9.2-3.53c.11-.02.22-.04.33-.07-.01.12-.02.23-.02.34-.01,2.98-1.54,9.13-1.98,9.65s-2.43,1.98-2.95,2.19h.02c-.6.28-1.16.69-1.62,1.23-1.65,1.94-1.41,4.86.54,6.5.05.05.11.09.17.13-1.44,2.99-.35,5.57-.35,5.57ZM48.67,55.06c-1.16,1.37-3.22,1.54-4.6.38-1.37-1.16-1.54-3.22-.38-4.6s3.22-1.54,4.6-.38c1.37,1.16,1.54,3.22.38,4.6ZM56.35,61.57c1.16-1.37,3.22-1.54,4.6-.38s1.54,3.22.38,4.6-3.22,1.54-4.6.38-1.54-3.22-.38-4.6Z"/>
        <path class="cls-5" d="M72.54,63.3l-5.39-6.35M75.4,60.3l-6.59-5.08M77.58,56.79l-7.5-3.63M78.98,52.86l-8.1-1.95M79.53,48.77l-8.32-.24M79.21,44.57l-8.19,1.49M40.43,43.52l8.1,1.95M41.82,39.61l7.51,3.6M44,36.08l6.59,5.1M46.84,33.1l5.43,6.32M50.26,30.74l3.97,7.32M54.09,29.16l2.36,7.99M62.29,28.52l-1.06,8.26M58.18,28.41l.62,8.3"/>
      </g>
    </g>
  </g>
</svg>