<?xml version="1.0" encoding="UTF-8"?>
<svg id="_レイヤー_2" data-name="レイヤー 2" xmlns="http://www.w3.org/2000/svg" viewBox="0 0 28.69 20.25">
  <defs>
    <style>
      .cls-1 {
        fill: #fff;
        stroke-width: 0px;
      }
    </style>
  </defs>
  <g id="_コンテンツ" data-name="コンテンツ">
    <g>
      <path class="cls-1" d="M14.34,13.94c.79,0,1.53-.3,2.09-.83L28.65,1.37c-.14-.78-.85-1.37-1.7-1.37H1.73C.88,0,.17.59.03,1.37l12.22,11.74c.56.54,1.3.83,2.09.83Z"/>
      <path class="cls-1" d="M28.69,4.17h0s0,0,0,0l-10.78,10.36c-.95.91-2.22,1.42-3.56,1.42s-2.61-.5-3.56-1.42l-6.32-6.07L0,4.16H0s0,0,0,0v14.43c0,.92.77,1.66,1.73,1.66h25.23c.95,0,1.73-.74,1.73-1.66V4.17Z"/>
    </g>
  </g>
</svg>