<?xml version="1.0" encoding="UTF-8"?>
<svg id="_レイヤー_2" data-name="レイヤー 2" xmlns="http://www.w3.org/2000/svg" viewBox="0 0 15 15">
  <defs>
    <style>
      .cls-1 {
        fill: #1a1a1a;
        stroke-width: 0px;
      }
    </style>
  </defs>
  <g id="_コンテンツ" data-name="コンテンツ">
    <path class="cls-1" d="M14.96,10.81l-3.63-1.62s-.09-.04-.14-.04c-.5,0-1.52,1.62-1.72,1.95,0,.01-.02.02-.02.03,0,0,0,0,0,0-.1,0-.43-.07-1.35-.69-1.4-.94-2.59-2.13-3.53-3.53-.65-.97-.69-1.28-.69-1.35.26-.15,2.24-1.35,1.95-1.87L4.19.04l-1.82-.04c-.47,0-.91.2-1.21.56C.6,1.23-.06,2.32,0,3.73c.07,1.54,2.12,4.98,4.2,7.06,2.09,2.09,5.52,4.13,7.06,4.2.07,0,.13,0,.2,0,1.32,0,2.35-.64,2.98-1.17.37-.31.57-.77.56-1.25l-.04-1.78Z"/>
  </g>
</svg>