<?xml version="1.0" encoding="UTF-8"?>
<svg id="_レイヤー_2" data-name="レイヤー 2" xmlns="http://www.w3.org/2000/svg" xmlns:xlink="http://www.w3.org/1999/xlink" viewBox="0 0 50 46.67">
  <defs>
    <style>
      .cls-1 {
        fill: none;
      }

      .cls-1, .cls-2 {
        stroke-width: 0px;
      }

      .cls-3 {
        clip-path: url(#clippath);
      }

      .cls-2 {
        fill: #fff;
      }
    </style>
    <clipPath id="clippath">
      <rect class="cls-1" width="50" height="40"/>
    </clipPath>
  </defs>
  <g id="_コンテンツ" data-name="コンテンツ">
    <g class="cls-3">
      <g>
        <g>
          <g>
            <path class="cls-2" d="M22.63,24.82c.46.08.88.11,1.22.12.43.01.84.14,1.19.37l-.46-1.74c.43-.53.01-1.48-.13-2.11-.24-1.04-.36-2.19.05-3.21.7-1.78,1.34-3.79.24-5.57-1.17-1.88-4.64-2.87-6.08-.76-.71,1.04-.44,2.12.01,3.14-.24.2-.15.5.09,1.08.27.67.62.89.91.8.34.53.7,1.03.97,1.59.72,1.49,1.23,3.11,1.55,4.73.07.34.3.61.6.74-.03.28-.09.56-.15.83ZM19.84,13.77c-.01-2.27,2.75-2.29,3.67-.52.49.95.82,3.69-.54,4.01-.19.04-.41.04-.66-.02-1.36-.32-2.46-2.15-2.47-3.47Z"/>
            <path class="cls-2" d="M22.41,28.96l7.86,17.6c.09.2.38.09.32-.12l-3.5-13.32-4.69-4.17Z"/>
          </g>
          <path class="cls-2" d="M10.3,21.52c1.09,1.79,3.17,2.14,5.08,2.31,1.09.1,2.06.73,2.88,1.41.49.41,1.15,1.22,1.82,1.07l17.69,15.73c.16.15.39-.07.25-.23l-12.76-15.75c-.35-.43-.87-.69-1.42-.7-.67-.02-1.65-.11-2.56-.45.02-.32-.11-.65-.39-.86-1.3-1.01-2.52-2.21-3.52-3.52-.55-.73-.91-1.58-1.46-2.32-.88-1.21-1.83-2.65-3.54-2.44-.16.02-.3.05-.45.09-.91-.58-2.51-1.46-2.96-.79-.49.74,1.02.62,1.44,1.98-.83,1.29-.87,3.24-.11,4.48ZM23.91,27.39c.26-.16.61-.08.77.18.16.26.08.61-.18.77-.26.16-.61.08-.77-.18-.16-.26-.08-.61.18-.77ZM13.51,17.66c1.18.61,2.31,2.42,1.98,3.78-.06.25-.16.45-.28.6-.9,1.07-3.2-.47-3.82-1.34-1.16-1.62.1-4.08,2.12-3.04Z"/>
        </g>
        <path class="cls-2" d="M14.55,42.51L39.32,8.25c.45-.62,1.34-.72,1.91-.2h0s3.28,2.65,3.28,2.65c.12.1.15.28.05.41-.09.13-.27.16-.41.07l-3.3-2.22c-.12-.08-.27-.05-.36.06h0c-.09.11-.06.27.05.36l3.09,2.47c.12.09.16.26.08.39-.09.15-.28.19-.42.1l-3.3-2.24c-.12-.08-.27-.05-.36.06h-.01c-.09.13-.06.29.05.38l3.11,2.48c.12.09.16.26.08.39-.09.15-.28.19-.42.1l-3.31-2.25c-.12-.08-.27-.05-.36.06h-.01c-.09.13-.06.29.05.38l3.13,2.49c.12.1.15.28.05.41h0c-.09.13-.27.16-.41.07l-3.32-2.26c-.12-.08-.27-.05-.36.06h0c-.09.13-.06.29.05.38l3.13,2.5c.12.09.16.26.08.39-.09.15-.28.19-.42.1l-3.33-2.26c-.12-.08-.27-.05-.36.06h0c-.09.13-.06.29.05.37l3.14,2.5c.12.09.16.26.08.39-.09.15-.28.19-.42.1l-3.34-2.27c-.12-.08-.27-.05-.36.06h0c-.09.12-.06.29.05.37l3.16,2.52c.12.1.15.28.05.41h0c-.09.13-.27.16-.41.07l-3.35-2.28c-.12-.08-.27-.05-.36.06h0c-.09.12-.06.28.05.37l3.16,2.52c.12.09.16.26.08.39-.09.15-.28.19-.42.1l-3.36-2.29c-.12-.08-.27-.05-.36.06h0c-.09.12-.06.28.05.37l3.17,2.53c.12.09.16.26.08.39-.09.15-.28.19-.42.1l-3.38-2.29c-.12-.08-.27-.05-.36.06h0c-.09.12-.06.28.05.37l3.19,2.55c.12.1.15.28.05.41h0c-.09.13-.27.16-.41.07l-3.39-2.3c-.12-.08-.27-.05-.36.06h0c-.09.12-.06.28.05.37l3.19,2.55c.12.09.16.26.08.39-.09.15-.28.19-.42.1l-3.4-2.31c-.12-.08-.27-.05-.36.06h0c-.09.12-.06.28.05.37l3.2,2.55c.12.09.16.26.08.39-.09.15-.28.19-.42.1l-3.41-2.32c-.12-.08-.27-.05-.36.06h0c-.09.12-.06.28.05.37l3.21,2.56c.12.09.16.26.08.39-.09.15-.28.19-.42.1l-3.42-2.32c-.12-.08-.27-.05-.36.06h0c-.09.12-.06.28.05.37l3.22,2.57c.12.09.16.26.08.39-.09.15-.28.19-.42.1l-3.43-2.33c-.12-.08-.27-.05-.36.06h0c-.09.12-.06.28.05.37l3.23,2.58c.12.09.16.26.08.39-.09.15-.28.19-.42.1l-3.44-2.34c-.12-.08-.27-.05-.36.06h0c-.09.12-.06.28.05.37l3.25,2.6c.13.11.15.3.03.43-.1.11-.27.12-.4.04l-3.44-2.34c-.12-.08-.27-.05-.36.06h0c-.09.12-.06.28.05.37l3.25,2.6c.12.09.16.26.08.39-.09.15-.28.19-.42.1l-2.4-1.63c-.71-.48-1.68-.32-2.19.36l-10.82,14.39c-.1.13-.29.16-.42.06-.13-.1-.16-.29-.07-.42Z"/>
      </g>
    </g>
  </g>
</svg>