<?xml version="1.0" encoding="UTF-8"?>
<svg id="_レイヤー_2" data-name="レイヤー 2" xmlns="http://www.w3.org/2000/svg" xmlns:xlink="http://www.w3.org/1999/xlink" viewBox="0 0 100 134.01">
  <defs>
    <style>
      .cls-1 {
        fill: none;
      }

      .cls-1, .cls-2 {
        stroke-width: 0px;
      }

      .cls-3 {
        clip-path: url(#clippath);
      }

      .cls-2 {
        fill: #fff;
      }
    </style>
    <clipPath id="clippath">
      <rect class="cls-1" width="100" height="100"/>
    </clipPath>
  </defs>
  <g id="_コンテンツ" data-name="コンテンツ">
    <g class="cls-3">
      <g>
        <g>
          <path class="cls-2" d="M45.19,90.25c.91.15,1.77.21,2.45.23.86.02,1.68.28,2.39.73l-.92-3.49c.86-1.06.03-2.97-.26-4.22-.48-2.09-.71-4.39.09-6.43,1.41-3.56,2.69-7.59.47-11.16-2.34-3.77-9.3-5.75-12.18-1.51-1.42,2.09-.89,4.24.03,6.29-.48.39-.3.99.18,2.16.55,1.35,1.25,1.79,1.82,1.61.67,1.05,1.4,2.07,1.94,3.19,1.44,2.98,2.47,6.23,3.09,9.47.13.69.6,1.22,1.19,1.47-.06.57-.17,1.12-.3,1.66ZM39.6,68.14c-.03-4.55,5.51-4.58,7.35-1.04.98,1.89,1.64,7.4-1.07,8.03-.37.09-.81.08-1.32-.04-2.71-.64-4.93-4.3-4.95-6.95Z"/>
          <path class="cls-2" d="M44.76,98.55l15.74,35.25c.17.39.76.18.64-.24l-7-26.67-9.38-8.34Z"/>
        </g>
        <path class="cls-2" d="M20.5,83.65c2.18,3.59,6.35,4.28,10.16,4.63,2.18.2,4.13,1.46,5.78,2.83.98.82,2.31,2.44,3.65,2.14l35.42,31.49c.31.29.77-.13.5-.47l-25.54-31.54c-.7-.86-1.74-1.38-2.85-1.41-1.35-.03-3.31-.22-5.12-.91.04-.65-.22-1.3-.77-1.73-2.61-2.03-5.04-4.42-7.04-7.05-1.11-1.46-1.83-3.17-2.92-4.66-1.77-2.42-3.66-5.32-7.1-4.88-.31.04-.61.1-.89.19-1.82-1.16-5.03-2.93-5.92-1.58-.98,1.49,2.04,1.23,2.87,3.96-1.66,2.58-1.74,6.48-.23,8.97ZM47.74,95.41c.53-.32,1.22-.16,1.54.37.32.53.16,1.22-.37,1.54-.53.32-1.22.16-1.54-.37-.32-.53-.16-1.22.37-1.54ZM26.93,75.92c2.36,1.22,4.62,4.85,3.96,7.56-.12.51-.32.9-.56,1.2-1.79,2.14-6.4-.95-7.65-2.68-2.33-3.24.21-8.17,4.25-6.08Z"/>
      </g>
      <path class="cls-2" d="M29.02,125.68l49.59-68.61c.9-1.25,2.68-1.43,3.82-.4h0s6.57,5.31,6.57,5.31c.25.2.3.56.11.82-.19.26-.55.32-.81.14l-6.6-4.44c-.23-.16-.54-.1-.71.12h0c-.17.23-.13.55.09.73l6.2,4.95c.24.19.32.52.16.78-.18.3-.57.38-.85.19l-6.6-4.49c-.23-.16-.55-.11-.71.12l-.02.03c-.17.23-.13.55.09.73l6.22,4.96c.24.19.32.52.16.78-.18.3-.57.38-.85.19l-6.62-4.5c-.23-.16-.55-.11-.71.12l-.02.03c-.17.23-.13.55.09.73l6.26,5c.25.2.3.56.11.82h0c-.19.26-.55.32-.81.14l-6.65-4.52c-.23-.16-.55-.11-.71.12l-.02.03c-.17.23-.13.55.09.73l6.26,5c.24.19.32.52.16.78-.18.3-.57.38-.85.19l-6.67-4.53c-.23-.16-.55-.11-.71.12l-.02.02c-.17.23-.13.55.09.73l6.28,5.01c.24.19.32.52.16.78-.18.3-.57.38-.85.19l-6.69-4.55c-.23-.16-.55-.11-.71.12l-.02.02c-.17.23-.13.55.09.73l6.32,5.05c.25.2.3.56.11.82h0c-.19.26-.55.32-.81.14l-6.71-4.56c-.23-.16-.55-.11-.71.12l-.02.02c-.17.23-.13.55.09.73l6.33,5.05c.24.19.32.52.16.78-.18.3-.57.38-.85.19l-6.74-4.58c-.23-.16-.55-.11-.71.12v.02c-.19.23-.14.55.08.73l6.35,5.07c.24.19.32.52.16.78-.18.3-.57.38-.85.19l-6.76-4.59c-.23-.16-.55-.11-.71.12v.02c-.18.23-.14.55.08.73l6.39,5.1c.25.2.3.56.11.82h0c-.19.26-.55.32-.81.14l-6.78-4.61c-.23-.16-.55-.11-.71.12v.02c-.18.23-.14.55.08.73l6.39,5.1c.24.19.32.52.16.78-.18.3-.57.38-.85.19l-6.8-4.62c-.23-.16-.55-.11-.71.12h-.01c-.17.24-.13.56.09.74l6.41,5.12c.24.19.32.52.16.78-.18.3-.57.38-.85.19l-6.83-4.64c-.23-.16-.55-.11-.71.12h0c-.17.24-.13.56.09.74l6.43,5.13c.24.19.32.52.16.78-.18.3-.57.38-.85.19l-6.85-4.66c-.23-.16-.55-.11-.71.12h0c-.17.24-.13.56.09.74l6.45,5.15c.24.19.32.52.16.78-.18.3-.57.38-.85.19l-6.87-4.67c-.23-.16-.55-.11-.71.12h0c-.17.24-.13.56.09.73l6.47,5.17c.24.19.32.52.16.78-.18.3-.57.38-.85.19l-6.89-4.69c-.23-.16-.55-.11-.71.12h0c-.17.23-.13.56.09.73l6.52,5.2c.27.21.3.61.07.87-.2.22-.55.25-.8.08l-6.9-4.69c-.23-.16-.55-.11-.71.12h0c-.17.23-.13.55.09.73l6.52,5.2c.24.19.32.52.16.78-.18.3-.57.38-.85.19l-4.81-3.27c-1.42-.97-3.36-.65-4.39.73l-21.67,28.81c-.2.27-.58.32-.84.12-.27-.2-.33-.57-.13-.84Z"/>
    </g>
  </g>
</svg>