<?xml version="1.0" encoding="UTF-8"?>
<svg id="_レイヤー_2" data-name="レイヤー 2" xmlns="http://www.w3.org/2000/svg" viewBox="0 0 289.22 137.39">
  <defs>
    <style>
      .cls-1 {
        opacity: .3;
      }

      .cls-2 {
        fill: #ec7980;
        stroke-width: 0px;
      }
    </style>
  </defs>
  <g id="_コンテンツ" data-name="コンテンツ">
    <g class="cls-1">
      <g>
        <path class="cls-2" d="M34.28,116.96c-5.44.67-10.67.4-15.68-.79-5.02-1.19-9.22-3.26-12.6-6.21-3.38-2.95-5.35-6.67-5.9-11.17-.18-1.44-.11-3,.2-4.68.41-2.29,1.04-3.49,1.89-3.59,1.27-.16,2,.49,2.18,1.93.07.6,0,1.42-.21,2.48-.21,1.06-.26,2.06-.15,2.99.46,3.74,2.13,6.83,5.02,9.28,2.89,2.45,6.44,4.15,10.65,5.1,4.21.95,8.53,1.15,12.94.61,9.6-1.18,17.47-4.47,23.62-9.88,3.19-2.81,5.73-6.03,7.61-9.67,1.88-3.64,2.59-7.37,2.12-11.19-.43-3.48-1.65-6.26-3.68-8.35-2.02-2.08-4.67-3.76-7.93-5.04-3.26-1.28-6.97-2.36-11.13-3.22-11.87-2.59-18.16-6.74-18.86-12.43-.38-3.06.41-6.13,2.36-9.21,1.95-3.08,4.45-5.91,7.49-8.49,3.05-2.57,6.03-4.6,8.95-6.08,4.29-2.25,8.33-3.93,12.12-5.04,3.79-1.11,7.34-1.87,10.65-2.28,4.5-.55,7.81.1,9.94,1.95,2.12,1.85,3.37,4.31,3.75,7.37.29,2.38,0,4.74-.87,7.09-.88,2.35-2.19,4.45-3.95,6.3-1.98,2.14-3.65,3.29-5.01,3.46-1.45.18-2.25-.41-2.42-1.77-.09-.76.22-1.36.94-1.8,5.33-3.59,7.7-7.89,7.08-12.9-.27-2.21-1.09-3.77-2.45-4.68-1.36-.91-3.53-1.18-6.5-.82-2.72.33-5.72,1-9,2.01-3.28,1.01-6.59,2.32-9.93,3.94-2.92,1.48-5.84,3.35-8.75,5.6-2.91,2.26-5.28,4.62-7.08,7.08-1.81,2.47-2.58,4.8-2.31,7.01.57,4.67,5.53,7.86,14.88,9.55,16.15,3.02,24.85,9.62,26.1,19.82.38,3.06.04,6.16-.99,9.3-1.04,3.15-2.53,6.09-4.48,8.83-1.95,2.74-4.09,5.16-6.42,7.25-3.34,3-7.08,5.33-11.23,7-4.15,1.67-8.47,2.79-12.98,3.34Z"/>
        <path class="cls-2" d="M87.94,113.73c-1.62.2-2.58-.98-2.89-3.53-.46-3.74.84-10.54,3.9-20.4,3.06-9.86,7.82-22.86,14.29-39-3.23.4-6.22,1.17-8.96,2.33-2.75,1.16-4.13,2.34-4.16,3.55-.04.35-.19.69-.46,1.03-.26.33-.69.54-1.28.61-1.36.17-2.12-.43-2.29-1.79-.27-2.21,1.24-4.25,4.55-6.12,3.3-1.87,8.1-3.19,14.39-3.96l7.01-15.61c.48-1.01.99-2.12,1.53-3.36.54-1.23,1.15-2.58,1.83-4.04.7-1.29,1.61-2.01,2.71-2.14.68-.08,1.21.05,1.6.39.38.34.61.72.66,1.15.16,1.27-1.3,4.9-4.35,10.88-3.83,7.45-5.88,11.5-6.14,12.14,1.27-.16,3.2-.28,5.77-.39,2.57-.1,5.63-.15,9.16-.15,1.28-.07,2,.49,2.15,1.68.17,1.36-.52,2.13-2.04,2.32-.59.07-1.8.11-3.61.12-1.81,0-3.75.05-5.8.13-2.06.08-3.81.25-5.24.51l-1.9.36c-13.52,32.44-19.79,52.35-18.79,59.73l.25,1,.03.25c.17,1.36-.47,2.13-1.92,2.3Z"/>
        <path class="cls-2" d="M121.55,101.97c-4.93.6-7.68-1.43-8.25-6.1-.38-3.06-.04-6.44,1.02-10.15,1.05-3.71,2.65-7.39,4.79-11.06,2.14-3.67,4.61-7.08,7.41-10.22,2.8-3.15,5.76-5.75,8.87-7.82,3.11-2.06,6.19-3.28,9.25-3.66,5.43-.67,8.48,1.67,9.14,7.03.43,3.48-.21,5.33-1.91,5.54-1.53.19-2.38-.44-2.56-1.88-.07-.59,0-1.23.22-1.9.22-.67.28-1.39.19-2.16-.29-2.38-2.05-3.37-5.28-2.97-5.18.64-11.19,5.38-18.04,14.24-1.63,2.18-3.17,4.7-4.63,7.55-1.46,2.85-2.6,5.69-3.42,8.5-.82,2.82-1.08,5.42-.79,7.79.28,2.29,1.7,3.28,4.25,2.97,2.21-.27,4.48-1.24,6.82-2.91,2.34-1.67,4.35-3.34,6.05-5.01,3.39-3.26,6.75-7.55,10.06-12.88.51-.75,1.17-1.74,1.96-2.96.8-1.22,1.71-2.58,2.73-4.09.37-.48.86-.75,1.45-.83,1.36-.17,2.12.43,2.29,1.79l-3.95,7.86c-2.65,5.15-3.78,9.26-3.4,12.32.27,2.21,1.47,3.18,3.59,2.92,1.78-.22,3.68-.92,5.69-2.12,2.01-1.19,3.63-2.34,4.88-3.44,2.5-2.12,5.07-4.7,7.71-7.74s5.16-6.09,7.54-9.14c.3-.38.79-.61,1.47-.7,1.27-.16,1.97.28,2.1,1.29.12.94-.35,2.07-1.39,3.4-2.98,3.82-5.68,7.1-8.1,9.86-2.42,2.75-4.77,5.05-7.05,6.88-1.5,1.13-3.38,2.36-5.63,3.67-2.25,1.31-4.91,2.16-7.97,2.53-4.16.51-6.51-1.44-7.06-5.86-.21-1.7-.17-3.12.12-4.28-6.82,8.34-13.55,12.92-20.17,13.73Z"/>
        <path class="cls-2" d="M170.9,137.3c-2.72.33-4.76-.34-6.13-2.03s-2.24-4.06-2.62-7.11c-.86-6.97,1.09-18.11,5.85-33.44-.38-.3-.6-.7-.67-1.21-.1-.85.56-1.79,1.98-2.83,3.39-9.64,6.58-18.2,9.59-25.69,3-7.48,5.78-13.88,8.31-19.19,8.55-17.43,16.65-29.77,24.3-37,1-.98,1.98-1.79,2.93-2.43.96-.63,1.95-1.01,2.96-1.14,1.36-.17,2.11.3,2.24,1.41.07.59-.09,1.24-.47,1.93-.39.69-1.05,1.79-1.99,3.28-1.1,1.6-2.38,3.46-3.84,5.58-1.47,2.12-2.98,4.31-4.56,6.57-1.58,2.26-3.03,4.32-4.35,6.16-1.33,1.84-2.4,3.29-3.22,4.34l-10.24,13.54-3.28,7c-.9,1.84-1.95,4.31-3.16,7.44-1.21,3.12-2.64,6.81-4.27,11.07-.65,1.72-1.48,3.93-2.48,6.64-1.01,2.71-2.14,5.91-3.41,9.6.69,0,1.32.08,1.9.22.58.14,1.14.31,1.68.5,11.2-5,21.43-12.63,30.69-22.91.54-.5,1.03-.77,1.45-.82,1.44-.18,2.24.37,2.4,1.65.04.34-.02.69-.19,1.06-.17.37-.36.74-.57,1.11-1.11,1.52-2.74,3.31-4.9,5.39-2.16,2.08-4.9,4.35-8.22,6.83-2.85,2.07-5.61,3.99-8.28,5.74-2.67,1.75-5.27,3.26-7.79,4.51,2.73,2.59,4.38,6.14,4.93,10.65.76,6.2-.27,12.88-3.1,20.04-3.29,8.34-7.78,12.85-13.47,13.55ZM169.66,133.57c2.46-.3,4.7-1.61,6.7-3.93s3.61-5.19,4.83-8.61c.91-2.44,1.57-5.3,1.99-8.59.42-3.28.48-6.12.18-8.49-.58-4.76-2.42-7.77-5.5-9.03-1.08.31-2.09.58-3,.82-.92.24-1.81.37-2.67.39l.02.13c-5.19,16.76-7.42,28.07-6.7,33.93.16,1.28.61,2.19,1.37,2.74.76.55,1.69.76,2.79.63ZM213.2,132.11c-2.72.33-4.76-.34-6.13-2.03-1.37-1.69-2.25-4.06-2.62-7.12-.86-6.97,1.09-18.11,5.85-33.44-.38-.3-.6-.7-.67-1.21-.1-.85.56-1.79,1.98-2.83,3.39-9.64,6.58-18.2,9.59-25.69,3-7.48,5.78-13.88,8.31-19.19,8.55-17.43,16.65-29.77,24.3-37,1-.98,1.98-1.8,2.93-2.43.96-.63,1.95-1.01,2.96-1.14,1.36-.17,2.11.3,2.24,1.41.07.59-.09,1.24-.47,1.93-.39.69-1.05,1.79-1.99,3.28-1.1,1.6-2.38,3.46-3.84,5.58-1.47,2.12-2.99,4.31-4.56,6.57-1.58,2.26-3.03,4.32-4.35,6.16-1.33,1.84-2.4,3.29-3.22,4.34l-10.24,13.54-3.28,7c-.9,1.84-1.95,4.31-3.16,7.44-1.21,3.12-2.63,6.81-4.27,11.07-.65,1.72-1.48,3.93-2.48,6.64-1,2.71-2.14,5.91-3.41,9.6.69,0,1.32.08,1.9.22.58.14,1.14.31,1.68.5,11.2-5,21.43-12.63,30.69-22.91.54-.5,1.03-.77,1.45-.82,1.44-.18,2.25.37,2.4,1.65.04.34-.02.69-.19,1.06s-.36.74-.58,1.11c-1.11,1.52-2.74,3.31-4.9,5.39-2.16,2.08-4.9,4.35-8.22,6.83-2.85,2.08-5.61,3.99-8.29,5.74-2.67,1.75-5.27,3.26-7.79,4.51,2.73,2.59,4.38,6.14,4.93,10.65.76,6.2-.27,12.88-3.1,20.04-3.29,8.34-7.78,12.85-13.47,13.55ZM211.97,128.38c2.46-.3,4.69-1.61,6.7-3.93,2-2.32,3.61-5.19,4.83-8.61.91-2.44,1.57-5.3,1.99-8.59.41-3.28.48-6.12.18-8.49-.58-4.76-2.42-7.77-5.5-9.02-1.08.31-2.08.58-3,.82-.92.24-1.81.37-2.67.39l.02.13c-5.19,16.76-7.42,28.07-6.7,33.93.16,1.28.61,2.19,1.37,2.74.76.55,1.69.76,2.79.63Z"/>
        <path class="cls-2" d="M261.43,87.77c-4.76.58-7.33-.7-7.71-3.84-.24-1.95.22-3.99,1.38-6.12,1.16-2.12,2.62-4.11,4.38-5.97,1.75-1.85,3.43-3.31,5.02-4.37.48-.32,1.15-.66,2.01-1.02s1.59-.58,2.18-.66c.68-.08,1.05.13,1.11.64.05.43-.36.95-1.23,1.57-3.68,2.35-6.44,4.95-8.29,7.81-1.85,2.86-2.67,5.09-2.47,6.71.19,1.53,1.6,2.13,4.23,1.81,2.21-.27,4.54-1.12,7-2.54,2.46-1.42,4.74-3.17,6.86-5.24,2.12-2.07,3.81-4.22,5.09-6.45s1.8-4.27,1.57-6.14c-.16-1.27-.7-2.37-1.63-3.29-.93-.92-2.32-1.53-4.17-1.82l-8.72-1.51c-2.21-.42-3.85-1.12-4.92-2.11-1.07-.99-1.69-2.16-1.85-3.52-.31-2.55.36-4.96,2.02-7.23,1.66-2.27,3.86-4.18,6.61-5.73,2.74-1.54,5.47-2.48,8.19-2.82,2.72-.33,5.18.03,7.38,1.1,2.2,1.07,3.44,2.7,3.71,4.91.16,1.27-.06,2.51-.64,3.7-.59,1.19-1.35,1.85-2.28,1.96-1.45.18-2.24-.33-2.38-1.52-.05-.42.12-.98.5-1.68.39-.7.55-1.34.47-1.93-.31-2.55-2.42-3.58-6.33-3.1-2.12.26-4.17.96-6.14,2.11-1.97,1.15-3.55,2.53-4.73,4.14-1.18,1.61-1.67,3.27-1.46,4.97.21,1.7,2.07,2.85,5.6,3.45l8.47,1.55c2.56.46,4.38,1.29,5.48,2.5,1.1,1.2,1.74,2.61,1.94,4.22.47,3.82-1.38,8.06-5.55,12.71-6.74,7.64-13.63,11.89-20.68,12.76Z"/>
      </g>
    </g>
  </g>
</svg>