<?xml version="1.0" encoding="UTF-8"?>
<svg id="_レイヤー_2" data-name="レイヤー_2" xmlns="http://www.w3.org/2000/svg" viewBox="0 0 109.29 116.33">
  <defs>
    <style>
      .cls-1 {
        stroke-width: 3.68px;
      }

      .cls-1, .cls-2 {
        stroke: #ed7980;
      }

      .cls-1, .cls-2, .cls-3 {
        fill: none;
      }

      .cls-1, .cls-3 {
        stroke-miterlimit: 10;
      }

      .cls-4 {
        fill: #ed7980;
      }

      .cls-2 {
        stroke-linecap: round;
        stroke-linejoin: round;
        stroke-width: .69px;
      }

      .cls-3 {
        stroke: #ca4844;
        stroke-width: .92px;
      }
    </style>
  </defs>
  <g id="_レイヤー_1-2" data-name="レイヤー_1">
    <g>
      <polygon class="cls-1" points="6.11 30.15 6.11 86.19 54.64 114.21 103.18 86.19 103.18 30.15 54.64 2.13 6.11 30.15"/>
      <polygon class="cls-3" points=".51 43.66 15.02 97.79 69.15 112.3 108.78 72.67 94.27 18.54 40.14 4.04 .51 43.66"/>
      <path class="cls-4" d="M49.73,88.26c.21-1.94,1.93-4.7,2.62-5.75,1.97.44,4.12-.2,5.52-1.85,1.74-2.06,1.75-5,.17-7.05h0s0,0-.02-.02c-.02-.03-.05-.06-.07-.09-.33-.41-1.43-1.97-1.41-3.92.41-2.25,2.59-9.49,6.81-16.74,5.22-5.13,16.83-16.56,16.89-16.79.08-.29-.29-.74-.29-.74l-12.66,9.62,7.03-14.69s-.45-.33-.79.07c-.31.36-9.79,14.47-11.69,17.3,0,0-1.34,1.63-2.51,3.8-5.97,4.82-12.28,7.7-14.3,8.43-1.91.34-3.63-.5-4.1-.75-.03-.02-.07-.04-.1-.06-.01,0-.02-.01-.02-.01h0c-2.28-1.22-5.19-.73-6.93,1.32-2.01,2.37-1.71,5.91.65,7.91s5.91,1.71,7.91-.65c.56-.66.94-1.4,1.14-2.19v.02c.16-.66,1.52-3.35,2.05-3.98s7.61-3.69,11.19-4.29c.14-.02.27-.05.41-.09-.01.14-.02.28-.02.42-.02,3.63-1.87,11.11-2.41,11.74s-2.96,2.41-3.59,2.67h.02c-.74.34-1.41.83-1.97,1.49-2.01,2.37-1.71,5.91.65,7.91.07.06.13.11.2.16-1.75,3.64-.43,6.78-.43,6.78ZM41.21,66.54c-1.42,1.67-3.92,1.88-5.59.46s-1.88-3.92-.46-5.59c1.42-1.67,3.92-1.88,5.59-.46s1.88,3.92.46,5.59ZM50.56,74.47c1.42-1.67,3.92-1.88,5.59-.46s1.88,3.92.46,5.59c-1.42,1.67-3.92,1.88-5.59.46s-1.88-3.92-.46-5.59Z"/>
      <path class="cls-2" d="M70.26,76.57l-6.56-7.73M73.74,72.92l-8.03-6.19M76.39,68.64l-9.12-4.41M78.09,63.87l-9.85-2.38M78.76,58.88l-10.13-.29M78.37,53.78l-9.97,1.81M31.18,52.5l9.85,2.38M32.88,47.74l9.14,4.38M35.53,43.44l8.01,6.2M38.98,39.81l6.6,7.69M43.15,36.95l4.83,8.91M47.81,35.02l2.87,9.72M57.79,34.24l-1.29,10.05M52.78,34.11l.76,10.1"/>
    </g>
  </g>
</svg>