<?xml version="1.0" encoding="UTF-8"?>
<svg id="_レイヤー_2" data-name="レイヤー_2" xmlns="http://www.w3.org/2000/svg" viewBox="0 0 204.08 14.69">
  <defs>
    <style>
      .cls-1 {
        fill: #fff;
      }
    </style>
  </defs>
  <g id="WF">
    <g>
      <path class="cls-1" d="M0,0h5.9c4.5,0,7.56,2.84,7.56,7s-3.06,7-7.56,7H0V0ZM5.78,12.26c3.46,0,5.68-2.12,5.68-5.26S9.24,1.74,5.78,1.74h-3.78v10.52h3.78Z"/>
      <path class="cls-1" d="M27.78,9.34h-8.6c.24,1.86,1.74,3.1,3.84,3.1,1.24,0,2.28-.42,3.06-1.28l1.06,1.24c-.96,1.12-2.42,1.72-4.18,1.72-3.42,0-5.7-2.26-5.7-5.42s2.26-5.4,5.32-5.4,5.24,2.2,5.24,5.46c0,.16-.02.4-.04.58ZM19.18,7.96h6.8c-.2-1.78-1.54-3.04-3.4-3.04s-3.2,1.24-3.4,3.04Z"/>
      <path class="cls-1" d="M31.5,8.7c0-3.16,2.34-5.4,5.6-5.4,1.9,0,3.48.78,4.32,2.26l-1.46.94c-.68-1.04-1.72-1.52-2.88-1.52-2.08,0-3.64,1.46-3.64,3.72s1.56,3.74,3.64,3.74c1.16,0,2.2-.48,2.88-1.52l1.46.92c-.84,1.48-2.42,2.28-4.32,2.28-3.26,0-5.6-2.26-5.6-5.42Z"/>
      <path class="cls-1" d="M44.76,8.7c0-3.16,2.34-5.4,5.52-5.4s5.5,2.24,5.5,5.4-2.32,5.42-5.5,5.42-5.52-2.26-5.52-5.42ZM53.84,8.7c0-2.26-1.52-3.72-3.56-3.72s-3.58,1.46-3.58,3.72,1.54,3.74,3.58,3.74,3.56-1.48,3.56-3.74Z"/>
      <path class="cls-1" d="M70.08,14l-3.02-4.3c-.28.02-.58.04-.88.04h-3.46v4.26h-2V0h5.46c3.64,0,5.84,1.84,5.84,4.88,0,2.16-1.12,3.72-3.08,4.42l3.32,4.7h-2.18ZM70.02,4.88c0-2-1.34-3.14-3.9-3.14h-3.4v6.3h3.4c2.56,0,3.9-1.16,3.9-3.16Z"/>
      <path class="cls-1" d="M85.28,7.6v6.4h-1.82v-1.4c-.64.96-1.82,1.52-3.48,1.52-2.4,0-3.92-1.28-3.92-3.12,0-1.7,1.1-3.1,4.26-3.1h3.04v-.38c0-1.62-.94-2.56-2.84-2.56-1.26,0-2.54.44-3.36,1.14l-.8-1.44c1.1-.88,2.68-1.36,4.38-1.36,2.9,0,4.54,1.4,4.54,4.3ZM83.36,10.76v-1.48h-2.96c-1.9,0-2.44.74-2.44,1.64,0,1.06.88,1.72,2.34,1.72s2.58-.66,3.06-1.88Z"/>
      <path class="cls-1" d="M104.51,1.51v10.39h-.95v-1.46c-.6.99-1.62,1.53-2.84,1.53-2.1,0-3.67-1.53-3.67-3.75s1.57-3.74,3.67-3.74c1.18,0,2.19.5,2.8,1.46V1.51h.99ZM103.53,8.22c0-1.72-1.18-2.87-2.73-2.87s-2.75,1.15-2.75,2.87,1.18,2.87,2.75,2.87,2.73-1.15,2.73-2.87Z"/>
      <path class="cls-1" d="M115.09,8.53h-6.16c.11,1.54,1.29,2.56,2.9,2.56.9,0,1.7-.32,2.26-.97l.56.64c-.66.78-1.68,1.2-2.84,1.2-2.3,0-3.87-1.57-3.87-3.75s1.53-3.74,3.6-3.74,3.57,1.53,3.57,3.74c0,.08-.01.2-.01.31ZM108.93,7.78h5.22c-.13-1.44-1.18-2.45-2.62-2.45s-2.48,1.01-2.61,2.45Z"/>
      <path class="cls-1" d="M117.51,11.06l.45-.78c.59.46,1.58.83,2.62.83,1.4,0,1.98-.48,1.98-1.2,0-1.92-4.78-.41-4.78-3.32,0-1.2,1.04-2.1,2.91-2.1.95,0,1.99.27,2.61.69l-.43.8c-.64-.45-1.41-.63-2.17-.63-1.33,0-1.92.52-1.92,1.22,0,1.99,4.78.49,4.78,3.32,0,1.27-1.12,2.1-3.04,2.1-1.22,0-2.39-.39-3-.91Z"/>
      <path class="cls-1" d="M126.56,2.21c0-.38.32-.7.73-.7s.73.31.73.69c0,.41-.31.73-.73.73s-.73-.32-.73-.71ZM126.78,4.53h.99v7.37h-.99v-7.37Z"/>
      <path class="cls-1" d="M138.77,4.53v6.47c0,2.54-1.25,3.68-3.68,3.68-1.34,0-2.66-.41-3.43-1.13l.5-.76c.7.63,1.77,1.01,2.9,1.01,1.86,0,2.72-.85,2.72-2.68v-.94c-.62.94-1.67,1.43-2.87,1.43-2.1,0-3.7-1.47-3.7-3.59s1.6-3.56,3.7-3.56c1.23,0,2.3.5,2.91,1.47v-1.42h.95ZM137.8,8.04c0-1.6-1.18-2.69-2.8-2.69s-2.79,1.09-2.79,2.69,1.16,2.7,2.79,2.7,2.8-1.11,2.8-2.7Z"/>
      <path class="cls-1" d="M149.73,7.63v4.27h-.99v-4.17c0-1.55-.81-2.35-2.21-2.35-1.58,0-2.58.98-2.58,2.66v3.87h-.99v-7.37h.95v1.36c.53-.9,1.53-1.41,2.8-1.41,1.79,0,3.03,1.04,3.03,3.15Z"/>
      <path class="cls-1" d="M169.71,4.53l-2.79,7.37h-.94l-2.33-6.04-2.33,6.04h-.94l-2.77-7.37h.95l2.31,6.26,2.37-6.26h.85l2.35,6.26,2.34-6.26h.91Z"/>
      <path class="cls-1" d="M171.65,8.22c0-2.19,1.6-3.74,3.75-3.74s3.74,1.55,3.74,3.74-1.58,3.75-3.74,3.75-3.75-1.57-3.75-3.75ZM178.13,8.22c0-1.72-1.16-2.87-2.73-2.87s-2.75,1.15-2.75,2.87,1.18,2.87,2.75,2.87,2.73-1.15,2.73-2.87Z"/>
      <path class="cls-1" d="M186.28,4.48v.97c-.08,0-.17-.01-.24-.01-1.54,0-2.48.98-2.48,2.72v3.75h-.99v-7.37h.95v1.44c.46-.98,1.4-1.5,2.76-1.5Z"/>
      <path class="cls-1" d="M192.2,8.2l-1.74,1.6v2.1h-.99V1.51h.99v7.05l4.4-4.02h1.23l-3.15,3.01,3.45,4.36h-1.22l-2.97-3.7Z"/>
      <path class="cls-1" d="M198.04,11.06l.45-.78c.59.46,1.58.83,2.62.83,1.4,0,1.98-.48,1.98-1.2,0-1.92-4.78-.41-4.78-3.32,0-1.2,1.04-2.1,2.91-2.1.95,0,1.99.27,2.61.69l-.43.8c-.64-.45-1.41-.63-2.17-.63-1.33,0-1.92.52-1.92,1.22,0,1.99,4.78.49,4.78,3.32,0,1.27-1.12,2.1-3.04,2.1-1.22,0-2.39-.39-3-.91Z"/>
    </g>
  </g>
</svg>