<?xml version="1.0" encoding="UTF-8"?>
<svg id="_レイヤー_2" data-name="レイヤー_2" xmlns="http://www.w3.org/2000/svg" viewBox="0 0 357.66 441.53">
  <g id="_ロゴマーク" data-name="ロゴマーク">
    <g>
      <path d="M293.22,351.89c38.52-10.44,60.48-38.16,60.48-78.84,0-52.56-37.44-83.52-100.08-83.52h-18.95v11.16h19.67c56.52,0,87.48,26.28,87.48,72.36s-30.96,72.72-87.48,72.72h-75.96v-145.08h51.29v-11.16h-63.53v252h12.24v-84.6h75.24c9.72,0,19.08-.72,27.36-2.16l62.28,86.76h14.4l-64.44-89.64Z"/>
      <path d="M133.56,0C53.64,0,0,52.92,0,126s53.64,126,133.56,126h44.1v-11.16h-43.38c-74.52,0-122.04-48.24-122.04-114.84S59.76,11.16,134.28,11.16h84.24v229.68h-35.86v11.16h48.1V0h-97.2Z"/>
    </g>
  </g>
</svg>