<?xml version="1.0" encoding="UTF-8"?>
<svg id="_レイヤー_2" data-name="レイヤー_2" xmlns="http://www.w3.org/2000/svg" viewBox="0 0 353.55 43.36">
  <defs>
    <style>
      .cls-1 {
        fill: #fff;
      }
    </style>
  </defs>
  <g id="WF">
    <g>
      <path class="cls-1" d="M1.5,43.36c-1,0-1.5-.36-1.5-1.08,0-.36.43-2.39,1.28-6.1.39-1.58.86-3.55,1.39-5.91.54-2.36,1.16-5.12,1.87-8.29.29-1.44.51-2.92.67-4.43.16-1.51.24-3.1.24-4.75,0-1.48-.04-2.66-.13-3.56-.09-.9-.31-1.58-.67-2.05-.32-.43-.48-.76-.48-.97,0-.58.29-.86.86-.86.61,0,1.16.4,1.66,1.19.21.32.39.97.54,1.94.14.97.21,2.27.21,3.89,0,1.73-.08,3.41-.24,5.05-.16,1.64-.42,3.25-.78,4.83-.39,1.98-.93,4.46-1.61,7.43-.68,2.97-1.52,6.44-2.52,10.4.82-.79,1.73-1.77,2.73-2.94,1-1.17,2.03-2.38,3.08-3.64,1.05-1.26,2.03-2.48,2.94-3.67s1.69-2.21,2.35-3.08c.66-.86,1.12-1.48,1.37-1.84,2.68-3.82,4.98-6.92,6.9-9.31,1.93-2.39,3.51-4.28,4.76-5.67,1.25-1.39,2.16-2.46,2.73-3.21.21-.29.45-.58.7-.86.25-.29.57-.43.96-.43.68,0,1.02.36,1.02,1.08,0,.29-.05.54-.16.76-.11.22-.23.52-.38.92-.43,1.12-.96,2.63-1.61,4.54-2.5,7.7-3.75,16.45-3.75,26.24.71-.58,1.65-1.52,2.81-2.83,1.16-1.31,2.52-2.98,4.09-5,1-1.33,2.27-2.96,3.8-4.89,1.53-1.93,3.34-4.17,5.41-6.72,2.25-2.66,4.23-4.94,5.94-6.83,1.71-1.89,3.16-3.41,4.33-4.56C57.77,2.7,61.76,0,64.33,0c.82,0,1.23.32,1.23.97,0,.29-.08.5-.24.62-.16.13-.33.19-.51.19-.14,0-.28-.02-.4-.05-.12-.04-.26-.05-.4-.05-1.89,0-5.55,2.74-10.97,8.21-1.75,1.76-3.47,3.57-5.17,5.43-1.7,1.85-3.22,3.65-4.58,5.37-1.68,2.16-3.36,4.35-5.06,6.56-1.7,2.21-3.54,4.6-5.54,7.16-1.39,1.8-2.5,3.17-3.32,4.1-.82.94-1.41,1.58-1.77,1.94-.32.32-.6.58-.83.78-.23.2-.44.3-.62.3-.36,0-.77-.17-1.23-.51-.46-.34-.7-.67-.7-1,0-11.34,1.46-21.28,4.39-29.81-1.32,1.33-2.86,3.09-4.63,5.27-1.77,2.18-3.79,4.78-6.08,7.8-1.82,2.41-3.4,4.5-4.74,6.26-1.34,1.76-2.42,3.2-3.24,4.32-1.75,2.27-3.24,4.13-4.47,5.59-1.23,1.46-2.17,2.51-2.81,3.16-.21.25-.4.44-.56.57-.16.13-.37.19-.62.19Z"/>
      <path class="cls-1" d="M50.15,40.61c-.57,0-.86-.29-.86-.86,0-.76.27-1.95.8-3.59.54-1.64,1.24-3.53,2.11-5.67.87-2.14,1.81-4.35,2.81-6.62.57-1.26,1.16-2.49,1.77-3.7.61-1.21,1.18-2.26,1.71-3.16,5.28-9,8.56-13.5,9.85-13.5.5,0,.75.25.75.76,0,.32-.24.93-.72,1.81-.48.88-1.11,1.91-1.87,3.08-.77,1.17-1.59,2.35-2.46,3.54-.88,1.19-1.7,2.28-2.46,3.27-.77.99-1.38,1.74-1.85,2.24-.39.47-.83,1.15-1.31,2.05-.48.9-.96,1.83-1.42,2.78-.46.95-.84,1.79-1.12,2.51l-2.03,5.08c.54-.72,1.23-1.53,2.09-2.43,2.03-2.27,4.15-3.99,6.34-5.16,2.19-1.17,4.04-1.75,5.54-1.75.82,0,1.48.25,1.98.76.5.5.75,1.12.75,1.84,0,1.4-.91,3.76-2.73,7.07-1.82,3.28-2.73,5.29-2.73,6.05,0,.4.21.59.64.59,1,0,2.09-.37,3.26-1.11,1.18-.74,2.39-1.68,3.64-2.83,1.25-1.15,2.46-2.3,3.64-3.46.14-.14.36-.22.64-.22.54,0,.8.22.8.65,0,.4-.25.85-.75,1.35-2.39,2.41-4.44,4.21-6.15,5.4-1.71,1.19-3.52,1.78-5.41,1.78-1.43,0-2.14-.67-2.14-2,0-.5.09-.99.27-1.46.18-.47.46-1.1.86-1.89l2.46-4.91c.61-1.22,1.05-2.25,1.34-3.08.29-.83.43-1.46.43-1.89,0-.61-.38-.92-1.12-.92-1.32,0-2.86.53-4.63,1.59-1.77,1.06-3.65,2.66-5.65,4.78-1.14,1.22-2.17,2.52-3.08,3.89-.91,1.37-1.63,2.84-2.17,4.43l-.64,1.89c-.25.68-.64,1.03-1.18,1.03Z"/>
      <path class="cls-1" d="M76.8,40.18c-2.07,0-3.1-.99-3.1-2.97,0-1.3.31-2.69.94-4.19.62-1.49,1.47-2.95,2.54-4.37,1.07-1.42,2.26-2.72,3.59-3.89,1.32-1.17,2.68-2.11,4.07-2.81s2.73-1.05,4.01-1.05c2.28,0,3.43,1.13,3.43,3.4,0,1.48-.36,2.21-1.07,2.21-.64,0-.96-.31-.96-.92,0-.25.06-.51.19-.78.12-.27.19-.57.19-.89,0-1.01-.68-1.51-2.03-1.51-2.18,0-4.91,1.67-8.19,5.02-.79.83-1.55,1.8-2.3,2.92-.75,1.12-1.36,2.24-1.85,3.38-.48,1.13-.72,2.21-.72,3.21s.54,1.46,1.61,1.46c.93,0,1.92-.29,2.97-.86,1.05-.58,1.97-1.17,2.76-1.78,1.57-1.19,3.18-2.81,4.82-4.86.25-.29.57-.67.96-1.13.39-.47.84-.99,1.34-1.57.18-.18.39-.27.64-.27.57,0,.86.29.86.86l-2.03,3.08c-1.36,2.02-2.03,3.67-2.03,4.97,0,.94.45,1.4,1.34,1.4.75,0,1.57-.2,2.46-.59.89-.4,1.62-.79,2.19-1.19,1.14-.76,2.34-1.7,3.59-2.83,1.25-1.13,2.44-2.28,3.59-3.43.14-.14.36-.22.64-.22.54,0,.8.22.8.65,0,.4-.25.85-.75,1.35-1.43,1.44-2.71,2.67-3.85,3.7-1.14,1.03-2.23,1.86-3.26,2.51-.68.4-1.52.81-2.52,1.24-1,.43-2.14.65-3.42.65-1.75,0-2.62-.94-2.62-2.81,0-.72.09-1.31.27-1.78-3.25,3.13-6.26,4.7-9.04,4.7Z"/>
      <path class="cls-1" d="M98.85,43.36c-.68,0-1.02-.54-1.02-1.62,0-1.58.88-4.36,2.65-8.32,1.77-3.96,4.4-9.14,7.89-15.55-1.36,0-2.63.17-3.83.51-1.2.34-1.83.77-1.9,1.27-.04.14-.12.28-.24.4-.13.13-.31.19-.56.19-.57,0-.86-.29-.86-.86,0-.94.73-1.71,2.19-2.32,1.46-.61,3.51-.92,6.16-.92l3.69-6.16c.25-.4.52-.84.8-1.32.29-.49.61-1.02.96-1.59.36-.5.77-.76,1.23-.76.29,0,.5.08.64.24.14.16.21.33.21.51,0,.54-.79,1.98-2.36,4.32-1.96,2.92-3.02,4.5-3.16,4.75.54,0,1.34.05,2.41.14,1.07.09,2.34.23,3.8.4.54.04.8.31.8.81,0,.58-.32.86-.96.86-.25,0-.75-.04-1.5-.14-.75-.09-1.55-.17-2.41-.24-.86-.07-1.59-.09-2.19-.05l-.8.05c-7.24,12.85-10.85,20.84-10.81,23.98l.05.43v.11c0,.58-.3.86-.91.86Z"/>
      <path class="cls-1" d="M128.66,40.23c-1,0-1.72-.2-2.17-.59-.45-.4-.67-.99-.67-1.78s.23-1.79.7-3.1c.46-1.31,1.06-2.73,1.79-4.24s1.51-2.95,2.33-4.32c.82-1.37,1.61-2.49,2.38-3.38.77-.88,1.38-1.32,1.85-1.32.64,0,.96.29.96.86,0,.36-.3,1.04-.91,2.05-.61,1.01-1.27,2.05-1.98,3.13-.29.4-.68.94-1.18,1.62-.5.68-.98,1.32-1.44,1.92-.46.59-.77,1-.91,1.21-.36.54-.73,1.42-1.12,2.65-.43,1.22-.64,2.16-.64,2.81,0,.29.06.5.19.65.12.14.42.22.88.22.89,0,1.89-.29,3-.86,1.11-.58,2.23-1.3,3.37-2.19,1.14-.88,2.22-1.79,3.24-2.73,1.02-.94,1.88-1.75,2.6-2.43.14-.14.36-.22.64-.22.54,0,.8.22.8.65,0,.4-.25.85-.75,1.35-.96.97-1.86,1.84-2.68,2.59-.82.76-1.61,1.42-2.35,2-1.18.86-2.48,1.66-3.91,2.38-1.43.72-2.77,1.08-4.01,1.08ZM137.76,18.36c-.61,0-.91-.31-.91-.92,0-.18.12-.51.37-1,.25-.49.54-.98.86-1.49.32-.5.57-.85.75-1.03.61-.68,1.08-1.12,1.42-1.3.34-.18.65-.27.94-.27.75,0,1.12.34,1.12,1.03,0,.25-.15.55-.46.89-.3.34-.65.66-1.04.94-.57.36-.93.65-1.07.86l-1.18,1.67c-.04.14-.12.28-.24.41-.12.13-.31.19-.56.19Z"/>
      <path class="cls-1" d="M140.38,41.42c-2,0-3-.67-3-2,0-.83.29-1.66.88-2.48.59-.83,1.29-1.58,2.11-2.27.82-.68,1.59-1.21,2.3-1.57.21-.11.51-.22.88-.32.38-.11.69-.16.94-.16.29,0,.43.11.43.32,0,.18-.2.38-.59.59-1.64.79-2.92,1.74-3.83,2.83-.91,1.1-1.36,1.99-1.36,2.67s.55.97,1.66.97c.93,0,1.93-.23,3.02-.7,1.09-.47,2.12-1.08,3.1-1.84.98-.76,1.79-1.57,2.44-2.43.64-.86.96-1.69.96-2.48,0-.54-.17-1.03-.51-1.46-.34-.43-.88-.76-1.63-.97l-3.53-1.08c-.89-.29-1.53-.67-1.93-1.13-.39-.47-.59-.99-.59-1.57,0-1.08.4-2.05,1.2-2.92.8-.86,1.81-1.55,3.02-2.05,1.21-.5,2.39-.76,3.53-.76s2.14.28,3,.84c.86.56,1.28,1.31,1.28,2.24,0,.54-.15,1.04-.46,1.51-.3.47-.65.7-1.04.7-.61,0-.91-.25-.91-.76,0-.18.1-.4.29-.67s.29-.53.29-.78c0-1.08-.82-1.62-2.46-1.62-.89,0-1.78.19-2.65.57-.88.38-1.6.87-2.17,1.48-.57.61-.86,1.28-.86,2s.71,1.3,2.14,1.73l3.42,1.08c1.04.32,1.75.77,2.14,1.32.39.56.59,1.18.59,1.86,0,1.62-.98,3.29-2.94,5.02-3.18,2.84-6.24,4.27-9.21,4.27Z"/>
      <path class="cls-1" d="M170.57,41.31c-.61,0-.91-.45-.91-1.35,0-1.37.68-3.72,2.03-7.05,1.36-3.33,3.41-7.6,6.16-12.82,1.57-2.95,2.85-5.4,3.85-7.34,1-1.94,1.78-3.5,2.35-4.67.57-1.17.98-2.05,1.23-2.65.25-.59.39-1.03.43-1.32,0-.14.04-.25.11-.32l-2.09-.11c-.46-.04-.81-.16-1.04-.38-.23-.22-.35-.45-.35-.7,0-.5.29-.76.86-.76,7.78,0,14.52,1.62,20.23,4.86,2.96,1.69,5.41,3.81,7.33,6.34,1.93,2.54,2.89,5.41,2.89,8.61,0,2.59-.71,4.82-2.14,6.7-1.43,1.87-3.36,3.49-5.81,4.86-2.44,1.37-5.2,2.59-8.27,3.67-2.07.72-4.37,1.41-6.9,2.08-2.53.67-5.01,1.2-7.44,1.59-2.43.4-4.57.59-6.42.59-1.28,0-2.28-.18-3-.54-.75-.4-1.12-.83-1.12-1.3,0-.4.21-.59.64-.59.29,0,.55.05.8.16.25.11.61.22,1.07.32.46.11,1.14.16,2.03.16,1.28,0,2.74-.12,4.36-.35,1.62-.23,3.32-.55,5.08-.94,1.77-.4,3.49-.84,5.16-1.32,1.68-.49,3.21-.96,4.6-1.43,3-1.04,5.66-2.2,8-3.46,2.34-1.26,4.17-2.75,5.49-4.48,1.32-1.73,1.98-3.82,1.98-6.26,0-5.15-2.98-9.43-8.94-12.85-3.96-2.23-9.12-3.69-15.47-4.37.14.18.21.38.21.59,0,.32-.26,1.06-.78,2.21-.52,1.15-1.2,2.54-2.03,4.16-.84,1.62-1.72,3.33-2.65,5.13-.93,1.8-1.82,3.49-2.68,5.08-5.39,10.4-8.08,16.67-8.08,18.79,0,.14,0,.25.03.32.02.07.03.18.03.32,0,.18-.07.36-.21.54-.14.18-.36.27-.64.27Z"/>
      <path class="cls-1" d="M221.41,40.61c-1.5,0-2.68-.52-3.53-1.57-.86-1.04-1.29-2.32-1.29-3.83,0-2.59.86-5.26,2.57-7.99.46-.76,1-1.5,1.61-2.24.61-.74,1.27-1.45,1.98-2.13,1.07-1.04,2.19-1.91,3.37-2.59,1.18-.68,2.32-1.03,3.42-1.03,1.82,0,2.73.86,2.73,2.59,0,2.16-1.25,4.12-3.75,5.89-2.32,1.58-4.6,2.38-6.85,2.38-.39,0-.74-.03-1.04-.08-.3-.05-.58-.12-.83-.19-.36.68-.68,1.57-.96,2.65-.29,1.08-.43,2.02-.43,2.81,0,2.38,1.03,3.56,3.1,3.56,1.68,0,3.27-.3,4.76-.89,1.5-.59,3.28-1.72,5.35-3.38,1.28-1.01,2.25-1.82,2.89-2.43.64-.61,1.34-1.26,2.09-1.94.21-.14.41-.22.59-.22s.36.05.54.16c.18.11.27.27.27.49,0,.4-.36.95-1.07,1.67-.61.58-1.25,1.18-1.93,1.81-.68.63-1.75,1.5-3.21,2.62-1.57,1.22-3.28,2.18-5.14,2.86-1.86.68-3.6,1.03-5.25,1.03ZM221.36,28.35c1.14,0,2.23-.18,3.26-.54,1.04-.36,2.02-.88,2.94-1.57,2.07-1.55,3.1-3.01,3.1-4.37,0-.61-.37-.92-1.12-.92-1.43,0-3.09.88-4.98,2.65-.93.86-1.69,1.65-2.27,2.35s-1.13,1.47-1.63,2.29c.21.07.45.11.7.11Z"/>
      <path class="cls-1" d="M241.48,40.39c-1.89,0-3.37-.56-4.44-1.67-1.07-1.12-1.61-2.61-1.61-4.48,0-3.24,1.52-6.77,4.55-10.58,1.57-1.94,3.17-3.43,4.79-4.46,1.62-1.03,3.15-1.54,4.58-1.54,1.25,0,2.21.43,2.89,1.3.68.86,1.02,1.94,1.02,3.24,0,.79-.11,1.6-.32,2.43-.14.58-.43.86-.86.86-.68,0-1.02-.38-1.02-1.13,0-.32.06-.75.19-1.27.12-.52.19-1.03.19-1.54,0-1.44-.7-2.16-2.09-2.16-.75,0-1.65.27-2.7.81-1.05.54-2.1,1.25-3.13,2.13-1.04.88-1.95,1.88-2.73,3-2.39,3.28-3.59,6.21-3.59,8.8,0,2.99,1.34,4.48,4.01,4.48,1.68,0,3.28-.26,4.82-.78,1.53-.52,3.34-1.61,5.41-3.27,1.29-1.01,2.25-1.82,2.89-2.43.64-.61,1.34-1.26,2.09-1.94.21-.14.41-.22.59-.22s.36.05.54.16c.18.11.27.27.27.49,0,.4-.36.95-1.07,1.67-.61.58-1.25,1.18-1.93,1.81-.68.63-1.75,1.5-3.21,2.62-1.57,1.22-3.24,2.14-5,2.75-1.77.61-3.47.92-5.11.92Z"/>
      <path class="cls-1" d="M260.11,39.37c-2.89,0-4.34-1.64-4.34-4.91,0-1.51.36-3.1,1.07-4.75.71-1.66,1.66-3.19,2.84-4.62,1.18-1.42,2.49-2.58,3.93-3.48,1.45-.9,2.92-1.35,4.42-1.35,1.32,0,2.28.5,2.89,1.51.61,1.01.91,2.12.91,3.35,0,1.62-.32,3.27-.96,4.94-.64,1.67-1.52,3.21-2.62,4.62-1.11,1.4-2.35,2.54-3.75,3.4-1.39.86-2.86,1.3-4.39,1.3ZM260.05,37.64c.21,0,.34-.02.37-.05,1.39-.18,2.68-.68,3.85-1.51,1.18-.83,2.2-1.86,3.08-3.1.87-1.24,1.54-2.58,2.01-4.02.46-1.44.7-2.86.7-4.27,0-.83-.23-1.48-.7-1.94-.46-.47-1.05-.7-1.77-.7-1.04,0-2.13.43-3.29,1.3-1.16.86-2.25,1.96-3.26,3.29-1.02,1.33-1.85,2.73-2.49,4.19-.64,1.46-.96,2.76-.96,3.92,0,1.94.82,2.92,2.46,2.92Z"/>
      <path class="cls-1" d="M271.35,41.2c-.71,0-1.07-.31-1.07-.92,0-.5.95-2.7,2.84-6.59,1.57-3.2,2.75-5.53,3.53-6.97-.36-.14-.54-.43-.54-.86,0-.32.18-.58.54-.76.36-.18.7-.34,1.02-.49,1.36-2.34,2.6-4.44,3.75-6.29,1.14-1.85,2.16-3.46,3.05-4.83,1.75-2.7,3.23-4.86,4.44-6.48,1.21-1.62,2.18-2.7,2.89-3.24.54-.14,1.93-.22,4.17-.22,3.92,0,7.01.6,9.26,1.81,2.25,1.21,3.37,2.78,3.37,4.73,0,3.2-2.39,6.1-7.17,8.69-3.14,1.73-6.98,3.13-11.51,4.21,1.57.22,2.99.62,4.25,1.21,1.27.59,2.28,1.39,3.05,2.38.77.99,1.15,2.21,1.15,3.65,0,.97-.21,2.04-.62,3.21-.41,1.17-.94,2.3-1.58,3.4-.64,1.1-1.32,2.06-2.03,2.89-.29.36-.66.54-1.12.54-.61,0-.91-.2-.91-.59,0-.14.11-.33.32-.57.21-.23.45-.53.7-.89.32-.47.71-1.15,1.18-2.05.46-.9.88-1.87,1.26-2.92.38-1.04.56-2.02.56-2.92,0-1.44-.42-2.61-1.26-3.51-.84-.9-1.92-1.56-3.24-1.97-1.32-.41-2.71-.62-4.17-.62-2.53,0-5.28.54-8.24,1.62-.89,1.66-1.76,3.29-2.6,4.91-.84,1.62-1.62,3.24-2.33,4.86-.25.58-.55,1.29-.91,2.13-.36.85-.79,1.83-1.28,2.94-.14.32-.39.49-.75.49ZM280.34,23.81c1.21-.36,2.22-.6,3.02-.73.8-.13,1.7-.24,2.7-.35.18-.04.69-.19,1.53-.46.84-.27,2.02-.64,3.56-1.11,1.78-.58,3.41-1.17,4.87-1.78,1.46-.61,2.76-1.22,3.91-1.84,4.28-2.34,6.42-4.82,6.42-7.45,0-.86-.35-1.6-1.04-2.21-.7-.61-1.59-1.11-2.68-1.48-1.09-.38-2.26-.66-3.5-.84-1.25-.18-2.41-.27-3.48-.27-.57,0-1.09.03-1.55.08-.46.05-.89.12-1.28.19-1.86,2.2-3.69,4.58-5.49,7.16-1.8,2.57-3.38,5.03-4.74,7.37-.64,1.12-1.11,1.92-1.39,2.4-.29.49-.57.93-.86,1.32Z"/>
      <path class="cls-1" d="M308.81,40.18c-2.07,0-3.1-.99-3.1-2.97,0-1.3.31-2.69.94-4.19.62-1.49,1.47-2.95,2.54-4.37,1.07-1.42,2.26-2.72,3.59-3.89,1.32-1.17,2.68-2.11,4.07-2.81s2.73-1.05,4.01-1.05c2.28,0,3.43,1.13,3.43,3.4,0,1.48-.36,2.21-1.07,2.21-.64,0-.96-.31-.96-.92,0-.25.06-.51.19-.78.12-.27.19-.57.19-.89,0-1.01-.68-1.51-2.03-1.51-2.18,0-4.91,1.67-8.19,5.02-.79.83-1.55,1.8-2.3,2.92-.75,1.12-1.36,2.24-1.85,3.38-.48,1.13-.72,2.21-.72,3.21s.54,1.46,1.61,1.46c.93,0,1.92-.29,2.97-.86,1.05-.58,1.97-1.17,2.76-1.78,1.57-1.19,3.18-2.81,4.82-4.86.25-.29.57-.67.96-1.13.39-.47.84-.99,1.34-1.57.18-.18.39-.27.64-.27.57,0,.86.29.86.86l-2.03,3.08c-1.36,2.02-2.03,3.67-2.03,4.97,0,.94.45,1.4,1.34,1.4.75,0,1.57-.2,2.46-.59.89-.4,1.62-.79,2.19-1.19,1.14-.76,2.34-1.7,3.59-2.83,1.25-1.13,2.44-2.28,3.59-3.43.14-.14.36-.22.64-.22.54,0,.8.22.8.65,0,.4-.25.85-.75,1.35-1.43,1.44-2.71,2.67-3.85,3.7-1.14,1.03-2.23,1.86-3.26,2.51-.68.4-1.52.81-2.52,1.24-1,.43-2.14.65-3.42.65-1.75,0-2.62-.94-2.62-2.81,0-.72.09-1.31.27-1.78-3.25,3.13-6.26,4.7-9.04,4.7Z"/>
      <path class="cls-1" d="M333.22,39.64c-.5,0-.85-.13-1.04-.4-.2-.27-.29-.58-.29-.95,0-.97.48-1.46,1.45-1.46s1.39.45,1.39,1.35c0,.97-.5,1.46-1.5,1.46ZM335.09,31c-.61,0-.91-.29-.91-.86,0-1.15.38-2.29,1.12-3.43.75-1.13,1.91-2.19,3.48-3.16l8.46-5.29c1.61-1.01,2.77-2.11,3.5-3.29s1.1-2.29,1.1-3.29c0-1.12-.34-2.02-1.02-2.7-.68-.68-1.51-1.19-2.49-1.51-.98-.32-1.94-.49-2.86-.49-2.11,0-3.92.61-5.43,1.84-1.52,1.22-2.52,2.95-3.02,5.18-.11.5-.34.76-.7.76-.68,0-1.02-.31-1.02-.92,0-.4.17-1.03.51-1.89.34-.86.69-1.58,1.04-2.16.93-1.44,2.15-2.56,3.67-3.35,1.52-.79,3.2-1.19,5.06-1.19,1.46,0,2.79.25,3.99.76,1.19.5,2.16,1.23,2.89,2.19.73.95,1.1,2.12,1.1,3.48,0,2.23-.96,4.3-2.89,6.21-1.21,1.19-3.32,2.63-6.32,4.32-3.14,1.8-5.16,3.1-6.05,3.89-1.57,1.37-2.35,2.72-2.35,4.05,0,.58-.29.86-.86.86Z"/>
    </g>
  </g>
</svg>