<?xml version="1.0" encoding="UTF-8"?>
<svg id="_レイヤー_2" data-name="レイヤー_2" xmlns="http://www.w3.org/2000/svg" viewBox="0 0 184.16 54">
  <defs>
    <style>
      .cls-1 {
        fill: #fff;
      }
    </style>
  </defs>
  <g id="WF">
    <g>
      <path class="cls-1" d="M5.67,39.31c-1,0-1.83-.31-2.49-.92-.66-.61-.99-1.4-.99-2.38,0-.36.02-.59.05-.7-.5,1.15-.96,1.73-1.39,1.73-.57,0-.86-.34-.86-1.03l4.17-11.02c.64-1.73,1.37-3.52,2.19-5.37.82-1.85,1.65-3.64,2.49-5.35.84-1.71,1.62-3.26,2.36-4.64.73-1.39,1.33-2.49,1.79-3.32,1.14-1.98,2.24-3.52,3.29-4.62S18.18.05,18.79.05c.68,0,1.02.38,1.02,1.13,0,.43-.21.65-.64.65-.93,0-2.51,1.96-4.76,5.89-.71,1.22-1.38,2.44-2.01,3.65-.62,1.21-1.22,2.4-1.79,3.59-.79,1.69-1.61,3.51-2.46,5.45-.86,1.94-1.75,4-2.68,6.16,1.18-1.73,2.48-3.31,3.91-4.75,1.25-1.26,2.54-2.28,3.88-3.05,1.34-.77,2.67-1.16,3.99-1.16,1.46,0,2.62.31,3.48.92.86.61,1.28,1.76,1.28,3.46,0,1.4-.4,2.9-1.2,4.48-.8,1.58-1.84,3.13-3.1,4.64s-2.64,2.89-4.12,4.13c-1.48,1.24-2.92,2.23-4.31,2.97-1.39.74-2.59,1.11-3.59,1.11ZM5.51,37.53c1.07,0,2.25-.37,3.53-1.11,1.29-.74,2.57-1.7,3.85-2.89,1.29-1.19,2.46-2.48,3.53-3.86,1.07-1.39,1.93-2.75,2.57-4.1s.96-2.55.96-3.59c0-1.62-.8-2.43-2.41-2.43-1.43,0-2.82.43-4.17,1.3-1.36.86-2.67,2.02-3.93,3.46-1.27,1.44-2.45,3.02-3.56,4.75-1.11,1.73-2.12,3.47-3.05,5.24.32-.32.62-.49.91-.49.5,0,.75.23.75.7,0,.22-.09.45-.27.7-.07.11-.14.23-.21.38-.07.14-.11.36-.11.65,0,.86.54,1.3,1.61,1.3Z"/>
      <path class="cls-1" d="M25.48,36.72c-1,0-1.72-.2-2.17-.59-.45-.4-.67-.99-.67-1.78s.23-1.79.7-3.1c.46-1.31,1.06-2.73,1.79-4.24s1.51-2.95,2.33-4.32c.82-1.37,1.61-2.49,2.38-3.38.77-.88,1.38-1.32,1.85-1.32.64,0,.96.29.96.86,0,.36-.3,1.04-.91,2.05-.61,1.01-1.27,2.05-1.98,3.13-.29.4-.68.94-1.18,1.62-.5.68-.98,1.32-1.44,1.92-.46.59-.77,1-.91,1.21-.36.54-.73,1.42-1.12,2.65-.43,1.22-.64,2.16-.64,2.81,0,.29.06.5.19.65.12.14.42.22.88.22.89,0,1.89-.29,3-.86,1.11-.58,2.23-1.3,3.37-2.19,1.14-.88,2.22-1.79,3.24-2.73,1.02-.94,1.88-1.75,2.6-2.43.14-.14.36-.22.64-.22.54,0,.8.22.8.65,0,.4-.25.85-.75,1.35-.96.97-1.86,1.84-2.68,2.59-.82.76-1.61,1.42-2.35,2-1.18.86-2.48,1.66-3.91,2.38-1.43.72-2.77,1.08-4.01,1.08ZM34.57,14.85c-.61,0-.91-.31-.91-.92,0-.18.12-.51.37-1,.25-.49.54-.98.86-1.49.32-.5.57-.85.75-1.03.61-.68,1.08-1.12,1.42-1.3.34-.18.65-.27.94-.27.75,0,1.12.34,1.12,1.03,0,.25-.15.55-.46.89-.3.34-.65.66-1.04.94-.57.36-.93.65-1.07.86l-1.18,1.67c-.04.14-.12.28-.24.41-.12.13-.31.19-.56.19Z"/>
      <path class="cls-1" d="M40.46,35.86c-2.89,0-4.34-1.64-4.34-4.91,0-1.51.36-3.1,1.07-4.75.71-1.66,1.66-3.19,2.84-4.62,1.18-1.42,2.49-2.58,3.93-3.48,1.45-.9,2.92-1.35,4.42-1.35,1.32,0,2.28.5,2.89,1.51.61,1.01.91,2.12.91,3.35,0,1.62-.32,3.27-.96,4.94-.64,1.67-1.52,3.21-2.62,4.62-1.11,1.4-2.35,2.54-3.75,3.4-1.39.86-2.86,1.3-4.39,1.3ZM40.41,34.13c.21,0,.34-.02.37-.05,1.39-.18,2.68-.68,3.85-1.51,1.18-.83,2.2-1.86,3.08-3.1.87-1.24,1.54-2.58,2.01-4.02.46-1.44.7-2.86.7-4.27,0-.83-.23-1.48-.7-1.94-.46-.47-1.05-.7-1.77-.7-1.04,0-2.13.43-3.29,1.3-1.16.86-2.25,1.96-3.26,3.29-1.02,1.33-1.85,2.73-2.49,4.19-.64,1.46-.96,2.76-.96,3.92,0,1.94.82,2.92,2.46,2.92Z"/>
      <path class="cls-1" d="M54.96,53.89c-1.5,0-2.62-.57-3.37-1.7-.75-1.13-1.12-2.42-1.12-3.86,0-1.08.04-2.13.13-3.16.09-1.03.22-2.04.4-3.05.11-.58.36-.86.75-.86.71,0,1.07.38,1.07,1.13,0,.22-.05.54-.16.97-.11.36-.16.63-.16.81-.07.58-.13,1.18-.16,1.81-.04.63-.05,1.27-.05,1.92,0,2.84,1.04,4.27,3.1,4.27.61,0,1.31-.41,2.11-1.24.8-.83,1.53-1.73,2.17-2.7,1.5-2.27,3.08-5.85,4.76-10.75l1.77-5.13c-2.89,3.49-5.5,5.24-7.81,5.24-1.43,0-2.53-.54-3.32-1.62-.79-1.08-1.18-2.39-1.18-3.94,0-3.1,1.36-6.52,4.07-10.26,2.96-4,5.87-5.99,8.72-5.99,2.25,0,3.73,1.33,4.44,4,1.36-3.31,2.6-4.97,3.75-4.97.43,0,.64.36.64,1.08,0,1.44-.66,3.37-1.98,5.78-.29.47-.63,1.04-1.04,1.73-.41.68-.87,1.49-1.36,2.43l-1.82,4.48c-.36.86-.8,1.95-1.34,3.27-.54,1.31-1.14,2.85-1.82,4.62-.79,2.16-1.51,4.02-2.17,5.59s-1.26,2.85-1.79,3.86c-2.32,4.18-4.66,6.26-7.01,6.26h-.21ZM58.39,35.69c2.25,0,5.57-3.04,9.96-9.13l1.55-4c-.25-.18-.43-.56-.54-1.13-.32-1.55-.7-2.57-1.12-3.08-.43-.5-1-.76-1.71-.76-.82,0-1.77.38-2.84,1.13-1.07.76-2.09,1.68-3.05,2.78-.96,1.1-1.73,2.17-2.3,3.21-1.71,2.95-2.57,5.49-2.57,7.61,0,2.23.87,3.35,2.62,3.35Z"/>
      <path class="cls-1" d="M73.11,37.48c-.57,0-.86-.23-.86-.7,0-.22.06-.43.19-.65s.22-.4.29-.54l4.87-9.94c2.07-4.25,3.1-6.61,3.1-7.07,0-.5.25-.76.75-.76.68,0,1.02.34,1.02,1.03,0,.36-.16.94-.48,1.73-.32.79-.73,1.71-1.23,2.75-.86,1.87-1.57,3.31-2.14,4.32,1.07-1.26,2.16-2.45,3.26-3.56,1.11-1.12,2.23-2.18,3.37-3.19,3.39-2.99,5.99-4.48,7.81-4.48,1.25,0,1.87.59,1.87,1.78s-.38,1.73-1.12,1.73c-.36,0-.62-.31-.8-.92-.11-.43-.36-.65-.75-.65-.61,0-1.79.67-3.53,2-1.93,1.44-3.86,3.15-5.81,5.13-1.95,1.98-4.01,4.5-6.18,7.56l-2.68,3.78c-.14.18-.28.33-.4.46-.13.13-.31.19-.56.19Z"/>
      <path class="cls-1" d="M94.46,36.67c-2.07,0-3.1-.99-3.1-2.97,0-1.3.31-2.69.94-4.19.62-1.49,1.47-2.95,2.54-4.37,1.07-1.42,2.26-2.72,3.59-3.89,1.32-1.17,2.68-2.11,4.07-2.81s2.73-1.05,4.01-1.05c2.28,0,3.43,1.13,3.43,3.4,0,1.48-.36,2.21-1.07,2.21-.64,0-.96-.31-.96-.92,0-.25.06-.51.19-.78.12-.27.19-.57.19-.89,0-1.01-.68-1.51-2.03-1.51-2.18,0-4.91,1.67-8.19,5.02-.79.83-1.55,1.8-2.3,2.92-.75,1.12-1.36,2.24-1.85,3.38-.48,1.13-.72,2.21-.72,3.21s.54,1.46,1.61,1.46c.93,0,1.92-.29,2.97-.86,1.05-.58,1.97-1.17,2.76-1.78,1.57-1.19,3.18-2.81,4.82-4.86.25-.29.57-.67.96-1.13.39-.47.84-.99,1.34-1.57.18-.18.39-.27.64-.27.57,0,.86.29.86.86l-2.03,3.08c-1.36,2.02-2.03,3.67-2.03,4.97,0,.94.45,1.4,1.34,1.4.75,0,1.57-.2,2.46-.59.89-.4,1.62-.79,2.19-1.19,1.14-.76,2.34-1.7,3.59-2.83,1.25-1.13,2.44-2.28,3.59-3.43.14-.14.36-.22.64-.22.54,0,.8.22.8.65,0,.4-.25.85-.75,1.35-1.43,1.44-2.71,2.67-3.85,3.7-1.14,1.03-2.23,1.86-3.26,2.51-.68.4-1.52.81-2.52,1.24-1,.43-2.14.65-3.42.65-1.75,0-2.62-.94-2.62-2.81,0-.72.09-1.31.27-1.78-3.25,3.13-6.26,4.7-9.04,4.7Z"/>
      <path class="cls-1" d="M113.62,51.03c-1.68,0-2.52-1.21-2.52-3.62,0-3.17,1.37-8.21,4.12-15.12.46-1.15,1.02-2.36,1.66-3.62.64-1.26,1.39-2.59,2.25-4,.89-1.51,1.74-2.83,2.54-3.94.8-1.12,1.51-2.02,2.11-2.7.21-.22.4-.36.56-.43.16-.07.29-.11.4-.11.93,0,1.98.27,3.16.81,1.18.54,2.23,1.22,3.16,2.05.86.72,1.55,1.58,2.09,2.59.54,1.01.8,2.05.8,3.13,0,.79-.15,1.59-.46,2.4-.3.81-.71,1.61-1.2,2.4.93-.18,2.06-.59,3.4-1.24s2.7-1.64,4.09-2.97c.14-.14.34-.22.59-.22.54,0,.8.22.8.65,0,.18-.08.41-.24.68-.16.27-.44.6-.83,1-2.64,2.45-5.82,3.85-9.53,4.21-.54.58-1.12,1.13-1.74,1.65-.62.52-1.28,1-1.95,1.43-2.07,1.26-3.84,1.89-5.3,1.89-.61,0-1.11-.2-1.5-.59-.39-.4-.59-.85-.59-1.35,0-1.66,1.43-2.92,4.28-3.78,1.03-.29,2.07-.54,3.1-.76s2.05-.45,3.05-.7c.71-1.12,1.24-2.09,1.58-2.92.34-.83.51-1.53.51-2.11,0-1.91-1.41-3.73-4.23-5.45-1.11-.68-1.98-1.01-2.62-.97-2.93,3.24-5.69,7.78-8.3,13.61-2.71,6.01-4.07,10.75-4.07,14.2,0,.83.07,1.39.21,1.67.14.29.39.43.75.43.11,0,.2,0,.27-.03.07-.02.14-.03.21-.03.46,0,.7.29.7.86,0,.65-.45.97-1.34.97ZM121.97,36.23c1.32,0,3.23-1.04,5.73-3.13-.57.07-1.12.16-1.63.27-.52.11-1.26.31-2.22.59-1.61.47-2.41,1.06-2.41,1.78,0,.32.18.49.54.49Z"/>
      <path class="cls-1" d="M137.6,37.1c-.57,0-.86-.29-.86-.86,0-.76.27-1.95.8-3.59.54-1.64,1.24-3.53,2.11-5.67.87-2.14,1.81-4.35,2.81-6.62.57-1.26,1.16-2.49,1.77-3.7.61-1.21,1.18-2.26,1.71-3.16,5.28-9,8.56-13.5,9.85-13.5.5,0,.75.25.75.76,0,.32-.24.93-.72,1.81-.48.88-1.11,1.91-1.87,3.08-.77,1.17-1.59,2.35-2.46,3.54-.88,1.19-1.7,2.28-2.46,3.27-.77.99-1.38,1.74-1.85,2.24-.39.47-.83,1.15-1.31,2.05-.48.9-.96,1.83-1.42,2.78-.46.95-.84,1.79-1.12,2.51l-2.03,5.08c.54-.72,1.23-1.53,2.09-2.43,2.03-2.27,4.15-3.99,6.34-5.16,2.19-1.17,4.04-1.75,5.54-1.75.82,0,1.48.25,1.98.76.5.5.75,1.12.75,1.84,0,1.4-.91,3.76-2.73,7.07-1.82,3.28-2.73,5.29-2.73,6.05,0,.4.21.59.64.59,1,0,2.09-.37,3.26-1.11,1.18-.74,2.39-1.68,3.64-2.83,1.25-1.15,2.46-2.3,3.64-3.46.14-.14.36-.22.64-.22.54,0,.8.22.8.65,0,.4-.25.85-.75,1.35-2.39,2.41-4.44,4.21-6.15,5.4-1.71,1.19-3.52,1.78-5.41,1.78-1.43,0-2.14-.67-2.14-2,0-.5.09-.99.27-1.46.18-.47.46-1.1.86-1.89l2.46-4.91c.61-1.22,1.05-2.25,1.34-3.08.29-.83.43-1.46.43-1.89,0-.61-.38-.92-1.12-.92-1.32,0-2.86.53-4.63,1.59-1.77,1.06-3.65,2.66-5.65,4.78-1.14,1.22-2.17,2.52-3.08,3.89-.91,1.37-1.63,2.84-2.17,4.43l-.64,1.89c-.25.68-.64,1.03-1.18,1.03Z"/>
      <path class="cls-1" d="M161.2,54c-2.18,0-3.26-1.3-3.26-3.89,0-2.2.46-4.32,1.39-6.37.14-.36.37-.54.7-.54.64,0,.96.29.96.86,0,.14-.04.33-.13.57-.09.23-.19.49-.29.78-.25.68-.45,1.4-.59,2.16-.14.76-.21,1.55-.21,2.38,0,.94.12,1.57.38,1.89.25.32.57.49.96.49.93,0,2.03-.43,3.29-1.3,1.27-.86,2.58-2.23,3.93-4.1.96-1.33,1.96-2.92,3-4.75s2.14-3.94,3.32-6.32c1.57-3.13,3.01-6.32,4.33-9.56-.89,1.15-1.82,2.27-2.78,3.35-.96,1.08-2,2.09-3.1,3.02-2.96,2.56-5.42,3.83-7.39,3.83-2.36,0-3.53-1.37-3.53-4.1,0-.97.19-2.14.56-3.51.38-1.37.9-2.93,1.58-4.7.11-.29.16-.53.16-.73s.05-.4.16-.62c.57-1.26,1.52-2.66,2.84-4.21.29-.32.54-.49.75-.49.54,0,.8.4.8,1.19-3.46,5.15-5.19,9.5-5.19,13.07,0,1.51.59,2.27,1.77,2.27,1.32,0,3.16-.92,5.51-2.75,1.68-1.3,3.23-2.76,4.66-4.4,1.43-1.64,2.71-3.34,3.85-5.1.78-1.19,1.42-2.24,1.9-3.16.48-.92.78-1.54.88-1.86.18-.54.43-.81.75-.81.68,0,1.02.29,1.02.86,0,.29-.13.8-.4,1.54-.27.74-.6,1.61-.99,2.62-.57,1.48-1.39,3.46-2.46,5.94s-2.41,5.44-4.01,8.86c-2,4.25-3.96,7.72-5.89,10.42-1.43,2.05-2.99,3.76-4.68,5.13-1.7,1.37-3.2,2.05-4.52,2.05Z"/>
    </g>
  </g>
</svg>