<?xml version="1.0" encoding="UTF-8"?>
<svg id="_レイヤー_2" data-name="レイヤー_2" xmlns="http://www.w3.org/2000/svg" viewBox="0 0 233.88 47.09">
  <defs>
    <style>
      .cls-1 {
        fill: #fff;
      }
    </style>
  </defs>
  <g id="WF">
    <g>
      <path class="cls-1" d="M17.93,43.36c-.89,0-1.59-.36-2.09-1.08-.5-.72-.75-1.62-.75-2.7,0-.29.02-.73.05-1.32.04-.59.08-1.22.13-1.89.05-.67.1-1.26.13-1.78.04-.52.07-.84.11-.95l-.05-.22c-.32.47-.76,1.08-1.31,1.84-.55.76-1.12,1.52-1.71,2.29-.59.77-1.12,1.45-1.58,2.02-.75.9-1.57,1.6-2.46,2.11-.89.5-1.71.76-2.46.76-.89,0-1.64-.46-2.25-1.38s-.91-2.24-.91-3.97.27-3.51.8-5.56l-1.66,1.94c-.25.25-.46.46-.64.62-.18.16-.36.24-.54.24s-.35-.08-.51-.24c-.16-.16-.24-.37-.24-.62s.09-.47.27-.65c.36-.4.78-.91,1.26-1.54.48-.63,1.04-1.36,1.69-2.19.54-.76,1.43-2.16,2.68-4.21.21-.36.5-.54.86-.54.61,0,.91.29.91.86,0,.18-.09.42-.27.73-.18.31-.43.87-.75,1.7-.64,1.69-1.14,3.36-1.5,4.99-.36,1.64-.54,3.25-.54,4.83,0,1.37.09,2.26.27,2.67.18.41.45.62.8.62,1.14,0,2.52-.86,4.12-2.59.46-.5,1.16-1.36,2.09-2.56.93-1.21,1.89-2.63,2.89-4.27,1-1.64,1.78-3.32,2.35-5.05l.8-2.38c.11-.32.34-.49.7-.49.64,0,.96.31.96.92,0,.22-.2.78-.59,1.7-.39.92-.79,2.35-1.18,4.29-.25,1.22-.47,2.52-.67,3.89-.2,1.37-.29,2.68-.29,3.94,0,2.41.39,3.62,1.18,3.62.64,0,1.46-.34,2.46-1.03,1-.68,2.05-1.55,3.16-2.59,1.11-1.04,2.1-2.12,3-3.24.82-.97,1.66-2.09,2.52-3.35.86-1.26,1.58-2.53,2.17-3.81.59-1.28.88-2.38.88-3.32s-.25-1.55-.75-1.84c-.07-.04-.55-.11-1.44-.22-.5-.07-.75-.36-.75-.86,0-.58.29-.86.86-.86,1.14,0,2.06.32,2.76.97.7.65,1.04,1.53,1.04,2.65,0,3.02-2,6.93-5.99,11.72-4.07,4.9-7.4,7.34-10.01,7.34Z"/>
      <path class="cls-1" d="M38.27,42.01c-2.89,0-4.34-1.64-4.34-4.91,0-1.51.36-3.1,1.07-4.75.71-1.66,1.66-3.19,2.84-4.62,1.18-1.42,2.49-2.58,3.93-3.48,1.45-.9,2.92-1.35,4.42-1.35,1.32,0,2.28.5,2.89,1.51.61,1.01.91,2.12.91,3.35,0,1.62-.32,3.27-.96,4.94-.64,1.67-1.52,3.21-2.62,4.62-1.11,1.4-2.35,2.54-3.75,3.4-1.39.86-2.86,1.3-4.39,1.3ZM38.21,40.28c.21,0,.34-.02.37-.05,1.39-.18,2.68-.68,3.85-1.51,1.18-.83,2.2-1.86,3.08-3.1.87-1.24,1.54-2.58,2.01-4.02.46-1.44.7-2.86.7-4.27,0-.83-.23-1.48-.7-1.94-.46-.47-1.05-.7-1.77-.7-1.04,0-2.13.43-3.29,1.3-1.16.86-2.25,1.96-3.26,3.29-1.02,1.33-1.85,2.73-2.49,4.19-.64,1.46-.96,2.76-.96,3.92,0,1.94.82,2.92,2.46,2.92Z"/>
      <path class="cls-1" d="M49.88,43.63c-.57,0-.86-.23-.86-.7,0-.22.06-.43.19-.65s.22-.4.29-.54l4.87-9.94c2.07-4.25,3.1-6.61,3.1-7.07,0-.5.25-.76.75-.76.68,0,1.02.34,1.02,1.03,0,.36-.16.94-.48,1.73-.32.79-.73,1.71-1.23,2.75-.86,1.87-1.57,3.31-2.14,4.32,1.07-1.26,2.16-2.45,3.26-3.56,1.11-1.12,2.23-2.18,3.37-3.19,3.39-2.99,5.99-4.48,7.81-4.48,1.25,0,1.87.59,1.87,1.78s-.38,1.73-1.12,1.73c-.36,0-.62-.31-.8-.92-.11-.43-.36-.65-.75-.65-.61,0-1.79.67-3.53,2-1.93,1.44-3.86,3.15-5.81,5.13-1.95,1.98-4.01,4.5-6.18,7.56l-2.68,3.78c-.14.18-.28.33-.4.46-.13.13-.31.19-.56.19Z"/>
      <path class="cls-1" d="M83.55,44.82c-.36,0-.62-.22-.8-.65l-.75-1.84c-.79-1.91-1.91-3.81-3.37-5.7s-2.91-3.63-4.33-5.21c-.79,1.62-1.48,3.08-2.09,4.37s-1.16,2.51-1.66,3.65c-.5,1.13-1.04,2.31-1.61,3.54-.14.36-.39.54-.75.54-.61,0-.91-.25-.91-.76,0-.22.08-.49.24-.84.16-.34.31-.69.46-1.05.93-2.27,2.13-4.97,3.61-8.1,1.48-3.13,3.17-6.55,5.06-10.26,3.6-7.09,6.49-12.17,8.67-15.23.5-.72.99-1.37,1.47-1.94.48-.58.9-.86,1.26-.86.64,0,.96.34.96,1.03,0,.94-1.36,3.42-4.07,7.45-.21.32-.59.86-1.12,1.62-.54.76-1.11,1.58-1.71,2.46-.61.88-1.17,1.69-1.69,2.43-.52.74-.87,1.25-1.04,1.54l-3.85,7.72c8.63-5.08,13.27-7.61,13.92-7.61.57,0,.86.32.86.97,0,.4-.21.68-.64.86-1.57.76-2.81,1.37-3.72,1.84-.91.47-1.83.95-2.76,1.46-.79.5-1.79,1.12-3.02,1.84-1.23.72-2.69,1.55-4.36,2.48.86.94,1.78,2.02,2.78,3.27,1,1.24,1.94,2.52,2.81,3.83.87,1.31,1.6,2.53,2.17,3.65.57,1.12.86,2.02.86,2.7,0,.54-.29.81-.86.81Z"/>
      <path class="cls-1" d="M89.75,44.06c-2,0-3-.67-3-2,0-.83.29-1.66.88-2.48.59-.83,1.29-1.58,2.11-2.27.82-.68,1.59-1.21,2.3-1.57.21-.11.51-.22.88-.32.38-.11.69-.16.94-.16.29,0,.43.11.43.32,0,.18-.2.38-.59.59-1.64.79-2.92,1.74-3.83,2.83-.91,1.1-1.36,1.99-1.36,2.67s.55.97,1.66.97c.93,0,1.93-.23,3.02-.7,1.09-.47,2.12-1.08,3.1-1.84.98-.76,1.79-1.57,2.44-2.43.64-.86.96-1.69.96-2.48,0-.54-.17-1.03-.51-1.46-.34-.43-.88-.76-1.63-.97l-3.53-1.08c-.89-.29-1.53-.67-1.93-1.13-.39-.47-.59-.99-.59-1.57,0-1.08.4-2.05,1.2-2.92.8-.86,1.81-1.55,3.02-2.05,1.21-.5,2.39-.76,3.53-.76s2.14.28,3,.84c.86.56,1.28,1.31,1.28,2.24,0,.54-.15,1.04-.46,1.51-.3.47-.65.7-1.04.7-.61,0-.91-.25-.91-.76,0-.18.1-.4.29-.67s.29-.53.29-.78c0-1.08-.82-1.62-2.46-1.62-.89,0-1.78.19-2.65.57-.88.38-1.6.87-2.17,1.48-.57.61-.86,1.28-.86,2s.71,1.3,2.14,1.73l3.42,1.08c1.04.32,1.75.77,2.14,1.32.39.56.59,1.18.59,1.86,0,1.62-.98,3.29-2.94,5.02-3.18,2.84-6.24,4.27-9.21,4.27Z"/>
      <path class="cls-1" d="M137.76,47.09c-.29,0-.63-.14-1.04-.41-.41-.27-.72-.53-.94-.78-.43-.54-.71-1.19-.86-1.94-.14-.76-.21-1.58-.21-2.48,0-.76.03-1.57.08-2.46.05-.88.15-1.83.29-2.83-.93,1.08-1.97,2.13-3.13,3.16-1.16,1.03-2.34,1.86-3.53,2.51-1.2.65-2.33.97-3.4.97-2.68,0-4.01-1.44-4.01-4.32s1.04-5.87,3.1-8.64c1.03-1.37,2.21-2.68,3.53-3.94,1.32-1.26,2.71-2.29,4.17-3.08,1.46-.79,2.91-1.19,4.33-1.19,1.07,0,2.02.41,2.84,1.24.07-.14.17-.38.29-.7.12-.32.31-.74.56-1.24.86-1.87,1.8-3.82,2.84-5.86,1.03-2.03,1.96-3.72,2.78-5.05.93-1.48,1.8-2.21,2.62-2.21.57,0,.86.45.86,1.35,0,1.55-1.45,5.17-4.33,10.85-.18.32-.49.91-.94,1.75-.45.85-.96,1.82-1.55,2.92-.59,1.1-1.19,2.19-1.79,3.27-.61,1.08-1.15,2.04-1.63,2.89-.48.85-.83,1.43-1.04,1.75-.39,1.62-.7,3.16-.91,4.62s-.32,2.96-.32,4.51c0,.58.03,1.11.08,1.59.05.49.19.87.4,1.16.18.22.37.39.59.51.21.13.46.24.75.35.43.11.64.36.64.76,0,.65-.37.97-1.12.97ZM124.65,41.2c1.03,0,2.13-.35,3.29-1.05,1.16-.7,2.26-1.54,3.29-2.51.93-.86,1.78-1.75,2.57-2.67.78-.92,1.52-1.86,2.19-2.83.29-1.26.62-2.5.99-3.73.37-1.22.79-2.45,1.26-3.67-.57-.9-1.37-1.35-2.41-1.35s-2.26.4-3.56,1.21c-1.3.81-2.55,1.81-3.75,3-1.2,1.19-2.22,2.32-3.08,3.4-1.78,2.41-2.68,4.97-2.68,7.67,0,1.69.62,2.54,1.87,2.54ZM140.28,24.52c1.36-2.34,2.55-4.53,3.59-6.56,1.04-2.03,1.87-3.95,2.52-5.75-1.43,1.87-2.62,3.85-3.59,5.94-.96,2.09-1.8,4.21-2.52,6.37Z"/>
      <path class="cls-1" d="M148.2,43.25c-1.5,0-2.68-.52-3.53-1.57-.86-1.04-1.29-2.32-1.29-3.83,0-2.59.86-5.26,2.57-7.99.46-.76,1-1.5,1.61-2.24.61-.74,1.27-1.45,1.98-2.13,1.07-1.04,2.19-1.91,3.37-2.59,1.18-.68,2.32-1.03,3.42-1.03,1.82,0,2.73.86,2.73,2.59,0,2.16-1.25,4.12-3.75,5.89-2.32,1.58-4.6,2.38-6.85,2.38-.39,0-.74-.03-1.04-.08-.3-.05-.58-.12-.83-.19-.36.68-.68,1.57-.96,2.65-.29,1.08-.43,2.02-.43,2.81,0,2.38,1.03,3.56,3.1,3.56,1.68,0,3.27-.3,4.76-.89,1.5-.59,3.28-1.72,5.35-3.38,1.28-1.01,2.25-1.82,2.89-2.43.64-.61,1.34-1.26,2.09-1.94.21-.14.41-.22.59-.22s.36.05.54.16c.18.11.27.27.27.49,0,.4-.36.95-1.07,1.67-.61.58-1.25,1.18-1.93,1.81-.68.63-1.75,1.5-3.21,2.62-1.57,1.22-3.28,2.18-5.14,2.86-1.86.68-3.6,1.03-5.25,1.03ZM148.15,31c1.14,0,2.23-.18,3.26-.54,1.04-.36,2.02-.88,2.94-1.57,2.07-1.55,3.1-3.01,3.1-4.37,0-.61-.37-.92-1.12-.92-1.43,0-3.09.88-4.98,2.65-.93.86-1.69,1.65-2.27,2.35s-1.13,1.47-1.63,2.29c.21.07.45.11.7.11Z"/>
      <path class="cls-1" d="M161.74,46.01c-.68,0-1.02-.54-1.02-1.62,0-1.58.88-4.36,2.65-8.32,1.77-3.96,4.4-9.14,7.89-15.55-1.36,0-2.63.17-3.83.51-1.2.34-1.83.77-1.9,1.27-.04.14-.12.28-.24.4-.13.13-.31.19-.56.19-.57,0-.86-.29-.86-.86,0-.94.73-1.71,2.19-2.32,1.46-.61,3.51-.92,6.16-.92l3.69-6.16c.25-.4.52-.84.8-1.32.29-.49.61-1.02.96-1.59.36-.5.77-.76,1.23-.76.29,0,.5.08.64.24.14.16.21.33.21.51,0,.54-.79,1.98-2.36,4.32-1.96,2.92-3.02,4.5-3.16,4.75.54,0,1.34.05,2.41.14,1.07.09,2.34.23,3.8.4.54.04.8.31.8.81,0,.58-.32.86-.96.86-.25,0-.75-.04-1.5-.14-.75-.09-1.55-.17-2.41-.24-.86-.07-1.59-.09-2.19-.05l-.8.05c-7.24,12.85-10.85,20.84-10.81,23.98l.05.43v.11c0,.58-.3.86-.91.86Z"/>
      <path class="cls-1" d="M176.24,42.82c-2.07,0-3.1-.99-3.1-2.97,0-1.3.31-2.69.94-4.19.62-1.49,1.47-2.95,2.54-4.37,1.07-1.42,2.26-2.72,3.59-3.89,1.32-1.17,2.68-2.11,4.07-2.81s2.73-1.05,4.01-1.05c2.28,0,3.43,1.13,3.43,3.4,0,1.48-.36,2.21-1.07,2.21-.64,0-.96-.31-.96-.92,0-.25.06-.51.19-.78.12-.27.19-.57.19-.89,0-1.01-.68-1.51-2.03-1.51-2.18,0-4.91,1.67-8.19,5.02-.79.83-1.55,1.8-2.3,2.92-.75,1.12-1.36,2.24-1.85,3.38-.48,1.13-.72,2.21-.72,3.21s.54,1.46,1.61,1.46c.93,0,1.92-.29,2.97-.86,1.05-.58,1.97-1.17,2.76-1.78,1.57-1.19,3.18-2.81,4.82-4.86.25-.29.57-.67.96-1.13.39-.47.84-.99,1.34-1.57.18-.18.39-.27.64-.27.57,0,.86.29.86.86l-2.03,3.08c-1.36,2.02-2.03,3.67-2.03,4.97,0,.94.45,1.4,1.34,1.4.75,0,1.57-.2,2.46-.59.89-.4,1.62-.79,2.19-1.19,1.14-.76,2.34-1.7,3.59-2.83,1.25-1.13,2.44-2.28,3.59-3.43.14-.14.36-.22.64-.22.54,0,.8.22.8.65,0,.4-.25.85-.75,1.35-1.43,1.44-2.71,2.67-3.85,3.7-1.14,1.03-2.23,1.86-3.26,2.51-.68.4-1.52.81-2.52,1.24-1,.43-2.14.65-3.42.65-1.75,0-2.62-.94-2.62-2.81,0-.72.09-1.31.27-1.78-3.25,3.13-6.26,4.7-9.04,4.7Z"/>
      <path class="cls-1" d="M200.65,42.88c-1,0-1.72-.2-2.17-.59-.45-.4-.67-.99-.67-1.78s.23-1.79.7-3.1c.46-1.31,1.06-2.73,1.79-4.24s1.51-2.95,2.33-4.32c.82-1.37,1.61-2.49,2.38-3.38.77-.88,1.38-1.32,1.85-1.32.64,0,.96.29.96.86,0,.36-.3,1.04-.91,2.05-.61,1.01-1.27,2.05-1.98,3.13-.29.4-.68.94-1.18,1.62-.5.68-.98,1.32-1.44,1.92-.46.59-.77,1-.91,1.21-.36.54-.73,1.42-1.12,2.65-.43,1.22-.64,2.16-.64,2.81,0,.29.06.5.19.65.12.14.42.22.88.22.89,0,1.89-.29,3-.86,1.11-.58,2.23-1.3,3.37-2.19,1.14-.88,2.22-1.79,3.24-2.73,1.02-.94,1.88-1.75,2.6-2.43.14-.14.36-.22.64-.22.54,0,.8.22.8.65,0,.4-.25.85-.75,1.35-.96.97-1.86,1.84-2.68,2.59-.82.76-1.61,1.42-2.35,2-1.18.86-2.48,1.66-3.91,2.38-1.43.72-2.77,1.08-4.01,1.08ZM209.75,21.01c-.61,0-.91-.31-.91-.92,0-.18.12-.51.37-1,.25-.49.54-.98.86-1.49.32-.5.57-.85.75-1.03.61-.68,1.08-1.12,1.42-1.3.34-.18.65-.27.94-.27.75,0,1.12.34,1.12,1.03,0,.25-.15.55-.46.89-.3.34-.65.66-1.04.94-.57.36-.93.65-1.07.86l-1.18,1.67c-.04.14-.12.28-.24.41-.12.13-.31.19-.56.19Z"/>
      <path class="cls-1" d="M217.13,43.74c-1.64,0-2.9-.51-3.77-1.54s-1.31-2.38-1.31-4.08c0-1.22.21-2.7.64-4.43.75-2.92,2.02-6.3,3.8-10.15,1.39-2.92,2.89-5.79,4.5-8.61,1.61-2.83,3.37-5.61,5.3-8.34,3.07-4.39,5.21-6.59,6.42-6.59.78,0,1.18.22,1.18.65,0,.61-1,2.14-3,4.59l-3.75,4.59c-3.25,3.96-5.9,8.01-7.95,12.15-2.05,4.14-3.65,8.28-4.79,12.42-.32,1.19-.48,2.3-.48,3.35,0,2.74,1.11,4.1,3.32,4.1.78,0,1.59-.23,2.41-.7.82-.43,1.27-.65,1.34-.65.43,0,.64.31.64.92,0,.54-.2.95-.59,1.24-1.21.72-2.52,1.08-3.91,1.08Z"/>
    </g>
  </g>
</svg>