<?xml version="1.0" encoding="UTF-8"?>
<svg id="_レイヤー_2" data-name="レイヤー_2" xmlns="http://www.w3.org/2000/svg" viewBox="0 0 40.93 298.75">
  <defs>
    <style>
      .cls-1 {
        fill: #fff;
      }
    </style>
  </defs>
  <g id="WF">
    <g>
      <path class="cls-1" d="M37.21,280.82c0,.89-.36,1.59-1.08,2.09-.72.5-1.62.75-2.7.75-.29,0-.73-.02-1.32-.05-.59-.04-1.22-.08-1.89-.13-.67-.05-1.26-.1-1.78-.13-.52-.04-.84-.07-.95-.11l-.22.05c.47.32,1.08.76,1.84,1.31.76.55,1.52,1.12,2.29,1.71.77.59,1.45,1.12,2.02,1.58.9.75,1.6,1.57,2.11,2.46.5.89.76,1.71.76,2.46,0,.89-.46,1.64-1.38,2.25s-2.24.91-3.97.91-3.51-.27-5.56-.8l1.94,1.66c.25.25.46.46.62.64.16.18.24.36.24.54s-.08.35-.24.51c-.16.16-.37.24-.62.24s-.47-.09-.65-.27c-.4-.36-.91-.78-1.54-1.26-.63-.48-1.36-1.04-2.19-1.69-.76-.54-2.16-1.43-4.21-2.68-.36-.21-.54-.5-.54-.86,0-.61.29-.91.86-.91.18,0,.42.09.73.27.31.18.87.43,1.7.75,1.69.64,3.36,1.14,4.99,1.5,1.64.36,3.25.54,4.83.54,1.37,0,2.26-.09,2.67-.27.41-.18.62-.45.62-.8,0-1.14-.86-2.52-2.59-4.12-.5-.46-1.36-1.16-2.56-2.09-1.21-.93-2.63-1.89-4.27-2.89-1.64-1-3.32-1.78-5.05-2.35l-2.38-.8c-.32-.11-.49-.34-.49-.7,0-.64.31-.96.92-.96.22,0,.78.2,1.7.59.92.39,2.35.79,4.29,1.18,1.22.25,2.52.47,3.89.67,1.37.2,2.68.29,3.94.29,2.41,0,3.62-.39,3.62-1.18,0-.64-.34-1.46-1.03-2.46-.68-1-1.55-2.05-2.59-3.16-1.04-1.11-2.12-2.1-3.24-3-.97-.82-2.09-1.66-3.35-2.52-1.26-.86-2.53-1.58-3.81-2.17-1.28-.59-2.38-.88-3.32-.88s-1.55.25-1.84.75c-.04.07-.11.55-.22,1.44-.07.5-.36.75-.86.75-.58,0-.86-.29-.86-.86,0-1.14.32-2.06.97-2.76.65-.7,1.53-1.04,2.65-1.04,3.02,0,6.93,2,11.72,5.99,4.9,4.07,7.34,7.4,7.34,10.01Z"/>
      <path class="cls-1" d="M37.1,265.46c0,.57-.29.86-.86.86-.76,0-1.95-.27-3.59-.8-1.64-.54-3.53-1.24-5.67-2.11-2.14-.87-4.35-1.81-6.62-2.81-1.26-.57-2.49-1.16-3.7-1.77-1.21-.61-2.26-1.18-3.16-1.71-9-5.28-13.5-8.56-13.5-9.85,0-.5.25-.75.76-.75.32,0,.93.24,1.81.72.88.48,1.91,1.11,3.08,1.87,1.17.77,2.35,1.59,3.54,2.46,1.19.88,2.28,1.7,3.27,2.46.99.77,1.74,1.38,2.24,1.85.47.39,1.15.83,2.05,1.31.9.48,1.83.96,2.78,1.42.95.46,1.79.84,2.51,1.12l5.08,2.03c-.72-.54-1.53-1.23-2.43-2.09-2.27-2.03-3.99-4.15-5.16-6.34-1.17-2.19-1.75-4.04-1.75-5.54,0-.82.25-1.48.76-1.98.5-.5,1.12-.75,1.84-.75,1.4,0,3.76.91,7.07,2.73,3.28,1.82,5.29,2.73,6.05,2.73.4,0,.59-.21.59-.64,0-1-.37-2.09-1.11-3.26-.74-1.18-1.68-2.39-2.83-3.64-1.15-1.25-2.3-2.46-3.46-3.64-.14-.14-.22-.36-.22-.64,0-.54.22-.8.65-.8.4,0,.85.25,1.35.75,2.41,2.39,4.21,4.44,5.4,6.15,1.19,1.71,1.78,3.52,1.78,5.41,0,1.43-.67,2.14-2,2.14-.5,0-.99-.09-1.46-.27-.47-.18-1.1-.46-1.89-.86l-4.91-2.46c-1.22-.61-2.25-1.05-3.08-1.34-.83-.29-1.46-.43-1.89-.43-.61,0-.92.38-.92,1.12,0,1.32.53,2.86,1.59,4.63,1.06,1.77,2.66,3.65,4.78,5.65,1.22,1.14,2.52,2.17,3.89,3.08,1.37.91,2.84,1.63,4.43,2.17l1.89.64c.68.25,1.03.64,1.03,1.18Z"/>
      <path class="cls-1" d="M36.67,238.81c0,2.07-.99,3.1-2.97,3.1-1.3,0-2.69-.31-4.19-.94-1.49-.62-2.95-1.47-4.37-2.54-1.42-1.07-2.72-2.26-3.89-3.59-1.17-1.32-2.11-2.68-2.81-4.07s-1.05-2.73-1.05-4.01c0-2.28,1.13-3.43,3.4-3.43,1.48,0,2.21.36,2.21,1.07,0,.64-.31.96-.92.96-.25,0-.51-.06-.78-.19-.27-.12-.57-.19-.89-.19-1.01,0-1.51.68-1.51,2.03,0,2.18,1.67,4.91,5.02,8.19.83.79,1.8,1.55,2.92,2.3,1.12.75,2.24,1.36,3.38,1.85,1.13.48,2.21.72,3.21.72s1.46-.54,1.46-1.61c0-.93-.29-1.92-.86-2.97-.58-1.05-1.17-1.97-1.78-2.76-1.19-1.57-2.81-3.18-4.86-4.82-.29-.25-.67-.57-1.13-.96-.47-.39-.99-.84-1.57-1.34-.18-.18-.27-.39-.27-.64,0-.57.29-.86.86-.86l3.08,2.03c2.02,1.36,3.67,2.03,4.97,2.03.94,0,1.4-.45,1.4-1.34,0-.75-.2-1.57-.59-2.46-.4-.89-.79-1.62-1.19-2.19-.76-1.14-1.7-2.34-2.83-3.59-1.13-1.25-2.28-2.44-3.43-3.59-.14-.14-.22-.36-.22-.64,0-.54.22-.8.65-.8.4,0,.85.25,1.35.75,1.44,1.43,2.67,2.71,3.7,3.85,1.03,1.14,1.86,2.23,2.51,3.26.4.68.81,1.52,1.24,2.52.43,1,.65,2.14.65,3.42,0,1.75-.94,2.62-2.81,2.62-.72,0-1.31-.09-1.78-.27,3.13,3.25,4.7,6.26,4.7,9.04Z"/>
      <path class="cls-1" d="M39.85,216.76c0,.68-.54,1.02-1.62,1.02-1.58,0-4.36-.88-8.32-2.65-3.96-1.77-9.14-4.4-15.55-7.89,0,1.36.17,2.63.51,3.83.34,1.2.77,1.83,1.27,1.9.14.04.28.12.4.24.13.13.19.31.19.56,0,.57-.29.86-.86.86-.94,0-1.71-.73-2.32-2.19-.61-1.46-.92-3.51-.92-6.16l-6.16-3.69c-.4-.25-.84-.52-1.32-.8-.49-.29-1.02-.61-1.59-.96-.5-.36-.76-.77-.76-1.23,0-.29.08-.5.24-.64.16-.14.33-.21.51-.21.54,0,1.98.79,4.32,2.36,2.92,1.96,4.5,3.02,4.75,3.16,0-.54.05-1.34.14-2.41.09-1.07.23-2.34.4-3.8.04-.54.31-.8.81-.8.58,0,.86.32.86.96,0,.25-.04.75-.14,1.5-.09.75-.17,1.55-.24,2.41-.07.86-.09,1.59-.05,2.19l.05.8c12.85,7.24,20.84,10.85,23.98,10.81l.43-.05h.11c.58,0,.86.3.86.91Z"/>
      <path class="cls-1" d="M37.48,194.23c0,.61-.31.91-.92.91-.58,0-.86-.34-.86-1.02,0-.61-.04-1.36-.13-2.25-.09-.89-.15-1.68-.19-2.36-.68-.11-1.69-.46-3.02-1.07-1.33-.61-2.84-1.41-4.54-2.41-1.69-1-3.44-2.12-5.24-3.37l-12.85-8.94c-.61-.39-1.47-.94-2.57-1.63-1.1-.7-2.44-1.53-4.02-2.49.07,1.07.16,2.04.27,2.92.11.88.22,1.65.32,2.33.14,1,.25,1.66.32,1.98.07.32.11.57.11.75,0,.61-.34.91-1.03.91-.4,0-.65-.25-.76-.75-.4-2.11-.7-4.17-.92-6.18s-.32-4-.32-5.97.16-3.5.49-4.71c.18-.57.36-.95.54-1.15.18-.2.41-.29.7-.29.58,0,.86.27.86.8,0,.18-.07.43-.22.75-.14.32-.28.81-.4,1.47-.13.66-.19,1.65-.19,2.97v1.31c0,.38.02.69.05.94.76.04,2.09.71,4,2.03l3.83,2.68,10.1,6.85c1.87,1.29,3.67,2.46,5.4,3.53,1.73,1.07,3.35,2.07,4.86,3,.9.54,2.21,1.12,3.94,1.77-.14-1.36-.24-2.48-.3-3.37-.05-.89-.08-1.53-.08-1.93,0-.79.03-1.49.08-2.11.05-.62.12-1.17.19-1.63.11-.54.38-.8.81-.8.58,0,.86.32.86.96,0,.43-.03.97-.08,1.63-.05.66-.08,1.24-.08,1.74,0,1.61.16,3.57.49,5.89.29.18.43.43.43.75,0,.29-.13.5-.38.64.14,1.07.25,2.02.32,2.84.07.82.11,1.52.11,2.09Z"/>
      <path class="cls-1" d="M11.66,155.53c0,.21-.09.32-.27.32-.22,0-.81-.32-1.78-.96-.94-.64-1.57-1.02-1.89-1.12-1.26-.43-3.33-.64-6.21-.64-.61,0-.92-.3-.92-.91,0-.68.31-1.02.92-1.02,4.43,0,7.72,1.27,9.88,3.8.18.29.27.46.27.54Z"/>
      <path class="cls-1" d="M36.67,146.81c0,.43-.16.64-.49.64-1.01.57-3.08.86-6.21.86-.76,0-1.76-.05-3.02-.16-1.26-.11-2.57-.25-3.94-.43-1.37-.18-2.62-.38-3.75-.59s-1.95-.45-2.46-.7c-.43-.21-.65-.48-.65-.8,0-.57.23-.86.7-.86.25,0,.5.04.73.11.23.07.51.14.84.21,1.8.46,3.71.83,5.72,1.1s4.09.4,6.21.4c.97,0,1.84-.04,2.59-.13s1.4-.19,1.94-.29c-.4-1-1.18-2.1-2.35-3.32-1.17-1.21-2.48-2.39-3.92-3.53-1.19-.93-2.39-1.77-3.62-2.54-1.22-.77-2.38-1.37-3.46-1.82s-1.96-.67-2.65-.67c-.47,0-.79.05-.97.13-.18.09-.32.19-.43.29s-.31.16-.59.16c-.54,0-.81-.27-.81-.8,0-.36.27-.68.81-.96.54-.29,1.22-.43,2.05-.43,2.56,0,6.14,1.77,10.75,5.3,4.64,3.64,6.97,6.58,6.97,8.83Z"/>
      <path class="cls-1" d="M37.1,127.27c0,1.5-.52,2.68-1.57,3.53-1.04.86-2.32,1.29-3.83,1.29-2.59,0-5.26-.86-7.99-2.57-.76-.46-1.5-1-2.24-1.61-.74-.61-1.45-1.27-2.13-1.98-1.04-1.07-1.91-2.19-2.59-3.37-.68-1.18-1.03-2.32-1.03-3.42,0-1.82.86-2.73,2.59-2.73,2.16,0,4.12,1.25,5.89,3.75,1.58,2.32,2.38,4.6,2.38,6.85,0,.39-.03.74-.08,1.04-.05.3-.12.58-.19.83.68.36,1.57.68,2.65.96,1.08.29,2.02.43,2.81.43,2.38,0,3.56-1.03,3.56-3.1,0-1.68-.3-3.27-.89-4.76-.59-1.5-1.72-3.28-3.38-5.35-1.01-1.28-1.82-2.25-2.43-2.89-.61-.64-1.26-1.34-1.94-2.09-.14-.21-.22-.41-.22-.59s.05-.36.16-.54c.11-.18.27-.27.49-.27.4,0,.95.36,1.67,1.07.58.61,1.18,1.25,1.81,1.93.63.68,1.5,1.75,2.62,3.21,1.22,1.57,2.18,3.28,2.86,5.14.68,1.86,1.03,3.6,1.03,5.25ZM24.84,127.33c0-1.14-.18-2.23-.54-3.26-.36-1.04-.88-2.02-1.57-2.94-1.55-2.07-3.01-3.1-4.37-3.1-.61,0-.92.37-.92,1.12,0,1.43.88,3.09,2.65,4.98.86.93,1.65,1.69,2.35,2.27s1.47,1.13,2.29,1.63c.07-.21.11-.45.11-.7Z"/>
      <path class="cls-1" d="M40.93,66.1c0,.29-.14.63-.41,1.04-.27.41-.53.72-.78.94-.54.43-1.19.71-1.94.86-.76.14-1.58.21-2.48.21-.76,0-1.57-.03-2.46-.08-.88-.05-1.83-.15-2.83-.29,1.08.93,2.13,1.97,3.16,3.13,1.03,1.16,1.86,2.34,2.51,3.53.65,1.2.97,2.33.97,3.4,0,2.68-1.44,4.01-4.32,4.01s-5.87-1.04-8.64-3.1c-1.37-1.03-2.68-2.21-3.94-3.53-1.26-1.32-2.29-2.71-3.08-4.17-.79-1.46-1.19-2.91-1.19-4.33,0-1.07.41-2.02,1.24-2.84-.14-.07-.38-.17-.7-.29-.32-.12-.74-.31-1.24-.56-1.87-.86-3.82-1.8-5.86-2.84-2.03-1.03-3.72-1.96-5.05-2.78-1.48-.93-2.21-1.8-2.21-2.62,0-.57.45-.86,1.35-.86,1.55,0,5.17,1.45,10.85,4.33.32.18.91.49,1.75.94.85.45,1.82.96,2.92,1.55,1.1.59,2.19,1.19,3.27,1.79,1.08.61,2.04,1.15,2.89,1.63.85.48,1.43.83,1.75,1.04,1.62.39,3.16.7,4.62.91s2.96.32,4.51.32c.58,0,1.11-.03,1.59-.08.49-.05.87-.19,1.16-.4.22-.18.39-.37.51-.59.13-.21.24-.46.35-.75.11-.43.36-.64.76-.64.65,0,.97.37.97,1.12ZM18.36,63.58c-2.34-1.36-4.53-2.55-6.56-3.59-2.03-1.04-3.95-1.87-5.75-2.52,1.87,1.43,3.85,2.62,5.94,3.59,2.09.96,4.21,1.8,6.37,2.52ZM35.05,79.21c0-1.03-.35-2.13-1.05-3.29-.7-1.16-1.54-2.26-2.51-3.29-.86-.93-1.75-1.78-2.67-2.57-.92-.78-1.86-1.52-2.83-2.19-1.26-.29-2.5-.62-3.73-.99-1.22-.37-2.45-.79-3.67-1.26-.9.57-1.35,1.37-1.35,2.41s.4,2.26,1.21,3.56c.81,1.3,1.81,2.55,3,3.75,1.19,1.2,2.32,2.22,3.4,3.08,2.41,1.78,4.97,2.68,7.67,2.68,1.69,0,2.54-.62,2.54-1.87Z"/>
      <path class="cls-1" d="M35.86,56.68c0,2.89-1.64,4.34-4.91,4.34-1.51,0-3.1-.36-4.75-1.07-1.66-.71-3.19-1.66-4.62-2.84-1.42-1.18-2.58-2.49-3.48-3.93-.9-1.45-1.35-2.92-1.35-4.42,0-1.32.5-2.28,1.51-2.89,1.01-.61,2.12-.91,3.35-.91,1.62,0,3.27.32,4.94.96,1.67.64,3.21,1.52,4.62,2.62,1.4,1.11,2.54,2.35,3.4,3.75.86,1.39,1.3,2.86,1.3,4.39ZM34.13,56.73c0-.21-.02-.34-.05-.37-.18-1.39-.68-2.68-1.51-3.85-.83-1.18-1.86-2.2-3.1-3.08-1.24-.87-2.58-1.54-4.02-2.01-1.44-.46-2.86-.7-4.27-.7-.83,0-1.48.23-1.94.7-.47.46-.7,1.05-.7,1.77,0,1.04.43,2.13,1.3,3.29.86,1.16,1.96,2.25,3.29,3.26,1.33,1.02,2.73,1.85,4.19,2.49,1.46.64,2.76.96,3.92.96,1.94,0,2.92-.82,2.92-2.46Z"/>
      <path class="cls-1" d="M37.48,45.06c0,.57-.23.86-.7.86-.18,0-.4-.07-.67-.21s-.49-.27-.68-.38l-9.77-4.82c-4.25-2.07-6.61-3.1-7.07-3.1-.5,0-.76-.25-.76-.75,0-.68.36-1.02,1.08-1.02.25,0,.79.16,1.62.48.83.32,1.76.73,2.81,1.23,1.87.86,3.31,1.57,4.32,2.14-1.26-1.07-2.45-2.16-3.56-3.26-1.12-1.11-2.18-2.23-3.19-3.37-2.99-3.39-4.48-5.99-4.48-7.81,0-1.25.59-1.87,1.78-1.87,1.08,0,3.51.91,7.29,2.73,3.82,1.82,6.23,2.73,7.24,2.73.47,0,.7-.16.7-.48,0-.11-.04-.28-.13-.51-.09-.23-.14-.47-.14-.72,0-.61.29-.91.86-.91.72,0,1.08.77,1.08,2.3,0,.71-.17,1.23-.51,1.55-.34.32-.8.48-1.38.48-1.73,0-4.36-.87-7.88-2.62-3.49-1.75-5.6-2.62-6.32-2.62-.43,0-.65.16-.65.48,0,.79.67,2.05,2,3.8,1.44,1.89,3.1,3.78,4.97,5.67,1.87,1.89,4.01,3.69,6.43,5.41l5.24,3.75c.32.21.49.5.49.86Z"/>
      <path class="cls-1" d="M37.1,16.59c0,1.5-.52,2.68-1.57,3.53-1.04.86-2.32,1.29-3.83,1.29-2.59,0-5.26-.86-7.99-2.57-.76-.46-1.5-1-2.24-1.61-.74-.61-1.45-1.27-2.13-1.98-1.04-1.07-1.91-2.19-2.59-3.37-.68-1.18-1.03-2.32-1.03-3.42,0-1.82.86-2.73,2.59-2.73,2.16,0,4.12,1.25,5.89,3.75,1.58,2.32,2.38,4.6,2.38,6.85,0,.39-.03.74-.08,1.04-.05.3-.12.58-.19.83.68.36,1.57.68,2.65.96,1.08.29,2.02.43,2.81.43,2.38,0,3.56-1.03,3.56-3.1,0-1.68-.3-3.27-.89-4.76-.59-1.5-1.72-3.28-3.38-5.35-1.01-1.28-1.82-2.25-2.43-2.89-.61-.64-1.26-1.34-1.94-2.09-.14-.21-.22-.41-.22-.59s.05-.36.16-.54c.11-.18.27-.27.49-.27.4,0,.95.36,1.67,1.07.58.61,1.18,1.25,1.81,1.93.63.68,1.5,1.75,2.62,3.21,1.22,1.57,2.18,3.28,2.86,5.14.68,1.86,1.03,3.6,1.03,5.25ZM24.84,16.65c0-1.14-.18-2.23-.54-3.26-.36-1.04-.88-2.02-1.57-2.94-1.55-2.07-3.01-3.1-4.37-3.1-.61,0-.92.37-.92,1.12,0,1.43.88,3.09,2.65,4.98.86.93,1.65,1.69,2.35,2.27s1.47,1.13,2.29,1.63c.07-.21.11-.45.11-.7Z"/>
    </g>
  </g>
</svg>