<?xml version="1.0" encoding="UTF-8"?>
<svg id="_レイヤー_2" data-name="レイヤー_2" xmlns="http://www.w3.org/2000/svg" viewBox="0 0 209.16 60.16">
  <defs>
    <style>
      .cls-1 {
        fill: #fff;
      }
    </style>
  </defs>
  <g id="WF">
    <g>
      <path class="cls-1" d="M1.07,45.14c-.71,0-1.07-.34-1.07-1.03,0-.18.08-.44.24-.78.16-.34.4-.82.72-1.43l3.05-5.72c1.64-2.99,3.08-5.73,4.31-8.23,1.23-2.5,2.29-4.74,3.18-6.72,2.68-6.16,4.01-10.82,4.01-13.99,0-.22.15-.47.46-.76.3-.29.6-.43.88-.43.43,0,.64.41.64,1.24,0,2.34-.84,5.89-2.52,10.64-.68,1.8-1.37,3.55-2.09,5.24-.71,1.69-1.46,3.33-2.25,4.91,1.53-1.87,3.12-3.69,4.76-5.45,1.64-1.76,3.35-3.47,5.14-5.13,5.28-5,9.13-7.51,11.56-7.51,1.53,0,2.3,1.01,2.3,3.02,0,2.16-1.05,6.05-3.16,11.66-2.71,7.06-4.21,11.11-4.5,12.15,8.1-9.9,16.34-17.12,24.73-21.65,1.14-.61,2.35-1.22,3.61-1.81,1.27-.59,2.24-.89,2.92-.89,1,0,1.5.61,1.5,1.84,0,.61-.11,1.35-.32,2.21-.21.86-.57,1.82-1.07,2.86l-4.92,10.53c-.46,1.01-.97,2.12-1.53,3.35-.55,1.22-1.07,2.44-1.55,3.65-.48,1.21-.88,2.29-1.2,3.24-.32.95-.48,1.68-.48,2.19,0,.58.23.86.7.86.71,0,1.61-.43,2.7-1.3,1.09-.86,2.26-1.96,3.51-3.29.18-.22.42-.47.72-.76.3-.29.58-.43.83-.43.57,0,.86.32.86.97,0,.11-.04.23-.11.35-.07.13-.23.32-.48.57-.46.47-.93.94-1.39,1.4-.46.47-.89.88-1.28,1.24-.93.79-1.9,1.5-2.92,2.13-1.02.63-1.99.94-2.92.94-1.46,0-2.19-.83-2.19-2.48,0-1.01.36-2.57,1.07-4.7.71-2.12,1.8-4.81,3.26-8.05l5.62-12.31c.39-.83.64-1.41.75-1.75.11-.34.16-.58.16-.73,0-.22-.09-.32-.27-.32-.07,0-.26.05-.56.14-.3.09-.83.32-1.58.67-2.18,1.01-4.57,2.36-7.17,4.05-2.6,1.69-5.03,3.53-7.28,5.51-1.82,1.58-3.44,3.1-4.87,4.54-1.43,1.44-2.82,2.93-4.17,4.48-1.36,1.55-2.86,3.31-4.5,5.29-.46.54-.79.91-.96,1.11-.18.2-.46.3-.86.3-.61,0-.91-.32-.91-.97,0-.68.14-1.58.43-2.7.29-1.12.64-2.25,1.07-3.4l3.96-10.69c.96-2.63,1.68-4.81,2.14-6.53s.7-3.02.7-3.89c0-.72-.3-1.08-.91-1.08-1.18,0-3.84,1.91-7.97,5.72-1.43,1.33-2.77,2.61-4.01,3.83-1.25,1.22-2.39,2.41-3.42,3.56-1.39,1.51-2.66,2.95-3.8,4.32-1.14,1.37-2.24,2.78-3.29,4.24-1.05,1.46-2.13,3.07-3.24,4.83-1.11,1.76-2.3,3.82-3.59,6.16-.36.65-.75.97-1.18.97Z"/>
      <path class="cls-1" d="M62.46,60.16c-2.18,0-3.26-1.3-3.26-3.89,0-2.2.46-4.32,1.39-6.37.14-.36.37-.54.7-.54.64,0,.96.29.96.86,0,.14-.04.33-.13.57-.09.23-.19.49-.29.78-.25.68-.45,1.4-.59,2.16-.14.76-.21,1.55-.21,2.38,0,.94.12,1.57.38,1.89.25.32.57.49.96.49.93,0,2.03-.43,3.29-1.3,1.27-.86,2.58-2.23,3.93-4.1.96-1.33,1.96-2.92,3-4.75s2.14-3.94,3.32-6.32c1.57-3.13,3.01-6.32,4.33-9.56-.89,1.15-1.82,2.27-2.78,3.35-.96,1.08-2,2.09-3.1,3.02-2.96,2.56-5.42,3.83-7.39,3.83-2.36,0-3.53-1.37-3.53-4.1,0-.97.19-2.14.56-3.51.38-1.37.9-2.93,1.58-4.7.11-.29.16-.53.16-.73s.05-.4.16-.62c.57-1.26,1.52-2.66,2.84-4.21.29-.32.54-.49.75-.49.54,0,.8.4.8,1.19-3.46,5.15-5.19,9.5-5.19,13.07,0,1.51.59,2.27,1.77,2.27,1.32,0,3.16-.92,5.51-2.75,1.68-1.3,3.23-2.76,4.66-4.4,1.43-1.64,2.71-3.34,3.85-5.1.78-1.19,1.42-2.24,1.9-3.16.48-.92.78-1.54.88-1.86.18-.54.43-.81.75-.81.68,0,1.02.29,1.02.86,0,.29-.13.8-.4,1.54-.27.74-.6,1.61-.99,2.62-.57,1.48-1.39,3.46-2.46,5.94s-2.41,5.44-4.01,8.86c-2,4.25-3.96,7.72-5.89,10.42-1.43,2.05-2.99,3.76-4.68,5.13-1.7,1.37-3.2,2.05-4.52,2.05Z"/>
      <path class="cls-1" d="M98.05,57.19c-1.68,0-2.52-1.21-2.52-3.62,0-3.17,1.37-8.21,4.12-15.12.46-1.15,1.02-2.36,1.66-3.62.64-1.26,1.39-2.59,2.25-4,.89-1.51,1.74-2.83,2.54-3.94.8-1.12,1.51-2.02,2.11-2.7.21-.22.4-.36.56-.43.16-.07.29-.11.4-.11.93,0,1.98.27,3.16.81,1.18.54,2.23,1.22,3.16,2.05.86.72,1.55,1.58,2.09,2.59.54,1.01.8,2.05.8,3.13,0,.79-.15,1.59-.46,2.4-.3.81-.71,1.61-1.2,2.4.93-.18,2.06-.59,3.4-1.24s2.7-1.64,4.09-2.97c.14-.14.34-.22.59-.22.54,0,.8.22.8.65,0,.18-.08.41-.24.68-.16.27-.44.6-.83,1-2.64,2.45-5.82,3.85-9.53,4.21-.54.58-1.12,1.13-1.74,1.65-.62.52-1.28,1-1.95,1.43-2.07,1.26-3.84,1.89-5.3,1.89-.61,0-1.11-.2-1.5-.59-.39-.4-.59-.85-.59-1.35,0-1.66,1.43-2.92,4.28-3.78,1.03-.29,2.07-.54,3.1-.76s2.05-.45,3.05-.7c.71-1.12,1.24-2.09,1.58-2.92.34-.83.51-1.53.51-2.11,0-1.91-1.41-3.73-4.23-5.45-1.11-.68-1.98-1.01-2.62-.97-2.93,3.24-5.69,7.78-8.3,13.61-2.71,6.01-4.07,10.75-4.07,14.2,0,.83.07,1.39.21,1.67.14.29.39.43.75.43.11,0,.2,0,.27-.03.07-.02.14-.03.21-.03.46,0,.7.29.7.86,0,.65-.45.97-1.34.97ZM106.4,42.39c1.32,0,3.23-1.04,5.73-3.13-.57.07-1.12.16-1.63.27-.52.11-1.26.31-2.22.59-1.61.47-2.41,1.06-2.41,1.78,0,.32.18.49.54.49Z"/>
      <path class="cls-1" d="M127,42.01c-2.89,0-4.34-1.64-4.34-4.91,0-1.51.36-3.1,1.07-4.75.71-1.66,1.66-3.19,2.84-4.62,1.18-1.42,2.49-2.58,3.93-3.48,1.45-.9,2.92-1.35,4.42-1.35,1.32,0,2.28.5,2.89,1.51.61,1.01.91,2.12.91,3.35,0,1.62-.32,3.27-.96,4.94-.64,1.67-1.52,3.21-2.62,4.62-1.11,1.4-2.35,2.54-3.75,3.4-1.39.86-2.86,1.3-4.39,1.3ZM126.95,40.28c.21,0,.34-.02.37-.05,1.39-.18,2.68-.68,3.85-1.51,1.18-.83,2.2-1.86,3.08-3.1.87-1.24,1.54-2.58,2.01-4.02.46-1.44.7-2.86.7-4.27,0-.83-.23-1.48-.7-1.94-.46-.47-1.05-.7-1.77-.7-1.04,0-2.13.43-3.29,1.3-1.16.86-2.25,1.96-3.26,3.29-1.02,1.33-1.85,2.73-2.49,4.19-.64,1.46-.96,2.76-.96,3.92,0,1.94.82,2.92,2.46,2.92Z"/>
      <path class="cls-1" d="M146.33,43.74c-1.64,0-2.9-.51-3.77-1.54s-1.31-2.38-1.31-4.08c0-1.22.21-2.7.64-4.43.75-2.92,2.02-6.3,3.8-10.15,1.39-2.92,2.89-5.79,4.5-8.61,1.61-2.83,3.37-5.61,5.3-8.34,3.07-4.39,5.21-6.59,6.42-6.59.78,0,1.18.22,1.18.65,0,.61-1,2.14-3,4.59l-3.75,4.59c-3.25,3.96-5.9,8.01-7.95,12.15-2.05,4.14-3.65,8.28-4.79,12.42-.32,1.19-.48,2.3-.48,3.35,0,2.74,1.11,4.1,3.32,4.1.78,0,1.59-.23,2.41-.7.82-.43,1.27-.65,1.34-.65.43,0,.64.31.64.92,0,.54-.2.95-.59,1.24-1.21.72-2.52,1.08-3.91,1.08Z"/>
      <path class="cls-1" d="M156.44,42.88c-1,0-1.72-.2-2.17-.59-.45-.4-.67-.99-.67-1.78s.23-1.79.7-3.1c.46-1.31,1.06-2.73,1.79-4.24s1.51-2.95,2.33-4.32c.82-1.37,1.61-2.49,2.38-3.38.77-.88,1.38-1.32,1.85-1.32.64,0,.96.29.96.86,0,.36-.3,1.04-.91,2.05-.61,1.01-1.27,2.05-1.98,3.13-.29.4-.68.94-1.18,1.62-.5.68-.98,1.32-1.44,1.92-.46.59-.77,1-.91,1.21-.36.54-.73,1.42-1.12,2.65-.43,1.22-.64,2.16-.64,2.81,0,.29.06.5.19.65.12.14.42.22.88.22.89,0,1.89-.29,3-.86,1.11-.58,2.23-1.3,3.37-2.19,1.14-.88,2.22-1.79,3.24-2.73,1.02-.94,1.88-1.75,2.6-2.43.14-.14.36-.22.64-.22.54,0,.8.22.8.65,0,.4-.25.85-.75,1.35-.96.97-1.86,1.84-2.68,2.59-.82.76-1.61,1.42-2.35,2-1.18.86-2.48,1.66-3.91,2.38-1.43.72-2.77,1.08-4.01,1.08ZM165.54,21.01c-.61,0-.91-.31-.91-.92,0-.18.12-.51.37-1,.25-.49.54-.98.86-1.49.32-.5.57-.85.75-1.03.61-.68,1.08-1.12,1.42-1.3.34-.18.65-.27.94-.27.75,0,1.12.34,1.12,1.03,0,.25-.15.55-.46.89-.3.34-.65.66-1.04.94-.57.36-.93.65-1.07.86l-1.18,1.67c-.04.14-.12.28-.24.41-.12.13-.31.19-.56.19Z"/>
      <path class="cls-1" d="M173.67,43.04c-1.89,0-3.37-.56-4.44-1.67-1.07-1.12-1.61-2.61-1.61-4.48,0-3.24,1.52-6.77,4.55-10.58,1.57-1.94,3.17-3.43,4.79-4.46,1.62-1.03,3.15-1.54,4.58-1.54,1.25,0,2.21.43,2.89,1.3.68.86,1.02,1.94,1.02,3.24,0,.79-.11,1.6-.32,2.43-.14.58-.43.86-.86.86-.68,0-1.02-.38-1.02-1.13,0-.32.06-.75.19-1.27.12-.52.19-1.03.19-1.54,0-1.44-.7-2.16-2.09-2.16-.75,0-1.65.27-2.7.81-1.05.54-2.1,1.25-3.13,2.13-1.04.88-1.95,1.88-2.73,3-2.39,3.28-3.59,6.21-3.59,8.8,0,2.99,1.34,4.48,4.01,4.48,1.68,0,3.28-.26,4.82-.78,1.53-.52,3.34-1.61,5.41-3.27,1.29-1.01,2.25-1.82,2.89-2.43.64-.61,1.34-1.26,2.09-1.94.21-.14.41-.22.59-.22s.36.05.54.16c.18.11.27.27.27.49,0,.4-.36.95-1.07,1.67-.61.58-1.25,1.18-1.93,1.81-.68.63-1.75,1.5-3.21,2.62-1.57,1.22-3.24,2.14-5,2.75-1.77.61-3.47.92-5.11.92Z"/>
      <path class="cls-1" d="M186.2,60.16c-2.18,0-3.26-1.3-3.26-3.89,0-2.2.46-4.32,1.39-6.37.14-.36.37-.54.7-.54.64,0,.96.29.96.86,0,.14-.04.33-.13.57-.09.23-.19.49-.29.78-.25.68-.45,1.4-.59,2.16-.14.76-.21,1.55-.21,2.38,0,.94.12,1.57.38,1.89.25.32.57.49.96.49.93,0,2.03-.43,3.29-1.3,1.27-.86,2.58-2.23,3.93-4.1.96-1.33,1.96-2.92,3-4.75s2.14-3.94,3.32-6.32c1.57-3.13,3.01-6.32,4.33-9.56-.89,1.15-1.82,2.27-2.78,3.35-.96,1.08-2,2.09-3.1,3.02-2.96,2.56-5.42,3.83-7.39,3.83-2.36,0-3.53-1.37-3.53-4.1,0-.97.19-2.14.56-3.51.38-1.37.9-2.93,1.58-4.7.11-.29.16-.53.16-.73s.05-.4.16-.62c.57-1.26,1.52-2.66,2.84-4.21.29-.32.54-.49.75-.49.54,0,.8.4.8,1.19-3.46,5.15-5.19,9.5-5.19,13.07,0,1.51.59,2.27,1.77,2.27,1.32,0,3.16-.92,5.51-2.75,1.68-1.3,3.23-2.76,4.66-4.4,1.43-1.64,2.71-3.34,3.85-5.1.78-1.19,1.42-2.24,1.9-3.16.48-.92.78-1.54.88-1.86.18-.54.43-.81.75-.81.68,0,1.02.29,1.02.86,0,.29-.13.8-.4,1.54-.27.74-.6,1.61-.99,2.62-.57,1.48-1.39,3.46-2.46,5.94s-2.41,5.44-4.01,8.86c-2,4.25-3.96,7.72-5.89,10.42-1.43,2.05-2.99,3.76-4.68,5.13-1.7,1.37-3.2,2.05-4.52,2.05Z"/>
    </g>
  </g>
</svg>