<?xml version="1.0" encoding="UTF-8"?>
<svg id="_レイヤー_2" data-name="レイヤー_2" xmlns="http://www.w3.org/2000/svg" viewBox="0 0 178.01 39.8">
  <defs>
    <style>
      .cls-1 {
        fill: #fff;
      }
    </style>
  </defs>
  <g id="WF">
    <g>
      <path class="cls-1" d="M3.1,36.61c-2.07,0-3.1-.99-3.1-2.97,0-1.3.31-2.69.94-4.19.62-1.49,1.47-2.95,2.54-4.37,1.07-1.42,2.26-2.72,3.59-3.89,1.32-1.17,2.68-2.11,4.07-2.81s2.73-1.05,4.01-1.05c2.28,0,3.43,1.13,3.43,3.4,0,1.48-.36,2.21-1.07,2.21-.64,0-.96-.31-.96-.92,0-.25.06-.51.19-.78.12-.27.19-.57.19-.89,0-1.01-.68-1.51-2.03-1.51-2.18,0-4.91,1.67-8.19,5.02-.79.83-1.55,1.8-2.3,2.92-.75,1.12-1.36,2.24-1.85,3.38-.48,1.13-.72,2.21-.72,3.21s.54,1.46,1.61,1.46c.93,0,1.92-.29,2.97-.86,1.05-.58,1.97-1.17,2.76-1.78,1.57-1.19,3.18-2.81,4.82-4.86.25-.29.57-.67.96-1.13.39-.47.84-.99,1.34-1.57.18-.18.39-.27.64-.27.57,0,.86.29.86.86l-2.03,3.08c-1.36,2.02-2.03,3.67-2.03,4.97,0,.94.45,1.4,1.34,1.4.75,0,1.57-.2,2.46-.59.89-.4,1.62-.79,2.19-1.19,1.14-.76,2.34-1.7,3.59-2.83,1.25-1.13,2.44-2.28,3.59-3.43.14-.14.36-.22.64-.22.54,0,.8.22.8.65,0,.4-.25.85-.75,1.35-1.43,1.44-2.71,2.67-3.85,3.7-1.14,1.03-2.23,1.86-3.26,2.51-.68.4-1.52.81-2.52,1.24-1,.43-2.14.65-3.42.65-1.75,0-2.62-.94-2.62-2.81,0-.72.09-1.31.27-1.78-3.25,3.13-6.26,4.7-9.04,4.7Z"/>
      <path class="cls-1" d="M28.63,39.26c-1,0-1.83-.31-2.49-.92-.66-.61-.99-1.4-.99-2.38,0-.36.02-.59.05-.7-.5,1.15-.96,1.73-1.39,1.73-.57,0-.86-.34-.86-1.03l4.17-11.02c.64-1.73,1.37-3.52,2.19-5.37.82-1.85,1.65-3.64,2.49-5.35.84-1.71,1.62-3.26,2.36-4.64.73-1.39,1.33-2.49,1.79-3.32,1.14-1.98,2.24-3.52,3.29-4.62s1.88-1.65,2.49-1.65c.68,0,1.02.38,1.02,1.13,0,.43-.21.65-.64.65-.93,0-2.51,1.96-4.76,5.89-.71,1.22-1.38,2.44-2.01,3.65-.62,1.21-1.22,2.4-1.79,3.59-.79,1.69-1.61,3.51-2.46,5.45-.86,1.94-1.75,4-2.68,6.16,1.18-1.73,2.48-3.31,3.91-4.75,1.25-1.26,2.54-2.28,3.88-3.05,1.34-.77,2.67-1.16,3.99-1.16,1.46,0,2.62.31,3.48.92.86.61,1.28,1.76,1.28,3.46,0,1.4-.4,2.9-1.2,4.48-.8,1.58-1.84,3.13-3.1,4.64s-2.64,2.89-4.12,4.13c-1.48,1.24-2.92,2.23-4.31,2.97-1.39.74-2.59,1.11-3.59,1.11ZM28.47,37.48c1.07,0,2.25-.37,3.53-1.11,1.29-.74,2.57-1.7,3.85-2.89,1.29-1.19,2.46-2.48,3.53-3.86,1.07-1.39,1.93-2.75,2.57-4.1s.96-2.55.96-3.59c0-1.62-.8-2.43-2.41-2.43-1.43,0-2.82.43-4.17,1.3-1.36.86-2.67,2.02-3.93,3.46-1.27,1.44-2.45,3.02-3.56,4.75-1.11,1.73-2.12,3.47-3.05,5.24.32-.32.62-.49.91-.49.5,0,.75.23.75.7,0,.22-.09.45-.27.7-.07.11-.14.23-.21.38-.07.14-.11.36-.11.65,0,.86.54,1.3,1.61,1.3Z"/>
      <path class="cls-1" d="M50.36,35.8c-2.89,0-4.34-1.64-4.34-4.91,0-1.51.36-3.1,1.07-4.75.71-1.66,1.66-3.19,2.84-4.62,1.18-1.42,2.49-2.58,3.93-3.48,1.45-.9,2.92-1.35,4.42-1.35,1.32,0,2.28.5,2.89,1.51.61,1.01.91,2.12.91,3.35,0,1.62-.32,3.27-.96,4.94-.64,1.67-1.52,3.21-2.62,4.62-1.11,1.4-2.35,2.54-3.75,3.4-1.39.86-2.86,1.3-4.39,1.3ZM50.31,34.07c.21,0,.34-.02.37-.05,1.39-.18,2.68-.68,3.85-1.51,1.18-.83,2.2-1.86,3.08-3.1.87-1.24,1.54-2.58,2.01-4.02.46-1.44.7-2.86.7-4.27,0-.83-.23-1.48-.7-1.94-.46-.47-1.05-.7-1.77-.7-1.04,0-2.13.43-3.29,1.3-1.16.86-2.25,1.96-3.26,3.29-1.02,1.33-1.85,2.73-2.49,4.19-.64,1.46-.96,2.76-.96,3.92,0,1.94.82,2.92,2.46,2.92Z"/>
      <path class="cls-1" d="M78.78,37.91c-1.75,0-2.62-1.28-2.62-3.83,0-1.37.32-3.02.96-4.97-4.32,5.08-7.71,7.61-10.17,7.61-2.03,0-3.05-1.24-3.05-3.73,0-.94.15-2.06.46-3.38.3-1.31.71-2.67,1.23-4.08.52-1.4,1.08-2.72,1.69-3.94.61-1.22,1.21-2.21,1.82-2.97.21-.25.48-.38.8-.38.18,0,.36.06.54.19.18.13.27.32.27.57,0,.22-.12.52-.37.92-1.61,2.66-2.75,4.99-3.43,6.97-.86,2.27-1.28,4.23-1.28,5.89,0,1.55.39,2.32,1.18,2.32.5,0,1.16-.25,1.98-.76.82-.5,1.67-1.12,2.54-1.86.87-.74,1.63-1.43,2.27-2.08,1.78-1.91,3.39-3.94,4.82-6.1.64-1.01,1.22-1.99,1.74-2.94.52-.95.99-1.95,1.42-3,.18-.4.33-.69.46-.89.12-.2.31-.3.56-.3.75,0,1.12.29,1.12.86,0,.36-.12.61-.37.76-3.64,7.45-5.46,12.58-5.46,15.39,0,.76.07,1.29.21,1.59.14.31.39.46.75.46.5,0,1.28-.32,2.33-.97,1.05-.65,2.29-1.64,3.72-2.97l5.62-5.18c.29-.29.55-.43.8-.43.57,0,.86.27.86.81,0,.47-1.12,1.73-3.37,3.78-.96.9-1.82,1.66-2.57,2.27-.75.61-1.45,1.15-2.09,1.62-1.21.86-2.28,1.54-3.21,2.02s-1.64.73-2.14.73Z"/>
      <path class="cls-1" d="M89,39.8c-.68,0-1.02-.54-1.02-1.62,0-1.58.88-4.36,2.65-8.32,1.77-3.96,4.4-9.14,7.89-15.55-1.36,0-2.63.17-3.83.51-1.2.34-1.83.77-1.9,1.27-.04.14-.12.28-.24.4-.13.13-.31.19-.56.19-.57,0-.86-.29-.86-.86,0-.94.73-1.71,2.19-2.32,1.46-.61,3.51-.92,6.16-.92l3.69-6.16c.25-.4.52-.84.8-1.32.29-.49.61-1.02.96-1.59.36-.5.77-.76,1.23-.76.29,0,.5.08.64.24.14.16.21.33.21.51,0,.54-.79,1.98-2.36,4.32-1.96,2.92-3.02,4.5-3.16,4.75.54,0,1.34.05,2.41.14,1.07.09,2.34.23,3.8.4.54.04.8.31.8.81,0,.58-.32.86-.96.86-.25,0-.75-.04-1.5-.14-.75-.09-1.55-.17-2.41-.24-.86-.07-1.59-.09-2.19-.05l-.8.05c-7.24,12.85-10.85,20.84-10.81,23.98l.05.43v.11c0,.58-.3.86-.91.86Z"/>
      <path class="cls-1" d="M114.59,37.91c-.61,0-.91-.29-.91-.86,0-.04.21-.49.64-1.35.43-.86,1.03-2.14,1.82-3.83l2.73-5.78c1.11-2.34,1.9-4.19,2.38-5.56s.72-2.25.72-2.65c0-.58.29-.86.86-.86s.86.29.86.86c0,.47-.15,1.2-.46,2.19-.3.99-.79,2.26-1.47,3.81l-2.73,6.26c7.46-9.5,13.08-14.26,16.86-14.26.71,0,1.27.3,1.66.89.39.59.59,1.25.59,1.97,0,1.73-1.23,4.73-3.69,9.02,1.89-1.94,3.81-3.9,5.75-5.86,1.94-1.96,3.9-3.9,5.86-5.81.5-.47.91-.7,1.23-.7.43,0,.78.21,1.07.62.29.41.43.86.43,1.32,0,.36-.16.81-.48,1.35-.46.79-.89,1.74-1.28,2.83-.39,1.1-.84,2.33-1.34,3.7-.57,1.55-.98,2.9-1.23,4.05-.25,1.15-.37,2.09-.37,2.81,0,.9.21,1.56.64,1.97.43.41.86.62,1.29.62.75,0,1.57-.2,2.46-.59.89-.4,1.62-.79,2.19-1.19,1.14-.76,2.34-1.7,3.59-2.83,1.25-1.13,2.44-2.28,3.59-3.43.14-.14.36-.22.64-.22.54,0,.8.22.8.65,0,.4-.25.85-.75,1.35-1.43,1.44-2.71,2.67-3.85,3.7-1.14,1.03-2.23,1.86-3.26,2.51-.68.4-1.5.81-2.46,1.24-.96.43-2,.65-3.1.65-1.04,0-1.9-.32-2.6-.97-.7-.65-1.04-2.03-1.04-4.16,0-.83.14-1.81.43-2.94.29-1.13.71-2.4,1.28-3.81l2.84-6.8-7.65,7.78c-.89.9-1.62,1.66-2.19,2.27-.57.61-1.04,1.12-1.39,1.51-.68.72-1.28,1.42-1.79,2.11-.52.68-.96,1.28-1.31,1.78-.25.4-.54.59-.86.59-.61,0-.91-.25-.91-.76,0-1.12,1-3.69,3-7.72,2-4.03,3-6.44,3-7.24,0-.36-.39-.54-1.18-.54-3.18,0-8.83,5.24-16.97,15.71-.68.97-1.8,2.43-3.37,4.37-.11.14-.29.22-.54.22Z"/>
      <path class="cls-1" d="M161.42,37.04c-1.5,0-2.68-.52-3.53-1.57-.86-1.04-1.29-2.32-1.29-3.83,0-2.59.86-5.26,2.57-7.99.46-.76,1-1.5,1.61-2.24.61-.74,1.27-1.45,1.98-2.13,1.07-1.04,2.19-1.91,3.37-2.59,1.18-.68,2.32-1.03,3.42-1.03,1.82,0,2.73.86,2.73,2.59,0,2.16-1.25,4.12-3.75,5.89-2.32,1.58-4.6,2.38-6.85,2.38-.39,0-.74-.03-1.04-.08-.3-.05-.58-.12-.83-.19-.36.68-.68,1.57-.96,2.65-.29,1.08-.43,2.02-.43,2.81,0,2.38,1.03,3.56,3.1,3.56,1.68,0,3.27-.3,4.76-.89,1.5-.59,3.28-1.72,5.35-3.38,1.28-1.01,2.25-1.82,2.89-2.43.64-.61,1.34-1.26,2.09-1.94.21-.14.41-.22.59-.22s.36.05.54.16c.18.11.27.27.27.49,0,.4-.36.95-1.07,1.67-.61.58-1.25,1.18-1.93,1.81-.68.63-1.75,1.5-3.21,2.62-1.57,1.22-3.28,2.18-5.14,2.86-1.86.68-3.6,1.03-5.25,1.03ZM161.36,24.79c1.14,0,2.23-.18,3.26-.54,1.04-.36,2.02-.88,2.94-1.57,2.07-1.55,3.1-3.01,3.1-4.37,0-.61-.37-.92-1.12-.92-1.43,0-3.09.88-4.98,2.65-.93.86-1.69,1.65-2.27,2.35s-1.13,1.47-1.63,2.29c.21.07.45.11.7.11Z"/>
    </g>
  </g>
</svg>