<?xml version="1.0" encoding="UTF-8"?>
<svg id="_レイヤー_2" data-name="レイヤー_2" xmlns="http://www.w3.org/2000/svg" viewBox="0 0 60.16 171.43">
  <defs>
    <style>
      .cls-1 {
        fill: #fff;
      }
    </style>
  </defs>
  <g id="WF">
    <g>
      <path class="cls-1" d="M44.12,170.52c0,.61-.29.91-.86.91-.04,0-.49-.21-1.35-.64-.86-.43-2.14-1.03-3.83-1.82l-5.78-2.73c-2.34-1.11-4.19-1.9-5.56-2.38s-2.25-.72-2.65-.72c-.58,0-.86-.29-.86-.86s.29-.86.86-.86c.47,0,1.2.15,2.19.46.99.3,2.26.79,3.81,1.47l6.26,2.73c-9.5-7.46-14.26-13.08-14.26-16.86,0-.71.3-1.27.89-1.66.59-.39,1.25-.59,1.97-.59,1.73,0,4.73,1.23,9.02,3.69-1.94-1.89-3.9-3.81-5.86-5.75s-3.9-3.9-5.81-5.86c-.47-.5-.7-.91-.7-1.23,0-.43.21-.78.62-1.07.42-.29.86-.43,1.32-.43.36,0,.81.16,1.35.48.79.46,1.74.89,2.83,1.28,1.1.39,2.33.84,3.7,1.34,1.55.57,2.9.98,4.05,1.23,1.15.25,2.09.37,2.81.37.9,0,1.56-.21,1.97-.64.41-.43.62-.86.62-1.29,0-.75-.2-1.57-.59-2.46-.4-.89-.79-1.62-1.19-2.19-.76-1.14-1.7-2.34-2.83-3.59-1.13-1.25-2.28-2.44-3.43-3.59-.14-.14-.22-.36-.22-.64,0-.54.22-.8.65-.8.4,0,.85.25,1.35.75,1.44,1.43,2.67,2.71,3.7,3.85,1.03,1.14,1.86,2.23,2.51,3.26.4.68.81,1.5,1.24,2.46.43.96.65,2,.65,3.1,0,1.04-.32,1.9-.97,2.6-.65.7-2.03,1.04-4.16,1.04-.83,0-1.81-.14-2.94-.43-1.13-.29-2.4-.71-3.81-1.28l-6.8-2.84,7.78,7.65c.9.89,1.66,1.62,2.27,2.19.61.57,1.12,1.04,1.51,1.39.72.68,1.42,1.28,2.11,1.79.68.52,1.28.96,1.78,1.31.4.25.59.54.59.86,0,.61-.25.91-.76.91-1.12,0-3.69-1-7.72-3-4.03-2-6.44-3-7.24-3-.36,0-.54.39-.54,1.18,0,3.18,5.24,8.83,15.71,16.97.97.68,2.43,1.8,4.37,3.37.14.11.22.29.22.54Z"/>
      <path class="cls-1" d="M60.16,129.79c0,2.18-1.3,3.26-3.89,3.26-2.2,0-4.32-.46-6.37-1.39-.36-.14-.54-.37-.54-.7,0-.64.29-.96.86-.96.14,0,.33.04.57.13.23.09.49.19.78.29.68.25,1.4.45,2.16.59.76.14,1.55.21,2.38.21.94,0,1.57-.12,1.89-.38.32-.25.49-.57.49-.96,0-.93-.43-2.03-1.3-3.29-.86-1.27-2.23-2.58-4.1-3.93-1.33-.96-2.92-1.96-4.75-3s-3.94-2.14-6.32-3.32c-3.13-1.57-6.32-3.01-9.56-4.33,1.15.89,2.27,1.82,3.35,2.78,1.08.96,2.09,2,3.02,3.1,2.56,2.96,3.83,5.42,3.83,7.39,0,2.36-1.37,3.53-4.1,3.53-.97,0-2.14-.19-3.51-.56-1.37-.38-2.93-.9-4.7-1.58-.29-.11-.53-.16-.73-.16s-.41-.05-.62-.16c-1.26-.57-2.66-1.52-4.21-2.84-.32-.29-.49-.54-.49-.75,0-.54.4-.8,1.19-.8,5.15,3.46,9.5,5.19,13.07,5.19,1.51,0,2.27-.59,2.27-1.77,0-1.32-.92-3.16-2.75-5.51-1.3-1.68-2.76-3.23-4.4-4.66-1.64-1.43-3.34-2.71-5.1-3.85-1.19-.78-2.24-1.42-3.16-1.9-.92-.48-1.54-.78-1.86-.88-.54-.18-.81-.43-.81-.75,0-.68.29-1.02.86-1.02.29,0,.8.13,1.54.4.74.27,1.61.6,2.62.99,1.48.57,3.46,1.39,5.94,2.46,2.48,1.07,5.44,2.41,8.86,4.01,4.25,2,7.72,3.96,10.42,5.89,2.05,1.43,3.76,2.99,5.13,4.68,1.37,1.7,2.05,3.2,2.05,4.52Z"/>
      <path class="cls-1" d="M44.06,90.29c0,2-.67,3-2,3-.83,0-1.66-.29-2.48-.88-.83-.59-1.58-1.29-2.27-2.11-.68-.82-1.21-1.59-1.57-2.3-.11-.21-.22-.51-.32-.88-.11-.38-.16-.69-.16-.94,0-.29.11-.43.32-.43.18,0,.38.2.59.59.79,1.64,1.74,2.92,2.83,3.83,1.1.91,1.99,1.36,2.67,1.36s.97-.55.97-1.66c0-.93-.23-1.93-.7-3.02-.47-1.09-1.08-2.12-1.84-3.1s-1.57-1.79-2.43-2.44c-.86-.64-1.69-.96-2.48-.96-.54,0-1.03.17-1.46.51-.43.34-.76.88-.97,1.63l-1.08,3.53c-.29.89-.67,1.53-1.13,1.93-.47.39-.99.59-1.57.59-1.08,0-2.05-.4-2.92-1.2s-1.55-1.81-2.05-3.02c-.5-1.21-.76-2.39-.76-3.53s.28-2.14.84-3c.56-.86,1.3-1.28,2.24-1.28.54,0,1.04.15,1.51.46s.7.65.7,1.04c0,.61-.25.91-.76.91-.18,0-.4-.1-.67-.29-.27-.2-.53-.29-.78-.29-1.08,0-1.62.82-1.62,2.46,0,.89.19,1.78.57,2.65.38.88.87,1.6,1.49,2.17.61.57,1.28.86,2,.86s1.3-.71,1.73-2.14l1.08-3.42c.32-1.04.77-1.75,1.32-2.14.56-.39,1.18-.59,1.86-.59,1.62,0,3.29.98,5.02,2.94,2.84,3.18,4.27,6.24,4.27,9.21Z"/>
      <path class="cls-1" d="M44.82,60.16c0,.36-.22.62-.65.8l-1.84.75c-1.91.79-3.81,1.91-5.7,3.37-1.89,1.46-3.63,2.91-5.21,4.33,1.62.79,3.08,1.48,4.37,2.09s2.51,1.16,3.65,1.66c1.13.5,2.31,1.04,3.54,1.61.36.14.54.39.54.75,0,.61-.25.91-.76.91-.22,0-.49-.08-.84-.24-.34-.16-.69-.31-1.05-.46-2.27-.93-4.97-2.13-8.1-3.61-3.13-1.48-6.55-3.17-10.26-5.06-7.09-3.6-12.17-6.49-15.23-8.67-.72-.5-1.37-.99-1.94-1.47-.58-.48-.86-.9-.86-1.26,0-.64.34-.96,1.03-.96.94,0,3.42,1.36,7.45,4.07.32.21.86.59,1.62,1.12s1.58,1.11,2.46,1.71c.88.61,1.69,1.17,2.43,1.69.74.52,1.25.87,1.54,1.04l7.72,3.85c-5.08-8.63-7.61-13.27-7.61-13.92,0-.57.32-.86.97-.86.4,0,.68.21.86.64.76,1.57,1.37,2.81,1.84,3.72s.95,1.83,1.46,2.76c.5.79,1.12,1.79,1.84,3.02.72,1.23,1.55,2.69,2.48,4.36.94-.86,2.02-1.78,3.27-2.78s2.52-1.94,3.83-2.81c1.31-.87,2.53-1.6,3.64-2.17,1.12-.57,2.02-.86,2.7-.86.54,0,.81.29.81.86Z"/>
      <path class="cls-1" d="M21.01,43.51c0,.61-.31.91-.92.91-.18,0-.51-.12-1-.37s-.98-.54-1.49-.86c-.5-.32-.84-.57-1.03-.75-.68-.61-1.12-1.08-1.3-1.42-.18-.34-.27-.65-.27-.94,0-.75.34-1.12,1.03-1.12.25,0,.55.15.89.46.34.3.66.65.95,1.04.36.57.65.93.86,1.07l1.67,1.18c.14.04.28.12.41.24s.19.31.19.56ZM42.88,52.61c0,1-.2,1.72-.59,2.17-.4.45-.99.67-1.78.67s-1.79-.23-3.11-.7c-1.31-.46-2.73-1.06-4.24-1.79-1.51-.73-2.95-1.51-4.32-2.33-1.37-.82-2.49-1.61-3.38-2.38-.88-.77-1.32-1.38-1.32-1.85,0-.64.29-.96.86-.96.36,0,1.04.3,2.05.91,1.01.61,2.05,1.27,3.13,1.98.4.29.94.68,1.62,1.18.68.5,1.32.98,1.92,1.44.59.46,1,.77,1.21.91.54.36,1.42.73,2.65,1.12,1.22.43,2.16.64,2.81.64.29,0,.5-.06.65-.19.14-.12.22-.42.22-.88,0-.89-.29-1.89-.86-3-.58-1.11-1.3-2.23-2.19-3.37-.88-1.14-1.79-2.22-2.73-3.24-.94-1.02-1.75-1.88-2.43-2.6-.14-.14-.22-.36-.22-.64,0-.54.22-.8.65-.8.4,0,.85.25,1.35.75.97.96,1.84,1.86,2.59,2.68.76.82,1.42,1.61,2,2.35.86,1.18,1.66,2.48,2.38,3.91.72,1.43,1.08,2.77,1.08,4.01Z"/>
      <path class="cls-1" d="M43.74,36.12c0,1.64-.51,2.9-1.54,3.77-1.03.87-2.38,1.31-4.08,1.31-1.22,0-2.7-.21-4.43-.64-2.92-.75-6.3-2.02-10.15-3.8-2.92-1.39-5.79-2.89-8.61-4.5-2.83-1.61-5.61-3.37-8.34-5.3-4.39-3.07-6.59-5.21-6.59-6.42,0-.78.22-1.18.65-1.18.61,0,2.14,1,4.59,3l4.59,3.75c3.96,3.25,8.01,5.9,12.15,7.95,4.14,2.05,8.28,3.65,12.42,4.79,1.19.32,2.3.48,3.35.48,2.74,0,4.1-1.11,4.1-3.32,0-.78-.23-1.59-.7-2.41-.43-.82-.65-1.27-.65-1.34,0-.43.31-.64.92-.64.54,0,.95.2,1.24.59.72,1.21,1.08,2.52,1.08,3.91Z"/>
      <path class="cls-1" d="M43.74,22.58c0,1.64-.51,2.9-1.54,3.77-1.03.87-2.38,1.31-4.08,1.31-1.22,0-2.7-.21-4.43-.64-2.92-.75-6.3-2.02-10.15-3.8-2.92-1.39-5.79-2.89-8.61-4.5-2.83-1.61-5.61-3.37-8.34-5.3C2.2,10.36,0,8.22,0,7.01c0-.78.22-1.18.65-1.18.61,0,2.14,1,4.59,3l4.59,3.75c3.96,3.25,8.01,5.9,12.15,7.95,4.14,2.05,8.28,3.65,12.42,4.79,1.19.32,2.3.48,3.35.48,2.74,0,4.1-1.11,4.1-3.32,0-.78-.23-1.59-.7-2.41-.43-.82-.65-1.27-.65-1.34,0-.43.31-.64.92-.64.54,0,.95.2,1.24.59.72,1.21,1.08,2.52,1.08,3.91Z"/>
      <path class="cls-1" d="M44.06,13.81c0,2-.67,3-2,3-.83,0-1.66-.29-2.48-.88-.83-.59-1.58-1.29-2.27-2.11-.68-.82-1.21-1.59-1.57-2.3-.11-.21-.22-.51-.32-.88-.11-.38-.16-.69-.16-.94,0-.29.11-.43.32-.43.18,0,.38.2.59.59.79,1.64,1.74,2.92,2.83,3.83,1.1.91,1.99,1.36,2.67,1.36s.97-.55.97-1.66c0-.93-.23-1.93-.7-3.02-.47-1.09-1.08-2.12-1.84-3.1s-1.57-1.79-2.43-2.44c-.86-.64-1.69-.96-2.48-.96-.54,0-1.03.17-1.46.51-.43.34-.76.88-.97,1.63l-1.08,3.53c-.29.89-.67,1.53-1.13,1.93-.47.39-.99.59-1.57.59-1.08,0-2.05-.4-2.92-1.2s-1.55-1.81-2.05-3.02c-.5-1.21-.76-2.39-.76-3.53s.28-2.14.84-3c.56-.86,1.3-1.28,2.24-1.28.54,0,1.04.15,1.51.46s.7.65.7,1.04c0,.61-.25.91-.76.91-.18,0-.4-.1-.67-.29-.27-.2-.53-.29-.78-.29-1.08,0-1.62.82-1.62,2.46,0,.89.19,1.78.57,2.65.38.88.87,1.6,1.49,2.17.61.57,1.28.86,2,.86s1.3-.71,1.73-2.14l1.08-3.42c.32-1.04.77-1.75,1.32-2.14.56-.39,1.18-.59,1.86-.59,1.62,0,3.29.98,5.02,2.94,2.84,3.18,4.27,6.24,4.27,9.21Z"/>
    </g>
  </g>
</svg>