<?xml version="1.0" encoding="UTF-8"?>
<svg id="_レイヤー_2" data-name="レイヤー_2" xmlns="http://www.w3.org/2000/svg" viewBox="0 0 176.86 218.33">
  <defs>
    <style>
      .cls-1 {
        fill: #fff;
      }
    </style>
  </defs>
  <g id="WF">
    <g>
      <path class="cls-1" d="M145,174.01c19.05-5.16,29.91-18.87,29.91-38.99,0-25.99-18.51-41.3-49.49-41.3h-9.37v5.52h9.73c27.95,0,43.26,13,43.26,35.78s-15.31,35.96-43.26,35.96h-37.56v-71.74h25.36v-5.52h-31.41v124.61h6.05v-41.83h37.21c4.81,0,9.44-.36,13.53-1.07l30.8,42.9h7.12l-31.87-44.33Z"/>
      <path class="cls-1" d="M66.05,0C26.53,0,0,26.17,0,62.31s26.53,62.31,66.05,62.31h21.81v-5.52h-21.45c-36.85,0-60.35-23.85-60.35-56.79S29.55,5.52,66.4,5.52h41.66v113.58h-17.73v5.52h23.78V0h-48.07Z"/>
    </g>
  </g>
</svg>