<?xml version="1.0" encoding="UTF-8"?>
<svg id="_レイヤー_2" data-name="レイヤー_2" xmlns="http://www.w3.org/2000/svg" viewBox="0 0 274.07 247.5">
  <defs>
    <style>
      .cls-1 {
        fill: #fff;
      }
    </style>
  </defs>
  <g id="WF">
    <g>
      <g>
        <path class="cls-1" d="M187.31,157.42c17.23-4.67,27.06-17.07,27.06-35.27,0-23.51-16.75-37.36-44.77-37.36h-8.48v4.99h8.8c25.28,0,39.14,11.76,39.14,32.37s-13.85,32.53-39.14,32.53h-33.98v-64.9h22.94v-4.99h-28.42v112.73h5.48v-37.85h33.66c4.35,0,8.54-.32,12.24-.97l27.86,38.81h6.44l-28.83-40.1Z"/>
        <path class="cls-1" d="M115.88,0c-35.75,0-59.75,23.67-59.75,56.37s24,56.37,59.75,56.37h19.73v-4.99h-19.41c-33.34,0-54.6-21.58-54.6-51.37S82.87,4.99,116.21,4.99h37.69v102.75h-16.04v4.99h21.52V0h-43.48Z"/>
      </g>
      <g>
        <path class="cls-1" d="M0,227.72h6.27c4.93,0,8.25,3.17,8.25,7.7s-3.32,7.7-8.25,7.7H0v-15.4ZM6.18,241.71c4.09,0,6.73-2.6,6.73-6.29s-2.64-6.29-6.73-6.29H1.63v12.59h4.55Z"/>
        <path class="cls-1" d="M30.12,237.82h-9.68c.18,2.42,2.02,4.03,4.55,4.03,1.41,0,2.66-.51,3.54-1.52l.88,1.01c-1.03,1.23-2.64,1.89-4.47,1.89-3.61,0-6.07-2.46-6.07-5.9s2.4-5.88,5.66-5.88,5.61,2.4,5.61,5.88c0,.13-.02.31-.02.48ZM20.44,236.65h8.21c-.2-2.27-1.85-3.85-4.11-3.85s-3.89,1.58-4.09,3.85Z"/>
        <path class="cls-1" d="M34.36,237.33c0-3.45,2.51-5.88,5.96-5.88,1.96,0,3.61.77,4.53,2.29l-1.17.79c-.79-1.17-2.02-1.72-3.37-1.72-2.53,0-4.38,1.8-4.38,4.51s1.85,4.51,4.38,4.51c1.34,0,2.58-.53,3.37-1.69l1.17.79c-.92,1.5-2.57,2.29-4.53,2.29-3.45,0-5.96-2.44-5.96-5.9Z"/>
        <path class="cls-1" d="M48.75,237.33c0-3.43,2.51-5.88,5.9-5.88s5.88,2.44,5.88,5.88-2.49,5.9-5.88,5.9-5.9-2.46-5.9-5.9ZM58.94,237.33c0-2.71-1.83-4.51-4.29-4.51s-4.31,1.8-4.31,4.51,1.85,4.51,4.31,4.51,4.29-1.8,4.29-4.51Z"/>
        <path class="cls-1" d="M76.76,243.12l-3.52-4.95c-.4.04-.79.07-1.23.07h-4.14v4.88h-1.63v-15.4h5.76c3.92,0,6.29,1.98,6.29,5.28,0,2.42-1.28,4.11-3.52,4.84l3.76,5.28h-1.78ZM76.67,233c0-2.46-1.63-3.87-4.71-3.87h-4.09v7.72h4.09c3.08,0,4.71-1.43,4.71-3.85Z"/>
        <path class="cls-1" d="M92.64,235.95v7.17h-1.5v-1.8c-.7,1.19-2.07,1.92-3.98,1.92-2.62,0-4.22-1.36-4.22-3.37,0-1.78,1.14-3.28,4.47-3.28h3.67v-.7c0-1.98-1.12-3.06-3.28-3.06-1.5,0-2.91.53-3.85,1.36l-.7-1.17c1.17-.99,2.88-1.56,4.71-1.56,2.99,0,4.69,1.5,4.69,4.49ZM91.08,239.64v-1.89h-3.63c-2.24,0-2.97.88-2.97,2.07,0,1.34,1.08,2.18,2.93,2.18s3.06-.84,3.67-2.35Z"/>
        <path class="cls-1" d="M117.61,226.79v16.33h-1.5v-2.29c-.95,1.56-2.55,2.4-4.47,2.4-3.3,0-5.77-2.4-5.77-5.9s2.46-5.88,5.77-5.88c1.85,0,3.43.79,4.4,2.29v-6.95h1.56ZM116.07,237.33c0-2.71-1.85-4.51-4.29-4.51s-4.31,1.8-4.31,4.51,1.85,4.51,4.31,4.51,4.29-1.8,4.29-4.51Z"/>
        <path class="cls-1" d="M134.24,237.82h-9.68c.18,2.42,2.02,4.03,4.55,4.03,1.41,0,2.66-.51,3.54-1.52l.88,1.01c-1.03,1.23-2.64,1.89-4.47,1.89-3.61,0-6.07-2.46-6.07-5.9s2.4-5.88,5.66-5.88,5.61,2.4,5.61,5.88c0,.13-.02.31-.02.48ZM124.56,236.65h8.21c-.2-2.27-1.85-3.85-4.11-3.85s-3.89,1.58-4.09,3.85Z"/>
        <path class="cls-1" d="M138.05,241.8l.7-1.23c.92.73,2.49,1.3,4.11,1.3,2.2,0,3.1-.75,3.1-1.89,0-3.01-7.5-.64-7.5-5.21,0-1.89,1.63-3.3,4.58-3.3,1.5,0,3.12.42,4.09,1.08l-.68,1.25c-1.01-.7-2.22-.99-3.41-.99-2.09,0-3.01.81-3.01,1.91,0,3.12,7.5.77,7.5,5.21,0,2-1.76,3.3-4.78,3.3-1.91,0-3.76-.62-4.71-1.43Z"/>
        <path class="cls-1" d="M152.26,227.89c0-.59.51-1.1,1.14-1.1s1.14.48,1.14,1.08c0,.64-.48,1.14-1.14,1.14s-1.14-.51-1.14-1.12ZM152.61,231.55h1.56v11.57h-1.56v-11.57Z"/>
        <path class="cls-1" d="M171.45,231.55v10.17c0,3.98-1.96,5.79-5.79,5.79-2.11,0-4.18-.64-5.39-1.78l.79-1.19c1.1.99,2.77,1.58,4.55,1.58,2.93,0,4.27-1.34,4.27-4.2v-1.47c-.97,1.47-2.62,2.24-4.51,2.24-3.3,0-5.81-2.31-5.81-5.63s2.51-5.59,5.81-5.59c1.94,0,3.61.79,4.58,2.31v-2.22h1.5ZM169.93,237.05c0-2.51-1.85-4.22-4.4-4.22s-4.38,1.72-4.38,4.22,1.83,4.25,4.38,4.25,4.4-1.74,4.4-4.25Z"/>
        <path class="cls-1" d="M188.67,236.41v6.71h-1.56v-6.56c0-2.44-1.28-3.7-3.48-3.7-2.49,0-4.05,1.54-4.05,4.18v6.07h-1.56v-11.57h1.5v2.13c.84-1.41,2.4-2.22,4.4-2.22,2.82,0,4.75,1.63,4.75,4.95Z"/>
        <path class="cls-1" d="M220.07,231.55l-4.38,11.57h-1.47l-3.65-9.48-3.65,9.48h-1.47l-4.36-11.57h1.5l3.63,9.83,3.72-9.83h1.34l3.7,9.83,3.67-9.83h1.43Z"/>
        <path class="cls-1" d="M223.12,237.33c0-3.43,2.51-5.88,5.9-5.88s5.88,2.44,5.88,5.88-2.49,5.9-5.88,5.9-5.9-2.46-5.9-5.9ZM233.31,237.33c0-2.71-1.83-4.51-4.29-4.51s-4.31,1.8-4.31,4.51,1.85,4.51,4.31,4.51,4.29-1.8,4.29-4.51Z"/>
        <path class="cls-1" d="M246.11,231.46v1.52c-.13,0-.26-.02-.37-.02-2.42,0-3.89,1.54-3.89,4.27v5.9h-1.56v-11.57h1.5v2.27c.73-1.54,2.2-2.35,4.33-2.35Z"/>
        <path class="cls-1" d="M255.42,237.31l-2.73,2.51v3.3h-1.56v-16.33h1.56v11.07l6.91-6.31h1.94l-4.95,4.73,5.41,6.84h-1.91l-4.67-5.81Z"/>
        <path class="cls-1" d="M264.59,241.8l.7-1.23c.92.73,2.49,1.3,4.11,1.3,2.2,0,3.1-.75,3.1-1.89,0-3.01-7.5-.64-7.5-5.21,0-1.89,1.63-3.3,4.58-3.3,1.5,0,3.12.42,4.09,1.08l-.68,1.25c-1.01-.7-2.22-.99-3.41-.99-2.09,0-3.01.81-3.01,1.91,0,3.12,7.5.77,7.5,5.21,0,2-1.76,3.3-4.77,3.3-1.92,0-3.76-.62-4.71-1.43Z"/>
      </g>
    </g>
  </g>
</svg>