<?xml version="1.0" encoding="UTF-8"?>
<svg id="_レイヤー_2" data-name="レイヤー_2" xmlns="http://www.w3.org/2000/svg" viewBox="0 0 283.29 27.9">
  <defs>
    <style>
      .cls-1 {
        fill: #fff;
      }
    </style>
  </defs>
  <g id="WF">
    <g>
      <path class="cls-1" d="M1.78,26.11c-1.18,0-1.78-.39-1.78-1.18,0-.49.17-.98.52-1.47.35-.49.77-.94,1.25-1.34s.94-.71,1.36-.93c.13-.06.3-.13.52-.19.22-.06.41-.1.55-.1.17,0,.25.06.25.19,0,.11-.12.22-.35.35-.97.47-1.73,1.03-2.27,1.68-.54.65-.81,1.18-.81,1.58s.33.58.98.58c.55,0,1.15-.14,1.79-.42.64-.28,1.26-.64,1.84-1.09.58-.45,1.06-.93,1.44-1.44.38-.51.57-1,.57-1.47,0-.32-.1-.61-.3-.86-.2-.26-.52-.45-.97-.58l-2.09-.64c-.53-.17-.91-.39-1.14-.67s-.35-.59-.35-.93c0-.64.24-1.22.71-1.73.48-.51,1.07-.92,1.79-1.22.72-.3,1.42-.45,2.09-.45s1.27.17,1.78.5c.51.33.76.77.76,1.33,0,.32-.09.62-.27.9s-.39.42-.62.42c-.36,0-.54-.15-.54-.45,0-.11.06-.24.17-.4s.17-.31.17-.46c0-.64-.49-.96-1.46-.96-.53,0-1.05.11-1.57.34-.52.22-.95.52-1.29.88-.34.36-.51.76-.51,1.18s.42.77,1.27,1.02l2.03.64c.61.19,1.04.45,1.27.78.23.33.35.7.35,1.1,0,.96-.58,1.95-1.75,2.98-1.88,1.69-3.7,2.53-5.46,2.53Z"/>
      <path class="cls-1" d="M14.88,25.5c-1.12,0-2-.33-2.63-.99-.63-.66-.95-1.55-.95-2.66,0-1.92.9-4.01,2.7-6.27.93-1.15,1.88-2.03,2.84-2.64.96-.61,1.87-.91,2.71-.91.74,0,1.31.26,1.71.77.4.51.6,1.15.6,1.92,0,.47-.06.95-.19,1.44-.08.34-.25.51-.51.51-.4,0-.6-.22-.6-.67,0-.19.04-.44.11-.75.07-.31.11-.61.11-.91,0-.85-.41-1.28-1.24-1.28-.44,0-.98.16-1.6.48-.62.32-1.24.74-1.86,1.26s-1.15,1.11-1.62,1.78c-1.42,1.94-2.12,3.68-2.12,5.22,0,1.77.79,2.66,2.38,2.66.99,0,1.95-.15,2.85-.46.91-.31,1.98-.95,3.2-1.94.76-.6,1.33-1.08,1.71-1.44.38-.36.79-.75,1.24-1.15.13-.08.24-.13.35-.13s.21.03.32.1c.11.06.16.16.16.29,0,.24-.21.57-.63.99-.36.34-.74.7-1.14,1.07s-1.04.89-1.9,1.55c-.93.73-1.92,1.27-2.97,1.63-1.05.36-2.06.54-3.03.54Z"/>
      <path class="cls-1" d="M21.63,25.86c-.34,0-.51-.14-.51-.42,0-.13.04-.26.11-.38s.13-.23.17-.32l2.89-5.89c1.23-2.52,1.84-3.92,1.84-4.19,0-.3.15-.45.44-.45.4,0,.6.2.6.61,0,.21-.09.55-.29,1.02-.19.47-.43,1.01-.73,1.63-.51,1.11-.93,1.96-1.27,2.56.63-.75,1.28-1.45,1.93-2.11.66-.66,1.32-1.29,2-1.89,2.01-1.77,3.55-2.66,4.63-2.66.74,0,1.11.35,1.11,1.06s-.22,1.02-.67,1.02c-.21,0-.37-.18-.48-.54-.06-.26-.21-.38-.44-.38-.36,0-1.06.4-2.09,1.18-1.14.85-2.29,1.87-3.44,3.04-1.15,1.17-2.37,2.67-3.66,4.48l-1.58,2.24c-.08.11-.16.2-.24.27s-.19.11-.33.11Z"/>
      <path class="cls-1" d="M35.49,24.9c-1.71,0-2.57-.97-2.57-2.91,0-.9.21-1.83.63-2.82.42-.98.98-1.89,1.68-2.74.7-.84,1.48-1.53,2.33-2.06.86-.53,1.73-.8,2.62-.8.78,0,1.35.3,1.71.9.36.6.54,1.26.54,1.98,0,.96-.19,1.94-.57,2.93-.38.99-.9,1.9-1.55,2.74-.66.83-1.4,1.5-2.22,2.02-.82.51-1.69.77-2.6.77ZM35.46,23.87c.13,0,.2,0,.22-.03.83-.11,1.59-.41,2.28-.9.7-.49,1.3-1.1,1.82-1.84.52-.74.91-1.53,1.19-2.38.27-.85.41-1.7.41-2.53,0-.49-.14-.87-.41-1.15-.28-.28-.62-.42-1.05-.42-.61,0-1.26.26-1.95.77-.69.51-1.33,1.16-1.93,1.95s-1.09,1.62-1.48,2.48c-.38.86-.57,1.64-.57,2.32,0,1.15.49,1.73,1.46,1.73Z"/>
      <path class="cls-1" d="M46.94,25.92c-.97,0-1.72-.3-2.24-.91-.52-.61-.78-1.41-.78-2.42,0-.73.13-1.6.38-2.62.44-1.73,1.19-3.73,2.25-6.02.82-1.73,1.71-3.43,2.66-5.1s2-3.32,3.14-4.94c1.82-2.6,3.09-3.9,3.81-3.9.46,0,.7.13.7.38,0,.36-.59,1.27-1.78,2.72l-2.22,2.72c-1.92,2.35-3.49,4.75-4.71,7.2s-2.16,4.91-2.84,7.36c-.19.7-.29,1.37-.29,1.98,0,1.62.66,2.43,1.97,2.43.46,0,.94-.14,1.43-.42.49-.26.75-.38.79-.38.25,0,.38.18.38.54,0,.32-.12.57-.35.74-.72.43-1.49.64-2.32.64Z"/>
      <path class="cls-1" d="M54.96,25.92c-.97,0-1.72-.3-2.24-.91-.52-.61-.78-1.41-.78-2.42,0-.73.13-1.6.38-2.62.44-1.73,1.19-3.73,2.25-6.02.82-1.73,1.71-3.43,2.66-5.1s2-3.32,3.14-4.94c1.82-2.6,3.09-3.9,3.81-3.9.46,0,.7.13.7.38,0,.36-.59,1.27-1.78,2.72l-2.22,2.72c-1.92,2.35-3.49,4.75-4.71,7.2s-2.16,4.91-2.84,7.36c-.19.7-.29,1.37-.29,1.98,0,1.62.66,2.43,1.97,2.43.46,0,.94-.14,1.43-.42.49-.26.75-.38.79-.38.25,0,.38.18.38.54,0,.32-.12.57-.35.74-.72.43-1.49.64-2.32.64Z"/>
      <path class="cls-1" d="M69.9,25.38c-1.23,0-1.84-.59-1.84-1.76,0-.77.19-1.59.56-2.48.37-.89.87-1.75,1.51-2.59.63-.84,1.34-1.61,2.12-2.3.78-.69,1.59-1.25,2.41-1.66.82-.42,1.62-.62,2.38-.62,1.35,0,2.03.67,2.03,2.02,0,.88-.21,1.31-.63,1.31-.38,0-.57-.18-.57-.54,0-.15.04-.3.11-.46.07-.16.11-.34.11-.53,0-.6-.4-.9-1.21-.9-1.29,0-2.91.99-4.85,2.98-.46.49-.92,1.07-1.36,1.73-.44.66-.81,1.33-1.09,2s-.43,1.31-.43,1.9.32.86.95.86c.55,0,1.14-.17,1.76-.51.62-.34,1.17-.69,1.63-1.06.93-.7,1.88-1.66,2.85-2.88.15-.17.34-.39.57-.67.23-.28.5-.59.79-.93.11-.11.23-.16.38-.16.34,0,.51.17.51.51l-1.21,1.82c-.8,1.2-1.21,2.18-1.21,2.94,0,.55.26.83.79.83.44,0,.93-.12,1.46-.35.53-.23.96-.47,1.3-.7.68-.45,1.38-1.01,2.12-1.68s1.45-1.35,2.12-2.03c.08-.08.21-.13.38-.13.32,0,.48.13.48.38,0,.24-.15.5-.44.8-.85.85-1.61,1.58-2.28,2.19-.68.61-1.32,1.1-1.93,1.49-.4.24-.9.48-1.49.74s-1.27.38-2.03.38c-1.04,0-1.55-.55-1.55-1.66,0-.43.05-.78.16-1.06-1.92,1.86-3.71,2.78-5.36,2.78Z"/>
      <path class="cls-1" d="M81.83,25.86c-.34,0-.51-.14-.51-.42,0-.11.04-.24.13-.4.08-.16.16-.29.22-.4l2.85-5.79c1.23-2.52,1.84-3.92,1.84-4.19,0-.3.15-.45.44-.45.4,0,.6.21.6.64,0,.15-.09.47-.29.96-.19.49-.43,1.04-.73,1.66-.51,1.11-.93,1.96-1.27,2.56.63-.75,1.28-1.45,1.93-2.11.66-.66,1.32-1.29,2-1.89,2.01-1.77,3.55-2.66,4.63-2.66.74,0,1.11.35,1.11,1.06,0,.64-.54,2.08-1.62,4.32-1.08,2.26-1.62,3.69-1.62,4.29,0,.28.1.42.29.42.06,0,.16-.03.3-.08.14-.05.28-.08.43-.08.36,0,.54.17.54.51,0,.43-.46.64-1.36.64-.42,0-.73-.1-.92-.3-.19-.2-.29-.47-.29-.82,0-1.02.52-2.58,1.55-4.67,1.04-2.07,1.55-3.32,1.55-3.74,0-.26-.09-.38-.29-.38-.47,0-1.22.4-2.25,1.18-1.12.85-2.24,1.84-3.36,2.94-1.12,1.11-2.19,2.38-3.2,3.81l-2.22,3.1c-.13.19-.3.29-.51.29Z"/>
      <path class="cls-1" d="M105.77,27.9c-.17,0-.38-.08-.62-.24-.24-.16-.43-.31-.56-.46-.25-.32-.42-.7-.51-1.15-.08-.45-.13-.94-.13-1.47,0-.45.02-.93.05-1.46.03-.52.09-1.08.17-1.68-.55.64-1.17,1.26-1.86,1.87-.69.61-1.38,1.1-2.09,1.49-.71.38-1.38.58-2.01.58-1.59,0-2.38-.85-2.38-2.56s.61-3.48,1.84-5.12c.61-.81,1.31-1.59,2.09-2.34.78-.75,1.61-1.35,2.47-1.82.87-.47,1.72-.7,2.57-.7.63,0,1.19.25,1.68.74.04-.08.1-.22.17-.42s.19-.44.33-.74c.51-1.11,1.07-2.27,1.68-3.47.61-1.21,1.16-2.2,1.65-2.99.55-.87,1.07-1.31,1.55-1.31.34,0,.51.27.51.8,0,.92-.86,3.06-2.57,6.43-.11.19-.29.54-.55,1.04-.26.5-.57,1.08-.92,1.73-.35.65-.7,1.3-1.06,1.94-.36.64-.68,1.21-.97,1.71-.29.5-.49.85-.62,1.04-.23.96-.41,1.87-.54,2.74s-.19,1.75-.19,2.67c0,.34.02.66.05.94.03.29.11.52.24.69.11.13.22.23.35.3.13.07.28.14.44.21.25.06.38.21.38.45,0,.38-.22.58-.67.58ZM98,24.42c.61,0,1.26-.21,1.95-.62s1.34-.91,1.95-1.49c.55-.51,1.06-1.04,1.52-1.58.46-.54.9-1.1,1.3-1.68.17-.75.37-1.48.59-2.21.22-.72.47-1.45.75-2.18-.34-.53-.81-.8-1.43-.8s-1.34.24-2.11.72c-.77.48-1.51,1.07-2.22,1.78-.71.7-1.32,1.38-1.82,2.02-1.06,1.43-1.59,2.94-1.59,4.54,0,1,.37,1.5,1.11,1.5ZM107.26,14.53c.8-1.39,1.51-2.68,2.12-3.89s1.11-2.34,1.49-3.41c-.85,1.11-1.55,2.28-2.12,3.52-.57,1.24-1.07,2.5-1.49,3.78Z"/>
      <path class="cls-1" d="M126.45,26.56c-.21,0-.37-.13-.48-.38l-.44-1.09c-.46-1.13-1.13-2.26-2-3.38-.87-1.12-1.72-2.15-2.57-3.09-.46.96-.88,1.82-1.24,2.59-.36.77-.69,1.49-.98,2.16-.3.67-.61,1.37-.95,2.1-.08.21-.23.32-.44.32-.36,0-.54-.15-.54-.45,0-.13.05-.29.14-.5s.18-.41.27-.62c.55-1.34,1.26-2.94,2.14-4.8.88-1.86,1.88-3.88,3-6.08,2.14-4.2,3.85-7.21,5.14-9.02.3-.43.59-.81.87-1.15.29-.34.53-.51.75-.51.38,0,.57.2.57.61,0,.55-.8,2.03-2.41,4.42-.13.19-.35.51-.67.96-.32.45-.66.93-1.01,1.46s-.69,1-1,1.44c-.31.44-.51.74-.62.91l-2.28,4.58c5.12-3.01,7.87-4.51,8.25-4.51.34,0,.51.19.51.58,0,.23-.13.41-.38.51-.93.45-1.67.81-2.2,1.09s-1.08.57-1.63.86c-.47.3-1.06.66-1.79,1.09s-1.59.92-2.58,1.47c.51.55,1.06,1.2,1.65,1.94.59.74,1.15,1.49,1.67,2.27.52.78.95,1.5,1.28,2.16.34.66.51,1.19.51,1.6,0,.32-.17.48-.51.48Z"/>
      <path class="cls-1" d="M128.38,25.86c-.34,0-.51-.14-.51-.42,0-.11.04-.24.13-.4.08-.16.16-.29.22-.4l2.85-5.79c1.23-2.52,1.84-3.92,1.84-4.19,0-.3.15-.45.44-.45.4,0,.6.21.6.64,0,.15-.09.47-.29.96-.19.49-.43,1.04-.73,1.66-.51,1.11-.93,1.96-1.27,2.56.63-.75,1.28-1.45,1.93-2.11.66-.66,1.32-1.29,2-1.89,2.01-1.77,3.55-2.66,4.63-2.66.74,0,1.11.35,1.11,1.06,0,.64-.54,2.08-1.62,4.32-1.08,2.26-1.62,3.69-1.62,4.29,0,.28.1.42.29.42.06,0,.16-.03.3-.08.14-.05.28-.08.43-.08.36,0,.54.17.54.51,0,.43-.46.64-1.36.64-.42,0-.73-.1-.92-.3-.19-.2-.29-.47-.29-.82,0-1.02.52-2.58,1.55-4.67,1.04-2.07,1.55-3.32,1.55-3.74,0-.26-.09-.38-.29-.38-.47,0-1.22.4-2.25,1.18-1.12.85-2.24,1.84-3.36,2.94-1.12,1.11-2.19,2.38-3.2,3.81l-2.22,3.1c-.13.19-.3.29-.51.29Z"/>
      <path class="cls-1" d="M144.65,24.9c-1.71,0-2.57-.97-2.57-2.91,0-.9.21-1.83.63-2.82.42-.98.98-1.89,1.68-2.74.7-.84,1.48-1.53,2.33-2.06.86-.53,1.73-.8,2.62-.8.78,0,1.35.3,1.71.9.36.6.54,1.26.54,1.98,0,.96-.19,1.94-.57,2.93-.38.99-.9,1.9-1.55,2.74-.66.83-1.4,1.5-2.22,2.02-.82.51-1.69.77-2.6.77ZM144.62,23.87c.13,0,.2,0,.22-.03.83-.11,1.59-.41,2.28-.9.7-.49,1.3-1.1,1.82-1.84.52-.74.91-1.53,1.19-2.38.27-.85.41-1.7.41-2.53,0-.49-.14-.87-.41-1.15-.28-.28-.62-.42-1.05-.42-.61,0-1.26.26-1.95.77-.69.51-1.33,1.16-1.93,1.95s-1.09,1.62-1.48,2.48c-.38.86-.57,1.64-.57,2.32,0,1.15.49,1.73,1.46,1.73Z"/>
      <path class="cls-1" d="M163.88,25.7c-.53,0-.94-.21-1.24-.64-.3-.43-.44-.96-.44-1.6,0-.17.01-.43.03-.78.02-.35.05-.73.08-1.12s.06-.75.08-1.06c.02-.31.04-.5.06-.56l-.03-.13c-.19.28-.45.64-.78,1.09-.33.45-.67.9-1.01,1.36-.35.46-.66.86-.94,1.2-.44.53-.93.95-1.46,1.25-.53.3-1.02.45-1.46.45-.53,0-.97-.27-1.33-.82-.36-.54-.54-1.33-.54-2.35s.16-2.08.48-3.3l-.98,1.15c-.15.15-.28.27-.38.37-.11.1-.21.14-.32.14s-.21-.05-.3-.14c-.1-.1-.14-.22-.14-.37s.05-.28.16-.38c.21-.23.46-.54.75-.91.29-.37.62-.8,1-1.3.32-.45.85-1.28,1.59-2.5.13-.21.3-.32.51-.32.36,0,.54.17.54.51,0,.11-.05.25-.16.43-.11.18-.25.52-.44,1.01-.38,1-.68,1.99-.89,2.96-.21.97-.32,1.92-.32,2.86,0,.81.05,1.34.16,1.58.11.25.26.37.48.37.68,0,1.49-.51,2.44-1.54.27-.3.69-.8,1.24-1.52.55-.71,1.12-1.56,1.71-2.53.59-.97,1.06-1.97,1.4-2.99l.48-1.41c.06-.19.2-.29.41-.29.38,0,.57.18.57.54,0,.13-.12.46-.35,1.01s-.46,1.39-.7,2.54c-.15.73-.28,1.49-.4,2.3-.12.81-.17,1.59-.17,2.34,0,1.43.23,2.14.7,2.14.38,0,.87-.2,1.46-.61.59-.4,1.21-.92,1.87-1.54.66-.62,1.25-1.26,1.78-1.92.49-.58.98-1.24,1.49-1.98s.94-1.5,1.28-2.26c.35-.76.52-1.41.52-1.97s-.15-.92-.44-1.09c-.04-.02-.33-.06-.86-.13-.3-.04-.44-.21-.44-.51,0-.34.17-.51.51-.51.68,0,1.22.19,1.63.58.41.38.62.91.62,1.57,0,1.79-1.18,4.11-3.55,6.94-2.41,2.9-4.39,4.35-5.93,4.35Z"/>
      <path class="cls-1" d="M181.29,26.14c-.36,0-.54-.17-.54-.51,0-.02.13-.29.38-.8.25-.51.61-1.27,1.08-2.27l1.62-3.42c.65-1.39,1.13-2.49,1.41-3.3s.43-1.33.43-1.57c0-.34.17-.51.51-.51s.51.17.51.51c0,.28-.09.71-.27,1.3-.18.59-.47,1.34-.87,2.26l-1.62,3.71c4.42-5.63,7.75-8.45,9.99-8.45.42,0,.75.18.98.53.23.35.35.74.35,1.17,0,1.02-.73,2.81-2.19,5.34,1.12-1.15,2.26-2.31,3.41-3.47,1.15-1.16,2.31-2.31,3.47-3.44.3-.28.54-.42.73-.42.25,0,.46.12.63.37.17.25.25.51.25.78,0,.21-.09.48-.29.8-.27.47-.53,1.03-.76,1.68-.23.65-.5,1.38-.79,2.19-.34.92-.58,1.72-.73,2.4-.15.68-.22,1.24-.22,1.66,0,.53.13.92.38,1.17s.51.37.76.37c.44,0,.93-.12,1.46-.35.53-.23.96-.47,1.3-.7.68-.45,1.38-1.01,2.12-1.68s1.45-1.35,2.12-2.03c.08-.08.21-.13.38-.13.32,0,.48.13.48.38,0,.24-.15.5-.44.8-.85.85-1.61,1.58-2.28,2.19-.68.61-1.32,1.1-1.93,1.49-.4.24-.89.48-1.46.74-.57.26-1.18.38-1.84.38-.61,0-1.13-.19-1.54-.58s-.62-1.21-.62-2.46c0-.49.08-1.07.25-1.74.17-.67.42-1.42.76-2.26l1.68-4.03-4.54,4.61c-.53.53-.96.98-1.3,1.34-.34.36-.61.66-.82.9-.4.43-.76.84-1.06,1.25-.31.41-.57.76-.78,1.06-.15.23-.32.35-.51.35-.36,0-.54-.15-.54-.45,0-.66.59-2.19,1.78-4.58,1.18-2.39,1.78-3.82,1.78-4.29,0-.21-.23-.32-.7-.32-1.88,0-5.23,3.1-10.05,9.31-.4.58-1.07,1.44-2,2.59-.06.08-.17.13-.32.13Z"/>
      <path class="cls-1" d="M209.04,25.63c-.89,0-1.58-.31-2.09-.93-.51-.62-.76-1.38-.76-2.27,0-1.54.51-3.11,1.52-4.74.27-.45.59-.89.95-1.33.36-.44.75-.86,1.17-1.26.63-.62,1.3-1.13,2-1.54.7-.41,1.38-.61,2.03-.61,1.08,0,1.62.51,1.62,1.54,0,1.28-.74,2.44-2.22,3.49-1.38.94-2.73,1.41-4.06,1.41-.23,0-.44-.02-.62-.05-.18-.03-.34-.07-.49-.11-.21.41-.4.93-.57,1.57-.17.64-.25,1.19-.25,1.66,0,1.41.61,2.11,1.84,2.11.99,0,1.93-.18,2.82-.53.89-.35,1.95-1.02,3.17-2,.76-.6,1.33-1.08,1.71-1.44.38-.36.79-.75,1.24-1.15.13-.08.24-.13.35-.13s.21.03.32.1c.11.06.16.16.16.29,0,.24-.21.57-.63.99-.36.34-.74.7-1.14,1.07-.4.37-1.04.89-1.9,1.55-.93.73-1.95,1.29-3.04,1.7s-2.14.61-3.11.61ZM209.01,18.37c.68,0,1.32-.11,1.93-.32.61-.21,1.19-.52,1.74-.93,1.23-.92,1.84-1.78,1.84-2.59,0-.36-.22-.54-.67-.54-.85,0-1.83.52-2.95,1.57-.55.51-1,.98-1.35,1.39-.35.42-.67.87-.97,1.36.13.04.26.06.41.06Z"/>
      <path class="cls-1" d="M224.96,26.14c-.36,0-.54-.17-.54-.51,0-.02.13-.29.38-.8.25-.51.61-1.27,1.08-2.27l1.62-3.42c.65-1.39,1.13-2.49,1.41-3.3s.43-1.33.43-1.57c0-.34.17-.51.51-.51s.51.17.51.51c0,.28-.09.71-.27,1.3-.18.59-.47,1.34-.87,2.26l-1.62,3.71c4.42-5.63,7.75-8.45,9.99-8.45.42,0,.75.18.98.53.23.35.35.74.35,1.17,0,1.02-.73,2.81-2.19,5.34,1.12-1.15,2.26-2.31,3.41-3.47,1.15-1.16,2.31-2.31,3.47-3.44.3-.28.54-.42.73-.42.25,0,.46.12.63.37.17.25.25.51.25.78,0,.21-.09.48-.29.8-.27.47-.53,1.03-.76,1.68-.23.65-.5,1.38-.79,2.19-.34.92-.58,1.72-.73,2.4-.15.68-.22,1.24-.22,1.66,0,.53.13.92.38,1.17s.51.37.76.37c.44,0,.93-.12,1.46-.35.53-.23.96-.47,1.3-.7.68-.45,1.38-1.01,2.12-1.68s1.45-1.35,2.12-2.03c.08-.08.21-.13.38-.13.32,0,.48.13.48.38,0,.24-.15.5-.44.8-.85.85-1.61,1.58-2.28,2.19-.68.61-1.32,1.1-1.93,1.49-.4.24-.89.48-1.46.74-.57.26-1.18.38-1.84.38-.61,0-1.13-.19-1.54-.58s-.62-1.21-.62-2.46c0-.49.08-1.07.25-1.74.17-.67.42-1.42.76-2.26l1.68-4.03-4.54,4.61c-.53.53-.96.98-1.3,1.34-.34.36-.61.66-.82.9-.4.43-.76.84-1.06,1.25-.31.41-.57.76-.78,1.06-.15.23-.32.35-.51.35-.36,0-.54-.15-.54-.45,0-.66.59-2.19,1.78-4.58,1.18-2.39,1.78-3.82,1.78-4.29,0-.21-.23-.32-.7-.32-1.88,0-5.23,3.1-10.05,9.31-.4.58-1.07,1.44-2,2.59-.06.08-.17.13-.32.13Z"/>
      <path class="cls-1" d="M252.11,24.9c-1.71,0-2.57-.97-2.57-2.91,0-.9.21-1.83.63-2.82.42-.98.98-1.89,1.68-2.74.7-.84,1.48-1.53,2.33-2.06.86-.53,1.73-.8,2.62-.8.78,0,1.35.3,1.71.9.36.6.54,1.26.54,1.98,0,.96-.19,1.94-.57,2.93-.38.99-.9,1.9-1.55,2.74-.66.83-1.4,1.5-2.22,2.02-.82.51-1.69.77-2.6.77ZM252.08,23.87c.13,0,.2,0,.22-.03.83-.11,1.59-.41,2.28-.9.7-.49,1.3-1.1,1.82-1.84.52-.74.91-1.53,1.19-2.38.27-.85.41-1.7.41-2.53,0-.49-.14-.87-.41-1.15-.28-.28-.62-.42-1.05-.42-.61,0-1.26.26-1.95.77-.69.51-1.33,1.16-1.93,1.95s-1.09,1.62-1.48,2.48c-.38.86-.57,1.64-.57,2.32,0,1.15.49,1.73,1.46,1.73Z"/>
      <path class="cls-1" d="M258.99,25.86c-.34,0-.51-.14-.51-.42,0-.13.04-.26.11-.38s.13-.23.17-.32l2.89-5.89c1.23-2.52,1.84-3.92,1.84-4.19,0-.3.15-.45.44-.45.4,0,.6.2.6.61,0,.21-.09.55-.29,1.02-.19.47-.43,1.01-.73,1.63-.51,1.11-.93,1.96-1.27,2.56.63-.75,1.28-1.45,1.93-2.11.66-.66,1.32-1.29,2-1.89,2.01-1.77,3.55-2.66,4.63-2.66.74,0,1.11.35,1.11,1.06s-.22,1.02-.67,1.02c-.21,0-.37-.18-.48-.54-.06-.26-.21-.38-.44-.38-.36,0-1.06.4-2.09,1.18-1.14.85-2.29,1.87-3.44,3.04-1.15,1.17-2.37,2.67-3.66,4.48l-1.58,2.24c-.08.11-.16.2-.24.27s-.19.11-.33.11Z"/>
      <path class="cls-1" d="M273.45,25.63c-.89,0-1.58-.31-2.09-.93-.51-.62-.76-1.38-.76-2.27,0-1.54.51-3.11,1.52-4.74.27-.45.59-.89.95-1.33.36-.44.75-.86,1.17-1.26.63-.62,1.3-1.13,2-1.54.7-.41,1.38-.61,2.03-.61,1.08,0,1.62.51,1.62,1.54,0,1.28-.74,2.44-2.22,3.49-1.38.94-2.73,1.41-4.06,1.41-.23,0-.44-.02-.62-.05-.18-.03-.34-.07-.49-.11-.21.41-.4.93-.57,1.57-.17.64-.25,1.19-.25,1.66,0,1.41.61,2.11,1.84,2.11.99,0,1.93-.18,2.82-.53.89-.35,1.95-1.02,3.17-2,.76-.6,1.33-1.08,1.71-1.44.38-.36.79-.75,1.24-1.15.13-.08.24-.13.35-.13s.21.03.32.1c.11.06.16.16.16.29,0,.24-.21.57-.63.99-.36.34-.74.7-1.14,1.07-.4.37-1.04.89-1.9,1.55-.93.73-1.95,1.29-3.04,1.7s-2.14.61-3.11.61ZM273.42,18.37c.68,0,1.32-.11,1.93-.32.61-.21,1.19-.52,1.74-.93,1.23-.92,1.84-1.78,1.84-2.59,0-.36-.22-.54-.67-.54-.85,0-1.83.52-2.95,1.57-.55.51-1,.98-1.35,1.39-.35.42-.67.87-.97,1.36.13.04.26.06.41.06Z"/>
    </g>
  </g>
</svg>