<?xml version="1.0" encoding="UTF-8"?>
<svg id="_レイヤー_2" data-name="レイヤー_2" xmlns="http://www.w3.org/2000/svg" viewBox="0 0 545.64 55.67">
  <defs>
    <style>
      .cls-1 {
        fill: #fff;
      }
    </style>
  </defs>
  <g id="WF">
    <g>
      <path class="cls-1" d="M4.44,41.04c-.61,0-.91-.36-.91-1.08,0-1.15.62-3.18,1.88-6.08,1.25-2.9,3.12-6.63,5.62-11.21L21.19,4.21h-1.02c-8.31,0-13.74,1.03-16.27,3.08-1.04.83-1.75,2.02-2.14,3.56-.04.54-.27.81-.7.81-.71,0-1.07-.32-1.07-.97,0-1.8.98-3.42,2.94-4.86,2.96-2.23,8.51-3.35,16.64-3.35,2.36,0,4.73.05,7.12.16l5.57.38c1.14.07,2.18.13,3.1.19.93.05,1.75.08,2.46.08.57,0,.86.29.86.86s-.29.86-.86.86c-1.25,0-3.11-.11-5.57-.32-1.79-.18-3.18-.29-4.18-.32-1-.04-1.91-.05-2.73-.05-.75,0-1.3,0-1.66-.03-.36-.02-.61-.03-.75-.03-.43,1.12-1.52,3.26-3.27,6.43l-5.41,9.72c-3.03,5.47-5.29,9.83-6.77,13.07s-2.22,5.33-2.22,6.26v.27c0,.68-.29,1.03-.86,1.03Z"/>
      <path class="cls-1" d="M25.21,38.77c-.57,0-.86-.29-.86-.86,0-.76.27-1.95.8-3.59.54-1.64,1.24-3.53,2.12-5.67.87-2.14,1.81-4.35,2.81-6.62.57-1.26,1.16-2.49,1.77-3.7.61-1.21,1.18-2.26,1.71-3.16,5.28-9,8.56-13.5,9.85-13.5.5,0,.75.25.75.76,0,.32-.24.93-.72,1.81-.48.88-1.11,1.91-1.87,3.08-.77,1.17-1.59,2.35-2.46,3.54-.88,1.19-1.7,2.28-2.46,3.27s-1.38,1.74-1.85,2.24c-.39.47-.83,1.15-1.31,2.05-.48.9-.96,1.83-1.42,2.78-.46.95-.84,1.79-1.12,2.51l-2.04,5.08c.54-.72,1.23-1.53,2.09-2.43,2.03-2.27,4.15-3.99,6.34-5.16,2.2-1.17,4.04-1.75,5.54-1.75.82,0,1.48.25,1.98.76.5.5.75,1.12.75,1.84,0,1.4-.91,3.76-2.73,7.07-1.82,3.28-2.73,5.29-2.73,6.05,0,.4.21.59.64.59,1,0,2.09-.37,3.26-1.11,1.18-.74,2.39-1.68,3.64-2.83,1.25-1.15,2.46-2.3,3.64-3.46.14-.14.36-.21.64-.21.54,0,.8.21.8.65,0,.4-.25.85-.75,1.35-2.39,2.41-4.44,4.21-6.15,5.4s-3.52,1.78-5.41,1.78c-1.43,0-2.14-.67-2.14-2,0-.5.09-.99.27-1.46s.46-1.1.86-1.89l2.46-4.91c.61-1.22,1.05-2.25,1.34-3.08s.43-1.46.43-1.89c0-.61-.38-.92-1.12-.92-1.32,0-2.86.53-4.63,1.59-1.77,1.06-3.65,2.65-5.65,4.78-1.14,1.22-2.17,2.52-3.08,3.89-.91,1.37-1.63,2.84-2.17,4.43l-.64,1.89c-.25.68-.64,1.03-1.18,1.03Z"/>
      <path class="cls-1" d="M51.86,38.34c-2.07,0-3.11-.99-3.11-2.97,0-1.3.31-2.69.94-4.18.62-1.49,1.47-2.95,2.54-4.37,1.07-1.42,2.26-2.72,3.59-3.89,1.32-1.17,2.68-2.11,4.07-2.81,1.39-.7,2.73-1.05,4.01-1.05,2.28,0,3.43,1.13,3.43,3.4,0,1.48-.36,2.21-1.07,2.21-.64,0-.96-.3-.96-.92,0-.25.06-.51.19-.78.12-.27.19-.57.19-.89,0-1.01-.68-1.51-2.04-1.51-2.18,0-4.91,1.67-8.19,5.02-.79.83-1.55,1.8-2.3,2.92-.75,1.12-1.36,2.24-1.85,3.38-.48,1.13-.72,2.21-.72,3.21s.54,1.46,1.61,1.46c.93,0,1.92-.29,2.97-.86,1.05-.58,1.97-1.17,2.76-1.78,1.57-1.19,3.18-2.81,4.82-4.86.25-.29.57-.67.96-1.13.39-.47.84-.99,1.34-1.57.18-.18.39-.27.64-.27.57,0,.86.29.86.86l-2.03,3.08c-1.36,2.02-2.04,3.67-2.04,4.97,0,.94.45,1.4,1.34,1.4.75,0,1.57-.2,2.46-.59s1.62-.79,2.2-1.19c1.14-.76,2.34-1.7,3.59-2.83,1.25-1.13,2.44-2.28,3.59-3.43.14-.14.36-.21.64-.21.54,0,.8.21.8.65,0,.4-.25.85-.75,1.35-1.43,1.44-2.71,2.67-3.85,3.7-1.14,1.03-2.23,1.86-3.27,2.51-.68.4-1.52.81-2.52,1.24-1,.43-2.14.65-3.42.65-1.75,0-2.62-.94-2.62-2.81,0-.72.09-1.31.27-1.78-3.25,3.13-6.26,4.7-9.04,4.7Z"/>
      <path class="cls-1" d="M71.98,39.15c-.57,0-.86-.23-.86-.7,0-.18.07-.41.21-.67s.27-.49.38-.68l4.82-9.77c2.07-4.25,3.1-6.61,3.1-7.07,0-.5.25-.76.75-.76.68,0,1.02.36,1.02,1.08,0,.25-.16.79-.48,1.62-.32.83-.73,1.76-1.23,2.81-.86,1.87-1.57,3.31-2.14,4.32,1.07-1.26,2.16-2.45,3.26-3.56,1.11-1.12,2.23-2.18,3.37-3.19,3.39-2.99,5.99-4.48,7.81-4.48,1.25,0,1.88.59,1.88,1.78,0,1.08-.91,3.51-2.73,7.29-1.82,3.82-2.73,6.23-2.73,7.24,0,.47.16.7.48.7.11,0,.28-.04.51-.13.23-.09.47-.13.72-.13.61,0,.91.29.91.86,0,.72-.77,1.08-2.3,1.08-.71,0-1.23-.17-1.55-.51-.32-.34-.48-.8-.48-1.38,0-1.73.87-4.36,2.62-7.88,1.75-3.49,2.62-5.6,2.62-6.32,0-.43-.16-.65-.48-.65-.79,0-2.05.67-3.8,2-1.89,1.44-3.78,3.1-5.67,4.97-1.89,1.87-3.69,4.01-5.41,6.43l-3.75,5.24c-.21.32-.5.49-.86.49Z"/>
      <path class="cls-1" d="M109.71,40.34c-.36,0-.62-.22-.8-.65l-.75-1.84c-.79-1.91-1.91-3.81-3.37-5.7s-2.91-3.63-4.33-5.21c-.79,1.62-1.48,3.08-2.09,4.37-.61,1.3-1.16,2.51-1.66,3.64-.5,1.13-1.04,2.31-1.61,3.54-.14.36-.39.54-.75.54-.61,0-.91-.25-.91-.76,0-.22.08-.49.24-.84.16-.34.31-.69.46-1.05.93-2.27,2.13-4.97,3.61-8.1,1.48-3.13,3.17-6.55,5.06-10.26,3.6-7.09,6.49-12.17,8.67-15.23.5-.72.99-1.37,1.47-1.94.48-.58.9-.86,1.26-.86.64,0,.96.34.96,1.03,0,.94-1.36,3.42-4.07,7.45-.21.32-.59.86-1.12,1.62-.54.76-1.11,1.58-1.71,2.46-.61.88-1.17,1.69-1.69,2.43-.52.74-.87,1.25-1.04,1.54l-3.85,7.72c8.63-5.08,13.27-7.61,13.92-7.61.57,0,.86.32.86.97,0,.4-.21.68-.64.86-1.57.76-2.81,1.37-3.72,1.84s-1.83.95-2.76,1.46c-.79.51-1.79,1.12-3.03,1.84-1.23.72-2.69,1.55-4.36,2.48.86.94,1.78,2.03,2.78,3.27,1,1.24,1.94,2.52,2.81,3.83.87,1.31,1.6,2.53,2.17,3.64s.86,2.02.86,2.7c0,.54-.29.81-.86.81Z"/>
      <path class="cls-1" d="M126.52,55.67c-2.18,0-3.26-1.29-3.26-3.89,0-2.2.46-4.32,1.39-6.37.14-.36.38-.54.7-.54.64,0,.96.29.96.86,0,.14-.04.33-.13.57s-.19.5-.29.78c-.25.68-.45,1.4-.59,2.16s-.21,1.55-.21,2.38c0,.94.12,1.57.38,1.89.25.32.57.49.96.49.93,0,2.03-.43,3.29-1.3,1.27-.86,2.58-2.23,3.93-4.1.96-1.33,1.96-2.92,3-4.75s2.14-3.94,3.32-6.32c1.57-3.13,3.02-6.32,4.34-9.56-.89,1.15-1.82,2.27-2.78,3.35s-2,2.09-3.1,3.02c-2.96,2.56-5.42,3.83-7.39,3.83-2.36,0-3.53-1.37-3.53-4.1,0-.97.19-2.14.56-3.51.38-1.37.9-2.93,1.58-4.7.11-.29.16-.53.16-.73s.05-.4.16-.62c.57-1.26,1.52-2.66,2.84-4.21.29-.32.54-.49.75-.49.54,0,.8.4.8,1.19-3.46,5.15-5.19,9.5-5.19,13.07,0,1.51.59,2.27,1.77,2.27,1.32,0,3.16-.92,5.51-2.75,1.68-1.29,3.23-2.76,4.66-4.4,1.43-1.64,2.71-3.34,3.85-5.1.78-1.19,1.42-2.24,1.9-3.16.48-.92.78-1.54.88-1.86.18-.54.43-.81.75-.81.68,0,1.02.29,1.02.86,0,.29-.13.8-.4,1.54-.27.74-.6,1.61-.99,2.62-.57,1.48-1.39,3.46-2.46,5.94-1.07,2.48-2.41,5.44-4.01,8.86-2,4.25-3.96,7.72-5.89,10.42-1.43,2.05-2.99,3.76-4.68,5.13-1.7,1.37-3.2,2.05-4.52,2.05Z"/>
      <path class="cls-1" d="M154.09,37.53c-2.89,0-4.34-1.64-4.34-4.91,0-1.51.36-3.1,1.07-4.75.71-1.66,1.66-3.19,2.84-4.62,1.18-1.42,2.49-2.58,3.93-3.48,1.45-.9,2.92-1.35,4.42-1.35,1.32,0,2.28.5,2.89,1.51.61,1.01.91,2.12.91,3.35,0,1.62-.32,3.27-.96,4.94-.64,1.67-1.52,3.21-2.62,4.62-1.11,1.4-2.36,2.54-3.75,3.4-1.39.86-2.86,1.3-4.39,1.3ZM154.03,35.8c.21,0,.34-.02.38-.05,1.39-.18,2.68-.68,3.85-1.51s2.2-1.86,3.08-3.11c.87-1.24,1.54-2.58,2.01-4.02.46-1.44.7-2.86.7-4.27,0-.83-.23-1.47-.7-1.94-.46-.47-1.05-.7-1.77-.7-1.04,0-2.13.43-3.29,1.3-1.16.86-2.25,1.96-3.27,3.29-1.02,1.33-1.85,2.73-2.49,4.18-.64,1.46-.96,2.76-.96,3.92,0,1.94.82,2.92,2.46,2.92Z"/>
      <path class="cls-1" d="M182.5,39.64c-1.75,0-2.62-1.28-2.62-3.83,0-1.37.32-3.02.96-4.97-4.32,5.08-7.71,7.61-10.17,7.61-2.03,0-3.05-1.24-3.05-3.73,0-.94.15-2.06.46-3.38s.71-2.67,1.23-4.08c.52-1.4,1.08-2.72,1.69-3.94.61-1.22,1.21-2.21,1.82-2.97.21-.25.48-.38.8-.38.18,0,.36.06.54.19.18.13.27.31.27.57,0,.22-.12.52-.37.92-1.61,2.66-2.75,4.99-3.43,6.97-.86,2.27-1.29,4.23-1.29,5.89,0,1.55.39,2.32,1.18,2.32.5,0,1.16-.25,1.98-.76s1.67-1.12,2.54-1.86c.87-.74,1.63-1.43,2.27-2.08,1.79-1.91,3.39-3.94,4.82-6.1.64-1.01,1.22-1.99,1.74-2.94.52-.95.99-1.95,1.42-3,.18-.4.33-.69.46-.89.12-.2.31-.3.56-.3.75,0,1.12.29,1.12.86,0,.36-.12.61-.37.76-3.64,7.45-5.46,12.58-5.46,15.39,0,.76.07,1.29.21,1.59.14.3.39.46.75.46.5,0,1.28-.32,2.33-.97,1.05-.65,2.29-1.64,3.72-2.97l5.62-5.18c.29-.29.55-.43.8-.43.57,0,.86.27.86.81,0,.47-1.12,1.73-3.37,3.78-.96.9-1.82,1.66-2.57,2.27-.75.61-1.45,1.15-2.09,1.62-1.21.86-2.29,1.54-3.21,2.02s-1.64.73-2.14.73Z"/>
      <path class="cls-1" d="M204.5,55.62c-1.14,0-1.96-.39-2.44-1.16-.48-.77-.72-1.81-.72-3.1,0-2.95,1.37-7.51,4.12-13.66-.14-.14-.21-.32-.21-.54,0-.36.32-.72.96-1.08,1.89-3.85,3.65-7.26,5.27-10.23,1.62-2.97,3.09-5.5,4.41-7.59,4.42-6.84,8.4-11.57,11.94-14.2.46-.36.91-.65,1.34-.86s.86-.32,1.29-.32c.57,0,.86.23.86.7,0,.25-.1.51-.29.78-.2.27-.53.69-.99,1.27-.54.61-1.16,1.32-1.87,2.13-.71.81-1.46,1.65-2.22,2.51-.77.87-1.47,1.65-2.11,2.35s-1.16,1.25-1.55,1.65l-4.92,5.13-1.71,2.75c-.46.72-1.03,1.7-1.69,2.94-.66,1.24-1.44,2.71-2.33,4.4-.36.68-.81,1.57-1.37,2.65s-1.19,2.36-1.9,3.83c.29.04.54.1.78.19.23.09.46.19.67.3,4.89-1.51,9.51-4.18,13.86-7.99.25-.18.46-.27.64-.27.61,0,.91.27.91.81,0,.14-.04.29-.13.43-.09.14-.19.29-.29.43-.54.58-1.3,1.24-2.3,2-1,.76-2.25,1.57-3.75,2.43-1.29.72-2.53,1.38-3.72,1.97s-2.35,1.09-3.45,1.48c1,1.22,1.5,2.79,1.5,4.7,0,2.63-.77,5.36-2.3,8.21-1.79,3.31-3.87,4.97-6.26,4.97ZM204.18,54c1.04,0,2.03-.43,2.97-1.3s1.76-1.98,2.44-3.35c.5-.97.92-2.13,1.26-3.48.34-1.35.51-2.53.51-3.54,0-2.02-.61-3.37-1.82-4.05-.46.07-.89.14-1.28.19-.39.05-.77.06-1.12.03v.05c-3,6.73-4.5,11.34-4.5,13.82,0,.54.14.94.43,1.21.29.27.66.4,1.12.4Z"/>
      <path class="cls-1" d="M229.98,37.53c-2.89,0-4.34-1.64-4.34-4.91,0-1.51.36-3.1,1.07-4.75.71-1.66,1.66-3.19,2.84-4.62,1.18-1.42,2.49-2.58,3.93-3.48,1.45-.9,2.92-1.35,4.42-1.35,1.32,0,2.28.5,2.89,1.51.61,1.01.91,2.12.91,3.35,0,1.62-.32,3.27-.96,4.94s-1.52,3.21-2.62,4.62-2.35,2.54-3.75,3.4c-1.39.86-2.86,1.3-4.39,1.3ZM229.92,35.8c.21,0,.34-.02.37-.05,1.39-.18,2.68-.68,3.85-1.51,1.18-.83,2.2-1.86,3.08-3.11s1.54-2.58,2.01-4.02c.46-1.44.7-2.86.7-4.27,0-.83-.23-1.47-.7-1.94-.46-.47-1.05-.7-1.77-.7-1.04,0-2.13.43-3.29,1.3-1.16.86-2.25,1.96-3.26,3.29-1.02,1.33-1.85,2.73-2.49,4.18-.64,1.46-.96,2.76-.96,3.92,0,1.94.82,2.92,2.46,2.92Z"/>
      <path class="cls-1" d="M241.59,39.15c-.57,0-.86-.23-.86-.7,0-.22.06-.43.19-.65.12-.22.22-.4.29-.54l4.87-9.94c2.07-4.25,3.11-6.61,3.11-7.07,0-.5.25-.76.75-.76.68,0,1.02.34,1.02,1.03,0,.36-.16.94-.48,1.73-.32.79-.73,1.71-1.23,2.75-.86,1.87-1.57,3.31-2.14,4.32,1.07-1.26,2.16-2.45,3.26-3.56,1.11-1.12,2.23-2.18,3.37-3.19,3.39-2.99,5.99-4.48,7.81-4.48,1.25,0,1.87.59,1.87,1.78s-.38,1.73-1.12,1.73c-.36,0-.62-.3-.8-.92-.11-.43-.36-.65-.75-.65-.61,0-1.79.67-3.53,2-1.93,1.44-3.86,3.15-5.81,5.13-1.95,1.98-4.01,4.5-6.18,7.56l-2.68,3.78c-.14.18-.28.33-.4.46s-.31.19-.56.19Z"/>
      <path class="cls-1" d="M275.1,55.67c-2.18,0-3.27-1.29-3.27-3.89,0-2.2.46-4.32,1.39-6.37.14-.36.37-.54.7-.54.64,0,.96.29.96.86,0,.14-.04.33-.13.57-.09.23-.19.5-.29.78-.25.68-.45,1.4-.59,2.16-.14.76-.21,1.55-.21,2.38,0,.94.12,1.57.38,1.89.25.32.57.49.96.49.93,0,2.03-.43,3.29-1.3s2.58-2.23,3.93-4.1c.96-1.33,1.96-2.92,3-4.75s2.14-3.94,3.32-6.32c1.57-3.13,3.01-6.32,4.33-9.56-.89,1.15-1.82,2.27-2.78,3.35-.96,1.08-2,2.09-3.11,3.02-2.96,2.56-5.42,3.83-7.38,3.83-2.36,0-3.53-1.37-3.53-4.1,0-.97.19-2.14.56-3.51.38-1.37.9-2.93,1.58-4.7.11-.29.16-.53.16-.73s.05-.4.16-.62c.57-1.26,1.52-2.66,2.84-4.21.29-.32.54-.49.75-.49.54,0,.8.4.8,1.19-3.46,5.15-5.19,9.5-5.19,13.07,0,1.51.59,2.27,1.77,2.27,1.32,0,3.16-.92,5.51-2.75,1.68-1.29,3.23-2.76,4.66-4.4,1.43-1.64,2.71-3.34,3.85-5.1.79-1.19,1.42-2.24,1.9-3.16s.78-1.54.88-1.86c.18-.54.43-.81.75-.81.68,0,1.02.29,1.02.86,0,.29-.13.8-.4,1.54-.27.74-.6,1.61-.99,2.62-.57,1.48-1.39,3.46-2.46,5.94-1.07,2.48-2.41,5.44-4.02,8.86-2,4.25-3.96,7.72-5.89,10.42-1.43,2.05-2.99,3.76-4.68,5.13s-3.2,2.05-4.52,2.05Z"/>
      <path class="cls-1" d="M302.66,37.53c-2.89,0-4.34-1.64-4.34-4.91,0-1.51.36-3.1,1.07-4.75.71-1.66,1.66-3.19,2.84-4.62,1.18-1.42,2.49-2.58,3.93-3.48,1.45-.9,2.92-1.35,4.42-1.35,1.32,0,2.28.5,2.89,1.51.61,1.01.91,2.12.91,3.35,0,1.62-.32,3.27-.96,4.94s-1.52,3.21-2.62,4.62-2.35,2.54-3.75,3.4c-1.39.86-2.86,1.3-4.39,1.3ZM302.61,35.8c.21,0,.34-.02.37-.05,1.39-.18,2.68-.68,3.85-1.51,1.18-.83,2.2-1.86,3.08-3.11s1.54-2.58,2.01-4.02c.46-1.44.7-2.86.7-4.27,0-.83-.23-1.47-.7-1.94-.46-.47-1.05-.7-1.77-.7-1.04,0-2.13.43-3.29,1.3-1.16.86-2.25,1.96-3.26,3.29-1.02,1.33-1.85,2.73-2.49,4.18-.64,1.46-.96,2.76-.96,3.92,0,1.94.82,2.92,2.46,2.92Z"/>
      <path class="cls-1" d="M331.08,39.64c-1.75,0-2.62-1.28-2.62-3.83,0-1.37.32-3.02.96-4.97-4.32,5.08-7.71,7.61-10.17,7.61-2.04,0-3.05-1.24-3.05-3.73,0-.94.15-2.06.46-3.38.3-1.31.71-2.67,1.23-4.08.52-1.4,1.08-2.72,1.69-3.94.61-1.22,1.21-2.21,1.82-2.97.21-.25.48-.38.8-.38.18,0,.36.06.54.19.18.13.27.31.27.57,0,.22-.12.52-.38.92-1.61,2.66-2.75,4.99-3.43,6.97-.86,2.27-1.28,4.23-1.28,5.89,0,1.55.39,2.32,1.18,2.32.5,0,1.16-.25,1.98-.76.82-.5,1.67-1.12,2.54-1.86.88-.74,1.63-1.43,2.28-2.08,1.78-1.91,3.39-3.94,4.82-6.1.64-1.01,1.22-1.99,1.74-2.94.52-.95.99-1.95,1.42-3,.18-.4.33-.69.46-.89.12-.2.31-.3.56-.3.75,0,1.12.29,1.12.86,0,.36-.12.61-.38.76-3.64,7.45-5.46,12.58-5.46,15.39,0,.76.07,1.29.21,1.59.14.3.39.46.75.46.5,0,1.28-.32,2.33-.97s2.29-1.64,3.72-2.97l5.62-5.18c.29-.29.55-.43.8-.43.57,0,.86.27.86.81,0,.47-1.12,1.73-3.37,3.78-.96.9-1.82,1.66-2.57,2.27-.75.61-1.45,1.15-2.09,1.62-1.21.86-2.28,1.54-3.21,2.02s-1.64.73-2.14.73Z"/>
      <path class="cls-1" d="M339.37,39.15c-.57,0-.86-.23-.86-.7,0-.22.06-.43.19-.65.12-.22.22-.4.29-.54l4.87-9.94c2.07-4.25,3.1-6.61,3.1-7.07,0-.5.25-.76.75-.76.68,0,1.02.34,1.02,1.03,0,.36-.16.94-.48,1.73-.32.79-.73,1.71-1.23,2.75-.86,1.87-1.57,3.31-2.14,4.32,1.07-1.26,2.16-2.45,3.27-3.56,1.11-1.12,2.23-2.18,3.37-3.19,3.39-2.99,5.99-4.48,7.81-4.48,1.25,0,1.87.59,1.87,1.78s-.38,1.73-1.12,1.73c-.36,0-.62-.3-.8-.92-.11-.43-.36-.65-.75-.65-.61,0-1.79.67-3.53,2-1.93,1.44-3.86,3.15-5.81,5.13-1.95,1.98-4.01,4.5-6.18,7.56l-2.68,3.78c-.14.18-.28.33-.4.46-.13.13-.31.19-.56.19Z"/>
      <path class="cls-1" d="M371.81,39.64c-.61,0-.91-.29-.91-.86,0-.04.21-.49.64-1.35.43-.86,1.04-2.14,1.82-3.83l2.73-5.78c1.11-2.34,1.9-4.19,2.38-5.56.48-1.37.72-2.25.72-2.65,0-.57.29-.86.86-.86s.86.29.86.86c0,.47-.15,1.2-.46,2.19-.3.99-.79,2.26-1.47,3.81l-2.73,6.26c7.46-9.5,13.08-14.26,16.86-14.26.71,0,1.27.3,1.66.89.39.59.59,1.25.59,1.97,0,1.73-1.23,4.73-3.69,9.02,1.89-1.94,3.81-3.9,5.75-5.86,1.95-1.96,3.9-3.9,5.86-5.8.5-.47.91-.7,1.23-.7.43,0,.79.21,1.07.62.29.42.43.86.43,1.32,0,.36-.16.81-.48,1.35-.46.79-.89,1.74-1.29,2.83-.39,1.1-.84,2.33-1.34,3.7-.57,1.55-.98,2.9-1.23,4.05-.25,1.15-.38,2.09-.38,2.81,0,.9.21,1.56.64,1.97s.86.62,1.29.62c.75,0,1.57-.2,2.46-.59s1.62-.79,2.2-1.19c1.14-.76,2.34-1.7,3.59-2.83,1.25-1.13,2.44-2.28,3.59-3.43.14-.14.36-.21.64-.21.54,0,.8.21.8.65,0,.4-.25.85-.75,1.35-1.43,1.44-2.71,2.67-3.85,3.7-1.14,1.03-2.23,1.86-3.27,2.51-.68.4-1.5.81-2.46,1.24s-2,.65-3.11.65c-1.04,0-1.9-.32-2.6-.97-.7-.65-1.04-2.03-1.04-4.16,0-.83.14-1.81.43-2.94s.71-2.4,1.29-3.81l2.84-6.8-7.65,7.78c-.89.9-1.62,1.66-2.2,2.27-.57.61-1.04,1.12-1.39,1.51-.68.72-1.28,1.42-1.79,2.11-.52.68-.96,1.28-1.31,1.78-.25.4-.54.59-.86.59-.61,0-.91-.25-.91-.76,0-1.12,1-3.69,3-7.72,2-4.03,3-6.44,3-7.24,0-.36-.39-.54-1.18-.54-3.18,0-8.83,5.24-16.96,15.71-.68.97-1.8,2.43-3.37,4.37-.11.14-.29.22-.54.22Z"/>
      <path class="cls-1" d="M418.64,38.77c-1.5,0-2.68-.52-3.53-1.57-.86-1.04-1.29-2.32-1.29-3.83,0-2.59.86-5.25,2.57-7.99.46-.76,1-1.5,1.61-2.24.61-.74,1.27-1.45,1.98-2.13,1.07-1.04,2.19-1.91,3.37-2.59,1.18-.68,2.32-1.03,3.43-1.03,1.82,0,2.73.86,2.73,2.59,0,2.16-1.25,4.12-3.75,5.89-2.32,1.58-4.6,2.38-6.85,2.38-.39,0-.74-.03-1.04-.08s-.58-.12-.83-.19c-.36.68-.68,1.57-.96,2.65s-.43,2.02-.43,2.81c0,2.38,1.04,3.56,3.1,3.56,1.68,0,3.27-.3,4.76-.89,1.5-.59,3.28-1.72,5.35-3.38,1.28-1.01,2.25-1.82,2.89-2.43.64-.61,1.34-1.26,2.09-1.95.21-.14.41-.21.59-.21s.36.05.54.16c.18.11.27.27.27.49,0,.4-.36.95-1.07,1.67-.61.58-1.25,1.18-1.93,1.81s-1.75,1.5-3.21,2.62c-1.57,1.22-3.28,2.18-5.14,2.86s-3.6,1.03-5.24,1.03ZM418.58,26.51c1.14,0,2.23-.18,3.27-.54s2.02-.88,2.94-1.57c2.07-1.55,3.1-3.01,3.1-4.37,0-.61-.37-.92-1.12-.92-1.43,0-3.09.88-4.98,2.65-.93.87-1.69,1.65-2.27,2.35-.59.7-1.13,1.47-1.63,2.29.21.07.45.11.7.11Z"/>
      <path class="cls-1" d="M433.2,39.58c-2,0-3-.67-3-2,0-.83.29-1.66.88-2.48.59-.83,1.29-1.58,2.11-2.27.82-.68,1.59-1.21,2.3-1.57.21-.11.51-.21.88-.32.38-.11.69-.16.94-.16.29,0,.43.11.43.32,0,.18-.2.38-.59.59-1.64.79-2.92,1.74-3.83,2.83-.91,1.1-1.36,1.99-1.36,2.67s.55.97,1.66.97c.93,0,1.94-.23,3.02-.7,1.09-.47,2.12-1.08,3.11-1.84.98-.76,1.79-1.57,2.44-2.43.64-.87.96-1.69.96-2.48,0-.54-.17-1.03-.51-1.46-.34-.43-.88-.76-1.63-.97l-3.53-1.08c-.89-.29-1.53-.67-1.93-1.13-.39-.47-.59-.99-.59-1.57,0-1.08.4-2.05,1.21-2.92.8-.86,1.81-1.55,3.02-2.05s2.39-.76,3.53-.76,2.14.28,3,.84c.86.56,1.29,1.31,1.29,2.24,0,.54-.15,1.04-.46,1.51s-.65.7-1.04.7c-.61,0-.91-.25-.91-.76,0-.18.1-.4.29-.67.2-.27.29-.53.29-.78,0-1.08-.82-1.62-2.46-1.62-.89,0-1.78.19-2.65.57s-1.6.87-2.17,1.49-.86,1.28-.86,2,.71,1.29,2.14,1.73l3.43,1.08c1.04.32,1.75.76,2.14,1.32s.59,1.18.59,1.86c0,1.62-.98,3.29-2.94,5.02-3.18,2.84-6.24,4.27-9.21,4.27Z"/>
      <path class="cls-1" d="M449.79,39.58c-2,0-3-.67-3-2,0-.83.29-1.66.88-2.48.59-.83,1.29-1.58,2.11-2.27.82-.68,1.59-1.21,2.3-1.57.21-.11.51-.21.88-.32.38-.11.69-.16.94-.16.29,0,.43.11.43.32,0,.18-.2.38-.59.59-1.64.79-2.92,1.74-3.83,2.83-.91,1.1-1.36,1.99-1.36,2.67s.55.97,1.66.97c.93,0,1.94-.23,3.02-.7,1.09-.47,2.12-1.08,3.11-1.84.98-.76,1.79-1.57,2.44-2.43.64-.87.96-1.69.96-2.48,0-.54-.17-1.03-.51-1.46-.34-.43-.88-.76-1.63-.97l-3.53-1.08c-.89-.29-1.53-.67-1.93-1.13-.39-.47-.59-.99-.59-1.57,0-1.08.4-2.05,1.21-2.92.8-.86,1.81-1.55,3.02-2.05s2.39-.76,3.53-.76,2.14.28,3,.84c.86.56,1.29,1.31,1.29,2.24,0,.54-.15,1.04-.46,1.51s-.65.7-1.04.7c-.61,0-.91-.25-.91-.76,0-.18.1-.4.29-.67.2-.27.29-.53.29-.78,0-1.08-.82-1.62-2.46-1.62-.89,0-1.78.19-2.65.57s-1.6.87-2.17,1.49-.86,1.28-.86,2,.71,1.29,2.14,1.73l3.43,1.08c1.04.32,1.75.76,2.14,1.32s.59,1.18.59,1.86c0,1.62-.98,3.29-2.94,5.02-3.18,2.84-6.24,4.27-9.21,4.27Z"/>
      <path class="cls-1" d="M467.61,38.34c-2.07,0-3.1-.99-3.1-2.97,0-1.3.31-2.69.94-4.18.62-1.49,1.47-2.95,2.54-4.37,1.07-1.42,2.27-2.72,3.59-3.89s2.68-2.11,4.07-2.81c1.39-.7,2.73-1.05,4.01-1.05,2.28,0,3.43,1.13,3.43,3.4,0,1.48-.36,2.21-1.07,2.21-.64,0-.96-.3-.96-.92,0-.25.06-.51.19-.78.12-.27.19-.57.19-.89,0-1.01-.68-1.51-2.03-1.51-2.18,0-4.91,1.67-8.19,5.02-.79.83-1.55,1.8-2.3,2.92-.75,1.12-1.37,2.24-1.85,3.38-.48,1.13-.72,2.21-.72,3.21s.54,1.46,1.61,1.46c.93,0,1.92-.29,2.97-.86,1.05-.58,1.97-1.17,2.76-1.78,1.57-1.19,3.18-2.81,4.82-4.86.25-.29.57-.67.96-1.13.39-.47.84-.99,1.34-1.57.18-.18.39-.27.64-.27.57,0,.86.29.86.86l-2.04,3.08c-1.36,2.02-2.03,3.67-2.03,4.97,0,.94.45,1.4,1.34,1.4.75,0,1.57-.2,2.46-.59.89-.4,1.62-.79,2.19-1.19,1.14-.76,2.34-1.7,3.59-2.83,1.25-1.13,2.44-2.28,3.59-3.43.14-.14.36-.21.64-.21.54,0,.8.21.8.65,0,.4-.25.85-.75,1.35-1.43,1.44-2.71,2.67-3.85,3.7s-2.23,1.86-3.26,2.51c-.68.4-1.52.81-2.52,1.24-1,.43-2.14.65-3.43.65-1.75,0-2.62-.94-2.62-2.81,0-.72.09-1.31.27-1.78-3.25,3.13-6.26,4.7-9.04,4.7Z"/>
      <path class="cls-1" d="M490.62,55.57c-1.5,0-2.62-.57-3.37-1.7-.75-1.13-1.12-2.42-1.12-3.86,0-1.08.04-2.13.13-3.16.09-1.03.22-2.04.4-3.05.11-.58.36-.87.75-.87.71,0,1.07.38,1.07,1.13,0,.22-.05.54-.16.97-.11.36-.16.63-.16.81-.07.58-.13,1.18-.16,1.81s-.05,1.27-.05,1.92c0,2.84,1.04,4.27,3.1,4.27.61,0,1.31-.41,2.12-1.24s1.53-1.73,2.17-2.7c1.5-2.27,3.08-5.85,4.76-10.75l1.77-5.13c-2.89,3.49-5.5,5.24-7.81,5.24-1.43,0-2.54-.54-3.32-1.62-.79-1.08-1.18-2.39-1.18-3.94,0-3.1,1.36-6.52,4.07-10.26,2.96-4,5.87-5.99,8.72-5.99,2.25,0,3.73,1.33,4.44,4,1.36-3.31,2.6-4.97,3.75-4.97.43,0,.64.36.64,1.08,0,1.44-.66,3.37-1.98,5.78-.29.47-.63,1.04-1.04,1.73s-.87,1.49-1.36,2.43l-1.82,4.48c-.36.86-.8,1.95-1.34,3.27-.54,1.31-1.14,2.85-1.82,4.62-.79,2.16-1.51,4.02-2.17,5.59s-1.26,2.85-1.79,3.86c-2.32,4.18-4.66,6.26-7.01,6.26h-.21ZM494.05,37.37c2.25,0,5.57-3.04,9.96-9.13l1.55-4c-.25-.18-.43-.56-.54-1.13-.32-1.55-.7-2.57-1.12-3.08-.43-.5-1-.76-1.71-.76-.82,0-1.77.38-2.84,1.13s-2.09,1.68-3.05,2.78c-.96,1.1-1.73,2.17-2.3,3.21-1.71,2.95-2.57,5.49-2.57,7.61,0,2.23.88,3.35,2.62,3.35Z"/>
      <path class="cls-1" d="M515.99,38.77c-1.5,0-2.68-.52-3.53-1.57-.86-1.04-1.29-2.32-1.29-3.83,0-2.59.86-5.25,2.57-7.99.46-.76,1-1.5,1.61-2.24.61-.74,1.27-1.45,1.98-2.13,1.07-1.04,2.19-1.91,3.37-2.59,1.18-.68,2.32-1.03,3.43-1.03,1.82,0,2.73.86,2.73,2.59,0,2.16-1.25,4.12-3.75,5.89-2.32,1.58-4.6,2.38-6.85,2.38-.39,0-.74-.03-1.04-.08s-.58-.12-.83-.19c-.36.68-.68,1.57-.96,2.65s-.43,2.02-.43,2.81c0,2.38,1.04,3.56,3.1,3.56,1.68,0,3.27-.3,4.76-.89,1.5-.59,3.28-1.72,5.35-3.38,1.28-1.01,2.25-1.82,2.89-2.43.64-.61,1.34-1.26,2.09-1.95.21-.14.41-.21.59-.21s.36.05.54.16c.18.11.27.27.27.49,0,.4-.36.95-1.07,1.67-.61.58-1.25,1.18-1.93,1.81s-1.75,1.5-3.21,2.62c-1.57,1.22-3.28,2.18-5.14,2.86s-3.6,1.03-5.24,1.03ZM515.94,26.51c1.14,0,2.23-.18,3.27-.54s2.02-.88,2.94-1.57c2.07-1.55,3.1-3.01,3.1-4.37,0-.61-.37-.92-1.12-.92-1.43,0-3.09.88-4.98,2.65-.93.87-1.69,1.65-2.27,2.35-.59.7-1.13,1.47-1.63,2.29.21.07.45.11.7.11Z"/>
      <path class="cls-1" d="M530.87,38.23c-.93,0-1.39-.45-1.39-1.35,0-.97.45-1.46,1.34-1.46s1.39.45,1.39,1.35c0,.97-.45,1.46-1.34,1.46ZM532.74,30.56c-.57,0-.86-.29-.86-.86,0-.94.91-2.83,2.73-5.67l3.69-5.51,3.05-4.43c.68-1.04,1.21-1.95,1.61-2.73.39-.77.62-1.41.7-1.92l.21-1.4c.18-.61.46-.92.86-.92.61,0,.91.32.91.97,0,1.19-.79,3.15-2.36,5.89-.18.32-.51.86-.99,1.62-.48.76-1.24,1.9-2.28,3.43-1.04,1.53-2.46,3.64-4.28,6.35-.18.25-.38.58-.62.97-.23.4-.49.85-.78,1.35-.14.32-.27.65-.38.97s-.21.63-.32.92c-.14.65-.45.97-.91.97Z"/>
    </g>
  </g>
</svg>