<?xml version="1.0" encoding="UTF-8"?>
<svg id="_レイヤー_2" data-name="レイヤー 2" xmlns="http://www.w3.org/2000/svg" viewBox="0 0 160.04 129.07">
  <defs>
    <style>
      .cls-1 {
        fill: #4b8cca;
      }

      .cls-1, .cls-2, .cls-3, .cls-4 {
        stroke-width: 0px;
      }

      .cls-2 {
        fill: #231815;
      }

      .cls-3 {
        fill: #fff;
      }

      .cls-4 {
        fill: #fef3c6;
      }
    </style>
  </defs>
  <g id="PC要素">
    <g id="calendar">
      <path class="cls-4" d="M28.67,9.13c-4.65,0-14.3,0-17.85,0-4.29,0-7.76,3.47-7.76,7.75,0,22.88.03,62.28.03,78.89,0,4.28,3.47,7.74,7.77,7.74,28.6-.01,79.3-.04,107.49-.05,4.29,0,7.76-3.47,7.76-7.75-.01-24.46-.02-57.02-.03-78.88,0-4.28-3.48-7.74-7.77-7.74-2.44,0-12.33,0-15.67,0"/>
      <path class="cls-3" d="M28.67,9.13c-4.65,0-14.3,0-17.85,0-4.29,0-7.76,3.47-7.76,7.75,0,22.88.03,62.28.03,78.89,0,4.28,3.47,7.74,7.77,7.74,28.6-.01,79.3-.04,107.49-.05,4.29,0,7.76-3.47,7.76-7.75-.01-24.46-.02-57.02-.03-78.88,0-4.28-3.48-7.74-7.77-7.74-2.44,0-12.33,0-15.67,0"/>
      <path class="cls-2" d="M76.69,6.12c-7.43,0-14.85,0-22.28,0-3.85,0-3.86,5.99,0,5.99,7.43,0,14.85,0,22.28,0,3.85,0,3.86-5.99,0-5.99h0Z"/>
      <path class="cls-1" d="M34.64,34c-1.98,0-3.96,0-5.94.01-.77,0-1.57.33-2.12.88s-.91,1.37-.88,2.12.29,1.58.88,2.12,1.31.88,2.12.88c1.98,0,3.96,0,5.94-.01.77,0,1.57-.33,2.12-.88s.91-1.37.88-2.12-.29-1.58-.88-2.12-1.31-.88-2.12-.88h0Z"/>
      <path class="cls-2" d="M56.83,34c-1.98,0-3.96,0-5.94.01-.77,0-1.57.33-2.12.88s-.91,1.37-.88,2.12.29,1.58.88,2.12,1.31.88,2.12.88c1.98,0,3.96,0,5.94-.01.77,0,1.57-.33,2.12-.88s.91-1.37.88-2.12-.29-1.58-.88-2.12-1.31-.88-2.12-.88h0Z"/>
      <path class="cls-2" d="M79.03,34c-1.98,0-3.96,0-5.94.01-.77,0-1.57.33-2.12.88s-.91,1.37-.88,2.12.29,1.58.88,2.12,1.31.88,2.12.88c1.98,0,3.96,0,5.94-.01.77,0,1.57-.33,2.12-.88s.91-1.37.88-2.12-.29-1.58-.88-2.12-1.31-.88-2.12-.88h0Z"/>
      <path class="cls-2" d="M101.23,34c-1.98,0-3.96,0-5.94.01-.77,0-1.57.33-2.12.88s-.91,1.37-.88,2.12.29,1.58.88,2.12,1.31.88,2.12.88c1.98,0,3.96,0,5.94-.01.77,0,1.57-.33,2.12-.88s.91-1.37.88-2.12-.29-1.58-.88-2.12-1.31-.88-2.12-.88h0Z"/>
      <path class="cls-1" d="M34.64,55.32c-1.98,0-3.96,0-5.94.01-.77,0-1.57.33-2.12.88s-.91,1.37-.88,2.12.29,1.58.88,2.12,1.31.88,2.12.88c1.98,0,3.96,0,5.94-.01.77,0,1.57-.33,2.12-.88s.91-1.37.88-2.12-.29-1.58-.88-2.12-1.31-.88-2.12-.88h0Z"/>
      <path class="cls-2" d="M56.83,55.32c-1.98,0-3.96,0-5.94.01-.77,0-1.57.33-2.12.88s-.91,1.37-.88,2.12.29,1.58.88,2.12,1.31.88,2.12.88c1.98,0,3.96,0,5.94-.01.77,0,1.57-.33,2.12-.88s.91-1.37.88-2.12-.29-1.58-.88-2.12-1.31-.88-2.12-.88h0Z"/>
      <path class="cls-2" d="M79.03,55.32c-1.98,0-3.96,0-5.94.01-.77,0-1.57.33-2.12.88s-.91,1.37-.88,2.12.29,1.58.88,2.12,1.31.88,2.12.88c1.98,0,3.96,0,5.94-.01.77,0,1.57-.33,2.12-.88s.91-1.37.88-2.12-.29-1.58-.88-2.12-1.31-.88-2.12-.88h0Z"/>
      <path class="cls-2" d="M101.23,55.32c-1.98,0-3.96,0-5.94.01-.77,0-1.57.33-2.12.88s-.91,1.37-.88,2.12.29,1.58.88,2.12,1.31.88,2.12.88c1.98,0,3.96,0,5.94-.01.77,0,1.57-.33,2.12-.88s.91-1.37.88-2.12-.29-1.58-.88-2.12-1.31-.88-2.12-.88h0Z"/>
      <path class="cls-1" d="M34.64,76.64c-1.98,0-3.96,0-5.94.01-.77,0-1.57.33-2.12.88s-.91,1.37-.88,2.12.29,1.58.88,2.12,1.31.88,2.12.88c1.98,0,3.96,0,5.94-.01.77,0,1.57-.33,2.12-.88s.91-1.37.88-2.12-.29-1.58-.88-2.12-1.31-.88-2.12-.88h0Z"/>
      <path class="cls-2" d="M56.83,76.64c-1.98,0-3.96,0-5.94.01-.77,0-1.57.33-2.12.88s-.91,1.37-.88,2.12.29,1.58.88,2.12,1.31.88,2.12.88c1.98,0,3.96,0,5.94-.01.77,0,1.57-.33,2.12-.88s.91-1.37.88-2.12-.29-1.58-.88-2.12-1.31-.88-2.12-.88h0Z"/>
      <path class="cls-2" d="M79.03,76.64c-1.98,0-3.96,0-5.94.01-.77,0-1.57.33-2.12.88s-.91,1.37-.88,2.12.29,1.58.88,2.12,1.31.88,2.12.88c1.98,0,3.96,0,5.94-.01.77,0,1.57-.33,2.12-.88s.91-1.37.88-2.12-.29-1.58-.88-2.12-1.31-.88-2.12-.88h0Z"/>
      <path class="cls-2" d="M101.23,76.64c-1.98,0-3.96,0-5.94.01-.77,0-1.57.33-2.12.88s-.91,1.37-.88,2.12.29,1.58.88,2.12,1.31.88,2.12.88c1.98,0,3.96,0,5.94-.01.77,0,1.57-.33,2.12-.88s.91-1.37.88-2.12-.29-1.58-.88-2.12-1.31-.88-2.12-.88h0Z"/>
      <path class="cls-2" d="M28.67,6.14c-5.35,0-10.71,0-16.06,0-2.99,0-5.77.29-8.24,2.18C1.72,10.34.17,13.37.07,16.71c-.16,5.43,0,10.88,0,16.31,0,6.17,0,12.34,0,18.5,0,11.65.01,23.3.02,34.95,0,2.2,0,4.4,0,6.6,0,2.7-.01,5.26,1.26,7.74,1.45,2.82,4.38,4.98,7.51,5.49,2.62.43,5.39.2,8.04.2,11.81,0,23.63-.01,35.44-.02,12.84,0,25.67-.01,38.51-.02,5.76,0,11.52,0,17.28,0,2.6,0,5.2,0,7.8,0,2.97,0,5.89-.06,8.43-1.85,2.8-1.98,4.49-4.95,4.72-8.38.21-3.18.02-6.44.01-9.63,0-6.94,0-13.88,0-20.83,0-13.73-.01-27.46-.02-41.2,0-2.88.25-5.9-.07-8.76-.37-3.36-2.19-6.34-5.08-8.14-2.32-1.44-4.87-1.58-7.51-1.57-2.45,0-4.91,0-7.36,0-2.14,0-4.28,0-6.42,0-3.85,0-3.86,5.99,0,5.99,4.48,0,8.95,0,13.43,0,2.16,0,3.52-.18,5.11.93.51.35,1.35,1.46,1.55,1.97.48,1.24.35,2.07.36,3.53,0,12.68.01,25.37.02,38.05,0,6.73,0,13.46,0,20.19,0,6.31.15,12.64,0,18.94-.02,1.05-.22,1.84-.94,2.86-.38.53-1.46,1.35-1.98,1.55-1.83.7-4.5.35-6.76.36-5.25,0-10.49,0-15.74,0-23.84.01-47.68.02-71.52.03-5.01,0-10.02.03-15.03,0-2.06-.01-3.85-.89-4.75-3.02-.24-.57-.3-1.36-.3-2.37s0-2.01,0-3.02c0-10.21,0-20.42-.01-30.63,0-11.73-.01-23.46-.02-35.19,0-2.54,0-5.09,0-7.63,0-1.12-.05-2.21.15-2.98.28-1.04.76-1.88,1.84-2.69-.38.28.51-.28.46-.26-.09.05.83-.39.52-.27s.69-.2.58-.17c-.04.01,1-.18.53-.13,1.07-.12,2.21-.03,3.29-.03,2.68,0,5.37,0,8.05,0,2.4,0,4.8,0,7.2,0,3.85,0,3.86-5.99,0-5.99h0Z"/>
      <path class="cls-2" d="M87.89,3c0,3.81,0,7.62,0,11.43,0,1.57,1.38,3.07,2.99,2.99s3-1.32,2.99-2.99c0-3.81,0-7.62,0-11.43,0-1.57-1.38-3.07-2.99-2.99s-3,1.32-2.99,2.99h0Z"/>
      <path class="cls-2" d="M36.95,3c0,3.81,0,7.62,0,11.43,0,1.57,1.38,3.07,2.99,2.99s3-1.32,2.99-2.99c0-3.81,0-7.62,0-11.43,0-1.57-1.38-3.07-2.99-2.99s-3,1.32-2.99,2.99h0Z"/>
      <path class="cls-3" d="M118.56,48.91c-22.76,0-38.5,17.6-38.5,38.19,0,23.04,16.07,38.9,38.5,38.9s38.5-16.01,38.5-38.9c0-20.73-15.82-38.19-38.5-38.19Z"/>
      <path class="cls-2" d="M118.56,45.91c-8.98.04-17.95,2.67-25.15,8.11-6.81,5.14-11.84,12.25-14.42,20.39-5.08,16.08-.22,35.46,13.29,45.95s33.74,11.53,48.43,3.04,21.33-26.62,18.77-43.22c-2.65-17.18-16.53-31.05-33.71-33.69-2.39-.37-4.79-.58-7.21-.59-3.85-.02-3.86,5.97,0,5.99,7.94.03,15.36,2.26,21.84,7.06,5.52,4.08,9.92,10.49,11.99,17.15,2.27,7.26,2.21,15.06.2,22.35-.25.91-.53,1.81-.84,2.7-.14.39-.28.78-.43,1.16-.09.24-.19.48-.29.71-.11.27.08-.18-.12.27-.74,1.65-1.59,3.25-2.56,4.77-.48.75-.99,1.48-1.52,2.19-.04.05-.35.44-.07.09-.12.15-.25.31-.37.46-.31.38-.63.75-.96,1.12-1.18,1.31-2.46,2.54-3.83,3.65-5.19,4.22-12.63,6.79-19.54,7.29-2.08.15-4.17.17-6.26.04s-3.31-.28-5.3-.69c-3.82-.78-6.98-1.91-10.16-3.67s-5.49-3.52-8.06-6.26c-1.37-1.46-2.07-2.34-3.1-3.88s-1.94-3.15-2.72-4.82c-.66-1.42-1.28-3.08-1.82-4.92s-.97-3.85-1.25-5.81c.05.37-.02-.19-.03-.21-.03-.23-.05-.45-.08-.68-.05-.52-.1-1.03-.13-1.55-.08-1.11-.12-2.23-.12-3.35,0-.94.03-1.88.1-2.82.08-1.1.16-1.85.28-2.62.3-1.91.75-3.8,1.33-5.64.62-1.97,1.1-3.15,1.96-4.88,1.73-3.45,3.6-6.1,6.16-8.74,5.28-5.44,12.02-8.81,19.68-10.06,1.68-.27,3.98-.43,5.99-.43,3.85-.02,3.86-6.01,0-5.99Z"/>
      <path class="cls-2" d="M118.58,90.46c4.38,0,8.77,0,13.15,0,1.57,0,3.07-1.38,2.99-2.99s-1.32-2.99-2.99-2.99c-4.38,0-8.77,0-13.15,0-1.57,0-3.07,1.38-2.99,2.99s1.32,2.99,2.99,2.99h0Z"/>
      <path class="cls-2" d="M115.59,67.57c0,6.62-.01,13.25,0,19.87,0,1.57,1.38,3.07,2.99,2.99s3-1.32,2.99-2.99c-.01-6.62,0-13.25,0-19.87,0-1.57-1.38-3.07-2.99-2.99s-2.99,1.32-2.99,2.99h0Z"/>
    </g>
  </g>
</svg>