<?xml version="1.0" encoding="UTF-8"?>
<svg id="_レイヤー_2" data-name="レイヤー 2" xmlns="http://www.w3.org/2000/svg" viewBox="0 0 126.49 125.98">
  <defs>
    <style>
      .cls-1 {
        fill: #231815;
      }

      .cls-1, .cls-2 {
        stroke-width: 0px;
      }

      .cls-2 {
        fill: #fddb5d;
      }
    </style>
  </defs>
  <g id="PC要素">
    <g id="coin">
      <path class="cls-2" d="M70.71,3.37c16.51,2,31.92,9.43,41.88,23.07,17.74,24.29,13.31,63.48-9.58,82.99-24.62,21-66.95,17.12-87.14-8.15C-4.33,75.99-.38,36.64,24.95,16.86,37.45,7.1,55.07,1.48,70.71,3.37Z"/>
      <g>
        <path class="cls-1" d="M74.39,40.37c-3.98,4.07-7.4,8.66-11.21,12.89-1.05,1.17-1.24,3.11,0,4.24,1.15,1.05,3.12,1.25,4.24,0,3.8-4.23,7.23-8.81,11.21-12.89,1.1-1.12,1.2-3.14,0-4.24s-3.07-1.2-4.24,0h0Z"/>
        <path class="cls-1" d="M50.37,44.09c1.06,1.23,2.1,2.49,3.1,3.78.07.09.45.58.08.1.1.14.21.27.31.41.23.3.46.6.68.91.47.62.92,1.25,1.38,1.87,1.53,2.1,3,4.24,4.5,6.36.9,1.28,2.66,2.01,4.1,1.08,1.27-.82,2.05-2.74,1.08-4.1-3.53-4.98-6.99-10.01-10.99-14.64-1.03-1.19-3.2-1.13-4.24,0-1.17,1.27-1.1,2.97,0,4.24h0Z"/>
        <path class="cls-1" d="M51.84,63.38c4.56-.24,9.15-.18,13.72-.13,4.08.04,8.22-.02,12.3.36,1.62.15,3-1.49,3-3,0-1.75-1.38-2.85-3-3-4.07-.38-8.21-.33-12.3-.36-4.57-.04-9.15-.1-13.72.13-1.62.08-3,1.32-3,3,0,1.56,1.37,3.08,3,3h0Z"/>
        <path class="cls-1" d="M51.31,77.84c8.41-.05,16.82-.09,25.23.15,3.86.11,3.86-5.89,0-6-8.41-.24-16.82-.2-25.23-.15-3.86.02-3.87,6.02,0,6h0Z"/>
        <path class="cls-1" d="M62.3,55.08c-.89,5.3-1.21,10.7-1.52,16.06-.29,5.08-.5,10.17-.63,15.26-.1,3.86,5.9,3.86,6,0,.14-4.97.33-9.94.61-14.9.16-2.81.34-5.61.58-8.42.11-1.22.22-2.44.36-3.66.03-.28.06-.56.1-.83.03-.23.11-.81.03-.25.08-.55.16-1.1.25-1.65.27-1.6-.42-3.23-2.1-3.69-1.44-.4-3.42.49-3.69,2.1h0Z"/>
        <path class="cls-1" d="M70.71,6.37c12.71,1.57,25.3,6.82,34.48,16.02,4.28,4.29,7.69,9.31,10.21,14.81.57,1.24.93,2.14,1.45,3.57s.97,2.83,1.37,4.27.73,2.8,1.02,4.21c.14.66.26,1.31.37,1.97.07.39.13.77.19,1.16.02.14.15.99.11.7,1.6,11.68.09,23.34-4.52,34.2-2,4.7-5.24,10.15-8.57,14.08-3.77,4.45-7.86,7.89-12.75,10.78-9.65,5.71-20.8,8.17-32.01,7.84-5.75-.17-10.87-.99-16.54-2.68s-10.21-3.77-15.11-6.93c-4.6-2.96-8.72-6.62-12.31-11.08-3.36-4.18-6.47-9.75-8.32-14.71-1.04-2.77-1.87-5.62-2.49-8.51s-.95-5.15-1.15-8.11c-.4-5.85,0-11.44,1.17-16.88,2.44-11.31,7.97-21.52,16.51-29.35,9.87-9.04,23.48-14.66,36.8-15.59,3.36-.23,6.74-.16,10.09.23,1.61.19,3-1.51,3-3,0-1.78-1.38-2.81-3-3-14.89-1.74-30.62,2.76-43.08,10.9-10.95,7.16-19.11,17.55-23.66,29.8s-5.09,24.63-2.44,36.77,9.09,23.85,18.51,32.17,20.79,13.24,32.85,15.1,24.92.8,36.36-3.93c11.63-4.8,21.28-13.01,27.73-23.85,6.45-10.83,9.63-23.62,9.49-36.19s-3.5-25.03-10.63-35.27c-8.23-11.82-20.69-19.83-34.53-23.51-3.49-.93-7.03-1.54-10.61-1.99-1.61-.2-3,1.52-3,3,0,1.79,1.38,2.8,3,3Z"/>
      </g>
    </g>
  </g>
</svg>