<?xml version="1.0" encoding="UTF-8"?>
<svg id="_レイヤー_2" data-name="レイヤー 2" xmlns="http://www.w3.org/2000/svg" viewBox="0 0 78.97 78.97">
  <defs>
    <style>
      .cls-1 {
        fill: #fcd642;
        stroke: #000;
        stroke-miterlimit: 10;
        stroke-width: 2.97px;
      }
    </style>
  </defs>
  <g id="PC要素">
    <path class="cls-1" d="M14.55,1.48c-1.97,0-3.56,1.59-3.56,3.56,0,5.77,3.47,8.82,5.8,10.85l.16.15c2.42,2.11,3.53,3.24,3.53,5.63,0,1.97,1.59,3.56,3.56,3.56s3.56-1.59,3.56-3.56c0-5.77-3.47-8.82-5.8-10.85l-.16-.15c-2.42-2.11-3.53-3.24-3.53-5.63,0-1.97-1.59-3.56-3.56-3.56ZM6.23,29.98c-2.63,0-4.75,2.12-4.75,4.75v28.5c0,7.87,6.38,14.25,14.25,14.25h28.5c7.87,0,14.25-6.38,14.25-14.25h2.37c9.19,0,16.63-7.44,16.63-16.62s-7.44-16.62-16.63-16.62H6.23ZM58.48,39.48h2.37c3.93,0,7.13,3.19,7.13,7.12s-3.19,7.12-7.13,7.12h-2.37v-14.25ZM34.73,5.05c0-1.97-1.59-3.56-3.56-3.56s-3.56,1.59-3.56,3.56c0,5.77,3.47,8.82,5.8,10.85l.16.15c2.42,2.11,3.53,3.24,3.53,5.63,0,1.97,1.59,3.56,3.56,3.56s3.56-1.59,3.56-3.56c0-5.77-3.47-8.82-5.8-10.85l-.16-.15c-2.42-2.11-3.53-3.24-3.53-5.63Z"/>
  </g>
</svg>