<?xml version="1.0" encoding="UTF-8"?>
<svg id="_レイヤー_2" data-name="レイヤー 2" xmlns="http://www.w3.org/2000/svg" viewBox="0 0 20 20">
  <defs>
    <style>
      .cls-1 {
        fill: #fff;
        stroke-width: 0px;
      }
    </style>
  </defs>
  <g id="PC要素">
    <g>
      <path class="cls-1" d="M14.15,0H5.85C2.62,0,0,2.62,0,5.85v8.31c0,3.22,2.62,5.85,5.85,5.85h8.31c3.22,0,5.85-2.62,5.85-5.85V5.85c0-3.22-2.62-5.85-5.85-5.85ZM18.14,14.15c0,2.2-1.79,3.98-3.98,3.98H5.85c-2.2,0-3.98-1.79-3.98-3.98V5.85c0-2.2,1.79-3.98,3.98-3.98h8.31c2.2,0,3.98,1.79,3.98,3.98v8.31Z"/>
      <path class="cls-1" d="M15.34,3.42c-.69,0-1.25.56-1.25,1.25s.56,1.25,1.25,1.25,1.25-.56,1.25-1.25-.56-1.25-1.25-1.25Z"/>
      <path class="cls-1" d="M10,4.83c-2.85,0-5.17,2.32-5.17,5.17s2.32,5.17,5.17,5.17,5.17-2.32,5.17-5.17-2.32-5.17-5.17-5.17ZM10,13.31c-1.82,0-3.31-1.48-3.31-3.31s1.48-3.31,3.31-3.31,3.31,1.48,3.31,3.31-1.48,3.31-3.31,3.31Z"/>
    </g>
  </g>
</svg>