<?xml version="1.0" encoding="UTF-8"?>
<svg id="_レイヤー_2" data-name="レイヤー 2" xmlns="http://www.w3.org/2000/svg" viewBox="0 0 544 79.08">
  <defs>
    <style>
      .cls-1 {
        fill: #fff;
        stroke-width: 0px;
      }
    </style>
  </defs>
  <g id="PC要素">
    <g>
      <path class="cls-1" d="M20.45,2.09l12.97,48.38L49.38,2.09h15.56l15.96,48.38L93.88,2.09h20.45l-22.45,74.91h-19.95l-14.76-43.42-14.76,43.42h-19.95L0,2.09h20.45Z"/>
      <path class="cls-1" d="M118.82,39.54c0-5.56,1.03-10.75,3.09-15.55,2.06-4.8,4.92-8.99,8.58-12.57,3.66-3.58,8.03-6.37,13.12-8.39,5.09-2.02,10.69-3.03,16.81-3.03s11.64,1.01,16.76,3.03c5.12,2.02,9.53,4.82,13.22,8.39,3.69,3.58,6.57,7.77,8.63,12.57,2.06,4.8,3.09,9.98,3.09,15.55s-1.03,10.75-3.09,15.55c-2.06,4.8-4.94,8.99-8.63,12.57-3.69,3.58-8.1,6.37-13.22,8.39-5.12,2.02-10.71,3.03-16.76,3.03s-11.72-1.01-16.81-3.03-9.46-4.82-13.12-8.39c-3.66-3.58-6.52-7.77-8.58-12.57-2.06-4.8-3.09-9.98-3.09-15.55ZM139.27,39.54c0,2.98.56,5.73,1.7,8.25,1.13,2.52,2.66,4.7,4.59,6.56,1.93,1.85,4.17,3.3,6.73,4.32,2.56,1.03,5.27,1.54,8.13,1.54s5.57-.51,8.13-1.54c2.56-1.03,4.82-2.47,6.78-4.32,1.96-1.85,3.51-4.04,4.64-6.56,1.13-2.52,1.7-5.27,1.7-8.25s-.57-5.73-1.7-8.25c-1.13-2.52-2.68-4.7-4.64-6.56-1.96-1.85-4.22-3.29-6.78-4.32-2.56-1.03-5.27-1.54-8.13-1.54s-5.57.51-8.13,1.54c-2.56,1.03-4.81,2.47-6.73,4.32-1.93,1.86-3.46,4.04-4.59,6.56-1.13,2.52-1.7,5.27-1.7,8.25Z"/>
      <path class="cls-1" d="M277.04,77h-24.34l-18.66-28.81v28.81h-19.55V2.09h30.43c4.19,0,7.85.61,10.97,1.84,3.12,1.23,5.7,2.9,7.73,5.02,2.03,2.12,3.56,4.57,4.59,7.35,1.03,2.78,1.55,5.76,1.55,8.94,0,5.7-1.38,10.32-4.14,13.86-2.76,3.54-6.83,5.95-12.22,7.2l23.64,30.7ZM234.04,35.57h3.69c3.86,0,6.82-.79,8.88-2.38,2.06-1.59,3.09-3.87,3.09-6.86s-1.03-5.27-3.09-6.86c-2.06-1.59-5.02-2.38-8.88-2.38h-3.69v18.48Z"/>
      <path class="cls-1" d="M304.77,32.98l23.84-30.9h24.14l-29.83,35.47,32.62,39.44h-25.34l-25.44-32.49v32.49h-19.55V2.09h19.55v30.9Z"/>
      <path class="cls-1" d="M407.03,18.58h-23.25v12.52h21.95v16.49h-21.95v12.92h23.25v16.49h-42.8V2.09h42.8v16.49Z"/>
      <path class="cls-1" d="M483.64,77h-24.34l-18.66-28.81v28.81h-19.55V2.09h30.43c4.19,0,7.85.61,10.97,1.84,3.13,1.23,5.7,2.9,7.73,5.02,2.03,2.12,3.56,4.57,4.59,7.35,1.03,2.78,1.55,5.76,1.55,8.94,0,5.7-1.38,10.32-4.14,13.86-2.76,3.54-6.83,5.95-12.22,7.2l23.64,30.7ZM440.65,35.57h3.69c3.86,0,6.82-.79,8.88-2.38s3.09-3.87,3.09-6.86-1.03-5.27-3.09-6.86c-2.06-1.59-5.02-2.38-8.88-2.38h-3.69v18.48Z"/>
      <path class="cls-1" d="M533.13,21.26c-2.13-1.72-4.26-3-6.38-3.83-2.13-.83-4.19-1.24-6.19-1.24-2.53,0-4.59.6-6.18,1.79-1.6,1.19-2.39,2.75-2.39,4.67,0,1.33.4,2.42,1.2,3.28.8.86,1.85,1.61,3.14,2.23,1.3.63,2.76,1.18,4.39,1.64,1.63.46,3.24.96,4.84,1.49,6.39,2.12,11.06,4.95,14.02,8.49,2.96,3.54,4.44,8.16,4.44,13.86,0,3.84-.65,7.32-1.95,10.43-1.3,3.11-3.19,5.78-5.69,8-2.49,2.22-5.55,3.94-9.18,5.17-3.63,1.22-7.73,1.84-12.32,1.84-9.51,0-18.32-2.81-26.44-8.44l8.38-15.7c2.93,2.58,5.82,4.51,8.68,5.76,2.86,1.26,5.69,1.89,8.48,1.89,3.19,0,5.57-.73,7.13-2.18,1.56-1.46,2.34-3.11,2.34-4.97,0-1.13-.2-2.1-.6-2.93-.4-.83-1.07-1.59-2-2.28-.93-.7-2.14-1.34-3.64-1.94-1.5-.6-3.31-1.26-5.44-1.99-2.53-.79-5.01-1.67-7.43-2.63-2.43-.96-4.59-2.24-6.48-3.83s-3.43-3.59-4.59-6.01c-1.16-2.42-1.75-5.48-1.75-9.19s.62-7.07,1.85-10.08c1.23-3.01,2.96-5.6,5.19-7.75,2.23-2.15,4.95-3.83,8.18-5.02,3.22-1.19,6.83-1.79,10.82-1.79,3.72,0,7.62.51,11.67,1.54,4.06,1.03,7.95,2.53,11.67,4.52l-7.78,15.2Z"/>
    </g>
  </g>
</svg>