<?xml version="1.0" encoding="UTF-8"?>
<svg id="_レイヤー_2" data-name="レイヤー 2" xmlns="http://www.w3.org/2000/svg" viewBox="0 0 174.03 111.05">
  <defs>
    <style>
      .cls-1 {
        fill: #231815;
      }

      .cls-1, .cls-2, .cls-3 {
        stroke-width: 0px;
      }

      .cls-2 {
        fill: #fff;
      }

      .cls-3 {
        fill: #0071bc;
      }
    </style>
  </defs>
  <g id="PC要素">
    <g id="map">
      <path class="cls-2" d="M2.99,108c15.15-13.34,31.55-27.61,46.03-39.89,36.84,0,109.29,0,121.97,0-14.38,12.17-30.88,26.52-46.07,39.89.63,0-110.18,0-121.93,0Z"/>
      <path class="cls-1" d="M5.12,110.13c12-10.56,24.04-21.07,36.17-31.48,3.28-2.81,6.57-5.62,9.87-8.42l-2.12.88c17.94,0,35.88,0,53.81,0s34.78,0,52.17,0c5.33,0,10.66,0,15.98,0l-2.12-5.13c-12.01,10.16-23.89,20.46-35.73,30.81-3.45,3.02-6.9,6.05-10.34,9.08-2,1.76-.37,5.13,2.12,5.13,0,0,0,0,0,0,3.87,0,3.87-6.01,0-6.01s-7.38,0-11.08,0c-8.99,0-17.97,0-26.96,0-11.13,0-22.26,0-33.39,0-10.26,0-20.52,0-30.78,0-6.24,0-12.48,0-18.72,0-.34,0-.68,0-1.02,0-3.87,0-3.87,6.01,0,6.01,5.53,0,11.05,0,16.58,0,9.93,0,19.86,0,29.79,0,11.18,0,22.37,0,33.55,0,9.42,0,18.85,0,28.27,0,3.06,0,6.11,0,9.17,0,1.45,0,2.93.1,4.37,0,.06,0,.13,0,.19,0v-6.01s0,0,0,0l2.12,5.13c11.99-10.55,24.02-21.05,36.15-31.44,3.3-2.83,6.61-5.64,9.92-8.45,2.05-1.73.33-5.13-2.12-5.13-6.6,0-13.2,0-19.8,0-11.21,0-22.43,0-33.64,0-12.66,0-25.31,0-37.97,0-5.88,0-11.76,0-17.64,0-2.68,0-5.36,0-8.03,0-1.2,0-2.4,0-3.6,0-.95,0-1.95-.09-2.8.41-.94.55-1.78,1.46-2.61,2.17-13.15,11.18-26.17,22.5-39.14,33.89-1.63,1.43-3.26,2.87-4.9,4.3-1.22,1.07-1.1,3.15,0,4.25,1.21,1.21,3.03,1.08,4.25,0Z"/>
      <path class="cls-3" d="M86.99,3c-11.68,0-23.28,6.21-28.64,16.58-6.64,12.84-3.28,26.36,3.37,38.3,6.17,11.06,13.51,21.25,21.53,31.05l1.2,1.47c1.31,1.6,3.75,1.6,5.06,0l1.2-1.47c8.02-9.79,15.36-19.98,21.53-31.05,6.66-11.94,10.02-25.46,3.37-38.3-5.36-10.36-16.86-16.58-28.64-16.58Z"/>
      <path class="cls-1" d="M86.99,0c-7.54.04-15.18,2.35-21.3,6.8-6.7,4.88-11.42,11.94-13.15,20.09-3.81,17.98,7.05,34.84,16.92,48.88,2.64,3.75,5.4,7.41,8.23,11.01,1.18,1.49,2.37,2.97,3.57,4.44.81.99,1.54,1.97,2.69,2.6,1.97,1.08,4.43,1,6.34-.16,1.04-.64,1.74-1.61,2.49-2.54,2.78-3.4,5.5-6.85,8.12-10.38,5.34-7.16,10.37-14.64,14.58-22.53,4.13-7.74,7.12-16.48,6.71-25.36-.39-8.38-3.74-16.6-9.73-22.55-5.27-5.24-12.36-8.73-19.7-9.82C90.86.19,88.94.01,86.99,0c-3.87-.02-3.87,5.99,0,6.01,6.35.04,12.53,1.93,17.82,5.64s9.31,9.88,10.79,16.62c1.62,7.39.02,15.16-2.92,22.01-3.17,7.41-7.74,14.34-12.31,20.95-4.03,5.84-8.3,11.63-12.95,17-.04.05-.38.41-.15.22-.21.17-.34.16-.36.15,0,0,.24.02.26.02,0,0-.48-.13-.24-.04-.11-.04-.15-.1-.35-.34-.61-.7-1.18-1.44-1.77-2.17-2.53-3.1-4.99-6.26-7.36-9.48-4.86-6.6-9.39-13.46-13.34-20.64-3.67-6.68-6.41-14.12-6.35-21.83.06-7.19,2.8-14.34,7.82-19.39,4.53-4.57,10.47-7.37,16.84-8.41,1.34-.22,3.04-.32,4.58-.33,3.87-.02,3.87-6.03,0-6.01Z"/>
      <path class="cls-2" d="M86.99,22.61c-6.7,0-11.33,5.17-11.33,11.22,0,6.77,4.73,11.43,11.33,11.43s11.33-4.71,11.33-11.43c0-6.09-4.65-11.22-11.33-11.22Z"/>
      <path class="cls-1" d="M86.99,19.61c-6.26.08-11.78,3.91-13.69,9.94-1.75,5.53.03,12.13,4.64,15.71s11.5,4.01,16.59,1.11,7.45-9.19,6.57-14.98c-1.05-6.94-7.25-11.69-14.11-11.78-3.87-.05-3.87,5.96,0,6.01.33,0,.66.02.99.04.95.04-.44-.13.46.06.5.11,1,.22,1.49.38.68.22,1.51.62,2.41,1.31-.46-.36.26.24.28.26.14.13.28.26.41.4.2.2.39.42.57.64-.33-.39.06.08.13.19.29.44.54.9.8,1.35.04.07.24.52.05.07.15.35.27.73.38,1.1.14.47.25.95.32,1.43-.08-.54,0,.11,0,.24,0,.25.02.5.02.76,0,.51-.03,1.03-.08,1.54.07-.61-.06.33-.07.37-.07.33-.15.66-.24.98-.06.23-.15.45-.21.67-.24.83.26-.45-.11.31-.2.41-.41.8-.65,1.19-.12.19-.24.37-.38.55-.29.4.47-.47-.11.12-.38.38-.73.76-1.14,1.1.49-.42-.18.12-.25.16-.15.1-.3.19-.46.28-.24.14-.48.26-.72.39-.75.41.31-.1-.17.08s-.99.34-1.5.46c-.19.04-.38.08-.58.12-.36.06-.39.07-.09.02-.2.02-.41.04-.61.05-.52.03-1.05.04-1.57.02-.3-.01-.61-.03-.91-.07.14.02.49.11-.08-.03-.52-.12-1.03-.23-1.54-.4-.22-.07-.45-.15-.66-.24.55.23-.31-.17-.41-.23-.44-.24-.87-.5-1.26-.81.42.32.05.03-.02-.04-.19-.19-.4-.36-.59-.56-.16-.16-.31-.33-.46-.5-.33-.38.36.57-.11-.14-.31-.46-.57-.94-.84-1.42-.42-.75.14.5-.14-.32-.06-.18-.13-.36-.19-.54-.18-.56-.31-1.14-.41-1.72.02.14.03.51,0-.11-.02-.31-.05-.63-.05-.94,0-.26,0-.52,0-.77,0-.12.1-1.11.02-.53.33-2.34,1.15-3.78,2.65-5.17.02-.02.74-.62.28-.27.23-.18.47-.34.72-.49s.5-.3.76-.44c.07-.04.82-.37.36-.19.57-.23,1.16-.4,1.76-.52.64-.14.84-.15,1.76-.16,3.86-.05,3.87-6.06,0-6.01Z"/>
    </g>
  </g>
</svg>