<?xml version="1.0" encoding="UTF-8"?>
<svg id="_レイヤー_2" data-name="レイヤー 2" xmlns="http://www.w3.org/2000/svg" viewBox="0 0 163.33 23.84">
  <defs>
    <style>
      .cls-1 {
        fill: #fff;
        stroke-width: 0px;
      }
    </style>
  </defs>
  <g id="PC要素">
    <g>
      <path class="cls-1" d="M6.14.63l3.89,14.59L14.83.63h4.67l4.79,14.59L28.18.63h6.14l-6.74,22.58h-5.99l-4.43-13.09-4.43,13.09h-5.99L0,.63h6.14Z"/>
      <path class="cls-1" d="M35.67,11.92c0-1.68.31-3.24.93-4.69.62-1.45,1.48-2.71,2.58-3.79,1.1-1.08,2.41-1.92,3.94-2.53,1.53-.61,3.21-.91,5.05-.91s3.49.3,5.03.91c1.54.61,2.86,1.45,3.97,2.53,1.11,1.08,1.97,2.34,2.59,3.79.62,1.45.93,3.01.93,4.69s-.31,3.24-.93,4.69c-.62,1.45-1.48,2.71-2.59,3.79-1.11,1.08-2.43,1.92-3.97,2.53-1.54.61-3.22.91-5.03.91s-3.52-.3-5.05-.91-2.84-1.45-3.94-2.53c-1.1-1.08-1.96-2.34-2.58-3.79-.62-1.45-.93-3.01-.93-4.69ZM41.81,11.92c0,.9.17,1.73.51,2.49.34.76.8,1.42,1.38,1.98.58.56,1.25.99,2.02,1.3.77.31,1.58.46,2.44.46s1.67-.15,2.44-.46c.77-.31,1.45-.74,2.04-1.3.59-.56,1.05-1.22,1.39-1.98.34-.76.51-1.59.51-2.49s-.17-1.73-.51-2.49c-.34-.76-.8-1.42-1.39-1.98-.59-.56-1.27-.99-2.04-1.3-.77-.31-1.58-.46-2.44-.46s-1.67.16-2.44.46c-.77.31-1.44.74-2.02,1.3-.58.56-1.04,1.22-1.38,1.98-.34.76-.51,1.59-.51,2.49Z"/>
      <path class="cls-1" d="M83.18,23.21h-7.31l-5.6-8.69v8.69h-5.87V.63h9.14c1.26,0,2.36.19,3.29.55.94.37,1.71.87,2.32,1.51.61.64,1.07,1.38,1.38,2.22.31.84.46,1.74.46,2.7,0,1.72-.41,3.11-1.24,4.18-.83,1.07-2.05,1.79-3.67,2.17l7.1,9.26ZM70.27,10.72h1.11c1.16,0,2.05-.24,2.67-.72.62-.48.93-1.17.93-2.07s-.31-1.59-.93-2.07c-.62-.48-1.51-.72-2.67-.72h-1.11v5.57Z"/>
      <path class="cls-1" d="M91.5,9.94l7.16-9.32h7.25l-8.96,10.69,9.79,11.89h-7.61l-7.64-9.79v9.79h-5.87V.63h5.87v9.32Z"/>
      <path class="cls-1" d="M122.2,5.6h-6.98v3.77h6.59v4.97h-6.59v3.89h6.98v4.97h-12.85V.63h12.85v4.97Z"/>
      <path class="cls-1" d="M145.21,23.21h-7.31l-5.6-8.69v8.69h-5.87V.63h9.14c1.26,0,2.36.19,3.29.55.94.37,1.71.87,2.32,1.51.61.64,1.07,1.38,1.38,2.22.31.84.46,1.74.46,2.7,0,1.72-.41,3.11-1.24,4.18-.83,1.07-2.05,1.79-3.67,2.17l7.1,9.26ZM132.3,10.72h1.11c1.16,0,2.05-.24,2.67-.72s.93-1.17.93-2.07-.31-1.59-.93-2.07c-.62-.48-1.51-.72-2.67-.72h-1.11v5.57Z"/>
      <path class="cls-1" d="M160.06,6.41c-.64-.52-1.28-.9-1.92-1.15-.64-.25-1.26-.37-1.86-.37-.76,0-1.38.18-1.86.54-.48.36-.72.83-.72,1.41,0,.4.12.73.36.99.24.26.55.48.94.67.39.19.83.35,1.32.49.49.14.97.29,1.45.45,1.92.64,3.32,1.49,4.21,2.56.89,1.07,1.33,2.46,1.33,4.18,0,1.16-.19,2.21-.58,3.14-.39.94-.96,1.74-1.71,2.41-.75.67-1.67,1.19-2.76,1.56-1.09.37-2.32.55-3.7.55-2.86,0-5.5-.85-7.94-2.55l2.52-4.73c.88.78,1.75,1.36,2.61,1.74.86.38,1.71.57,2.55.57.96,0,1.67-.22,2.14-.66.47-.44.7-.94.7-1.5,0-.34-.06-.63-.18-.88-.12-.25-.32-.48-.6-.69-.28-.21-.64-.4-1.09-.58-.45-.18-.99-.38-1.63-.6-.76-.24-1.5-.5-2.23-.79-.73-.29-1.38-.67-1.95-1.15s-1.03-1.08-1.38-1.81c-.35-.73-.52-1.65-.52-2.77s.18-2.13.55-3.04c.37-.91.89-1.69,1.56-2.34.67-.65,1.49-1.15,2.46-1.51.97-.36,2.05-.54,3.25-.54,1.12,0,2.29.16,3.5.46,1.22.31,2.39.76,3.5,1.36l-2.34,4.58Z"/>
    </g>
  </g>
</svg>