<?xml version="1.0" encoding="UTF-8"?>
<svg id="_レイヤー_2" data-name="レイヤー 2" xmlns="http://www.w3.org/2000/svg" viewBox="0 0 105.3 29.11">
  <defs>
    <style>
      .cls-1 {
        fill: #000;
      }

      .cls-1, .cls-2 {
        stroke-width: 0px;
      }

      .cls-2 {
        fill: #fcd740;
      }
    </style>
  </defs>
  <g id="PC要素">
    <g>
      <path class="cls-2" d="M7.27,19.2v9.28H0V.46h11.59c2.44,0,4.96.46,7.1,2.52,2.18,2.1,2.6,4.45,2.6,6.8,0,2.23-.29,4.83-2.48,6.97-2.18,2.14-4.79,2.44-6.97,2.44h-4.58ZM7.27,13.32h2.44c.76,0,2.18-.08,3.07-.88.88-.76.92-1.89.92-2.56,0-.76-.08-1.76-.84-2.52-.84-.88-2.18-1.01-3.11-1.01h-2.48v6.97Z"/>
      <path class="cls-1" d="M36.5.46c2.1,0,4.79.34,6.85,2.48,1.6,1.64,2.39,4.07,2.39,6.3,0,2.39-.84,4.5-2.23,5.84-1.09,1.05-2.56,1.68-3.86,1.93l8.78,11.47h-9.03l-6.97-10.75v10.75h-7.27V.46h11.34ZM32.43,13.02h1.39c1.09,0,2.65-.29,3.53-1.13.55-.55.92-1.47.92-2.35s-.34-1.76-.97-2.35c-.67-.67-1.89-1.09-3.49-1.09h-1.39v6.93Z"/>
      <path class="cls-1" d="M58.76.46v28.02h-7.27V.46h7.27Z"/>
      <path class="cls-1" d="M84.76,27.73c-2.9,1.05-4.5,1.39-6.3,1.39-4.87,0-8.53-1.93-10.84-4.2-2.73-2.73-4.24-6.55-4.24-10.21,0-3.99,1.72-7.77,4.24-10.33,2.48-2.52,6.22-4.37,10.59-4.37,1.34,0,3.53.21,6.55,1.43v8.7c-2.35-2.9-5.12-3.07-6.34-3.07-2.1,0-3.7.63-5.04,1.85-1.72,1.6-2.44,3.78-2.44,5.75s.8,4.07,2.27,5.46c1.22,1.13,3.15,1.93,5.21,1.93,1.09,0,3.78-.13,6.34-2.94v8.61Z"/>
      <path class="cls-1" d="M105.3,6.64h-8.65v4.66h8.19v6.17h-8.19v4.83h8.65v6.17h-15.92V.46h15.92v6.17Z"/>
    </g>
  </g>
</svg>