<?xml version="1.0" encoding="UTF-8"?>
<svg id="_レイヤー_2" data-name="レイヤー 2" xmlns="http://www.w3.org/2000/svg" viewBox="0 0 78.97 78.97">
  <defs>
    <style>
      .cls-1 {
        fill: #fcd642;
        stroke: #000;
        stroke-miterlimit: 10;
        stroke-width: 2.97px;
      }
    </style>
  </defs>
  <g id="PC要素">
    <path class="cls-1" d="M20.48,1.48c-5.24,0-9.5,4.26-9.5,9.5v14.25h9.5v-14.25h33.65l4.35,4.35v9.9h9.5v-9.9c0-2.52-.99-4.94-2.78-6.72l-4.35-4.35c-1.78-1.78-4.2-2.78-6.72-2.78H20.48ZM58.48,53.73v14.25H20.48v-14.25h38ZM67.98,58.48h4.75c2.63,0,4.75-2.12,4.75-4.75v-14.25c0-5.24-4.26-9.5-9.5-9.5H10.98c-5.24,0-9.5,4.26-9.5,9.5v14.25c0,2.63,2.12,4.75,4.75,4.75h4.75v9.5c0,5.24,4.26,9.5,9.5,9.5h38c5.24,0,9.5-4.26,9.5-9.5v-9.5ZM65.61,45.42c-1.97,0-3.56-1.59-3.56-3.56s1.59-3.56,3.56-3.56,3.56,1.59,3.56,3.56-1.59,3.56-3.56,3.56Z"/>
  </g>
</svg>