<?xml version="1.0" encoding="UTF-8"?>
<svg id="_レイヤー_2" data-name="レイヤー 2" xmlns="http://www.w3.org/2000/svg" viewBox="0 0 154.83 29.28">
  <defs>
    <style>
      .cls-1 {
        fill: #000;
      }

      .cls-1, .cls-2 {
        stroke-width: 0px;
      }

      .cls-2 {
        fill: #fcd740;
      }
    </style>
  </defs>
  <g id="PC要素">
    <g>
      <path class="cls-2" d="M3.11,20.25c1.55,1.47,3.91,2.86,6.43,2.86,1.47,0,2.35-.46,2.81-.97.42-.42.71-1.05.71-1.76,0-.55-.21-1.18-.8-1.68-.71-.63-1.81-.92-3.61-1.47l-1.89-.59c-1.18-.38-2.9-1.01-4.03-2.27-1.43-1.55-1.6-3.53-1.6-4.96,0-3.44,1.34-5.54,2.56-6.76,1.43-1.43,3.78-2.65,7.18-2.65,2.77,0,6.01.88,8.65,2.27l-2.9,5.67c-2.18-1.72-3.82-1.89-4.79-1.89-.71,0-1.68.17-2.39.84-.42.42-.71.88-.71,1.51,0,.5.08.88.38,1.26.21.25.71.76,2.44,1.26l2.23.67c1.76.55,3.61,1.18,5.08,2.77,1.43,1.51,1.81,3.07,1.81,5,0,2.56-.63,5.04-2.65,7.06-2.39,2.39-5.29,2.86-8.28,2.86-1.76,0-3.44-.17-5.5-.92-.46-.17-2.23-.84-4.24-2.23l3.11-5.88Z"/>
      <path class="cls-1" d="M41.16,6.81h-8.65v4.66h8.19v6.17h-8.19v4.83h8.65v6.17h-15.92V.63h15.92v6.17Z"/>
      <path class="cls-1" d="M57.79.63c2.1,0,4.79.34,6.85,2.48,1.6,1.64,2.39,4.07,2.39,6.3,0,2.39-.84,4.5-2.23,5.84-1.09,1.05-2.56,1.68-3.86,1.93l8.78,11.47h-9.03l-6.97-10.75v10.75h-7.27V.63h11.34ZM53.72,13.19h1.39c1.09,0,2.65-.29,3.53-1.13.55-.55.92-1.47.92-2.35s-.34-1.76-.97-2.35c-.67-.67-1.89-1.09-3.49-1.09h-1.39v6.93Z"/>
      <path class="cls-1" d="M76.35.63l6.72,17.05L89.88.63h7.9l-11.93,28.02h-5.67L68.41.63h7.94Z"/>
      <path class="cls-1" d="M107.8.63v28.02h-7.27V.63h7.27Z"/>
      <path class="cls-1" d="M133.63,27.89c-2.9,1.05-4.5,1.39-6.3,1.39-4.87,0-8.53-1.93-10.84-4.2-2.73-2.73-4.24-6.55-4.24-10.21,0-3.99,1.72-7.77,4.24-10.33,2.48-2.52,6.22-4.37,10.59-4.37,1.34,0,3.53.21,6.55,1.43v8.7c-2.35-2.9-5.12-3.07-6.34-3.07-2.1,0-3.7.63-5.04,1.85-1.72,1.6-2.44,3.78-2.44,5.75s.8,4.07,2.27,5.46c1.22,1.13,3.15,1.93,5.21,1.93,1.09,0,3.78-.13,6.34-2.94v8.61Z"/>
      <path class="cls-1" d="M154.83,6.81h-8.65v4.66h8.19v6.17h-8.19v4.83h8.65v6.17h-15.92V.63h15.92v6.17Z"/>
    </g>
  </g>
</svg>