<?xml version="1.0" encoding="UTF-8"?>
<svg id="_レイヤー_2" data-name="レイヤー 2" xmlns="http://www.w3.org/2000/svg" viewBox="0 0 59.97 78.97">
  <defs>
    <style>
      .cls-1 {
        fill: #fcd642;
        stroke: #000;
        stroke-miterlimit: 10;
        stroke-width: 2.97px;
      }
    </style>
  </defs>
  <g id="PC要素">
    <path class="cls-1" d="M15.73,1.48c-2.63,0-4.75,2.12-4.75,4.75v14.25h9.5V6.23c0-2.63-2.12-4.75-4.75-4.75ZM44.23,1.48c-2.63,0-4.75,2.12-4.75,4.75v14.25h9.5V6.23c0-2.63-2.12-4.75-4.75-4.75ZM6.23,25.23c-2.63,0-4.75,2.12-4.75,4.75s2.12,4.75,4.75,4.75v4.75c0,11.49,8.16,21.08,19,23.27v9.98c0,2.63,2.12,4.75,4.75,4.75s4.75-2.12,4.75-4.75v-9.98c10.84-2.2,19-11.79,19-23.27v-4.75c2.63,0,4.75-2.12,4.75-4.75s-2.12-4.75-4.75-4.75H6.23Z"/>
  </g>
</svg>