<?xml version="1.0" encoding="UTF-8"?>
<svg id="_レイヤー_2" data-name="レイヤー 2" xmlns="http://www.w3.org/2000/svg" viewBox="0 0 97.96 68.96">
  <defs>
    <style>
      .cls-1 {
        fill: #fcd642;
        stroke: #000;
        stroke-miterlimit: 10;
        stroke-width: 2.96px;
      }
    </style>
  </defs>
  <g id="PC要素">
    <path class="cls-1" d="M9.52,26.66c10.24-9.75,24.14-15.75,39.46-15.75s29.22,6,39.46,15.75c1.9,1.8,4.9,1.74,6.71-.13,1.81-1.87,1.75-4.86-.13-6.66C83.09,8.48,66.86,1.48,48.99,1.48S14.88,8.48,2.93,19.85c-1.89,1.81-1.94,4.79-.13,6.67,1.81,1.89,4.83,1.94,6.71.13h.01ZM48.99,34.48c8.43,0,16.12,3.11,22,8.25,1.97,1.72,4.97,1.53,6.71-.41,1.74-1.94,1.54-4.94-.42-6.66-7.54-6.6-17.46-10.61-28.3-10.61s-20.76,4.01-28.28,10.61c-1.97,1.72-2.15,4.7-.42,6.66,1.74,1.96,4.74,2.14,6.71.41,5.86-5.14,13.55-8.25,22-8.25h-.01ZM58.49,58.05c0-5.2-4.26-9.43-9.5-9.43s-9.5,4.23-9.5,9.43,4.26,9.43,9.5,9.43,9.5-4.23,9.5-9.43Z"/>
  </g>
</svg>