<?xml version="1.0" encoding="UTF-8"?>
<svg id="_レイヤー_2" data-name="レイヤー 2" xmlns="http://www.w3.org/2000/svg" viewBox="0 0 158.29 134.71">
  <defs>
    <style>
      .cls-1 {
        fill: #717071;
      }

      .cls-1, .cls-2, .cls-3, .cls-4, .cls-5, .cls-6 {
        stroke-width: 0px;
      }

      .cls-2 {
        fill: #b4b4b5;
      }

      .cls-3 {
        fill: #231815;
      }

      .cls-4 {
        fill: #c8c9ca;
      }

      .cls-5 {
        fill: #fff;
      }

      .cls-6 {
        fill: #0071bc;
      }
    </style>
  </defs>
  <g id="SP要素">
    <g>
      <g id="group">
        <path class="cls-5" d="M114.13,36.52c1.08-1.05,2.93-1.06,4.15-.18,1.23.87,1.84,2.45,1.78,3.95-.06,1.51-.71,2.94-1.6,4.16-1.17,1.6-2.81,2.77-4.63,3.55-1.44,2.54-3.08,4.27-4.25,5.33-1.28,1.16-3.38,3.03-6.69,4.06-2.14.67-3.98.73-4.93.72-.79,0-2.22-.08-3.96-.54-2.46-.65-4.11-1.71-4.45-1.93-2.06-1.35-3.23-2.88-4.04-3.97-1.84-2.46-2.62-4.74-3.09-6.14-.85-2.52-1.11-4.67-1.28-6.15-.13-1.15-.19-2.13-.21-2.85,0,0-1.87-12.16,14.25-12.97,18.47-.94,18.95,12.96,18.95,12.96Z"/>
        <path class="cls-1" d="M114.13,36.52c1.08-1.05,2.93-1.06,4.15-.18.49.35.88.81,1.17,1.33.87-1.92,1.43-6.03,1.41-7.86-.06-4.67-1.45-10.17-5.64-13.55l-2.53-2.47c-2.01-2.24-5.9-4.69-10.37-4.98-3.62-.24-8.98-.21-14.51,3.45-1.31.87-2.23,1.62-3.36,2.92l-1.83,2.89c-3.29,4.71-4.18,10.57-2.63,17.7,1.22-.35,2.57-.75,2.57-.75,3.42-1.05,3.49-2.62,4.83-5.28.46-.91.9-1.87,1.78-2.57,1.86-1.51,4.98-1.41,7.6-.97,2.87.74,5.57-.21,8.01,1.2,1.02.45,1.6.85,2.55,1.63,2.27,1.86,3.52,4.15,5.15,7.57.18.38.84.71,1.44.11"/>
        <path class="cls-2" d="M141.46,106.4c-.54-9.74-3.74-25.75-5.57-32.84-.46-1.77-.91-3.56-1.98-5.04-1.82-2.51-3.36-3.76-5.67-4.99-3.06-1.64-7.99-3.84-11.66-5.66-.02-.03-.04-.05-.06-.08-.8-1.02-1.79-2.02-2.97-2.87-1.3,2.49-2.78,6.13-4.38,9.24-2.42,4.7-7.17,18.89-8.39,22.43-.66,1.89-1.16,3.78-1.86,5.9l-.47-.76c-.96-2.48-2.3-6.53-2.92-9.23-.92-4.04-1.55-7.56-1.83-11.49-.32-4.5-.27-9.03-.06-13.54-.53-.15-1.02-.33-1.46-.5-4.83,3.98-12.78,4.97-16.24,10.79-.83,1.39-1.28,2.98-1.71,4.54-.32,1.14-2.83,11.13-3.15,12.27,0,0-1,4.05-1.92,7.82,2.93.09,5.36.17,6.97.22,1.12.03,2.05.85,2.24,1.95.62,3.64,1.25,7.33,1.91,11.15,2.06-2.56,4.63-8.44,5.88-11.7.94,3.97,1.75,7.43,1.93,8.65.25,1.69.69,4.32.97,6.11,0,0,12.96,0,20.28,0,1.3,3.64,1.88,8.06,1.91,8.94,1.97-.03,14.96-.17,17.93-.48,2.34-.24,4.75-.29,6.95-1.15,2.2-.85,4.2-2.54,4.84-4.81.44-1.6.65-4.88.41-6.52"/>
        <path class="cls-5" d="M107.19,55.28c-1.13.78-2.55,1.56-4.3,2.11-2.14.67-3.98.73-4.93.72-.79,0-2.22-.08-3.96-.54-.13-.03-.25-.07-.38-.11-.2,4.51-.25,9.03.07,13.54.28,3.93.91,7.45,1.83,11.49.62,2.7,1.96,6.75,2.92,9.23l.42.92c.74-2.19,1.25-4.13,1.92-6.06,1.23-3.53,5.97-17.73,8.39-22.43,1.4-2.71,2.69-5.82,3.86-8.22-.05-.07-.09-.15-.13-.21-.62-1.27-1.26-2.81-1.62-4.13-.62.71-1.2,1.28-1.7,1.73-.6.55-1.39,1.25-2.39,1.95Z"/>
        <path class="cls-6" d="M100.87,60.36c-.27-.26-.54-.51-.81-.76-1.18,1.18-2.2,2.14-3.32,3.25l.1.38c.35,1.12.99,2.95,1.36,3.97-.3,1.26-.66,2.64-.86,3.82-.55,3.17-.87,4.88-1.13,8.02l-1.4.14c.21,1.08.45,2.18.71,3.32.62,2.7,1.96,6.75,2.92,9.23l.39,1.01c.75-2.22,1.27-4.19,1.95-6.14.56-1.6,1.83-5.37,3.28-9.46,0-.09-.02-.14-.02-.14-.32-1.54-1.24-8.86-1.24-9.34.32-1.56.72-2.35,1.37-3.99-1.07-1.12-2.17-2.22-3.29-3.29Z"/>
        <path class="cls-3" d="M6.85,114.09c-1.99,0-4.01.09-6,0l.23,1.71c-.5.13.3.03.49.03.62,0,1.23,0,1.85,0,2.02,0,4.04,0,6.06,0,4.52,0,9.04,0,13.55-.01,1.1,0,2.2,0,3.3,0s1.12-1.74,0-1.74c-7.48,0-14.97.01-22.45.02-.99,0-2.29-.22-3.26.04s-.74,1.67.23,1.71c1.99.09,4.01,0,6,0,1.12,0,1.12-1.74,0-1.74h0Z"/>
        <path class="cls-5" d="M81.87,115.04c.91,5.26,1.88,10.84,2.94,16.93,0,0,.12.55.26,1.22,3.5-1.94,15.26-8.79,21.18-12.43,0,0,2.62-1.76,4.96-3.33-.04-.5-.15-1.38-.34-2.48-10.57.04-21.11.07-29,.1Z"/>
        <path class="cls-5" d="M86.35,116.26s0-.09,0-.13c.02-.47.15-.79.48-1.21,0,0,.17-.22.35-.44l-.45.1c-.58.12-1.33-.01-1.78-.66-.33-.49-.12-1.31.02-1.6.18-.36.59-.79.87-1.07.4-.39,2.11-1.71,2.56-2.03,1.78-1.3,3.66-2.46,5.62-3.46,1.59-.81,3.38-1.53,5.12-1.16,2.22.48,3.3,1.47,5.51,2.01,1.55.38,2.42.03,3.73,0,1.28,2.48,2.09,6.03,2.5,8.48-.16.05-.27.08-.27.08-.56.24-1.97,1.11-3.6,1.79-1.44.6-3.13.6-4.57-.02-1.26,1.42-2.55,2.61-4.17,3.91-.28.22-1.2.9-1.96.26-.49-.42-.38-1.38-.13-1.76,1.18-1.81,1.68-3.15,2.98-4.81-2.16,1.34-4.23,2.91-6.38,4.28-.7.44-1.28.83-2.1.68-.78-.14-1.28-.77-1.26-1.56,0-.31.17-.7.42-1.1-.41.19-.65.3-.65.3-.41.19-.81.36-1.26.42-.41.05-.98-.06-1.26-.37-.21-.23-.32-.59-.34-.91Z"/>
        <path class="cls-3" d="M140.48,104.75c.23,1.78.13,3.7-.19,5.46-.39,2.11-1.71,3.66-3.6,4.65-2.97,1.56-6.79,1.51-10.09,1.64-5.12.21-10.25.25-15.37.32l.87.87c-.09-1.91-.51-3.86-.94-5.72-.59-2.5-1.35-5.19-2.92-7.27-.67-.88-2.18-.02-1.5.88,1.49,1.97,2.18,4.48,2.74,6.85.4,1.71.8,3.49.88,5.25.02.46.38.88.87.87,4.32-.06,8.64-.11,12.96-.24,2.11-.06,4.2-.17,6.3-.36,3.48-.31,7.15-.82,9.63-3.55,2.24-2.47,2.51-6.5,2.1-9.67-.14-1.1-1.88-1.11-1.74,0h0Z"/>
        <path class="cls-3" d="M82.02,78.55c.49,5.11,1.98,10.2,3.16,15.18s2.2,10.1,3.02,15.26c.18,1.1,1.85.64,1.68-.46-.8-5.06-1.78-9.98-2.95-14.97s-2.67-9.96-3.16-15c-.11-1.11-1.85-1.12-1.74,0h0Z"/>
        <path class="cls-3" d="M82.11,104.55c1.99-3.24,3.51-6.8,4.87-10.34.17-.44-.19-.95-.61-1.07-.49-.13-.9.17-1.07.61-1.31,3.4-2.79,6.82-4.7,9.93-.59.96.92,1.83,1.5.88h0Z"/>
        <path class="cls-3" d="M111.14,103.41c5.07.45,10.22-.1,15.28-.38,1.11-.06,1.12-1.8,0-1.74-5.06.28-10.21.82-15.28.38-1.12-.1-1.11,1.64,0,1.74h0Z"/>
        <path class="cls-3" d="M86.5,113.72c-.8.11-.97-.63-.63-1.19.21-.35.54-.63.84-.9.62-.55,1.29-1.04,1.95-1.54,1.93-1.44,4.01-2.74,6.18-3.78,1.26-.61,2.66-1.14,4.08-.88,1.12.2,2.14.72,3.17,1.17s2.1.86,3.23.99c1.02.12,2.02-.08,3.04-.13,1.11-.06,1.12-1.8,0-1.74-1.65.08-3,.27-4.61-.31-1.34-.48-2.58-1.21-3.97-1.57-3.24-.83-6.41,1.13-9.07,2.76-2.01,1.24-4.39,2.69-5.95,4.51-1.71,1.99-.48,4.66,2.2,4.28,1.1-.15.63-1.83-.46-1.68h0Z"/>
        <path class="cls-3" d="M93.2,108.9c-1.74,1.04-3.38,2.26-4.97,3.52-1.35,1.07-3.23,2.51-2.64,4.49.23.76.82,1.31,1.61,1.46.87.16,1.66-.13,2.45-.49.43-.2.53-.81.31-1.19-.26-.44-.76-.51-1.19-.31-.37.17-.85.37-1.21.29-.19-.04-.2-.04-.27-.16-.07-.15-.08-.33-.06-.5.02-.12.07-.25.17-.41.08-.12.2-.23.26-.37-.03.08-.13.15-.03.04.04-.04.08-.09.12-.13.09-.1.18-.19.28-.28,1.2-1.14,2.47-2.04,3.82-2.99.73-.51,1.46-1.01,2.23-1.47.96-.58.08-2.08-.88-1.5h0Z"/>
        <path class="cls-3" d="M96.27,110.84c-1.42.89-2.78,1.87-4.15,2.84-1.24.88-2.58,1.7-3.25,3.13-.62,1.32-.15,2.91,1.29,3.43,1.58.57,3.04-.64,4.26-1.47,1.63-1.09,3.22-2.25,4.88-3.31.94-.6.07-2.11-.88-1.5-1.56.99-3.06,2.07-4.59,3.11-.73.49-1.48,1.1-2.29,1.45-.38.16-.95.21-1.17-.22s.11-.91.41-1.31c.51-.68,1.24-1.12,1.92-1.61,1.46-1.04,2.92-2.09,4.44-3.05.95-.6.07-2.1-.88-1.5h0Z"/>
        <path class="cls-3" d="M98.14,114.45c-.68.93-1.23,1.94-1.8,2.94-.53.93-1.31,1.82-1.22,2.96.05.63.31,1.2.85,1.56s1.2.4,1.78.2c.47-.16.85-.43,1.24-.74.49-.39.96-.79,1.43-1.21,1-.88,1.94-1.82,2.82-2.82.31-.35.35-.88,0-1.23-.32-.32-.92-.35-1.23,0-.67.76-1.37,1.49-2.11,2.18-.38.36-.78.71-1.18,1.05-.19.17-.39.33-.58.49-.11.09-.22.18-.33.27-.05.04-.1.08-.14.12-.1.09.14-.08.04-.03-.14.07-.26.17-.39.24-.13.07.05,0-.1.03-.06.01-.11.03-.17.04.1-.02.03,0-.03,0,.17.04-.15-.03-.1-.03,0,0,.02.02.02.02-.02,0-.12-.14-.01.01-.04-.06-.08-.19-.04-.06-.01-.04-.02-.07-.03-.11-.02-.1,0,.13,0-.04,0-.08,0-.16,0-.23,0-.17,0-.03,0,0,0-.04.01-.07.02-.11.03-.09.1-.22,0-.07.06-.1.12-.21.19-.31.28-.44.54-.88.79-1.33.56-.99,1.1-1.98,1.77-2.9.28-.38.06-.97-.31-1.19-.44-.26-.91-.07-1.19.31h0Z"/>
        <path class="cls-3" d="M102.78,117.96c1.65.49,3.32.32,4.88-.36,1.17-.5,2.24-1.2,3.4-1.7.43-.19.53-.82.31-1.19-.26-.45-.76-.5-1.19-.31-1.03.45-1.99,1.07-3.01,1.53-1.27.58-2.58.75-3.93.35-1.08-.32-1.54,1.36-.46,1.68h0Z"/>
        <path class="cls-5" d="M26.62,92.94c1.89,11.06,3.88,22.59,6.42,37.19.13.72.72,1.27,1.45,1.34,8.76.78,38.38,2.07,48.68,2.4,1.02.03,1.82-.89,1.64-1.9-2.53-14.54-4.55-26.21-6.46-37.42-.19-1.1-1.12-1.92-2.24-1.95-8.45-.26-39.67-1.27-47.84-1.54-1.02-.03-1.81.88-1.64,1.89Z"/>
        <path class="cls-3" d="M25.78,93.17c1.33,7.79,2.67,15.58,4.02,23.37.77,4.44,1.49,8.89,2.31,13.33.29,1.53,1.11,2.35,2.68,2.5.88.08,1.76.14,2.64.2,11.71.82,23.44,1.29,35.16,1.77,2.56.11,5.13.21,7.69.3,2.14.08,5.59.54,5.39-2.67-.14-2.2-.77-4.48-1.15-6.66s-.76-4.35-1.13-6.52c-.71-4.1-1.42-8.19-2.12-12.29-.66-3.81-1.31-7.62-1.96-11.43-.26-1.51-.88-2.84-2.49-3.25-.82-.21-1.76-.13-2.6-.16-4.99-.15-9.97-.32-14.96-.48-6.02-.19-12.03-.39-18.05-.58-2.56-.08-5.12-.17-7.69-.25-1.78-.06-3.65-.29-5.43-.16-1.45.11-2.44,1.31-2.34,2.75.08,1.11,1.82,1.12,1.74,0-.09-1.31,1.46-.99,2.35-.97s1.72.06,2.58.08c2.27.07,4.54.15,6.8.22,5.49.18,10.98.36,16.47.53,5.09.16,10.18.33,15.27.49,1.66.05,3.35.01,5,.16,1.89.17,1.78,2.72,2.02,4.17.3,1.73.59,3.47.89,5.2,1.3,7.58,2.61,15.15,3.93,22.72.19,1.09.38,2.19.57,3.28.08.48.17.96.25,1.44.11.6.43,1.45.33,2.04-.18,1.06-2.24.65-3.02.62-2.25-.08-4.51-.17-6.76-.26-11.15-.45-22.29-.93-33.43-1.62-1.88-.12-3.76-.22-5.64-.39-.73-.07-1.09-.22-1.27-1-.26-1.11-.39-2.26-.59-3.38-.36-2.08-.72-4.15-1.08-6.23-1.29-7.42-2.57-14.84-3.84-22.26-.29-1.69-.58-3.38-.87-5.07-.19-1.1-1.87-.63-1.68.46Z"/>
        <path class="cls-3" d="M105.81,120c-7.14,4.39-14.35,8.75-21.73,12.73-.99.53-.11,2.04.88,1.5,7.38-3.98,14.59-8.35,21.73-12.73.95-.59.08-2.09-.88-1.5h0Z"/>
        <path class="cls-3" d="M143.51,115.41c4.15,0,8.31-.02,12.46-.03.63,0,1.25,0,1.88,0,.58,0,.58-.9,0-.9-4.17,0-8.34.02-12.51.03-.61,0-1.22,0-1.83,0-.58,0-.58.9,0,.9h0Z"/>
        <path class="cls-3" d="M81.88,17.62c-3.94,5.73-4.07,12.74-2.5,19.31.26,1.09,1.94.63,1.68-.46-1.47-6.15-1.36-12.61,2.32-17.97.64-.93-.87-1.8-1.5-.88h0Z"/>
        <path class="cls-3" d="M120.58,37.15c2.32-7.14,1.34-16.49-4.75-21.52-.86-.71-2.1.52-1.23,1.23,5.63,4.66,6.44,13.22,4.3,19.82-.35,1.07,1.33,1.53,1.68.46h0Z"/>
        <path class="cls-3" d="M113.31,13.16c-7.51-8.18-22.43-6.58-29.47,1.39-.74.84.49,2.07,1.23,1.23,6.42-7.28,20.11-8.9,27.01-1.39.76.83,1.99-.41,1.23-1.23h0Z"/>
        <path class="cls-3" d="M104.36,28.14c2.16.98,3.9,2.7,5.16,4.68.7,1.11,1.3,2.28,1.87,3.45.28.57.48,1.14,1.08,1.43.74.37,1.5.12,2.08-.4.84-.75-.4-1.98-1.23-1.23-.05.04-.14.07-.05.11.03.06.02.05-.03-.04l-.07-.15c-.09-.17-.17-.35-.25-.52-.27-.56-.55-1.11-.83-1.66-.52-.98-1.07-1.94-1.73-2.84-1.33-1.81-3.06-3.41-5.12-4.34-.43-.19-.94-.12-1.19.31-.22.37-.12,1,.31,1.19h0Z"/>
        <path class="cls-3" d="M114.75,37.13c.87-.8,2.31-.71,3.2.03,1.05.87,1.41,2.36,1.2,3.67-.48,3.03-3.07,5.24-5.73,6.4-.43.19-.53.82-.31,1.19.25.45.76.5,1.19.31,3.41-1.49,6.77-4.82,6.65-8.8-.05-1.78-.9-3.62-2.49-4.53s-3.6-.74-4.94.49c-.83.76.41,1.99,1.23,1.23h0Z"/>
        <path class="cls-3" d="M80.14,37.19c.2,6.77,2.48,14.28,8.07,18.55s13.28,4.26,18.94.61c3.08-1.98,5.62-4.78,7.45-7.93.56-.97-.94-1.85-1.5-.88-3.13,5.4-8.55,9.72-15.02,9.7s-11.53-4.07-14.03-9.87c-1.39-3.21-2.06-6.71-2.16-10.19-.03-1.12-1.77-1.12-1.74,0h0Z"/>
        <path class="cls-3" d="M94.65,43.09c-.14.32-.24.66-.34.99-.16.53-.36,1.22.09,1.67.18.18.47.34.72.39.2.04.37.04.56.04.22,0,.46-.1.62-.25s.26-.4.25-.62c-.02-.48-.38-.87-.87-.87-.1,0-.2.01-.31,0l.23.03c-.05,0-.1-.02-.15-.04l.21.09c-.07-.03-.14-.07-.2-.12l.18.14s0,0,0,0l.14.18s0,0,0-.01l.09.21s0-.02,0-.04l.03.23s0-.1,0-.15l-.03.23c.04-.3.14-.6.23-.89.08-.24.16-.49.26-.73.08-.19.01-.5-.09-.67-.11-.18-.31-.35-.52-.4-.22-.05-.47-.04-.67.09l-.18.14c-.11.11-.18.24-.22.38h0Z"/>
        <path class="cls-3" d="M87.49,38.91c-.27.84-.15,2.79,1.38,2.99,2.03.03,2.19-2.33,1.53-3.45-.54-.92-2.18-1.33-2.91.46Z"/>
        <path class="cls-3" d="M104.91,38.98c.25.89.03,2.92-1.64,3.06-2.21-.06-2.28-2.52-1.51-3.66.63-.93,2.43-1.29,3.15.6Z"/>
        <path class="cls-3" d="M98.3,53.31c.63-.59,1.16-1.24,1.57-2.01.44-.83,1.05-2.2-.01-2.83-.53-.32-1.28-.15-1.87-.1-.64.06-1.29.12-1.93.2-.71.08-1.43.17-2.14.28-.45.07-.74.66-.61,1.07.16.49.59.68,1.07.61.13-.02.26-.04.39-.06.04,0,.08-.01.12-.02-.12.02-.14.02-.04,0,.07,0,.14-.02.2-.03.34-.04.69-.09,1.03-.12.7-.08,1.4-.15,2.1-.21.28-.02.56-.04.84-.06.02,0,.12,0,.14,0-.11,0-.21-.05-.3-.13-.12-.13-.17-.27-.15-.43-.04.05-.06.22-.08.29-.02.06-.04.13-.06.19-.04.1-.05.12-.02.07-.36.87-.85,1.47-1.5,2.06-.33.31-.34.92,0,1.23.36.33.88.33,1.23,0h0Z"/>
        <path class="cls-3" d="M96.6,64.2c1.35-1.34,2.73-2.65,4.08-3.99h-1.23c1.62,1.51,3.19,3.07,4.71,4.69.3.32.94.36,1.23,0,1.17-1.43,2.37-2.85,3.52-4.3.3-.37.35-.87,0-1.23-.3-.31-.94-.37-1.23,0-1.16,1.45-2.35,2.87-3.52,4.3h1.23c-1.52-1.61-3.09-3.18-4.71-4.69-.35-.32-.89-.34-1.23,0-1.35,1.34-2.73,2.65-4.08,3.99-.8.79.43,2.02,1.23,1.23h0Z"/>
        <path class="cls-3" d="M96,63.46c.36,1.15.76,2.3,1.17,3.43.2.57-.05,1.1-.2,1.74-.17.72-.33,1.43-.46,2.16-.5,2.74-.93,5.48-1.16,8.25-.09,1.12,1.65,1.11,1.74,0,.24-2.83.66-5.65,1.22-8.43.15-.74.33-1.47.51-2.21s.32-1.18.07-1.87c-.42-1.17-.83-2.34-1.2-3.53-.33-1.07-2.02-.61-1.68.46h0Z"/>
        <path class="cls-3" d="M103.21,63.71c-.51,1.26-1.35,2.8-1.27,4.19.05.89.2,1.78.31,2.66.28,2.22.5,4.47.95,6.66.22,1.1,1.9.63,1.68-.46-.41-2.04-.63-4.13-.88-6.19-.11-.87-.22-1.74-.3-2.61-.04-.45.12-.87.26-1.3.26-.85.61-1.66.94-2.48.18-.44-.19-.95-.61-1.07-.5-.14-.9.17-1.07.61h0Z"/>
        <path class="cls-3" d="M98.4,68.41c1.35,0,2.71,0,4.06.03.46,0,.89-.41.87-.87s-.38-.86-.87-.87c-1.35-.03-2.71-.03-4.06-.03-.46,0-.89.4-.87.87s.38.87.87.87h0Z"/>
        <path class="cls-3" d="M113.11,55.66c1.41,1.06,2.63,2.36,3.57,3.86.41.64.78,1.32,1.05,2.03.11.28.16.6.28.87.03.12.06.25.07.37.02.31.14.18.38-.38-.06-.05-1.97.91-2.1.96-.93.39-1.86.77-2.79,1.19-.66.3-.46,1.16,0,1.5,1.15.85,2.21,1.83,3.24,2.82.54.52.92.8.51,1.53-.18.32-.46.62-.68.92-1.32,1.82-2.6,3.67-3.89,5.51-3.04,4.36-6.03,8.78-9.35,12.93-.69.87.53,2.11,1.23,1.23,3.75-4.69,7.11-9.69,10.55-14.61,1.24-1.78,2.69-3.51,3.83-5.35.84-1.35.02-2.45-.97-3.39-1.14-1.09-2.33-2.15-3.6-3.09v1.5c1.17-.53,2.37-1,3.55-1.51.83-.36,1.81-.6,1.83-1.65.04-1.51-.99-3.25-1.78-4.45-1.09-1.68-2.48-3.1-4.08-4.3-.9-.67-1.77.84-.88,1.5h0Z"/>
        <path class="cls-3" d="M88.66,64.98c-.83.68-1.62,1.39-2.37,2.15-.58.58-1.33,1.18-1.24,2.08.12,1.15.82,2.43,1.21,3.52.47,1.28.94,2.56,1.42,3.84,1.73,4.55,3.58,9.06,5.7,13.45.49,1.01,1.99.13,1.5-.88-1.89-3.92-3.57-7.93-5.12-11.99-.82-2.13-1.6-4.27-2.37-6.41-.13-.36-.47-.93-.47-1.32,0-.59.32-.77.74-1.2.71-.71,1.46-1.38,2.23-2.02.87-.71-.37-1.93-1.23-1.23h0Z"/>
        <path class="cls-3" d="M92.73,57.98c-.25,6.17-.24,12.39.72,18.51.83,5.3,2.23,10.46,4.15,15.47.4,1.04,2.08.59,1.68-.46-1.87-4.87-3.23-9.87-4.08-15.02-1-6.1-.98-12.33-.73-18.5.05-1.12-1.69-1.12-1.74,0h0Z"/>
        <path class="cls-3" d="M112.8,54.47c-5.25,10.17-9.06,20.83-12.78,31.63-.62,1.8-1.14,3.63-1.72,5.44-.33,1.04-.87,2.11-1.02,3.19-.14,1,.04,2.03.15,3.02.12,1.1,1.86,1.11,1.74,0-.09-.78-.23-1.58-.19-2.37.05-1.07.6-2.15.94-3.17.56-1.73,1.05-3.49,1.63-5.21.65-1.9,1.3-3.8,1.96-5.7,1.79-5.18,3.53-10.45,5.8-15.45,1.6-3.51,3.22-7.07,4.99-10.5.51-.99-.99-1.88-1.5-.88h0Z"/>
        <path class="cls-3" d="M89.3,64.47c.01-.31.04-.62.08-.92l-.03.23c.09-.67.25-1.32.47-1.95.15-.43-.17-.97-.61-1.07-.49-.11-.91.15-1.07.61-.35,1-.54,2.05-.58,3.11-.02.46.41.89.87.87.49-.02.85-.38.87-.87h0Z"/>
        <path class="cls-3" d="M91.47,56.41c-3,2.38-6.75,3.56-10.08,5.38-3.59,1.96-6.25,4.61-7.52,8.57-1.47,4.59-2.47,9.37-3.67,14.05-.56,2.17-1.07,4.36-1.61,6.54-.27,1.09,1.41,1.55,1.68.46.94-3.81,1.89-7.61,2.86-11.41.62-2.42,1.21-4.84,1.85-7.25.53-1.97,1.11-3.94,2.38-5.58,1.15-1.49,2.69-2.61,4.31-3.55,3.63-2.09,7.7-3.35,11.02-5.98.88-.7-.36-1.92-1.23-1.23h0Z"/>
        <path class="cls-3" d="M116.14,58.61c3.73,1.84,7.55,3.5,11.23,5.44,1.64.86,3.14,1.85,4.41,3.21,1.68,1.82,2.55,3.75,3.17,6.12,1.77,6.75,3.08,13.65,4.17,20.54.66,4.13,1.23,8.29,1.47,12.48.06,1.11,1.81,1.12,1.74,0-.46-7.88-1.88-15.73-3.44-23.45-.65-3.22-1.34-6.43-2.16-9.62-.56-2.17-1.2-4.14-2.59-5.93-1.19-1.54-2.57-2.87-4.22-3.91-4.04-2.54-8.63-4.27-12.9-6.38-1-.5-1.88,1.01-.88,1.5h0Z"/>
        <path class="cls-3" d="M120.1,85.55c1.44,5.5,2.76,11.04,3.94,16.61.23,1.1,1.91.63,1.68-.46-1.18-5.57-2.5-11.1-3.94-16.61-.28-1.08-1.96-.62-1.68.46h0Z"/>
        <path class="cls-3" d="M102.66,26.79c-.48-1.57-1.82-2.74-3.27-3.41-1.72-.79-3.54-1.02-5.41-.77-.47.06-.72.66-.61,1.07.14.5.6.67,1.07.61,1.36-.19,2.81.01,4.06.59,1.05.48,2.14,1.28,2.47,2.37s2,.61,1.68-.46h0Z"/>
        <path class="cls-3" d="M97.02,25.35c-3.43-.57-7.64-.68-9.69,2.67-.76,1.25-1.23,2.65-1.94,3.92s-1.74,1.81-3.04,2.22c-1.06.34-.61,2.02.46,1.68,1.33-.42,2.61-1.03,3.5-2.15.77-.98,1.19-2.16,1.73-3.27.77-1.58,1.54-2.89,3.33-3.38,1.68-.46,3.5-.29,5.19-.01,1.1.18,1.57-1.5.46-1.68h0Z"/>
      </g>
      <g id="clock">
        <path class="cls-4" d="M26.33,13.58c-1.46-1.42-2.91-2.84-4.35-4.27-.32-.32-.91-.35-1.23,0s-.34.89,0,1.23c1.44,1.44,2.89,2.86,4.35,4.27.33.32.91.35,1.23,0s.35-.89,0-1.23h0Z"/>
        <path class="cls-4" d="M32.15,7.79c-1.96,1.65-3.91,3.3-5.86,4.96-.33.28-.67.57-1,.85-.36.3-.31.92,0,1.23.36.36.87.3,1.23,0,1.87-1.57,3.73-3.16,5.6-4.74.42-.36.84-.71,1.26-1.07.36-.3.31-.92,0-1.23-.36-.36-.87-.3-1.23,0h0Z"/>
        <path class="cls-4" d="M25.87,0c-6.13.07-11.58,3.78-13.47,9.69-1.78,5.54-.1,12.21,4.55,15.83s11.48,3.89,16.46,1.01,7.28-9.03,6.44-14.66C38.81,4.9,32.82.08,25.87,0c-1.12-.01-1.12,1.73,0,1.74,5.45.07,10.32,3.38,11.88,8.7,1.38,4.69.12,10.35-3.71,13.54s-10.13,3.59-14.53,1.16-6.59-7.72-5.96-12.7c.8-6.26,6.1-10.62,12.31-10.7C26.99,1.73,26.99-.01,25.87,0Z"/>
      </g>
    </g>
  </g>
</svg>