<?xml version="1.0" encoding="UTF-8"?>
<svg id="_レイヤー_2" data-name="レイヤー 2" xmlns="http://www.w3.org/2000/svg" viewBox="0 0 460.05 330.01">
  <defs>
    <style>
      .cls-1 {
        fill: #717071;
      }

      .cls-1, .cls-2, .cls-3, .cls-4, .cls-5, .cls-6 {
        stroke-width: 0px;
      }

      .cls-2 {
        fill: #b4b4b5;
      }

      .cls-3 {
        fill: #231815;
      }

      .cls-4 {
        fill: #c8c9ca;
      }

      .cls-5 {
        fill: #fff;
      }

      .cls-6 {
        fill: #0071bc;
      }
    </style>
  </defs>
  <g id="PC要素">
    <g>
      <g id="group">
        <path class="cls-5" d="M265.04,102.76c2.5-2.44,6.8-2.44,9.65-.43,2.85,2.02,4.27,5.66,4.14,9.15-.13,3.48-1.66,6.8-3.72,9.61-2.72,3.7-6.52,6.41-10.76,8.23-3.34,5.87-7.15,9.87-9.87,12.34-2.97,2.69-7.84,7-15.54,9.39-4.97,1.55-9.23,1.7-11.45,1.67-1.82-.02-5.16-.19-9.19-1.26-5.71-1.51-9.55-3.97-10.33-4.47-4.79-3.11-7.49-6.66-9.38-9.19-4.26-5.7-6.09-10.98-7.18-14.2-1.96-5.83-2.57-10.81-2.96-14.23-.31-2.66-.44-4.92-.5-6.59,0,0-4.34-28.13,33.08-30.02,42.88-2.17,44.01,29.99,44.01,29.99Z"/>
        <path class="cls-1" d="M265.04,102.76c2.5-2.44,6.8-2.44,9.65-.43,1.14.8,2.04,1.87,2.72,3.07,2.02-4.44,3.32-13.95,3.26-18.18-.14-10.8-3.37-23.54-13.1-31.36l-5.87-5.72c-4.66-5.19-13.69-10.84-24.08-11.53-8.4-.55-20.84-.48-33.68,7.99-3.04,2-5.17,3.74-7.8,6.77l-4.24,6.69c-7.63,10.9-9.7,24.46-6.1,40.95,2.83-.82,5.97-1.74,5.97-1.74,7.93-2.43,8.1-6.06,11.21-12.21,1.07-2.11,2.1-4.32,4.13-5.95,4.32-3.49,11.56-3.27,17.65-2.24,6.66,1.71,12.93-.47,18.6,2.77,2.36,1.05,3.71,1.97,5.91,3.77,5.27,4.31,8.17,9.59,11.96,17.51.42.87,1.96,1.64,3.35.25"/>
        <path class="cls-2" d="M328.49,264.46c-1.26-22.53-8.69-59.58-12.94-75.98-1.06-4.1-2.12-8.24-4.61-11.67-4.23-5.81-7.81-8.7-13.16-11.56-7.11-3.8-18.54-8.89-27.07-13.11-.04-.06-.09-.12-.14-.18-1.85-2.35-4.15-4.67-6.89-6.64-3.03,5.76-6.45,14.19-10.17,21.39-5.63,10.87-16.64,43.72-19.49,51.89-1.52,4.37-2.68,8.74-4.33,13.66l-1.1-1.77c-2.23-5.74-5.35-15.12-6.78-21.36-2.14-9.34-3.61-17.48-4.25-26.59-.73-10.42-.62-20.9-.15-31.33-1.23-.36-2.36-.75-3.38-1.15-11.21,9.21-29.66,11.49-37.71,24.97-1.92,3.22-2.96,6.89-3.97,10.5-.74,2.65-6.58,25.75-7.31,28.39,0,0-2.31,9.37-4.47,18.08,6.81.22,12.45.39,16.17.5,2.59.08,4.77,1.97,5.2,4.52,1.44,8.43,2.91,16.96,4.43,25.8,4.79-5.92,10.75-19.53,13.65-27.07,2.17,9.19,4.07,17.18,4.47,20.01.57,3.91,1.6,10,2.25,14.13,0,0,30.1,0,47.1,0,3.02,8.42,4.37,18.66,4.44,20.7,4.58-.07,34.73-.4,41.63-1.1,5.44-.55,11.03-.68,16.13-2.65,5.1-1.97,9.76-5.88,11.23-11.14,1.03-3.69,1.51-11.28.95-15.07"/>
        <path class="cls-5" d="M248.92,146.17c-2.63,1.82-5.91,3.62-9.98,4.88-4.97,1.55-9.23,1.7-11.45,1.67-1.82-.02-5.16-.19-9.19-1.26-.3-.08-.59-.16-.88-.24-.47,10.43-.58,20.9.15,31.33.64,9.1,2.11,17.24,4.25,26.59,1.43,6.24,4.55,15.62,6.78,21.36l.97,2.13c1.71-5.06,2.89-9.55,4.45-14.02,2.85-8.17,13.86-41.02,19.49-51.89,3.25-6.27,6.26-13.46,8.97-19.02-.12-.17-.22-.34-.29-.49-1.45-2.93-2.92-6.51-3.76-9.56-1.43,1.63-2.79,2.96-3.95,4.01-1.4,1.27-3.22,2.89-5.56,4.51Z"/>
        <path class="cls-6" d="M234.25,157.93c-.62-.59-1.25-1.18-1.88-1.77-2.75,2.72-5.11,4.96-7.72,7.51l.24.89c.81,2.59,2.29,6.84,3.16,9.18-.69,2.92-1.52,6.12-2,8.85-1.28,7.32-2.03,11.28-2.63,18.55,0,0-1.57.16-3.26.33.49,2.49,1.04,5.04,1.65,7.68,1.43,6.24,4.55,15.62,6.78,21.36l.91,2.33c1.75-5.14,2.94-9.68,4.52-14.22,1.29-3.69,4.24-12.43,7.62-21.9-.02-.2-.04-.32-.04-.32-.74-3.56-2.89-20.49-2.88-21.61.74-3.61,1.67-5.45,3.18-9.24-2.49-2.6-5.03-5.13-7.65-7.61Z"/>
        <path class="cls-3" d="M15.95,282.25c-3.56,0-7.11,0-10.67,0-1.08,0-2.18.07-3.25,0l2.02,2.02h0c-.67.67-1.35,1.34-2.02,2.02,1.95-.14,3.95-.01,5.9-.01,4.62,0,9.25-.01,13.87-.02,10.56-.01,21.13-.02,31.69-.03,2.57,0,5.13,0,7.7,0s2.6-4.04,0-4.04c-6.81,0-13.63.01-20.44.02-10.5,0-21,.02-31.51.03-2.38,0-4.83-.15-7.21.02-1.18.08-1.89.86-2.02,2.02h0c-.13,1.14,1.03,1.95,2.02,2.02,1.07.08,2.18,0,3.25,0,3.56,0,7.11,0,10.67,0,2.6,0,2.6-4.04,0-4.04h0Z"/>
        <path class="cls-5" d="M190.12,284.45c2.11,12.17,4.36,25.09,6.83,39.17,0,0,.27,1.27.6,2.81,8.12-4.49,35.43-20.34,49.19-28.77,0,0,6.09-4.08,11.52-7.71-.1-1.15-.36-3.2-.79-5.73-24.53.08-49.01.16-67.34.22Z"/>
        <path class="cls-5" d="M200.54,287.26c0-.11,0-.21,0-.31.05-1.1.34-1.83,1.12-2.81,0,0,.4-.51.8-1.02l-1.05.22c-1.34.28-3.1-.03-4.13-1.53-.76-1.12-.28-3.02.05-3.7.41-.84,1.37-1.82,2.03-2.47.92-.91,4.9-3.95,5.93-4.7,4.13-3.01,8.51-5.69,13.06-8,3.7-1.88,7.84-3.55,11.89-2.68,5.16,1.12,7.66,3.39,12.79,4.64,3.61.89,5.63.07,8.67-.01,2.98,5.73,4.85,13.95,5.81,19.62-.38.11-.63.19-.63.19-1.3.54-4.58,2.57-8.35,4.14-3.35,1.39-7.27,1.39-10.61-.05-2.93,3.28-5.93,6.04-9.68,9.04-.65.52-2.79,2.09-4.54.61-1.15-.97-.88-3.2-.31-4.07,2.73-4.18,3.89-7.28,6.91-11.13-5.01,3.11-9.82,6.74-14.82,9.9-1.62,1.03-2.97,1.92-4.87,1.58-1.81-.32-2.96-1.79-2.93-3.62.01-.72.39-1.62.97-2.54-.94.44-1.5.7-1.5.7-.96.44-1.88.83-2.92.96-.96.13-2.27-.14-2.93-.86-.48-.53-.75-1.37-.78-2.11Z"/>
        <path class="cls-3" d="M326.29,261.17c.44,3.1.17,6.6-.18,9.77s-1.04,6.16-3.1,8.66c-5.46,6.63-14.27,7.05-22.17,7.79-9.84.93-19.82.84-29.7,1.01-4.28.07-8.56.12-12.84.19l2.02,2.02c-.18-4.42-1.18-8.94-2.19-13.23-1.36-5.75-3.1-12.07-6.77-16.82-.66-.86-1.73-1.32-2.76-.72-.85.5-1.39,1.89-.72,2.76,3.48,4.51,5.07,10.4,6.36,15.86.61,2.6,1.13,5.23,1.54,7.87.24,1.55.43,2.57.51,4.28.04,1.08.89,2.03,2.02,2.02,9.77-.14,19.54-.26,29.3-.54,4.57-.13,9.14-.28,13.69-.7,8.58-.78,17.71-1.53,23.96-8.24,2.92-3.13,4.19-6.82,4.74-10.99s.75-8.08.19-12.06c-.15-1.08-1.53-1.67-2.48-1.41-1.16.32-1.56,1.4-1.41,2.48h0Z"/>
        <path class="cls-3" d="M190.49,200.03c.34,3.67,1.1,7.32,1.85,10.93,1.05,5.09,2.2,10.15,3.38,15.21,2.11,9.1,4.43,18.16,6.33,27.31,1.16,5.6,1.88,11.31,2.78,16.96.17,1.08,1.52,1.67,2.48,1.41,1.15-.32,1.58-1.4,1.41-2.48-.84-5.3-1.54-10.66-2.57-15.94-.71-3.61-1.57-7.2-2.41-10.78-2.37-10.15-4.85-20.27-7.02-30.46-.51-2.42-1.01-4.84-1.45-7.27-.17-.96-.34-1.93-.49-2.9-.03-.2-.06-.4-.09-.6-.04-.29.02.24-.04-.26-.05-.38-.09-.76-.12-1.13-.1-1.08-.85-2.02-2.02-2.02-1.01,0-2.12.93-2.02,2.02h0Z"/>
        <path class="cls-3" d="M190.69,260.17c4.62-7.49,8.15-15.74,11.32-23.93.39-1.02-.43-2.21-1.41-2.48-1.14-.31-2.09.39-2.48,1.41-3.04,7.87-6.47,15.77-10.91,22.97-1.37,2.22,2.12,4.25,3.48,2.04h0Z"/>
        <path class="cls-3" d="M258.1,257.54c11.76,1.05,23.72-.23,35.47-.87,2.58-.14,2.6-4.18,0-4.04-11.75.65-23.71,1.92-35.47.87-1.09-.1-2.02,1-2.02,2.02,0,1.17.93,1.92,2.02,2.02h0Z"/>
        <path class="cls-3" d="M200.88,281.4c-1.64.29-2.3-.97-1.75-2.36-.07.18.34-.54.44-.67.3-.38.66-.73,1-1.08.43-.43.88-.81,1.35-1.2,2.75-2.26,5.63-4.37,8.62-6.31,4.18-2.72,8.74-5.61,13.54-7.08,2.35-.72,4.57-.83,6.95-.17,2.08.57,4.01,1.49,5.98,2.36,2.5,1.1,5.05,2.05,7.78,2.36,2.3.26,4.56-.24,6.86-.33,2.59-.1,2.6-4.14,0-4.04-2.33.09-4.68.67-7.01.3-2.56-.4-4.95-1.49-7.29-2.54s-4.82-2.09-7.42-2.47c-2.86-.42-5.73.14-8.4,1.16-5.57,2.13-10.84,5.39-15.71,8.79-2.85,1.99-5.91,4.06-8.33,6.57-1.82,1.88-3.21,4.39-2.4,7.09.88,2.94,4.13,3.99,6.88,3.51,1.07-.19,1.68-1.5,1.41-2.48-.31-1.13-1.4-1.6-2.48-1.41h0Z"/>
        <path class="cls-3" d="M216.43,270.24c-4.03,2.42-7.86,5.23-11.54,8.15-3.12,2.47-7.5,5.8-6.13,10.39.53,1.77,1.91,3.03,3.74,3.37,2.03.38,3.86-.3,5.68-1.14.99-.45,1.23-1.89.72-2.76-.6-1.02-1.77-1.18-2.76-.72-.87.4-1.98.86-2.82.68-.43-.09-.47-.09-.62-.37-.17-.34-.19-.75-.13-1.15.04-.27.17-.58.4-.94.18-.28.46-.54.59-.85-.08.19-.3.35-.07.1.09-.1.18-.2.28-.3.21-.22.43-.43.65-.64,2.78-2.63,5.73-4.72,8.87-6.92,1.69-1.19,3.4-2.35,5.17-3.41,2.22-1.33.2-4.82-2.04-3.48h0Z"/>
        <path class="cls-3" d="M223.56,274.74c-3.29,2.07-6.47,4.32-9.64,6.57-2.87,2.03-5.99,3.93-7.54,7.24-1.44,3.07-.35,6.73,2.99,7.94,3.65,1.32,7.05-1.49,9.9-3.39,3.79-2.53,7.49-5.2,11.34-7.65,2.19-1.39.16-4.88-2.04-3.48-3.62,2.3-7.1,4.79-10.65,7.19-1.69,1.14-3.44,2.55-5.32,3.36-.88.38-2.2.49-2.72-.5s.25-2.1.95-3.02c1.19-1.57,2.87-2.59,4.46-3.72,3.4-2.41,6.78-4.83,10.31-7.05,2.19-1.38.17-4.87-2.04-3.48h0Z"/>
        <path class="cls-3" d="M227.92,283.09c-1.58,2.16-2.85,4.49-4.17,6.81-1.23,2.15-3.05,4.21-2.84,6.84.12,1.47.73,2.77,1.98,3.6s2.78.92,4.13.46c1.1-.37,1.98-1,2.88-1.72,1.13-.91,2.24-1.84,3.32-2.79,2.31-2.04,4.5-4.22,6.54-6.53.72-.82.8-2.05,0-2.85-.73-.73-2.13-.82-2.85,0-1.56,1.76-3.19,3.45-4.91,5.05-.89.83-1.8,1.64-2.73,2.43-.45.38-.9.76-1.36,1.13-.25.21-.5.41-.76.62-.11.09-.21.2-.33.27.15-.09.36-.26.08-.07-.3.2-.6.39-.91.56-.29.15.1.01-.23.08-.13.03-.25.07-.38.09.24-.03.06,0-.06-.02.39.09-.34-.08-.24-.07.02,0,.06.04.05.04-.05,0-.29-.33-.03.03-.1-.14-.18-.45-.1-.14-.02-.09-.05-.17-.07-.26-.05-.22-.02.3-.01-.09,0-.18,0-.36,0-.54.01-.39.02-.07,0,.01.02-.08.03-.17.05-.25.06-.2.23-.51.02-.16.14-.24.29-.48.44-.71.64-1.01,1.25-2.04,1.84-3.09,1.3-2.28,2.55-4.58,4.11-6.7.64-.88.15-2.25-.72-2.76-1.02-.6-2.12-.16-2.76.72h0Z"/>
        <path class="cls-3" d="M238.68,291.21c3.82,1.14,7.71.73,11.33-.82,2.71-1.16,5.2-2.77,7.89-3.94,1-.43,1.23-1.9.72-2.76-.6-1.03-1.76-1.16-2.76-.72-2.39,1.04-4.62,2.47-7,3.55-2.95,1.34-5.99,1.74-9.12.81-2.49-.74-3.56,3.15-1.07,3.89h0Z"/>
        <path class="cls-5" d="M61.86,233.32c4.38,25.59,9,52.27,14.9,86.05.29,1.67,1.67,2.95,3.36,3.1,20.34,1.81,89.11,4.78,113.02,5.55,2.38.08,4.22-2.05,3.81-4.39-5.89-33.64-10.56-60.64-15-86.59-.44-2.55-2.61-4.44-5.2-4.52-19.61-.59-92.1-2.95-111.08-3.56-2.37-.08-4.2,2.03-3.8,4.37Z"/>
        <path class="cls-3" d="M59.91,233.85c3,17.52,6.02,35.03,9.06,52.54,1.76,10.11,3.52,20.22,5.28,30.33.39,2.25.52,4.68,2.35,6.29,1.33,1.17,2.89,1.41,4.58,1.56,2.03.17,4.06.32,6.09.46,12.29.85,24.59,1.47,36.89,2.08,14.25.7,28.49,1.34,42.75,1.93,5.92.24,11.84.48,17.77.7,2.31.09,4.61.17,6.92.24,1.53.05,3.02.11,4.42-.65,1.82-1,3-2.97,3-5.05,0-1.21-.35-2.46-.56-3.65-.24-1.37-.48-2.74-.72-4.11-.45-2.6-.91-5.2-1.36-7.8-.88-5.05-1.76-10.1-2.64-15.16-1.62-9.3-3.23-18.6-4.84-27.9-1.48-8.58-2.96-17.17-4.43-25.75-.35-2.07-.48-4.32-1.69-6.11s-3.01-2.92-5.08-3.22c-1.93-.29-3.96-.19-5.91-.25-11.32-.35-22.64-.71-33.97-1.08-13.67-.44-27.33-.88-41-1.32-10.1-.33-20.19-.65-30.29-.98-1.52-.05-2.95.09-4.25.98-1.73,1.19-2.72,3.28-2.46,5.37.13,1.08.83,2.02,2.02,2.02.99,0,2.15-.93,2.02-2.02-.18-1.46.56-2.37,2.05-2.34.78.02,1.57.05,2.35.08,1.99.06,3.98.13,5.97.19,5.17.17,10.34.33,15.52.5,13.03.42,26.06.84,39.08,1.26,12.02.39,24.05.77,36.07,1.15,3.93.12,7.91.07,11.83.37,1.58.12,2.81,1.17,3.19,2.7.49,1.97.71,4.05,1.05,6.06.71,4.12,1.41,8.24,2.12,12.37,3.12,18.13,6.27,36.26,9.43,54.38.44,2.52.88,5.04,1.32,7.57.21,1.21.42,2.42.63,3.62.18,1.02.69,2.4.47,3.43-.46,2.11-4.14,1.27-5.69,1.22-5.24-.18-10.48-.38-15.72-.59-13.41-.54-26.82-1.12-40.23-1.76-12.9-.61-25.79-1.25-38.68-2.04-4.43-.27-8.86-.56-13.28-.92-.95-.08-2-.07-2.48-1.08s-.49-2.46-.68-3.58c-.22-1.29-.45-2.57-.67-3.86-.86-4.95-1.72-9.89-2.59-14.84-3.05-17.52-6.09-35.05-9.1-52.58-.68-3.95-1.35-7.89-2.03-11.84-.18-1.07-1.51-1.68-2.48-1.41-1.14.31-1.59,1.4-1.41,2.48Z"/>
        <path class="cls-3" d="M245.72,295.93c-14.29,8.75-28.79,17.17-43.35,25.47-2.36,1.35-4.72,2.7-7.11,3.99s-.25,4.71,2.04,3.48c13.19-7.07,26.03-14.87,38.89-22.5,3.87-2.3,7.73-4.6,11.56-6.95,2.21-1.35.19-4.85-2.04-3.48h0Z"/>
        <path class="cls-3" d="M333.26,286.29c4.18,0,8.36,0,12.55,0,9.87,0,19.75-.01,29.62-.02,11.89,0,23.78-.01,35.67-.02,10.37,0,20.74-.01,31.11-.02,5.16,0,10.35.13,15.51,0,.1,0,.21,0,.31,0,2.6,0,2.6-4.04,0-4.04-4.29,0-8.59,0-12.88,0-9.93,0-19.86.01-29.79.02-11.89,0-23.79.01-35.68.02-10.32,0-20.64.01-30.95.02-5.05,0-10.14-.16-15.19,0-.09,0-.17,0-.26,0-2.6,0-2.6,4.04,0,4.04h0Z"/>
        <path class="cls-3" d="M190.16,59.04c-9.17,13.2-9.46,29.53-5.8,44.68.61,2.52,4.5,1.45,3.89-1.07-1.82-7.51-2.76-15.34-1.76-23.05.86-6.68,3.31-13,7.15-18.53,1.48-2.14-2.01-4.16-3.48-2.04h0Z"/>
        <path class="cls-3" d="M280.01,104.23c2.07-6.26,2.98-13.31,2.56-19.89-.45-7.08-2.13-14.18-5.64-20.4-2.04-3.62-4.72-6.88-7.95-9.5-.84-.69-2.03-.83-2.85,0-.71.71-.85,2.16,0,2.85,10.08,8.21,13.57,22.33,12.22,34.85-.4,3.71-1.06,7.47-2.24,11.02-.82,2.47,3.08,3.53,3.89,1.07h0Z"/>
        <path class="cls-3" d="M263.13,48.72c-6.62-7.29-16.45-11.58-26.2-12.16s-18.8.66-27.44,4.64c-5.58,2.57-10.72,6.12-14.78,10.75-1.71,1.95,1.14,4.81,2.85,2.85,6.59-7.52,16.18-12.11,25.97-13.72,8.2-1.34,17.42-1.06,25.1,2.31,4.36,1.92,8.43,4.64,11.64,8.18,1.75,1.93,4.6-.93,2.85-2.85h0Z"/>
        <path class="cls-3" d="M242.35,83.38c5.01,2.26,9.04,6.23,11.97,10.83,1.63,2.56,3.01,5.27,4.34,7.99.64,1.32,1.12,2.63,2.52,3.32,1.72.85,3.47.29,4.83-.93,1.94-1.73-.92-4.58-2.85-2.85-.11.1-.34.17-.12.24.07.15.05.12-.06-.09l-.17-.35c-.2-.4-.39-.81-.58-1.21-.63-1.29-1.27-2.57-1.93-3.84-1.2-2.27-2.49-4.5-4.02-6.56-3.09-4.19-7.11-7.89-11.89-10.04-.99-.45-2.17-.29-2.76.72-.5.86-.27,2.31.72,2.76h0Z"/>
        <path class="cls-3" d="M266.47,104.19c2.01-1.86,5.31-1.63,7.38.03,2.44,1.95,3.3,5.4,2.86,8.39-1.04,7.07-7.14,12.25-13.34,14.96-1,.44-1.23,1.9-.72,2.76.6,1.03,1.76,1.16,2.76.72,6.4-2.79,11.87-7.73,14.38-14.36,2.35-6.23.62-14.48-6.09-17.14-3.41-1.35-7.38-.7-10.08,1.78-1.91,1.76.95,4.61,2.85,2.85h0Z"/>
        <path class="cls-3" d="M186.11,104.31c.25,7.69,1.59,15.32,4.3,22.54,2.9,7.74,7.69,15.22,14.31,20.3,12.57,9.65,30.98,9.97,44.19,1.45,7.07-4.56,13.03-11.01,17.2-18.29,1.29-2.26-2.19-4.29-3.48-2.04-3.41,5.94-8.03,11.19-13.52,15.29-6.2,4.62-13.66,7.19-21.4,7.15-6.5-.03-13.12-1.87-18.61-5.39-6.39-4.1-11.23-10.96-14.13-17.88-3.07-7.33-4.56-15.21-4.81-23.13-.08-2.59-4.12-2.6-4.04,0h0Z"/>
        <path class="cls-3" d="M219.82,117.98c-.32.75-.56,1.54-.79,2.33-.36,1.23-.82,2.8.21,3.85.22.22.53.44.82.58s.58.27.89.33c.46.09.83.08,1.28.08.51,0,1.06-.23,1.43-.59s.61-.92.59-1.43c-.05-1.1-.89-2.01-2.02-2.02-.23,0-.46.03-.69,0l.54.07c-.14-.02-.27-.06-.39-.11l.48.2c-.17-.07-.31-.17-.46-.28l.41.32s-.01-.01-.02-.02l.32.41s-.01-.02-.02-.03l.2.48s-.02-.05-.02-.08l.07.54c-.01-.11,0-.23.01-.34l-.07.54c.1-.7.32-1.39.53-2.06.18-.57.37-1.14.6-1.69.19-.45.03-1.16-.2-1.55-.24-.42-.72-.82-1.21-.93-.52-.12-1.1-.09-1.55.2l-.41.32c-.25.25-.42.55-.52.89h0Z"/>
        <path class="cls-3" d="M203.18,108.3c-.62,1.95-.34,6.46,3.21,6.92,4.71.06,5.08-5.38,3.55-7.98-1.25-2.12-5.05-3.07-6.77,1.06Z"/>
        <path class="cls-3" d="M243.63,108.46c.59,2.06.08,6.76-3.81,7.08-5.13-.14-5.29-5.84-3.51-8.48,1.46-2.16,5.64-2.99,7.32,1.4Z"/>
        <path class="cls-3" d="M228.29,141.61c1.47-1.37,2.7-2.88,3.65-4.65,1.03-1.92,2.44-5.09-.02-6.56-1.23-.73-2.97-.35-4.33-.23-1.5.13-2.99.29-4.49.46-1.66.19-3.32.39-4.97.64-1.05.16-1.72,1.53-1.41,2.48.37,1.14,1.36,1.58,2.48,1.41.3-.05.61-.09.92-.13.1-.01.19-.03.29-.04-.29.04-.32.04-.09.01.16-.02.31-.04.47-.06.8-.1,1.6-.2,2.39-.29,1.62-.18,3.25-.35,4.88-.49.65-.05,1.29-.1,1.94-.14.06,0,.29.01.34-.02-.26-.01-.48-.11-.68-.29-.27-.3-.39-.63-.36-.99-.09.12-.14.51-.18.66-.05.15-.1.29-.15.43-.09.23-.11.29-.06.16-.83,2.02-1.98,3.39-3.47,4.78-.77.72-.78,2.13,0,2.85.83.76,2.03.77,2.85,0h0Z"/>
        <path class="cls-3" d="M224.32,166.82c3.14-3.1,6.33-6.13,9.47-9.23h-2.85c3.76,3.49,7.41,7.11,10.93,10.85.69.74,2.17.83,2.85,0,2.72-3.32,5.49-6.6,8.18-9.95.68-.85.83-2.02,0-2.85-.71-.71-2.17-.85-2.85,0-2.68,3.35-5.45,6.63-8.18,9.95h2.85c-3.52-3.74-7.16-7.35-10.93-10.85-.8-.74-2.05-.79-2.85,0-3.14,3.1-6.33,6.13-9.47,9.23-1.85,1.83,1,4.68,2.85,2.85h0Z"/>
        <path class="cls-3" d="M222.94,165.1c.97,3.09,2.03,6.15,3.16,9.18v-1.07c-2.18,9.2-3.91,18.49-4.7,27.93-.22,2.59,3.82,2.57,4.04,0,.54-6.4,1.51-12.76,2.75-19.05.34-1.72.75-3.42,1.16-5.12.21-.89.49-1.78.65-2.68.14-.78-.11-1.36-.37-2.07-.99-2.71-1.93-5.43-2.79-8.18-.78-2.47-4.67-1.41-3.89,1.07h0Z"/>
        <path class="cls-3" d="M239.68,165.67c-.81,2.01-1.69,4-2.3,6.08-.35,1.19-.75,2.42-.64,3.66.19,2.09.47,4.17.73,6.24.64,5.08,1.15,10.25,2.18,15.27.52,2.54,4.41,1.47,3.89-1.07-.95-4.67-1.44-9.47-2.04-14.19-.26-2.04-.53-4.08-.72-6.13-.09-.96.19-1.68.48-2.7.61-2.08,1.48-4.08,2.3-6.08.41-1.01-.44-2.22-1.41-2.48-1.15-.32-2.07.39-2.48,1.41h0Z"/>
        <path class="cls-3" d="M228.52,176.55c3.14,0,6.28,0,9.42.06,1.06.02,2.07-.94,2.02-2.02s-.89-1.99-2.02-2.02c-3.14-.07-6.28-.06-9.42-.06-1.06,0-2.07.93-2.02,2.02s.89,2.02,2.02,2.02h0Z"/>
        <path class="cls-3" d="M262.66,147.07c3.31,2.43,6.16,5.52,8.34,8.99.96,1.53,1.85,3.15,2.48,4.85.25.68.47,1.36.63,2.07.06.25.1.51.15.77-.01-.06-.17.73.08.04l.52-.89c.36-.43.18-.14-.18.06s-.77.37-1.15.55c-1.08.49-2.17.95-3.25,1.41-2.17.92-4.36,1.8-6.51,2.76-1.52.69-1.08,2.69,0,3.48,2.15,1.57,4.14,3.38,6.1,5.18.88.81,1.75,1.63,2.6,2.47s.88,1.26.17,2.2c-2.05,2.68-3.99,5.45-5.93,8.21-5.79,8.21-11.5,16.49-17.39,24.64-2.97,4.11-5.97,8.21-9.15,12.16-.68.85-.83,2.02,0,2.85.71.71,2.17.85,2.85,0,6.56-8.17,12.56-16.79,18.57-25.36,2.92-4.16,5.83-8.34,8.76-12.49,1.14-1.62,2.28-3.23,3.44-4.83.47-.65.94-1.3,1.42-1.94.2-.27.4-.53.6-.8.1-.13.2-.27.3-.4.14-.18.13-.17-.03.04.19-.22.36-.46.52-.71.89-1.53.82-3.5-.08-5.01-.77-1.29-2.16-2.35-3.24-3.37-2.38-2.22-4.84-4.4-7.47-6.33v3.48c2.45-1.1,4.96-2.1,7.43-3.16,1.81-.77,5.12-1.55,5.07-4.01-.07-3.56-2.08-7.24-3.94-10.16-2.56-4.01-5.84-7.44-9.67-10.25-.88-.64-2.25-.15-2.76.72-.6,1.02-.16,2.11.72,2.76h0Z"/>
        <path class="cls-3" d="M205.9,168.62c-1.45,1.16-2.83,2.4-4.18,3.68s-3.23,2.74-3.99,4.42c-.85,1.89.61,4.35,1.25,6.14.79,2.19,1.58,4.37,2.39,6.56,3.01,8.16,6.17,16.26,9.6,24.25,1.87,4.35,3.82,8.65,5.89,12.91,1.13,2.34,4.62.29,3.48-2.04-7.05-14.51-12.78-29.63-18.21-44.81-.15-.43-.28-1.27-.58-1.61-.41-.47-.1.31-.14.27,0,0,.62-.68.66-.72.66-.71,1.34-1.39,2.03-2.07,1.48-1.44,3.02-2.82,4.63-4.12.85-.68.71-2.14,0-2.85-.84-.84-2-.69-2.85,0h0Z"/>
        <path class="cls-3" d="M215.35,152.42c-.48,11.42-.59,22.92.56,34.3,1.02,10.1,2.95,20.25,5.86,29.98,1.45,4.83,3.06,9.62,4.88,14.33.39,1.02,1.36,1.72,2.48,1.41.97-.27,1.8-1.46,1.41-2.48-3.26-8.41-5.9-17.04-7.78-25.86-2.28-10.71-3.44-21.46-3.66-32.41-.13-6.42,0-12.85.28-19.27.11-2.6-3.93-2.59-4.04,0h0Z"/>
        <path class="cls-3" d="M261.94,144.31c-2.04,3.91-3.81,7.95-5.65,11.96-1.68,3.66-3.5,7.24-5.24,10.87-2.54,5.29-4.63,10.81-6.7,16.3-4.21,11.16-8.05,22.46-11.96,33.73-1.44,4.15-2.65,8.37-3.99,12.55-.41,1.3-.84,2.59-1.3,3.87s-1.07,2.61-1.22,4.02c-.23,2.29.11,4.57.36,6.84.12,1.08.84,2.02,2.02,2.02,1,0,2.14-.93,2.02-2.02-.22-1.98-.52-3.99-.43-5.99.05-1.12.52-2.07.9-3.13.41-1.16.81-2.32,1.19-3.49,1.38-4.22,2.56-8.5,4.01-12.7s2.99-8.71,4.51-13.06c4.14-11.9,8.16-24.01,13.39-35.47,1.67-3.67,3.57-7.23,5.26-10.89,2.06-4.47,4.02-9.01,6.3-13.38,1.2-2.3-2.28-4.34-3.48-2.04h0Z"/>
        <path class="cls-3" d="M207.37,167.44c.03-.71.08-1.42.18-2.13l-.07.54c.21-1.54.58-3.05,1.1-4.52.36-1-.4-2.25-1.41-2.48-1.13-.26-2.1.34-2.48,1.41-.82,2.3-1.26,4.75-1.35,7.19-.04,1.06.96,2.07,2.02,2.02,1.13-.05,1.98-.89,2.02-2.02h0Z"/>
        <path class="cls-3" d="M212.42,148.79c-6.81,5.45-15.42,8.15-23.03,12.24-3.83,2.06-7.55,4.48-10.61,7.59-3.71,3.76-5.97,8.32-7.49,13.33-1.71,5.63-3.04,11.4-4.5,17.1-1.24,4.86-2.51,9.71-3.75,14.57s-2.48,10.04-3.72,15.06c-.62,2.52,3.27,3.6,3.89,1.07,2.19-8.86,4.42-17.7,6.68-26.54,1.43-5.6,2.81-11.22,4.32-16.8,1.24-4.59,2.63-9.22,5.67-12.98,2.64-3.27,6.04-5.77,9.65-7.86,8.46-4.9,18.05-7.76,25.75-13.93.85-.68.71-2.14,0-2.85-.84-.84-2-.68-2.85,0h0Z"/>
        <path class="cls-3" d="M269.69,153.89c8.74,4.32,17.72,8.19,26.35,12.73,3.79,1.99,7.22,4.31,10.13,7.49,1.7,1.86,3.33,3.88,4.5,6.13,1.22,2.36,1.93,4.95,2.6,7.51,4.17,15.86,7.26,32.06,9.84,48.25,1.5,9.43,2.81,18.93,3.36,28.47.15,2.58,4.18,2.6,4.04,0-1.03-18.04-4.32-36.04-7.88-53.73-1.49-7.41-3.08-14.81-4.96-22.13-1.31-5.12-2.76-9.95-6.03-14.2-2.89-3.76-6.24-6.97-10.3-9.44-4.41-2.69-9.19-4.83-13.85-7.04-5.26-2.5-10.54-4.94-15.76-7.52-2.32-1.15-4.37,2.33-2.04,3.48h0Z"/>
        <path class="cls-3" d="M278.91,216.21c3.35,12.74,6.41,25.55,9.15,38.43.54,2.54,4.43,1.46,3.89-1.07-2.75-12.88-5.8-25.69-9.15-38.43-.66-2.51-4.55-1.44-3.89,1.07h0Z"/>
        <path class="cls-3" d="M238.41,80.26c-1.1-3.64-4.22-6.35-7.59-7.9-4-1.84-8.21-2.37-12.55-1.77-1.08.15-1.67,1.53-1.41,2.48.32,1.17,1.4,1.56,2.48,1.41,3.16-.43,6.53.03,9.44,1.37,2.42,1.11,4.97,2.95,5.74,5.49s4.65,1.42,3.89-1.07h0Z"/>
        <path class="cls-3" d="M225.3,76.93c-6.04-1.01-13.53-1.67-18.8,2.13-4.8,3.46-5.73,9.51-8.85,14.19-1.42,2.13-3.94,3.3-6.41,4.08s-1.41,4.67,1.07,3.89c3.28-1.03,6.3-2.55,8.4-5.35,1.69-2.25,2.62-4.98,3.86-7.49.92-1.85,1.81-3.82,3.32-5.28,1.22-1.18,2.8-1.87,4.42-2.29,3.85-1,8.03-.64,11.91,0,1.07.18,2.17-.28,2.48-1.41.27-.97-.33-2.3-1.41-2.48h0Z"/>
      </g>
      <g id="clock">
        <path class="cls-4" d="M61.19,49.69c-3.38-3.28-6.76-6.56-10.1-9.89-.75-.75-2.12-.8-2.85,0s-.8,2.06,0,2.85c3.34,3.32,6.71,6.61,10.1,9.89.76.73,2.11.81,2.85,0s.81-2.07,0-2.85h0Z"/>
        <path class="cls-4" d="M74.69,36.29c-4.54,3.8-9.06,7.63-13.59,11.45-.78.66-1.57,1.32-2.35,1.98-.84.7-.72,2.13,0,2.85.83.83,2.02.7,2.85,0,4.34-3.63,8.65-7.29,12.98-10.94.99-.83,1.97-1.66,2.96-2.49.84-.7.72-2.13,0-2.85-.83-.83-2.02-.7-2.85,0h0Z"/>
        <path class="cls-4" d="M60.12,18.27c-7.13.04-14.23,2.12-19.95,6.45-5.38,4.07-9.35,9.7-11.38,16.14-4.03,12.77-.15,28.09,10.57,36.42,10.59,8.23,26.65,9.06,38.24,2.4,11.84-6.8,16.93-21,14.94-34.13-2.08-13.74-13.14-24.78-26.88-26.84-1.84-.27-3.68-.43-5.54-.44-2.6-.01-2.6,4.02,0,4.04,6.33.03,12.52,1.87,17.63,5.67,4.67,3.48,8.13,8.51,9.85,14.06,3.43,11.08.42,24.51-8.78,31.95s-23.4,8-33.48,2.43-15.51-18.27-13.72-29.93c.9-5.86,3.54-11.4,7.68-15.66s9.93-7.18,16-8.17c1.59-.26,3.21-.34,4.83-.35,2.6-.01,2.6-4.05,0-4.04Z"/>
      </g>
      <g id="window">
        <path class="cls-4" d="M384.11,135.21c20.57-.04,41.14-.08,61.72-.1,4.07,0,8.13,0,12.2,0,2.6,0,2.6-4.04,0-4.04-18.99,0-37.99.04-56.98.08-5.65.01-11.29.02-16.94.03-2.6,0-2.6,4.04,0,4.04h0Z"/>
        <path class="cls-4" d="M441.62,56.55h-7.28c-1.09,0-2.02.92-2.02,2.02,0,6.04,0,12.08,0,18.11,0,1.09.93,2.02,2.02,2.02,2.48,0,4.95.07,7.43.07s2.6-4.03,0-4.04-4.95-.07-7.43-.07l2.02,2.02c.02-6.04,0-12.08,0-18.11l-2.02,2.02h7.28c2.6,0,2.6-4.04,0-4.04h0Z"/>
        <path class="cls-4" d="M458.03.08c-7.07,0-14.13-.01-21.2-.02-11.59-.01-23.18-.02-34.78-.04-6.08,0-12.17-.01-18.25-.02-2.6,0-2.6,4.03,0,4.04,11.24.01,22.48.03,33.72.04,10.43.01,20.86.02,31.29.03,3.07,0,6.14,0,9.21,0,2.6,0,2.6-4.04,0-4.04h0Z"/>
        <path class="cls-4" d="M451.35,9.67c-16.79-.02-33.57-.06-50.36-.09-2.53,0-5.06,0-7.6-.01s-2.6,4.04,0,4.04c14.83,0,29.67.05,44.5.08,4.49,0,8.97.02,13.46.02,2.6,0,2.6-4.03,0-4.04h0Z"/>
        <path class="cls-4" d="M458.03,9.68c-2.23,0-4.46,0-6.69,0-1.06,0-2.07.93-2.02,2.02s.89,2.02,2.02,2.02c2.23,0,4.46,0,6.69,0,1.06,0,2.07-.93,2.02-2.02s-.89-2.02-2.02-2.02h0Z"/>
        <path class="cls-4" d="M445.11,123.44c0-4.17-.02-8.35-.03-12.52-.03-8.75-.05-17.51-.08-26.26-.03-10.42-.06-20.84-.09-31.26-.03-9.04-.05-18.08-.08-27.11-.01-4.74.07-9.48-.03-14.22,0-.14,0-.28,0-.43.01-2.6-4.02-2.6-4.04,0-.02,4,.01,8.01.02,12.01.02,8.67.05,17.33.07,26,.03,10.42.06,20.83.09,31.25.03,9.11.05,18.23.08,27.34.01,4.9.03,9.8.04,14.69,0,.17,0,.33,0,.5,0,2.6,4.04,2.6,4.04,0h0Z"/>
        <path class="cls-4" d="M395.71,123.44c0-4.17-.02-8.35-.03-12.52-.03-8.75-.05-17.51-.08-26.26-.03-10.42-.06-20.84-.09-31.26-.03-9.04-.05-18.08-.08-27.11-.01-4.74.07-9.48-.03-14.22,0-.14,0-.28,0-.43.01-2.6-4.02-2.6-4.04,0-.02,4,.01,8.01.02,12.01.02,8.67.05,17.33.07,26,.03,10.42.06,20.83.09,31.25.03,9.11.05,18.23.08,27.34.01,4.9.03,9.8.04,14.69,0,.17,0,.33,0,.5,0,2.6,4.04,2.6,4.04,0h0Z"/>
        <path class="cls-4" d="M386.13,133.19c0-4.83-.02-9.67-.03-14.5-.03-10.29-.05-20.59-.08-30.88-.03-12.27-.06-24.55-.09-36.82-.03-10.64-.05-21.28-.08-31.92-.01-5.52.07-11.05-.03-16.58,0-.16,0-.31,0-.47.01-2.6-4.02-2.6-4.04,0-.03,4.67.01,9.33.02,14,.02,10.21.05,20.41.07,30.62.03,12.27.06,24.54.09,36.81.03,10.72.05,21.43.08,32.15.01,5.68.03,11.37.04,17.05,0,.18,0,.36,0,.54,0,2.6,4.04,2.6,4.04,0h0Z"/>
        <path class="cls-4" d="M453.15,123.52c0-4.17-.02-8.35-.03-12.52-.03-8.76-.05-17.51-.08-26.27-.03-10.42-.06-20.85-.09-31.27-.03-9.04-.05-18.08-.08-27.12-.01-4.74.07-9.49-.03-14.22,0-.14,0-.28,0-.43.01-2.6-4.02-2.6-4.04,0-.02,4.01.01,8.01.02,12.02.02,8.67.05,17.34.07,26.01.03,10.42.06,20.84.09,31.26.03,9.12.05,18.23.08,27.35.01,4.9.03,9.8.04,14.7,0,.17,0,.33,0,.5,0,2.6,4.04,2.6,4.04,0h0Z"/>
        <path class="cls-4" d="M451.48,125.44c2.18,0,4.36-.01,6.54-.01,1.06,0,2.07-.93,2.02-2.02s-.89-2.02-2.02-2.02c-2.18,0-4.36,0-6.54.01-1.06,0-2.07.93-2.02,2.02s.89,2.02,2.02,2.02h0Z"/>
        <path class="cls-4" d="M393.7,125.57c15.56-.04,31.11-.08,46.67-.11,3.73,0,7.47-.02,11.2-.02,2.6,0,2.6-4.04,0-4.04-15.15.03-30.3.07-45.46.11-4.14.01-8.27.02-12.41.03-2.6,0-2.6,4.04,0,4.04h0Z"/>
      </g>
    </g>
  </g>
</svg>