<?xml version="1.0" encoding="UTF-8"?>
<svg id="_レイヤー_2" data-name="レイヤー 2" xmlns="http://www.w3.org/2000/svg" viewBox="0 0 20 14">
  <defs>
    <style>
      .cls-1 {
        fill: #fff;
        stroke-width: 0px;
      }
    </style>
  </defs>
  <g id="PC要素">
    <path class="cls-1" d="M19.58,2.19c-.23-.86-.91-1.54-1.77-1.77-1.56-.42-7.81-.42-7.81-.42,0,0-6.25,0-7.81.42-.86.23-1.54.91-1.77,1.77-.42,1.56-.42,4.81-.42,4.81,0,0,0,3.25.42,4.81.23.86.91,1.54,1.77,1.77,1.56.42,7.81.42,7.81.42,0,0,6.25,0,7.81-.42.86-.23,1.54-.91,1.77-1.77.42-1.56.42-4.81.42-4.81,0,0,0-3.25-.42-4.81ZM7.95,9.95v-5.91l5.23,2.95-5.23,2.95Z"/>
  </g>
</svg>